<svg id="acronis_logo" xmlns="http://www.w3.org/2000/svg" xmlns:xlink="http://www.w3.org/1999/xlink" width="187.319" height="40" viewBox="0 0 187.319 40">
  <defs>
    <clipPath id="clip-path">
      <rect id="Rectangle_31922" data-name="Rectangle 31922" width="187.319" height="40" fill="none"/>
    </clipPath>
  </defs>
  <g id="Group_97076" data-name="Group 97076" clip-path="url(#clip-path)">
    <path id="Path_90511" data-name="Path 90511" d="M97.347,26.643a7.441,7.441,0,0,1,7.54,5.386h5.777c-1.42-6.414-6.512-10.428-13.317-10.428C89.22,21.6,83.1,27.916,83.1,36.19A13.964,13.964,0,0,0,97.347,50.584a13.259,13.259,0,0,0,13.317-10.428h-5.777a7.706,7.706,0,0,1-7.54,5.386c-5.337,0-8.666-3.819-8.666-9.3.049-5.532,3.329-9.6,8.666-9.6" transform="translate(-42.415 -11.025)" fill="#fff"/>
    <path id="Path_90512" data-name="Path 90512" d="M155.286,24.427h-.245l-.294-2.742H149.9v28.69h5.386V32.212c0-3.819,2.938-5.924,6.805-5.924a5.663,5.663,0,0,1,1.028.049V21.1a4.148,4.148,0,0,0-1.028-.1,8.822,8.822,0,0,0-6.805,3.427" transform="translate(-76.51 -10.718)" fill="#fff"/>
    <path id="Path_90513" data-name="Path 90513" d="M263.994,21a12.155,12.155,0,0,0-9.009,3.427h-.245l-.294-2.742H249.6v28.69h5.386V32.31c0-4.015,3.623-6.12,8.078-6.12,3.819,0,6.561,1.909,6.561,5.875V50.376h5.386V31.722C274.961,23.791,269.38,21,263.994,21" transform="translate(-127.397 -10.718)" fill="#fff"/>
    <rect id="Rectangle_31921" data-name="Rectangle 31921" width="5.386" height="28.69" transform="translate(154.517 10.967)" fill="#fff"/>
    <path id="Path_90514" data-name="Path 90514" d="M194.294,21.6A14.137,14.137,0,0,0,179.9,36.092a14.394,14.394,0,1,0,28.788,0A14.137,14.137,0,0,0,194.294,21.6m0,23.794c-5.337,0-8.764-3.917-8.764-9.3s3.427-9.4,8.764-9.4,8.764,4.015,8.764,9.4-3.427,9.3-8.764,9.3" transform="translate(-91.822 -11.025)" fill="#fff"/>
    <path id="Path_90515" data-name="Path 90515" d="M350.087,33.3c-5.337-1.175-5.092-2.5-5.092-3.672,0-1.42,1.567-3.182,4.162-3.182,2.154,0,4.455,1.077,4.455,4.7h5.19c.2-5.875-3.672-9.449-9.645-9.449-5.288,0-9.547,3.672-9.547,8.176,0,5.679,4.5,7.442,9.4,8.519,5.19,1.126,5.63,2.742,5.63,3.868,0,2.154-2.2,4.015-5.288,4.015a5.36,5.36,0,0,1-5.581-5.532h-5.19c-.343,6.561,4.406,10.33,10.771,10.33,6.022,0,10.771-3.868,10.771-9.009-.049-5.875-5.19-7.736-10.037-8.764" transform="translate(-172.805 -11.076)" fill="#fff"/>
    <path id="Path_90516" data-name="Path 90516" d="M17.87,0,0,39.657H5.728L9.2,31.677H31.432l3.476,7.98h5.679L22.815,0Zm2.35,6.756h.245l.294.734L25.8,19.045H14.884L19.927,7.491ZM11.212,27.173l1.665-3.721H27.76l1.665,3.721Z" fill="#fff"/>
  </g>
</svg>
