<svg xmlns="http://www.w3.org/2000/svg" xmlns:xlink="http://www.w3.org/1999/xlink" width="130.189" height="23.992" viewBox="0 0 130.189 23.992">
  <defs>
    <clipPath id="clip-path">
      <rect id="Rectangle_31933" data-name="Rectangle 31933" width="130.189" height="23.992" fill="none"/>
    </clipPath>
  </defs>
  <g id="apiculus_logo" transform="translate(0 0)">
    <g id="Group_97088" data-name="Group 97088" transform="translate(0 0)" clip-path="url(#clip-path)">
      <path id="Path_90544" data-name="Path 90544" d="M18.06,8.287c-1.892,0-3.284,1.305-4.935,3.267L.526,25.618A2.648,2.648,0,0,0,0,26.511H5.406L16.529,14.448V26.511h4.825V8.287Z" transform="translate(0 -2.52)" fill="#183f7c"/>
      <path id="Path_90545" data-name="Path 90545" d="M42.974,8.3H34.688V26.514h4.671V20.345h3.616c3.772,0,6.3-2.4,6.3-5.964A6,6,0,0,0,42.974,8.3m-.935,8.138H39.359V12.2h2.678c1.683,0,2.572.727,2.572,2.115,0,1.412-.866,2.127-2.573,2.127Z" transform="translate(-10.549 -2.523)" fill="#183f7c"/>
      <rect id="Rectangle_31931" data-name="Rectangle 31931" width="4.896" height="18.229" transform="translate(41.514 5.763)" fill="#183f7c"/>
      <path id="Path_90546" data-name="Path 90546" d="M80.857,22.171a5.045,5.045,0,0,1-5.321-5.2,5.091,5.091,0,0,1,5.321-5.2A5.361,5.361,0,0,1,84.911,13.6l3.456-2.885a10.4,10.4,0,0,0-7.625-3.073c-5.551,0-10.051,3.725-10.051,9.337s4.5,9.335,10.051,9.335a10.374,10.374,0,0,0,7.717-3.2l-3.5-2.834a5.363,5.363,0,0,1-4.1,1.89" transform="translate(-21.498 -2.324)" fill="#183f7c"/>
      <path id="Path_90547" data-name="Path 90547" d="M111.928,19.1c0,2.225-1.444,3.212-3.431,3.212s-3.431-.986-3.431-3.212V8.127h-4.844V19.476c0,4.333,2.2,7.113,7.418,6.982a6.375,6.375,0,0,0,4.639-2.006v1.664h4.49V8.127h-4.841Z" transform="translate(-30.48 -2.471)" fill="#183f7c"/>
      <rect id="Rectangle_31932" data-name="Rectangle 31932" width="4.49" height="23.991" transform="translate(89.073)" fill="#183f7c"/>
      <path id="Path_90548" data-name="Path 90548" d="M150.16,19.1c0,2.225-1.445,3.211-3.431,3.211S143.3,21.321,143.3,19.1V8.12h-4.845V19.473c0,4.333,2.2,7.114,7.418,6.984a6.373,6.373,0,0,0,4.64-2.006v1.663h4.495V8.12h-4.841Z" transform="translate(-42.106 -2.469)" fill="#183f7c"/>
      <path id="Path_90549" data-name="Path 90549" d="M175.093,14.773c-1.7-.543-3.177-.95-3.177-2.072,0-.936.815-1.411,1.937-1.411a8.329,8.329,0,0,1,3.742,1.122c.356.221.044.031.422.258L180.2,9.482c-.228-.157-.285-.18-.5-.312a12.234,12.234,0,0,0-5.821-1.528c-3.959,0-6.779,2.038-6.779,5.5,0,3.742,3.21,4.774,5.9,5.675,1.682.543,2.871.935,2.871,2.056,0,1.053-.849,1.614-2.277,1.614a8.934,8.934,0,0,1-4.706-1.63c-.3-.191-.29-.183-.526-.345l-2.115,3.431a2.583,2.583,0,0,0,.52.415,13.725,13.725,0,0,0,7,1.955c4.282,0,6.984-2.142,6.984-5.794-.012-3.709-3.175-4.934-5.653-5.749" transform="translate(-50.557 -2.324)" fill="#183f7c"/>
    </g>
  </g>
</svg>
