<svg xmlns="http://www.w3.org/2000/svg" xmlns:xlink="http://www.w3.org/1999/xlink" width="1920" height="778.459" viewBox="0 0 1920 778.459"><script xmlns="" id="__gaOptOutExtension"/>
  <defs>
    <clipPath id="clip-path">
      <rect id="Rectangle_31797" data-name="Rectangle 31797" width="1920" height="778.459" transform="translate(1)" fill="#fff"/>
    </clipPath>
    <radialGradient id="radial-gradient" cx="0.197" cy="0.634" r="0.781" gradientUnits="objectBoundingBox">
      <stop offset="0" stop-color="#2aa5dc"/>
      <stop offset="1" stop-color="#d1ebf8"/>
    </radialGradient>
    <clipPath id="clip-path-2">
      <path id="Subtraction_22" data-name="Subtraction 22" d="M6590.5,777.5h-1136V744.293c19.315-4.852,38.758-10.3,57.79-16.186,18.909-5.851,37.913-12.294,56.485-19.152,18.467-6.819,37-14.231,55.091-22.029,18-7.76,36.036-16.11,53.608-24.817,42.149-20.884,115.322-61.715,217.487-121.359,82.094-47.927,183.081-108.1,300.156-178.836,202.979-122.647,387.622-236.8,395.382-241.6V777.5Z" transform="translate(-4670)" fill="#fff" stroke="#707070" stroke-width="1"/>
    </clipPath>
  </defs>
  <g id="blue_splash_updated" transform="translate(-1)" clip-path="url(#clip-path)">
    <path id="Path_90203" data-name="Path 90203" d="M1920,0V120s-726.122,449.254-913.525,542.11C856.746,736.3,688.063,778,509.64,778,328.3,778,157.03,734.93,5.49,658.46q-2.76-1.395-5.49-2.8V0Z" transform="translate(1)" fill="url(#radial-gradient)"/>
    <g id="Mask_Group_54027" data-name="Mask Group 54027" transform="translate(0.5 -0.31)" clip-path="url(#clip-path-2)">
      <path id="Path_90263" data-name="Path 90263" d="M.207,597.345C251.4,735.04,709.335,904.248,1124.4,904.248s827.422-87.2,827.422-87.2" transform="translate(1.179 -150)" fill="none" stroke="rgba(128,242,221,0.4)" stroke-width="1"/>
    </g>
    <path id="splash_outline_green" d="M1728.249,900.182q.983-6.1,1.809-12.25c4.988-37.368,5.656-75.826,3.181-113.21q-.489-7.3-1.124-14.527a683.857,683.857,0,0,0-15.542-96.347q-1.963-8.3-4.131-16.553c-41.737-159.363-138.083-302.583-264.171-407.713a940.286,940.286,0,0,0-106.343-76.542q-16.244-10.082-32.955-19.581-29.754-16.953-60.838-32.012C1136.364,57.22,1012.966,21.464,888.313,7.11q-4.339-.5-8.686-.966C759.816-6.687,639.076.3,526.607,29.72q-6.407,1.671-12.79,3.448Q497.927,37.6,482.4,42.735a676.416,676.416,0,0,0-63.939,24.795q-9.932,4.43-19.685,9.178a685.963,685.963,0,0,0-120.823,75.125A702.681,702.681,0,0,0,193.8,228.872C62.127,370.608-10.948,565.245,1.336,766.794c8.529,139.888,53.805,332.037,201.635,386.637C361.585,1212.012,519,1102.05,666.521,1058.9c141.772-41.467,288.255-44.516,432.015-11.021,154.414,35.971,337.293,151.534,494.774,65.972,43.855-23.835,75.586-58.478,97.728-99.292,18.8-34.637,30.678-73.713,37.212-114.381" transform="matrix(0.914, 0.407, -0.407, 0.914, 593.655, -1284.26)" fill="none" stroke="#f2edfd" stroke-width="1"/>
  </g>
</svg>