<svg id="BT_logo" xmlns="http://www.w3.org/2000/svg" width="54" height="54" viewBox="0 0 54 54">
  <g id="Group_24" data-name="Group 24">
    <path id="Path_2" data-name="Path 2" d="M26.989,3.33a23.7,23.7,0,1,1-23.7,23.7,23.7,23.7,0,0,1,23.7-23.7M27,0A27,27,0,1,0,54,27,27,27,0,0,0,27,0" fill="#6300a9"/>
    <path id="Path_3" data-name="Path 3" d="M254.642,339.648h2.212c1.574,0,2.255.806,2.255,1.806,0,1.082-.779,1.768-2.152,1.768h-2.314Zm0-7.257h2.212c1.574,0,2.255.806,2.255,1.806,0,1.082-.779,1.768-2.152,1.768h-2.314ZM250.5,328.8v18.392h7.484c3.4,0,6.013-2.125,6.013-5.489a4.589,4.589,0,0,0-2.315-4.1,4.412,4.412,0,0,0,1.779-3.656c0-2.931-2.314-5.148-5.727-5.148Z" transform="translate(-236.961 -311.031)" fill="#6300a9"/>
    <path id="Path_5" data-name="Path 5" d="M530.178,345.417V332.185H526.3V328.2h12.066v3.985H534.32v13.232Z" transform="translate(-497.299 -309.892)" fill="#6300a9"/>
  </g>
</svg>
