<svg id="Frauhofer_logo" xmlns="http://www.w3.org/2000/svg" xmlns:xlink="http://www.w3.org/1999/xlink" width="145.671" height="23.999" viewBox="0 0 145.671 23.999">
  <defs>
    <clipPath id="clip-path">
      <rect id="Rectangle_31934" data-name="Rectangle 31934" width="145.671" height="23.999" fill="none"/>
    </clipPath>
  </defs>
  <g id="Group_97090" data-name="Group 97090" transform="translate(0 0)" clip-path="url(#clip-path)">
    <path id="Path_90550" data-name="Path 90550" d="M0,29.048A206.919,206.919,0,0,0,23.619,14.642V12.347A205.269,205.269,0,0,1,0,25.477Z" transform="translate(0 -5.321)" fill="#179c7d"/>
    <path id="Path_90551" data-name="Path 90551" d="M0,20A180.412,180.412,0,0,0,23.619,8.388V7.255A104.345,104.345,0,0,1,0,15.357Z" transform="translate(0 -3.127)" fill="#179c7d"/>
    <path id="Path_90552" data-name="Path 90552" d="M30.013,32.975V21.432c-5.377,4.533-10.7,8.458-15.176,11.543Z" transform="translate(-6.394 -9.237)" fill="#179c7d"/>
    <path id="Path_90553" data-name="Path 90553" d="M7.09,31.214a165.382,165.382,0,0,0,14.539-9.659c1.2-.9,2.421-1.823,3.658-2.779V17.346A201.081,201.081,0,0,1,3.869,31.214Z" transform="translate(-1.667 -7.476)" fill="#179c7d"/>
    <path id="Path_90554" data-name="Path 90554" d="M0,12.019A93.18,93.18,0,0,0,23.619,4.694V3.407A72.03,72.03,0,0,1,0,9.291Z" transform="translate(0 -1.468)" fill="#179c7d"/>
    <path id="Path_90555" data-name="Path 90555" d="M0,0V6.612q.774-.048,1.579-.11a67.386,67.386,0,0,0,22.04-5.114V0Z" transform="translate(0 0)" fill="#179c7d"/>
    <path id="Path_90556" data-name="Path 90556" d="M0,7.663V8.874A72.03,72.03,0,0,0,23.619,2.99V2.439A67.383,67.383,0,0,1,1.579,7.553Q.773,7.616,0,7.663" transform="translate(0 -1.051)" fill="#fff"/>
    <path id="Path_90557" data-name="Path 90557" d="M0,14.673a104.345,104.345,0,0,0,23.619-8.1v-.9A93.2,93.2,0,0,1,0,12.994Z" transform="translate(0 -2.443)" fill="#fff"/>
    <path id="Path_90558" data-name="Path 90558" d="M0,24.141a205.27,205.27,0,0,0,23.619-13.13V9.246A180.412,180.412,0,0,1,0,20.859Z" transform="translate(0 -3.985)" fill="#fff"/>
    <path id="Path_90559" data-name="Path 90559" d="M9.53,32.3h3.02c4.473-3.084,9.8-7.01,15.176-11.543V19.86c-1.236.956-2.459,1.881-3.658,2.779A165.382,165.382,0,0,1,9.53,32.3" transform="translate(-4.107 -8.559)" fill="#fff"/>
    <path id="Path_90560" data-name="Path 90560" d="M0,30.8H2.2A200.932,200.932,0,0,0,23.619,16.93v-.55A206.835,206.835,0,0,1,0,30.786Z" transform="translate(0 -7.059)" fill="#fff"/>
    <path id="Path_90561" data-name="Path 90561" d="M162.718,28.61h3.037V24.323c0-1.677,0-4.762,2.47-4.762a3.09,3.09,0,0,1,1.363.25V16.75a3.322,3.322,0,0,0-.93-.091,3.577,3.577,0,0,0-3.2,2.924h-.047V16.933h-2.7V28.61Zm-3.039-3.129a7.89,7.89,0,0,1-3.878,1.18,3.056,3.056,0,0,1-3.333-2.95h8.071c0-4.081-1.222-7.051-5.555-7.051-3.625,0-5.417,2.788-5.417,6.167,0,3.834,2.243,6.055,6.1,6.055a8.012,8.012,0,0,0,4.013-.93v-2.47Zm-7.212-3.856a2.647,2.647,0,0,1,2.7-2.743c1.7,0,2.383,1.27,2.472,2.743Zm-9.7,6.985H145.8V19.153h2.652V16.932H145.8V15.48c0-.906.319-1.792,1.34-1.792a2.332,2.332,0,0,1,1.312.41l.251-2.517a10.7,10.7,0,0,0-2.221-.25c-2.4,0-3.719,1.633-3.719,3.968v1.633H140.52v2.221h2.244ZM130.68,22.486c0-1.746.951-3.469,2.925-3.469,2,0,2.946,1.679,2.946,3.469,0,1.951-.61,4.037-2.946,4.037-2.315,0-2.925-2.11-2.925-4.037m-3.176.365a6.112,6.112,0,0,0,12.222,0,6.112,6.112,0,1,0-12.222,0M114.853,28.61h3.04V22.894c0-1.5.476-3.877,2.676-3.877,1.949,0,1.971,1.928,1.971,3.356V28.61h3.036V21.239c0-2.63-1.2-4.58-3.966-4.58a4.337,4.337,0,0,0-3.67,1.86h-.048V11.6h-3.04ZM101,28.61h3.036V22.894c0-1.5.478-3.877,2.676-3.877,1.949,0,1.972,1.928,1.972,3.356V28.61h3.041V21.239c0-2.63-1.2-4.58-3.969-4.58a4.362,4.362,0,0,0-3.832,1.86h-.048V16.932H101ZM97.871,16.933h-3.04v5.714c0,1.495-.476,3.876-2.675,3.876-1.95,0-1.973-1.928-1.973-3.357V16.933H87.145V24.3c0,2.629,1.2,4.58,3.968,4.58a4.864,4.864,0,0,0,3.831-1.86h.046V28.61h2.88V16.933Zm-20.725,8.3c0-1.792,2.018-2.019,3.379-2.019H81.84a3.871,3.871,0,0,1-.636,2.4,2.585,2.585,0,0,1-2.13,1.044c-1.088,0-1.928-.433-1.928-1.429M75.6,20.152a6.1,6.1,0,0,1,3.605-1.27c1.79,0,2.629.634,2.629,2.517H80.161a9.235,9.235,0,0,0-3.922.679,3.432,3.432,0,0,0-1.994,3.335c0,2.22,2.017,3.468,4.08,3.468a4.167,4.167,0,0,0,3.6-2.017h.046a14.82,14.82,0,0,0,.136,1.746h2.675c-.068-.909-.113-1.726-.137-2.61-.022-.861-.045-1.745-.045-2.925v-1.5c0-3.447-1.474-4.92-5.033-4.92a10.468,10.468,0,0,0-4.059.885ZM66.468,28.61h3.038V24.323c0-1.677,0-4.762,2.471-4.762a3.086,3.086,0,0,1,1.362.25V16.75a3.3,3.3,0,0,0-.93-.091,3.579,3.579,0,0,0-3.2,2.924h-.046V16.933h-2.7Zm-10.974,0h3.175V21.67H64.02V19.176H58.669v-3.9h5.623V12.783h-8.8Z" transform="translate(-23.916 -4.883)"/>
  </g>
</svg>
