<svg xmlns="http://www.w3.org/2000/svg" id="Layer_1" viewBox="0 0 875.71 163.43"><defs><style>.cls-1{fill:#121212;}</style></defs><path class="cls-1" d="M620.99,21.86v119.79h240.16V21.86h-240.16ZM689.99,112.97c-5.65,4.79-13.21,6.8-20.49,6.8-9.1,0-18-3.06-25.37-8.23l8.04-15.13c4.69,4.12,10.25,7.47,16.66,7.47,4.4,0,9.1-2.2,9.1-7.28s-7.37-7.09-11.39-8.23c-11.78-3.35-19.53-6.42-19.53-20.4s10.44-24.23,24.9-24.23c7.28,0,16.18,2.3,22.6,5.94l-7.47,14.55c-3.45-2.87-7.85-4.79-12.45-4.79-3.45,0-8.04,2.01-8.04,6.03s5.08,5.84,8.33,6.89l4.79,1.44c10.05,2.97,17.81,8.04,17.81,19.72,0,7.18-1.72,14.55-7.47,19.44ZM737.77,117.85h-26.62V45.66h26.62c20.11,0,36.67,15.8,36.67,36.1s-16.66,36.1-36.67,36.1ZM830.55,112.97c-5.65,4.79-13.21,6.8-20.49,6.8-9.1,0-18-3.06-25.37-8.23l8.04-15.13c4.69,4.12,10.25,7.47,16.66,7.47,4.4,0,9.1-2.2,9.1-7.28s-7.37-7.09-11.39-8.23c-11.78-3.35-19.53-6.42-19.53-20.4s10.44-24.23,24.9-24.23c7.28,0,16.18,2.3,22.6,5.94l-7.47,14.55c-3.45-2.87-7.85-4.79-12.45-4.79-3.45,0-8.04,2.01-8.04,6.03s5.08,5.84,8.33,6.89l4.79,1.44c10.05,2.97,17.81,8.04,17.81,19.72,0,7.18-1.72,14.55-7.47,19.44Z"></path><path class="cls-1" d="M734.32,61.55h-4.4v40.41h4.21c11.2,0,20.78-6.13,20.78-20.2,0-12.93-8.52-20.2-20.59-20.2Z"></path><path class="cls-1" d="M14.72,21.85h23.81v102.54h51.36v19.27H14.72V21.85Z"></path><path class="cls-1" d="M114.23,21.85h23.81v121.81h-23.81V21.85Z"></path><path class="cls-1" d="M172.25,21.85h31.55l51.08,91.19h.38V21.85h23.81v121.81h-30.23l-52.41-94.11h-.38v94.11h-23.81V21.85Z"></path><path class="cls-1" d="M312.02,21.85h49.38c5.04,0,10.01.55,14.93,1.63,4.91,1.09,9.29,2.87,13.13,5.33,3.84,2.47,6.96,5.65,9.35,9.55,2.39,3.9,3.59,8.6,3.59,14.11,0,6.88-2.14,12.56-6.42,17.03-4.28,4.47-9.89,7.69-16.82,9.63v.34c8.44,1.03,15.37,4.02,20.78,8.95,5.41,4.93,8.12,11.53,8.12,19.79,0,6.65-1.45,12.24-4.35,16.77-2.9,4.53-6.71,8.17-11.43,10.92-4.72,2.75-10.14,4.73-16.25,5.94-6.11,1.2-12.31,1.81-18.61,1.81h-45.41V21.85ZM335.83,71.4h18.39c7.94,0,13.98-1.43,18.14-4.3,4.16-2.87,6.24-6.94,6.24-12.22s-2.14-9.4-6.42-11.7c-4.28-2.29-10.96-3.44-20.03-3.44h-16.31v31.66ZM335.83,125.42h18.58c3.02,0,6.3-.2,9.82-.6,3.53-.4,6.77-1.23,9.73-2.49,2.96-1.26,5.41-3.1,7.37-5.51,1.95-2.41,2.93-5.62,2.93-9.63,0-6.42-2.39-10.9-7.18-13.42-4.79-2.52-12.03-3.79-21.73-3.79h-19.53v35.44Z"></path><path class="cls-1" d="M437.32,21.85h23.81v121.81h-23.81V21.85Z"></path><path class="cls-1" d="M517.57,40.78h-33.16v-18.93h90.88v18.93h-33.91v102.88h-23.81V40.78Z"></path></svg>