<svg id="monitoring_icon" xmlns="http://www.w3.org/2000/svg" xmlns:xlink="http://www.w3.org/1999/xlink" width="48" height="48" viewBox="0 0 48 48">
  <defs>
    <clipPath id="clip-path">
      <rect id="Rectangle_31941" data-name="Rectangle 31941" width="48" height="48" fill="none"/>
    </clipPath>
    <linearGradient id="linear-gradient" x1="0.642" y1="0.154" x2="0" y2="0.929" gradientUnits="objectBoundingBox">
      <stop offset="0" stop-color="#2aa5dc"/>
      <stop offset="1" stop-color="#d1ebf8" stop-opacity="0.4"/>
    </linearGradient>
  </defs>
  <g id="Group_97102" data-name="Group 97102" clip-path="url(#clip-path)">
    <g id="Group_97101" data-name="Group 97101">
      <g id="Group_97100" data-name="Group 97100" clip-path="url(#clip-path)">
        <g id="Group_97099" data-name="Group 97099" opacity="0">
          <g id="Group_97098" data-name="Group 97098">
            <g id="Group_97097" data-name="Group 97097" clip-path="url(#clip-path)">
              <rect id="Rectangle_31938" data-name="Rectangle 31938" width="48" height="48" fill="#fff"/>
            </g>
          </g>
        </g>
        <path id="Path_90565" data-name="Path 90565" d="M30,37H4a3,3,0,0,1-3-3V16.757a5,5,0,0,1,5-5H17.175" fill="none" stroke="#082330" stroke-linecap="round" stroke-width="2"/>
        <path id="Path_90566" data-name="Path 90566" d="M1,6.754V4A3,3,0,0,1,4,1H40a3,3,0,0,1,3,3V14.239" fill="none" stroke="#082330" stroke-linecap="round" stroke-width="2"/>
        <path id="Path_90567" data-name="Path 90567" d="M6.254,7.754a1.5,1.5,0,1,1,1.5-1.5" fill="none" stroke="#082330" stroke-linecap="round" stroke-width="2"/>
        <path id="Path_90568" data-name="Path 90568" d="M12.254,7.754a1.5,1.5,0,1,1,1.5-1.5" fill="none" stroke="#082330" stroke-linecap="round" stroke-width="2"/>
        <line id="Line_6058" data-name="Line 6058" x1="11.56" y2="8.103" transform="translate(1.859 27.997)" fill="none" stroke="#082330" stroke-linecap="round" stroke-width="2"/>
        <path id="Path_90569" data-name="Path 90569" d="M16.044,30.594,14.33,28.158A.632.632,0,0,0,13.419,28" fill="none" stroke="#082330" stroke-linecap="round" stroke-width="2"/>
        <path id="Path_90570" data-name="Path 90570" d="M46.963,20.4V11.383l-8.24,5.939" fill="none" stroke="#082330" stroke-linecap="round" stroke-width="2"/>
        <path id="Path_90571" data-name="Path 90571" d="M46.707,45.293l-7.549-7.549a12.016,12.016,0,1,0-1.414,1.414l7.549,7.549a1,1,0,0,0,1.414-1.414m-22.9-20.364a1,1,0,1,1-1.546-1.268A9.964,9.964,0,0,1,30,20a1,1,0,0,1,0,2,7.975,7.975,0,0,0-6.187,2.929" fill="url(#linear-gradient)"/>
      </g>
    </g>
  </g>
</svg>
