<svg xmlns="http://www.w3.org/2000/svg" xmlns:xlink="http://www.w3.org/1999/xlink" width="99.96" height="44.002" viewBox="0 0 99.96 44.002">
  <defs>
    <clipPath id="clip-path">
      <rect id="Rectangle_24792" data-name="Rectangle 24792" width="99.96" height="44.002" fill="none"/>
    </clipPath>
  </defs>
  <g id="net_app__solidfire_logo" transform="translate(0 0)">
    <g id="Group_81735" data-name="Group 81735" transform="translate(0 0)" clip-path="url(#clip-path)">
      <path id="Path_81265" data-name="Path 81265" d="M70.045,8.579l1.937-4.731,1.935,4.731ZM64.5,14.673h3.266l1.332-3.27H74.87l1.341,3.27h3.339L73.462,0H70.581Zm37.4-5.559a2.739,2.739,0,1,1-5.434,0v-.04a2.738,2.738,0,1,1,5.434,0v.04M93.342,18h3.163V13.217a4.289,4.289,0,0,0,3.478,1.664c2.641,0,5.076-2.039,5.076-5.767v-.04c0-3.725-2.476-5.764-5.076-5.764A4.1,4.1,0,0,0,96.505,5.12v-1.6H93.342ZM88.889,9.115a2.736,2.736,0,1,1-5.429,0v-.04a2.736,2.736,0,1,1,5.429,0v.04M80.342,18H83.5V13.217a4.29,4.29,0,0,0,3.475,1.664c2.646,0,5.08-2.039,5.08-5.767v-.04c0-3.725-2.476-5.764-5.08-5.764A4.1,4.1,0,0,0,83.5,5.12v-1.6h-3.16Zm-22.4-6.495c0,2.581,1.311,3.351,3.243,3.351a4.673,4.673,0,0,0,2.5-.646V11.673a3.18,3.18,0,0,1-1.563.4c-.7,0-1.019-.357-1.019-1.085V6.223h2.624v-2.7H61.1V.667H57.941V3.519H56.61v2.7h1.331v5.285M48.12,8.221a2.489,2.489,0,0,1,2.418-2.373,2.391,2.391,0,0,1,2.349,2.373Zm-3.1.937A5.889,5.889,0,0,0,55.4,12.841l-1.808-1.6a3.651,3.651,0,0,1-2.7,1.147A2.586,2.586,0,0,1,48.164,10.2h7.761c.024-.29.042-.585.042-.83,0-3.165-1.706-6.057-5.429-6.057a5.554,5.554,0,0,0-5.518,5.8v.043M30.535,0h2.958l6.825,9.072V0h3.163V14.673H40.756L33.7,5.41v9.263H30.535Z" transform="translate(-5.099 -0.001)"/>
      <path id="Path_90687" data-name="Path 90687" d="M0,0V14.674H6.849v-8.8h3.913v8.8H17.61V0Z" transform="translate(0 0)"/>
      <path id="Path_90688" data-name="Path 90688" d="M11.362-13.078h-3.9V-14.69q0-1.4-1.612-1.4-1.378,0-1.378,1.248v.7a2.306,2.306,0,0,0,.026.351,2.226,2.226,0,0,0,.065.3.778.778,0,0,0,.143.26,1.809,1.809,0,0,1,.156.221.963.963,0,0,0,.234.234q.182.143.273.208t.364.221q.273.156.4.221t.468.247q.338.182.52.286,1.17.624,1.781,1a9.752,9.752,0,0,1,1.339,1.027A3.635,3.635,0,0,1,11.271-8.1a5.565,5.565,0,0,1,.3,1.911v1.3a4.811,4.811,0,0,1-1.508,3.835A5.8,5.8,0,0,1,6.11.26a6.218,6.218,0,0,1-4.1-1.3A4.611,4.611,0,0,1,.442-4.81V-6.422H4.316V-4.94q0,1.534,1.82,1.534,1.534,0,1.534-1.3v-.936a2.213,2.213,0,0,0-.1-.7,2.592,2.592,0,0,0-.221-.507,1.7,1.7,0,0,0-.455-.442Q6.552-7.54,6.4-7.631t-.7-.364L4.94-8.372q-1.3-.7-1.911-1.079a8.171,8.171,0,0,1-1.287-1.014,3.333,3.333,0,0,1-.923-1.4A6.013,6.013,0,0,1,.572-13.7v-.936a4.863,4.863,0,0,1,1.482-3.744,5.5,5.5,0,0,1,3.9-1.378,5.525,5.525,0,0,1,3.939,1.378,4.789,4.789,0,0,1,1.469,3.666Zm8.06-6.682a5.619,5.619,0,0,1,4.056,1.5,5.238,5.238,0,0,1,1.56,3.965v9.1a5.238,5.238,0,0,1-1.56,3.965A5.619,5.619,0,0,1,19.422.26a5.608,5.608,0,0,1-4.069-1.5A5.261,5.261,0,0,1,13.806-5.2v-9.1a5.261,5.261,0,0,1,1.547-3.965A5.608,5.608,0,0,1,19.422-19.76Zm1.69,5.46a1.849,1.849,0,0,0-.468-1.326,1.606,1.606,0,0,0-1.222-.494,1.627,1.627,0,0,0-1.235.507,1.83,1.83,0,0,0-.481,1.313v9.1a1.83,1.83,0,0,0,.481,1.313,1.627,1.627,0,0,0,1.235.507,1.606,1.606,0,0,0,1.222-.494A1.849,1.849,0,0,0,21.112-5.2Zm10.27-5.2V-3.64h5.07V0h-8.97V-19.5Zm11.336,0V0h-3.9V-19.5Zm7.956,0A5.619,5.619,0,0,1,54.73-18a5.238,5.238,0,0,1,1.56,3.965v8.58A5.238,5.238,0,0,1,54.73-1.5,5.619,5.619,0,0,1,50.674,0H45.292V-19.5Zm1.69,5.46a1.849,1.849,0,0,0-.468-1.326,1.606,1.606,0,0,0-1.222-.494H49.192V-3.64h1.482A1.606,1.606,0,0,0,51.9-4.134a1.849,1.849,0,0,0,.468-1.326ZM62.634,0h-3.9V-19.5h8.892v3.64H62.634v4.81h4.342v3.64H62.634ZM73.788-19.5V0h-3.9V-19.5ZM83.668,0,81.874-6.708H80.262V0h-3.9V-19.5h5.512q5.538,0,5.538,5.46v1.872A5.134,5.134,0,0,1,85.54-7.774L87.854,0ZM80.262-15.86v5.512h1.69q1.534,0,1.534-1.794v-1.924q0-1.794-1.534-1.794ZM93.886-3.64h5.252V0H89.986V-19.5h9.126v3.64H93.886v3.978h4.29v3.64h-4.29Z" transform="translate(-0.02 43.002)"/>
    </g>
  </g>
</svg>
