<svg id="networking_icon" xmlns="http://www.w3.org/2000/svg" xmlns:xlink="http://www.w3.org/1999/xlink" width="48.214" height="48" viewBox="0 0 48.214 48">
  <defs>
    <clipPath id="clip-path">
      <rect id="Rectangle_31952" data-name="Rectangle 31952" width="48.214" height="48" fill="none"/>
    </clipPath>
    <clipPath id="clip-path-3">
      <rect id="Rectangle_31950" data-name="Rectangle 31950" width="48" height="48" fill="none"/>
    </clipPath>
    <linearGradient id="linear-gradient" x1="0.779" y1="0.11" x2="0.07" y2="1.096" gradientUnits="objectBoundingBox">
      <stop offset="0" stop-color="#2aa5dc"/>
      <stop offset="1" stop-color="#d1ebf8" stop-opacity="0.4"/>
    </linearGradient>
  </defs>
  <g id="Group_97122" data-name="Group 97122" clip-path="url(#clip-path)">
    <g id="Group_97121" data-name="Group 97121">
      <g id="Group_97120" data-name="Group 97120" clip-path="url(#clip-path)">
        <g id="Group_97119" data-name="Group 97119" opacity="0">
          <g id="Group_97118" data-name="Group 97118">
            <g id="Group_97117" data-name="Group 97117" clip-path="url(#clip-path-3)">
              <rect id="Rectangle_31949" data-name="Rectangle 31949" width="48" height="48"/>
            </g>
          </g>
        </g>
        <path id="Path_90585" data-name="Path 90585" d="M9.684,7.786h5.534a33.437,33.437,0,0,1,.234,4,33.412,33.412,0,0,1-.234,4H9.684a33.411,33.411,0,0,1-.232-4,33.435,33.435,0,0,1,.232-4M10.212,0A12,12,0,0,0,2.054,5.788l5.926,0A13.178,13.178,0,0,1,10.212,0M14.9,5.786c-.662-3.263-1.767-5-2.446-5s-1.786,1.737-2.448,5Zm5.019,0a3.487,3.487,0,0,1,1.477-1.959,12,12,0,0,0-6.7-3.821,13.194,13.194,0,0,1,2.234,5.78ZM14.694,23.567a12,12,0,0,0,8.123-5.781H16.928a13.205,13.205,0,0,1-2.234,5.781M1.5,13.252a3.49,3.49,0,0,1,3.349,2.534h2.83a35.2,35.2,0,0,1,0-8H1.135A11.8,11.8,0,0,0,.559,13.4a3.483,3.483,0,0,1,.941-.144M10,17.786c.662,3.263,1.768,5,2.448,5s1.784-1.737,2.446-5Zm13.252-7.5a3.488,3.488,0,0,1-3.336-2.5H17.228a35.416,35.416,0,0,1,.229,4,35.4,35.4,0,0,1-.229,4h6.508A11.819,11.819,0,0,0,24.3,10.1a3.462,3.462,0,0,1-1.047.177m-18.429,7.5A3.5,3.5,0,0,1,3.42,19.675a11.989,11.989,0,0,0,6.792,3.9,13.159,13.159,0,0,1-2.237-5.786ZM1.5,18.252a1.5,1.5,0,1,0-1.5-1.5,1.5,1.5,0,0,0,1.5,1.5M23.256,8.281a1.5,1.5,0,1,0-1.5-1.5,1.5,1.5,0,0,0,1.5,1.5" transform="translate(12.239 14)" fill="url(#linear-gradient)"/>
        <path id="Path_90578" data-name="Path 90578" d="M20.819,4.8a3.8,3.8,0,1,1,3.8,3.8A3.8,3.8,0,0,1,20.819,4.8Z" fill="none" stroke="#082330" stroke-width="2"/>
        <path id="Path_90579" data-name="Path 90579" d="M43.416,33.016v-15.4a4.342,4.342,0,0,0-2.172-3.76L28.118,6.276" fill="none" stroke="#082330" stroke-linecap="round" stroke-linejoin="round" stroke-width="2"/>
        <path id="Path_90580" data-name="Path 90580" d="M9.106,38.713l13.34,7.7a4.34,4.34,0,0,0,4.342,0L35,41.674" fill="none" stroke="#082330" stroke-linecap="round" stroke-linejoin="round" stroke-width="2"/>
        <path id="Path_90581" data-name="Path 90581" d="M20.819,6.449,7.99,13.856a4.339,4.339,0,0,0-2.17,3.759v15.4" fill="none" stroke="#082330" stroke-linecap="round" stroke-linejoin="round" stroke-width="2"/>
        <path id="Path_90582" data-name="Path 90582" d="M2.021,36.815a3.8,3.8,0,1,0,3.8-3.8A3.8,3.8,0,0,0,2.021,36.815Z" fill="none" stroke="#082330" stroke-linecap="round" stroke-linejoin="round" stroke-width="2"/>
        <path id="Path_90583" data-name="Path 90583" d="M43.416,40.614a3.8,3.8,0,1,1,3.8-3.8" fill="none" stroke="#082330" stroke-linecap="round" stroke-linejoin="round" stroke-width="2"/>
      </g>
    </g>
  </g>
</svg>
