<svg id="puppet_logo" xmlns="http://www.w3.org/2000/svg" xmlns:xlink="http://www.w3.org/1999/xlink" width="217.3" height="76.8" viewBox="0 0 217.3 76.8">
  <defs>
    <clipPath id="clip-path">
      <rect id="Rectangle_31915" data-name="Rectangle 31915" width="217.3" height="76.8" fill="none"/>
    </clipPath>
  </defs>
  <g id="Group_97067" data-name="Group 97067" clip-path="url(#clip-path)">
    <path id="Path_90502" data-name="Path 90502" d="M57.7,76.8H50.2a.1.1,0,0,1-.1-.1V38.5a.1.1,0,0,1,.1-.1h7.5a.1.1,0,0,1,.1.1v2.2a9.7,9.7,0,0,1,7-2.9c8.2,0,12.8,6.8,12.8,14.7S73,67.1,64.8,67.1A10.1,10.1,0,0,1,58,64.4c-.1-.1-.2,0-.2.1V76.7ZM57.8,57a5.9,5.9,0,0,0,5.3,3.3c4.2,0,6.7-3.4,6.7-7.8,0-4.5-2.5-7.9-6.7-7.9a6.186,6.186,0,0,0-5.3,3.2V57Z" fill="#222"/>
    <path id="Path_90503" data-name="Path 90503" d="M105.8,66.4H98.3a.1.1,0,0,1-.1-.1V64.2c0-.1-.2-.2-.2-.1A10.406,10.406,0,0,1,90.7,67c-6.3,0-9.9-4.1-9.9-10.4V38.5a.1.1,0,0,1,.1-.1h7.5a.1.1,0,0,1,.1.1V55.1c0,2.9,1.4,5,4.5,5a4.931,4.931,0,0,0,5-3.9V38.5a.1.1,0,0,1,.1-.1h7.6a.1.1,0,0,1,.1.1V66.3c.1,0,.1.1,0,.1" fill="#222"/>
    <path id="Path_90504" data-name="Path 90504" d="M118.8,76.8h-7.5a.1.1,0,0,1-.1-.1V38.5a.1.1,0,0,1,.1-.1h7.5a.1.1,0,0,1,.1.1v2.2a9.7,9.7,0,0,1,7-2.9c8.2,0,12.8,6.8,12.8,14.7s-4.6,14.6-12.8,14.6a10.1,10.1,0,0,1-6.8-2.7c-.1-.1-.2,0-.2.1V76.7Zm.1-19.8a5.9,5.9,0,0,0,5.3,3.3c4.2,0,6.7-3.4,6.7-7.8,0-4.5-2.5-7.9-6.7-7.9a6.186,6.186,0,0,0-5.3,3.2V57Z" fill="#222"/>
    <path id="Path_90505" data-name="Path 90505" d="M149.8,76.8h-7.5a.1.1,0,0,1-.1-.1V38.5a.1.1,0,0,1,.1-.1h7.5a.1.1,0,0,1,.1.1v2.2a9.7,9.7,0,0,1,7-2.9c8.2,0,12.8,6.8,12.8,14.7s-4.6,14.6-12.8,14.6a10.1,10.1,0,0,1-6.8-2.7c-.1-.1-.2,0-.2.1V76.7c.1,0,0,.1-.1.1M150,57a5.9,5.9,0,0,0,5.3,3.3c4.2,0,6.7-3.4,6.7-7.8,0-4.5-2.5-7.9-6.7-7.9a6.186,6.186,0,0,0-5.3,3.2V57Z" fill="#222"/>
    <path id="Path_90506" data-name="Path 90506" d="M197.6,57.2c.1,0,.2.1.1.2-1.1,5.9-5.4,9.6-12.4,9.6-8.2,0-13.6-6-13.6-14.6,0-7.4,4.3-13,10.5-14.4,8.1-1.7,15.7,4.8,15.7,13.1v2.7a.1.1,0,0,1-.1.1H179.4c-.1,0-.2.1-.1.2.3,4.1,2.7,6.6,6.1,6.6,2.6,0,4.5-1.1,5.2-3.4a.1.1,0,0,1,.1-.1Zm-18-7.9h10.5c.1,0,.2-.1.1-.2-.1-2.9-1.9-5.1-5-5.1-3,0-5.1,1.8-5.8,5.1.1.1.1.2.2.2" fill="#222"/>
    <path id="Path_90507" data-name="Path 90507" d="M203,44.6h-4a.1.1,0,0,1-.1-.1v-6a.1.1,0,0,1,.1-.1h4a.1.1,0,0,0,.1-.1V31a.1.1,0,0,1,.1-.1h7.4a.1.1,0,0,1,.1.1v7.2a.1.1,0,0,0,.1.1h5.9a.1.1,0,0,1,.1.1v6a.1.1,0,0,1-.1.1h-5.9a.1.1,0,0,0-.1.1V56.8a2.855,2.855,0,0,0,3.2,3.2,6.9,6.9,0,0,0,3.2-.8c.1-.1.2,0,.2.1v6.6c0,.1,0,.1-.1.1a12.8,12.8,0,0,1-4.9.8c-5.7,0-9.3-2.8-9.3-9v-13a.139.139,0,0,0,0-.2" fill="#222"/>
    <path id="Path_90508" data-name="Path 90508" d="M38.3,38.2V20.8a.1.1,0,0,0-.1-.1H24.8l-7.2-7.2V.1a.1.1,0,0,0-.1-.1H.1A.1.1,0,0,0,0,.1V17.5a.1.1,0,0,0,.1.1H13.5l7.2,7.2v9.4l-7.2,7.2H.1a.1.1,0,0,0-.1.1V58.9a.1.1,0,0,0,.1.1H17.5a.1.1,0,0,0,.1-.1V45.5l7.2-7.2H38.2a.1.1,0,0,0,.1-.1M6,5.8h5.6a.1.1,0,0,1,.1.1v5.6a.1.1,0,0,1-.1.1H6a.1.1,0,0,1-.1-.1V5.9c-.1,0,0-.1.1-.1m5.5,47.4H5.9a.1.1,0,0,1-.1-.1V47.5a.1.1,0,0,1,.1-.1h5.6a.1.1,0,0,1,.1.1v5.6c.1,0,0,.1-.1.1" fill="#fff"/>
  </g>
</svg>
