<svg id="scaling_icon" xmlns="http://www.w3.org/2000/svg" xmlns:xlink="http://www.w3.org/1999/xlink" width="48" height="48" viewBox="0 0 48 48">
  <defs>
    <linearGradient id="linear-gradient" x1="0.955" y1="0.1" x2="0.158" y2="1" gradientUnits="objectBoundingBox">
      <stop offset="0" stop-color="#2aa5dc"/>
      <stop offset="1" stop-color="#d1ebf8" stop-opacity="0.039"/>
    </linearGradient>
  </defs>
  <rect id="Rectangle_31752" data-name="Rectangle 31752" width="48" height="48" opacity="0"/>
  <path id="Path_90216" data-name="Path 90216" d="M3.081,13.683V34.317A2,2,0,0,0,4.117,36.07l18.919,10.4a2,2,0,0,0,1.927,0l18.919-10.4a2,2,0,0,0,1.036-1.753V13.683a2,2,0,0,0-1.036-1.753L24.963,1.53a2,2,0,0,0-1.927,0L4.117,11.93A2,2,0,0,0,3.081,13.683Z" fill="none" stroke="#082330" stroke-linecap="round" stroke-linejoin="round" stroke-width="2"/>
  <line id="Line_6045" data-name="Line 6045" x2="3.913" y2="2.151" transform="translate(3.801 12.896)" fill="none" stroke="#082330" stroke-linecap="round" stroke-linejoin="round" stroke-width="2"/>
  <line id="Line_6046" data-name="Line 6046" x1="13.271" y2="7.296" transform="translate(30.794 12.97)" fill="none" stroke="#082330" stroke-linecap="round" stroke-linejoin="round" stroke-width="2"/>
  <line id="Line_6047" data-name="Line 6047" y2="15.112" transform="translate(24 31.259)" fill="none" stroke="#082330" stroke-linecap="round" stroke-linejoin="round" stroke-width="2"/>
  <path id="Path_90217" data-name="Path 90217" d="M11.651,40.211,23.037,46.47a2,2,0,0,0,1.927,0l18.918-10.4a2,2,0,0,0,1.037-1.753V14.683" fill="none" stroke="#082330" stroke-linecap="round" stroke-linejoin="round" stroke-width="2"/>
  <path id="Path_90218" data-name="Path 90218" d="M36.659,7.959,24.964,1.53a2,2,0,0,0-1.927,0L4.118,11.93a2,2,0,0,0-1.036,1.753V33.317" fill="none" stroke="#082330" stroke-linecap="round" stroke-linejoin="round" stroke-width="2"/>
  <path id="Path_90219" data-name="Path 90219" d="M12,29.455V18a1,1,0,0,1,.518-.877L23,11.357l-.037,12.052Zm13-18.1-.037,12.054,4.929,2.7a1,1,0,1,1-.961,1.753l-4.968-2.722L13.037,31.167l10.481,5.762a1,1,0,0,0,.963,0l11-6.047A1,1,0,0,0,36,30.006V18a1,1,0,0,0-.519-.877Z" fill="url(#linear-gradient)"/>
  <rect id="Rectangle_31756" data-name="Rectangle 31756" width="48" height="48" fill="none"/>
</svg>
