<svg id="veeam_logo" xmlns="http://www.w3.org/2000/svg" xmlns:xlink="http://www.w3.org/1999/xlink" width="158" height="47.506" viewBox="0 0 158 47.506">
  <defs>
    <clipPath id="clip-path">
      <rect id="Rectangle_31937" data-name="Rectangle 31937" width="158" height="47.506" fill="none"/>
    </clipPath>
    <clipPath id="clip-path-2">
      <rect id="Rectangle_31936" data-name="Rectangle 31936" width="158" height="47.506" transform="translate(0 0)" fill="none"/>
    </clipPath>
    <clipPath id="clip-path-3">
      <rect id="Rectangle_31935" data-name="Rectangle 31935" width="118.507" height="47.506" transform="translate(0 0)" fill="none"/>
    </clipPath>
  </defs>
  <g id="Group_97096" data-name="Group 97096" clip-path="url(#clip-path)">
    <g id="Group_97095" data-name="Group 97095">
      <g id="Group_97094" data-name="Group 97094" clip-path="url(#clip-path-2)">
        <path id="Path_90562" data-name="Path 90562" d="M13.384,0A5.346,5.346,0,0,0,9.616,1.553L1.554,9.616A5.3,5.3,0,0,0,0,13.384V47.476L144.7,47.4a5.352,5.352,0,0,0,3.768-1.554l7.983-7.984A5.3,5.3,0,0,0,158,34.093V0Z" fill="#00d15f"/>
        <g id="Group_97093" data-name="Group 97093" opacity="0.25" style="mix-blend-mode: normal;isolation: isolate">
          <g id="Group_97092" data-name="Group 97092">
            <g id="Group_97091" data-name="Group 97091" clip-path="url(#clip-path-3)">
              <path id="Path_90563" data-name="Path 90563" d="M0,17.994V47.476H52.9a49.211,49.211,0,0,0,10.67-.764c8.563-1.9,13.674-5.533,20.05-11.909C94.4,24.028,118.507,0,118.507,0h-52.8L29.35,36.226s-2.187,2.635-5.19,2.608C20.893,38.808,19.5,37.28,19.5,37.28L0,17.993Z" fill="#fff"/>
            </g>
          </g>
        </g>
        <path id="Path_90564" data-name="Path 90564" d="M22.131,35.119,11.2,12.3h4.927s7.8,16.309,7.983,17.152h.1C24.4,28.638,32.195,12.3,32.195,12.3h4.98L26.268,35.093H22.13v.026ZM58.305,25.45H40.626A6.833,6.833,0,0,0,47.5,31.484c2.871,0,4.769-1.133,5.743-3.215h4.585a10.5,10.5,0,0,1-10.328,7.3c-6.613,0-11.487-4.821-11.487-11.882,0-7.008,4.768-11.882,11.487-11.882,5.98,0,10.907,5.111,10.907,11.882a9.817,9.817,0,0,1-.1,1.765M40.679,21.763H53.773a6.362,6.362,0,0,0-6.27-5.85,6.787,6.787,0,0,0-6.824,5.85M82.57,25.45H64.89a6.833,6.833,0,0,0,6.877,6.034c2.872,0,4.769-1.133,5.743-3.215h4.558a10.5,10.5,0,0,1-10.328,7.3c-6.612,0-11.486-4.821-11.486-11.882,0-7.008,4.768-11.882,11.486-11.882,5.981,0,10.908,5.111,10.908,11.882a12.845,12.845,0,0,1-.08,1.765ZM64.944,21.763H78.038a6.362,6.362,0,0,0-6.27-5.85,6.75,6.75,0,0,0-6.824,5.85m42.418,1.948V35.093H103.41l-.4-3.557a9.316,9.316,0,0,1-7.588,4.031c-6.244,0-10.96-4.98-10.96-11.882A11.486,11.486,0,0,1,96.007,11.8c5.928.026,11.355,4.294,11.355,11.908m-4.5,0c0-5.005-3.32-7.8-6.877-7.8-3.9,0-7.06,3.109-7.06,7.8,0,4.664,2.924,7.8,7.06,7.8,3.53-.026,6.877-2.925,6.877-7.8m7.509,11.382V21.6c0-5.69,3.662-9.774,9.353-9.774,4.584,0,7.008,3.056,7.35,4.137h.106c.342-1.08,2.766-4.137,7.35-4.137,5.691,0,9.353,4.084,9.353,9.775v13.49H139.4V21.945c0-3.688-1.659-5.954-5.005-5.954-3.373,0-5.006,2.24-5.006,6.033V35.119h-4.479V22.025c0-3.794-1.66-6.033-5.006-6.033s-5.006,2.24-5.006,5.954V35.093Z" fill="#fff"/>
      </g>
    </g>
  </g>
</svg>
