<svg xmlns="http://www.w3.org/2000/svg" xmlns:xlink="http://www.w3.org/1999/xlink" width="144" height="26" viewBox="0 0 144 26">
  <defs>
    <clipPath id="clip-path">
      <rect id="Rectangle_31851" data-name="Rectangle 31851" width="144" height="26" transform="translate(0 -0.169)" fill="none"/>
    </clipPath>
  </defs>
  <g id="yourhosting.nl_logo" transform="translate(0.208 -0.105)">
    <g id="Group_96005" data-name="Group 96005" transform="translate(-0.208 0.274)" clip-path="url(#clip-path)">
      <path id="Path_90342" data-name="Path 90342" d="M23.561,6.352a7.1,7.1,0,0,0-5.2,2.105,6.991,6.991,0,0,0-2.123,5.165,6.991,6.991,0,0,0,2.123,5.162,7.1,7.1,0,0,0,5.2,2.107,7.151,7.151,0,0,0,5.216-2.107,7.308,7.308,0,0,0,0-10.327,7.158,7.158,0,0,0-5.216-2.105m2.691,10a3.817,3.817,0,0,1-5.369,0,3.718,3.718,0,0,1-1.068-2.734,3.718,3.718,0,0,1,1.068-2.734,3.629,3.629,0,0,1,2.678-1.074,3.665,3.665,0,0,1,2.691,1.074,3.974,3.974,0,0,1,0,5.452Z" transform="translate(-2.665 -1.379)" fill="#bc509b"/>
      <path id="Path_90343" data-name="Path 90343" d="M92.194,6.352a7.1,7.1,0,0,0-5.2,2.105,7.01,7.01,0,0,0-2.123,5.165,6.99,6.99,0,0,0,2.123,5.162,7.1,7.1,0,0,0,5.2,2.107,7.351,7.351,0,0,0,5.179-2.129,7.231,7.231,0,0,0,0-10.281,7.351,7.351,0,0,0-5.179-2.129m2.691,10a3.815,3.815,0,0,1-5.369,0,3.713,3.713,0,0,1-1.069-2.734,3.712,3.712,0,0,1,1.069-2.734,3.62,3.62,0,0,1,2.678-1.074,3.683,3.683,0,0,1,3.772,3.807,3.661,3.661,0,0,1-.254,1.478,3.706,3.706,0,0,1-.827,1.256" transform="translate(-14.837 -1.379)" fill="#ff665e"/>
      <path id="Path_90344" data-name="Path 90344" d="M170.834,13.621A7.191,7.191,0,0,0,168.7,8.455a7.3,7.3,0,0,0-5.213-2.1,7.1,7.1,0,0,0-5.2,2.105,7,7,0,0,0-2.123,5.164,6.994,6.994,0,0,0,2.123,5.163,7.1,7.1,0,0,0,5.2,2.107,6.421,6.421,0,0,0,3.855-1.282V20.9a3.212,3.212,0,0,1-.972,2.507,4.419,4.419,0,0,1-6.3-1.047l-3.052,1.735a5.994,5.994,0,0,0,2.622,2.507,8.741,8.741,0,0,0,3.96.855,8,8,0,0,0,5.119-1.68,5.848,5.848,0,0,0,2.122-4.874V13.754a.6.6,0,0,1-.007-.133m-4.663,2.734a3.639,3.639,0,0,1-1.232.813,3.678,3.678,0,0,1-1.457.261,3.62,3.62,0,0,1-2.678-1.074,3.716,3.716,0,0,1-1.069-2.734,3.716,3.716,0,0,1,1.069-2.734,3.62,3.62,0,0,1,2.678-1.074,3.686,3.686,0,0,1,3.772,3.807,3.673,3.673,0,0,1-1.083,2.726Z" transform="translate(-27.481 -1.379)" fill="#ffb357"/>
      <path id="Path_90345" data-name="Path 90345" d="M112.716,12.808a18.868,18.868,0,0,0-2.109-.66,9.851,9.851,0,0,1-1.789-.6q-.737-.342-.735-.9a.946.946,0,0,1,.458-.826,2.049,2.049,0,0,1,1.152-.3,2.288,2.288,0,0,1,2.219,1.4l3.051-1.652a5.555,5.555,0,0,0-2.192-2.173,6.306,6.306,0,0,0-3.079-.757,5.965,5.965,0,0,0-3.76,1.169,3.833,3.833,0,0,0-1.511,3.209,3.411,3.411,0,0,0,.735,2.243,4.329,4.329,0,0,0,1.789,1.313,18.71,18.71,0,0,0,2.109.684,10.733,10.733,0,0,1,1.8.622c.49.229.735.528.735.893q0,1.188-1.915,1.185a2.573,2.573,0,0,1-2.719-1.789l-3.107,1.734q1.549,3.277,5.826,3.277a6.666,6.666,0,0,0,3.982-1.143,3.768,3.768,0,0,0,1.594-3.264,3.672,3.672,0,0,0-.735-2.34,4.11,4.11,0,0,0-1.8-1.336" transform="translate(-18.203 -1.378)" fill="#ff8657"/>
      <path id="Path_90346" data-name="Path 90346" d="M123.781,2.136H120.2V19.693h3.579V9.405h2.781V5.991h-2.781Z" transform="translate(-21.104 -0.631)" fill="#ff8657"/>
      <rect id="Rectangle_31850" data-name="Rectangle 31850" width="3.58" height="13.768" transform="translate(107.28 5.36)" fill="#ffb357"/>
      <path id="Path_90347" data-name="Path 90347" d="M45.995,14.248c0,3.155-2.021,3.155-2.784,3.155h-.173c-.761,0-2.784,0-2.784-3.155V6.816H36.639v7.432c0,4.1,2.513,6.75,6.407,6.75h.172c3.893,0,6.407-2.651,6.407-6.75V6.816H46.009Z" transform="translate(-6.283 -1.461)" fill="#e84985"/>
      <path id="Path_90348" data-name="Path 90348" d="M73.291,5.2h-.172a7.025,7.025,0,0,0-2.8.549V0H66.738V11.19c-.019.248-.031.5-.031.763v7.425h3.616V11.946c0-3.155,2.023-3.155,2.784-3.155h.172c.762,0,2.785,0,2.785,3.155v7.432h3.616V11.946c.019-4.1-2.5-6.75-6.388-6.75" transform="translate(-11.616 -0.252)" fill="#ff665e"/>
      <path id="Path_90349" data-name="Path 90349" d="M144.579,6.336h-.172c-3.891,0-6.407,2.649-6.407,6.75v7.432h3.616V13.086c0-3.154,2.023-3.155,2.784-3.155h.173c.761,0,2.784,0,2.784,3.155v7.432h3.615V13.086c.014-4.1-2.5-6.75-6.393-6.75" transform="translate(-24.261 -1.376)" fill="#ffb357"/>
      <path id="Path_90350" data-name="Path 90350" d="M55.533,13.087v7.432h3.616V13.087c0-3.155,2.024-3.155,2.785-3.155h.707V6.344h-.7c-3.891-.007-6.407,2.642-6.407,6.743" transform="translate(-9.634 -1.377)" fill="#e84985"/>
      <path id="Path_90351" data-name="Path 90351" d="M8.166,9.763V21.093h3.56V9.763" transform="translate(-1.233 -1.984)" fill="#bc509b"/>
      <path id="Path_90352" data-name="Path 90352" d="M13.291,0V.017a4.721,4.721,0,0,1-1.388,3.5A4.68,4.68,0,0,1,10.32,4.556a4.715,4.715,0,0,1-1.869.335,4.665,4.665,0,0,1-1.862-.333A4.636,4.636,0,0,1,5.016,3.514,4.758,4.758,0,0,1,3.647.017V0H0V.017A8.072,8.072,0,0,0,2.45,5.976a8.2,8.2,0,0,0,6,2.432A8.268,8.268,0,0,0,14.48,5.976,8.008,8.008,0,0,0,16.946.017V0Z" transform="translate(0.215 -0.252)" fill="#bc509b"/>
    </g>
  </g>
</svg>
