<svg id="youtube_mini_icon" xmlns="http://www.w3.org/2000/svg" xmlns:xlink="http://www.w3.org/1999/xlink" width="24" height="16.8" viewBox="0 0 24 16.8">
  <defs>
    <clipPath id="clip-path">
      <rect id="Rectangle_31704" data-name="Rectangle 31704" width="24" height="16.8" fill="none"/>
    </clipPath>
  </defs>
  <g id="Group_95797" data-name="Group 95797" clip-path="url(#clip-path)">
    <path id="Path_90157" data-name="Path 90157" d="M3.5.311A3.659,3.659,0,0,0,.145,3.83C.07,5.363,0,7.129,0,8.347s.072,3.024.147,4.57a3.651,3.651,0,0,0,3.294,3.508C5.469,16.611,8.4,16.8,12,16.8s6.515-.187,8.543-.374a3.664,3.664,0,0,0,3.3-3.525c.078-1.627.154-3.49.154-4.554s-.075-2.887-.152-4.5A3.67,3.67,0,0,0,20.487.31C18.491.154,15.611,0,12,0S5.494.154,3.5.311M9.6,4.785l6.187,3.562L9.6,11.909Z" fill="#fff" fill-rule="evenodd"/>
  </g>
</svg>
