<svg xmlns="http://www.w3.org/2000/svg" xmlns:xlink="http://www.w3.org/1999/xlink" width="278" height="90" viewBox="0 0 278 90">
  <defs>
    <clipPath id="clip-path">
      <rect id="Rectangle_32033" data-name="Rectangle 32033" width="278" height="90" transform="translate(966 3660)" fill="#fff"/>
    </clipPath>
    <clipPath id="clip-path-2">
      <rect id="Rectangle_32034" data-name="Rectangle 32034" width="1077.025" height="356.064" fill="none" stroke="#707070" stroke-width="1"/>
    </clipPath>
  </defs>
  <g id="gluster_bkg" transform="translate(-966 -3660)">
    <rect id="Rectangle_31923" data-name="Rectangle 31923" width="278" height="90" transform="translate(966 3660)" fill="#fff"/>
    <g id="Mask_Group_54049" data-name="Mask Group 54049" clip-path="url(#clip-path)">
      <g id="Group_97290" data-name="Group 97290" transform="translate(591.182 3621)">
        <line id="Line_6069" data-name="Line 6069" y1="59.803" transform="translate(175.081 87.972)" fill="none" stroke="#e0e0e0" stroke-linecap="round" stroke-width="1"/>
        <g id="Group_97289" data-name="Group 97289">
          <g id="Group_97288" data-name="Group 97288" clip-path="url(#clip-path-2)">
            <path id="Path_90698" data-name="Path 90698" d="M31.642,1V105.288c0,4.124,0,6.683,4.157,6.683H55.045" transform="translate(-7.476 -0.236)" fill="none" stroke="#e0e0e0" stroke-linecap="round" stroke-width="1"/>
            <path id="Path_90699" data-name="Path 90699" d="M137.532,149.269V80.588c0-2.384-1.737-4.43-4.9-4.43H7.928a6.715,6.715,0,0,1-6.922-6.652L1,8.234" transform="translate(-0.236 -1.945)" fill="none" stroke="#e0e0e0" stroke-linecap="round" stroke-width="1"/>
            <path id="Path_90700" data-name="Path 90700" d="M156.632,6.549V33.226c0,3.753,0,5.012-4.256,5.012H85.959a4.641,4.641,0,0,0-4.757,4.38V98.946" transform="translate(-19.185 -1.547)" fill="none" stroke="#e0e0e0" stroke-linecap="round" stroke-width="1"/>
            <path id="Path_90701" data-name="Path 90701" d="M748.172,6.549V33.226c0,3.753,0,5.012-4.256,5.012H677.5a4.641,4.641,0,0,0-4.757,4.38V98.946" transform="translate(-158.945 -1.547)" fill="none" stroke="#e0e0e0" stroke-linecap="round" stroke-width="1"/>
            <path id="Path_90702" data-name="Path 90702" d="M1038.819,6.549V33.226c0,3.753,0,5.012-4.256,5.012H968.146a4.64,4.64,0,0,0-4.756,4.38V98.946" transform="translate(-227.615 -1.547)" fill="none" stroke="#e0e0e0" stroke-linecap="round" stroke-width="1"/>
            <line id="Line_6070" data-name="Line 6070" x1="0.009" y1="54.245" transform="translate(175.072 5.002)" fill="none" stroke="#e0e0e0" stroke-linecap="round" stroke-width="1"/>
            <path id="Path_90703" data-name="Path 90703" d="M316.187,263.409l-.274,130.731c-.021,4.962-3.791,4.873-5.947,4.962H279.1" transform="translate(-65.941 -62.234)" fill="none" stroke="#e0e0e0" stroke-linecap="round" stroke-width="1"/>
            <path id="Path_90704" data-name="Path 90704" d="M146.536,270.018H104.4c-2.755,0-4.506,0-4.506-6.169v-27.32c0-2.685,1.421-4.036,4.506-4.036h89.766c3.639,0,4.506-2.385,4.506-6.326V193.489" transform="translate(-23.602 -45.715)" fill="none" stroke="#e0e0e0" stroke-linecap="round" stroke-width="1"/>
            <path id="Path_90705" data-name="Path 90705" d="M230.93,353.918V296.28a2.593,2.593,0,0,0-2.594-2.588c-5.614,0-8.6,0-10.77,0H198.574" transform="translate(-46.916 -69.389)" fill="none" stroke="#e0e0e0" stroke-linecap="round" stroke-width="1"/>
            <line id="Line_6071" data-name="Line 6071" y1="62.167" transform="translate(137.296 147.775)" fill="none" stroke="#e0e0e0" stroke-linecap="round" stroke-width="1"/>
            <line id="Line_6072" data-name="Line 6072" x1="103.698" y2="0.026" transform="translate(109.458 336.868)" fill="none" stroke="#e0e0e0" stroke-linecap="round" stroke-width="1"/>
            <path id="Path_90706" data-name="Path 90706" d="M273.9,6.549V108.281c0,3.989-.8,4.893-4.892,4.893H99.9" transform="translate(-23.602 -1.547)" fill="none" stroke="#e0e0e0" stroke-linecap="round" stroke-width="1"/>
            <path id="Path_90707" data-name="Path 90707" d="M611.983,9.252v99.536c0,2.488-.244,5.133-4.589,5.133H574.762" transform="translate(-135.796 -2.186)" fill="none" stroke="#e0e0e0" stroke-linecap="round" stroke-width="1"/>
            <path id="Path_90708" data-name="Path 90708" d="M902.629,9.252v99.536c0,2.488-.244,5.133-4.589,5.133H865.408" transform="translate(-204.465 -2.186)" fill="none" stroke="#e0e0e0" stroke-linecap="round" stroke-width="1"/>
            <path id="Path_90709" data-name="Path 90709" d="M1195.046,9.252v99.536c0,2.488-.244,5.133-4.589,5.133h-32.632" transform="translate(-273.553 -2.186)" fill="none" stroke="#e0e0e0" stroke-linecap="round" stroke-width="1"/>
            <path id="Path_90710" data-name="Path 90710" d="M569.7,263.409V394.588a4.539,4.539,0,0,1-4.279,4.476l-169.635.063" transform="translate(-93.509 -62.234)" fill="none" stroke="#e0e0e0" stroke-linecap="round" stroke-width="1"/>
            <path id="Path_90711" data-name="Path 90711" d="M864.17,263.409V394.588a4.539,4.539,0,0,1-4.279,4.476l-169.635.063" transform="translate(-163.083 -62.234)" fill="none" stroke="#e0e0e0" stroke-linecap="round" stroke-width="1"/>
            <path id="Path_90712" data-name="Path 90712" d="M1155.443,263.409V394.588a4.539,4.539,0,0,1-4.279,4.476l-165.817.063" transform="translate(-232.803 -62.234)" fill="none" stroke="#e0e0e0" stroke-linecap="round" stroke-width="1"/>
            <path id="Path_90713" data-name="Path 90713" d="M701.039,342.81H677.317a4.507,4.507,0,0,0-4.506,4.506V403.53" transform="translate(-158.961 -80.994)" fill="none" stroke="#e0e0e0" stroke-linecap="round" stroke-width="1"/>
            <path id="Path_90714" data-name="Path 90714" d="M429.09,150.421v-70.7c-.151-2.488-2.072-3.952-4.657-3.952l-142.38-.062c-3.757,0-3.757-2.04-3.757-4.529V6.549" transform="translate(-65.752 -1.547)" fill="none" stroke="#e0e0e0" stroke-linecap="round" stroke-width="1"/>
            <path id="Path_90715" data-name="Path 90715" d="M724.883,150.421v-70.7c-.15-2.488-2.072-3.952-4.656-3.952l-142.38-.062c-3.757,0-3.757-3.059-3.757-4.529V6.549" transform="translate(-135.637 -1.547)" fill="none" stroke="#e0e0e0" stroke-linecap="round" stroke-width="1"/>
            <path id="Path_90716" data-name="Path 90716" d="M1018.794,150.421v-70.7c-.151-2.488-2.073-3.952-4.657-3.952l-142.38-.062C868,75.711,868,72.652,868,71.182V6.549" transform="translate(-205.078 -1.547)" fill="none" stroke="#e0e0e0" stroke-linecap="round" stroke-width="1"/>
            <path id="Path_90717" data-name="Path 90717" d="M1312.71,150.421v-70.7c-.15-2.488-2.072-3.952-4.656-3.952l-142.381-.062c-3.756,0-3.756-3.059-3.756-4.529V6.549" transform="translate(-274.52 -1.547)" fill="none" stroke="#e0e0e0" stroke-linecap="round" stroke-width="1"/>
            <path id="Path_90718" data-name="Path 90718" d="M452.4,9.252V33.743c0,5.167-2.381,5.133-5.4,5.133H380.591a3.724,3.724,0,0,0-3.619,3.825c0,.018,0,.037,0,.054V99.584" transform="translate(-89.065 -2.186)" fill="none" stroke="#e0e0e0" stroke-linecap="round" stroke-width="1"/>
            <line id="Line_6073" data-name="Line 6073" y1="53.077" transform="translate(400.964 6.767)" fill="none" stroke="#e0e0e0" stroke-linecap="round" stroke-width="1"/>
            <line id="Line_6074" data-name="Line 6074" y1="53.077" transform="translate(626.975 6.767)" fill="none" stroke="#e0e0e0" stroke-linecap="round" stroke-width="1"/>
            <line id="Line_6075" data-name="Line 6075" y1="53.077" transform="translate(851.45 6.767)" fill="none" stroke="#e0e0e0" stroke-linecap="round" stroke-width="1"/>
            <line id="Line_6076" data-name="Line 6076" x1="0.006" y1="60.755" transform="translate(400.967 88.569)" fill="none" stroke="#e0e0e0" stroke-linecap="round" stroke-width="1"/>
            <line id="Line_6077" data-name="Line 6077" x1="0.006" y1="60.755" transform="translate(626.975 88.569)" fill="none" stroke="#e0e0e0" stroke-linecap="round" stroke-width="1"/>
            <line id="Line_6078" data-name="Line 6078" x1="0.006" y1="60.755" transform="translate(851.614 88.569)" fill="none" stroke="#e0e0e0" stroke-linecap="round" stroke-width="1"/>
            <line id="Line_6079" data-name="Line 6079" x1="134.147" transform="translate(304.902 111.735)" fill="none" stroke="#e0e0e0" stroke-linecap="round" stroke-width="1"/>
            <line id="Line_6080" data-name="Line 6080" x1="134.147" transform="translate(527.964 111.735)" fill="none" stroke="#e0e0e0" stroke-linecap="round" stroke-width="1"/>
            <line id="Line_6081" data-name="Line 6081" x1="134.147" transform="translate(750.125 111.735)" fill="none" stroke="#e0e0e0" stroke-linecap="round" stroke-width="1"/>
            <path id="Path_90719" data-name="Path 90719" d="M452.4,312.495v18.647a4.507,4.507,0,0,1-4.506,4.506H381.481a4.507,4.507,0,0,0-4.506,4.506v56.209" transform="translate(-89.066 -73.832)" fill="none" stroke="#e0e0e0" stroke-linecap="round" stroke-width="1"/>
            <path id="Path_90720" data-name="Path 90720" d="M748.24,312.5v18.647a4.507,4.507,0,0,1-4.507,4.506H677.317a4.507,4.507,0,0,0-4.507,4.506v56.209" transform="translate(-158.961 -73.833)" fill="none" stroke="#e0e0e0" stroke-linecap="round" stroke-width="1"/>
            <path id="Path_90721" data-name="Path 90721" d="M748.249,312.495v18.647a4.506,4.506,0,0,1-4.506,4.506H677.325a4.507,4.507,0,0,0-4.506,4.506v56.209" transform="translate(-158.963 -73.832)" fill="none" stroke="#e0e0e0" stroke-linecap="round" stroke-width="1"/>
            <path id="Path_90722" data-name="Path 90722" d="M1042.083,312.495v18.647a4.506,4.506,0,0,1-4.506,4.506H971.16a4.507,4.507,0,0,0-4.506,4.506l.052,54.832" transform="translate(-228.386 -73.832)" fill="none" stroke="#e0e0e0" stroke-linecap="round" stroke-width="1"/>
            <path id="Path_90723" data-name="Path 90723" d="M449.562,270.5H430.7a4.675,4.675,0,0,1-4.506-4.617v-28.67a4.131,4.131,0,0,1,4.506-4.236h66.455a4.938,4.938,0,0,0,4.506-4.776V195.519" transform="translate(-100.694 -46.194)" fill="none" stroke="#e0e0e0" stroke-linecap="round" stroke-width="1"/>
            <path id="Path_90724" data-name="Path 90724" d="M745.5,270.529H726.631a4.675,4.675,0,0,1-4.506-4.617v-28.67a4.131,4.131,0,0,1,4.506-4.236h66.455a4.937,4.937,0,0,0,4.506-4.776V195.552" transform="translate(-170.612 -46.202)" fill="none" stroke="#e0e0e0" stroke-linecap="round" stroke-width="1"/>
            <path id="Path_90725" data-name="Path 90725" d="M1039.406,270.529h-18.865a4.675,4.675,0,0,1-4.506-4.617v-28.67a4.131,4.131,0,0,1,4.506-4.236H1087a4.938,4.938,0,0,0,4.506-4.776V195.552" transform="translate(-240.053 -46.202)" fill="none" stroke="#e0e0e0" stroke-linecap="round" stroke-width="1"/>
            <path id="Path_90726" data-name="Path 90726" d="M517.774,354.938V298.051a4.506,4.506,0,0,0-4.506-4.506H494.4" transform="translate(-116.81 -69.354)" fill="none" stroke="#e0e0e0" stroke-linecap="round" stroke-width="1"/>
            <path id="Path_90727" data-name="Path 90727" d="M814.067,354.938V298.051a4.506,4.506,0,0,0-4.506-4.506H790.268" transform="translate(-186.712 -69.354)" fill="none" stroke="#e0e0e0" stroke-linecap="round" stroke-width="1"/>
            <path id="Path_90728" data-name="Path 90728" d="M1107.706,354.938V298.051a4.505,4.505,0,0,0-4.506-4.506h-19.292" transform="translate(-256.089 -69.354)" fill="none" stroke="#e0e0e0" stroke-linecap="round" stroke-width="1"/>
            <line id="Line_6082" data-name="Line 6082" y1="60.509" transform="translate(363.339 149.43)" fill="none" stroke="#e0e0e0" stroke-linecap="round" stroke-width="1"/>
            <line id="Line_6083" data-name="Line 6083" y1="60.509" transform="translate(589.246 149.43)" fill="none" stroke="#e0e0e0" stroke-linecap="round" stroke-width="1"/>
            <line id="Line_6084" data-name="Line 6084" y1="60.509" transform="translate(813.716 149.43)" fill="none" stroke="#e0e0e0" stroke-linecap="round" stroke-width="1"/>
            <path id="Path_90729" data-name="Path 90729" d="M469.022,360.481v38.4a2.591,2.591,0,0,1-2.591,2.591H433.822a2.586,2.586,0,0,1-2.585-2.586V350.1a4.629,4.629,0,0,0-4.528-4.584l-127.991-.057c-9.017,0-10.7-1.5-10.7-11.637V276.252c0-5.778,2.358-5.775,7.575-5.888l56.045.11c3.878,0,4.506-2.371,4.506-4.71V200.689c0-2.489-.154-5.259-4.506-5.259H322.8c-4.459,0-4.506,2.77-4.506,5.259v17.935" transform="translate(-68.049 -46.173)" fill="none" stroke="#e0e0e0" stroke-linecap="round" stroke-linejoin="round" stroke-width="1"/>
            <path id="Path_90730" data-name="Path 90730" d="M764.938,360.481v38.4a2.591,2.591,0,0,1-2.591,2.591H729.738a2.586,2.586,0,0,1-2.585-2.586V350.1a4.629,4.629,0,0,0-4.528-4.584l-127.991-.057c-9.017,0-10.7-1.5-10.7-11.637V276.252c0-5.778,2.358-5.775,7.575-5.888l56.045.11c3.878,0,4.506-2.371,4.506-4.71V200.689c0-2.489-.154-5.259-4.506-5.259H618.717c-4.459,0-4.506,2.77-4.506,5.259v17.935" transform="translate(-137.963 -46.173)" fill="none" stroke="#e0e0e0" stroke-linecap="round" stroke-linejoin="round" stroke-width="1"/>
            <path id="Path_90731" data-name="Path 90731" d="M1059.074,360.481v38.4a2.591,2.591,0,0,1-2.591,2.591h-32.609a2.586,2.586,0,0,1-2.585-2.586V350.1a4.629,4.629,0,0,0-4.528-4.584l-127.991-.057c-9.017,0-10.7-1.5-10.7-11.637V276.252c0-5.778,2.358-5.775,7.575-5.888l56.045.11c3.878,0,4.506-2.371,4.506-4.71V200.689c0-2.489-.154-5.259-4.506-5.259H912.853c-4.459,0-4.506,2.77-4.506,5.259v17.935" transform="translate(-207.457 -46.173)" fill="none" stroke="#e0e0e0" stroke-linecap="round" stroke-linejoin="round" stroke-width="1"/>
            <path id="Path_90732" data-name="Path 90732" d="M1353.213,360.481v38.4a2.591,2.591,0,0,1-2.591,2.591h-32.608a2.586,2.586,0,0,1-2.585-2.586V350.1a4.629,4.629,0,0,0-4.528-4.584l-127.99-.057c-9.017,0-10.7-1.5-10.7-11.637V276.252c0-5.778,2.358-5.775,7.575-5.888l56.045.11c3.878,0,4.506-2.371,4.506-4.71V200.689c0-2.489-.154-5.259-4.506-5.259h-28.838c-4.459,0-4.506,2.77-4.506,5.259v17.935" transform="translate(-276.952 -46.173)" fill="none" stroke="#e0e0e0" stroke-linecap="round" stroke-linejoin="round" stroke-width="1"/>
            <path id="Path_90733" data-name="Path 90733" d="M667.565,286.9a1.909,1.909,0,1,1-1.889-1.889A1.91,1.91,0,0,1,667.565,286.9Z" transform="translate(-156.82 -67.337)" fill="none" stroke="#e0e0e0" stroke-width="1"/>
            <path id="Path_90734" data-name="Path 90734" d="M617.645,433.92a1.909,1.909,0,1,1-1.889-1.889A1.91,1.91,0,0,1,617.645,433.92Z" transform="translate(-145.025 -102.074)" fill="none" stroke="#e0e0e0" stroke-width="1"/>
            <path id="Path_90735" data-name="Path 90735" d="M321.835,433.817a1.909,1.909,0,1,1-1.889-1.889A1.91,1.91,0,0,1,321.835,433.817Z" transform="translate(-75.136 -102.049)" fill="none" stroke="#e0e0e0" stroke-width="1"/>
            <path id="Path_90736" data-name="Path 90736" d="M372.07,286.9a1.909,1.909,0,1,1-1.889-1.889A1.91,1.91,0,0,1,372.07,286.9Z" transform="translate(-87.005 -67.337)" fill="none" stroke="#e0e0e0" stroke-width="1"/>
            <path id="Path_90737" data-name="Path 90737" d="M471.051,102.886A1.909,1.909,0,1,1,469.162,101,1.91,1.91,0,0,1,471.051,102.886Z" transform="translate(-110.39 -23.862)" fill="none" stroke="#e0e0e0" stroke-width="1"/>
            <path id="Path_90738" data-name="Path 90738" d="M766.1,102.886A1.909,1.909,0,1,1,764.215,101,1.91,1.91,0,0,1,766.1,102.886Z" transform="translate(-180.101 -23.862)" fill="none" stroke="#e0e0e0" stroke-width="1"/>
            <path id="Path_90739" data-name="Path 90739" d="M1060.262,102.886a1.909,1.909,0,1,1-1.89-1.889A1.911,1.911,0,0,1,1060.262,102.886Z" transform="translate(-249.6 -23.862)" fill="none" stroke="#e0e0e0" stroke-width="1"/>
            <path id="Path_90740" data-name="Path 90740" d="M174.581,102.886A1.909,1.909,0,1,1,172.692,101,1.91,1.91,0,0,1,174.581,102.886Z" transform="translate(-40.345 -23.862)" fill="none" stroke="#e0e0e0" stroke-width="1"/>
            <circle id="Ellipse_8314" data-name="Ellipse 8314" cx="9.547" cy="9.547" r="9.547" transform="translate(504.303 101.561)" fill="none" stroke="#fab6b6" stroke-linecap="round" stroke-width="1" stroke-dasharray="4 4"/>
            <circle id="Ellipse_8315" data-name="Ellipse 8315" cx="9.547" cy="9.547" r="9.547" transform="translate(391.443 64.667)" fill="none" stroke="#c7c7c7" stroke-linecap="round" stroke-width="1"/>
            <circle id="Ellipse_8316" data-name="Ellipse 8316" cx="9.547" cy="9.547" r="9.547" transform="translate(726.228 101.561)" fill="none" stroke="#c7c7c7" stroke-linecap="round" stroke-width="1"/>
            <circle id="Ellipse_8317" data-name="Ellipse 8317" cx="9.547" cy="9.547" r="9.547" transform="translate(841.903 290.399)" fill="none" stroke="#c7c7c7" stroke-linecap="round" stroke-width="1"/>
            <circle id="Ellipse_8318" data-name="Ellipse 8318" cx="9.547" cy="9.547" r="9.547" transform="translate(353.792 214.644)" fill="none" stroke="#e0e0e0" stroke-linecap="round" stroke-width="1"/>
            <circle id="Ellipse_8319" data-name="Ellipse 8319" cx="9.547" cy="9.547" r="9.547" transform="translate(579.68 214.644)" fill="none" stroke="#e0e0e0" stroke-linecap="round" stroke-width="1"/>
            <circle id="Ellipse_8320" data-name="Ellipse 8320" cx="9.547" cy="9.547" r="9.547" transform="translate(617.807 64.667)" fill="none" stroke="#e0e0e0" stroke-linecap="round" stroke-width="1"/>
            <circle id="Ellipse_8321" data-name="Ellipse 8321" cx="9.547" cy="9.547" r="9.547" transform="translate(804.169 214.644)" fill="none" stroke="#e0e0e0" stroke-linecap="round" stroke-width="1"/>
            <circle id="Ellipse_8322" data-name="Ellipse 8322" cx="9.547" cy="9.547" r="9.547" transform="translate(85.441 327.321)" fill="none" stroke="#c7c7c7" stroke-linecap="round" stroke-width="1" stroke-dasharray="4 4"/>
            <circle id="Ellipse_8323" data-name="Ellipse 8323" cx="9.547" cy="9.547" r="9.547" transform="translate(391.448 290.399)" fill="none" stroke="#c7c7c7" stroke-linecap="round" stroke-width="1" stroke-dasharray="4 4"/>
            <circle id="Ellipse_8324" data-name="Ellipse 8324" cx="9.547" cy="9.547" r="9.547" transform="translate(691.54 176.993)" fill="none" stroke="#c7c7c7" stroke-linecap="round" stroke-width="1" stroke-dasharray="4 4"/>
            <circle id="Ellipse_8325" data-name="Ellipse 8325" cx="9.547" cy="9.547" r="9.547" transform="translate(617.807 290.399)" fill="none" stroke="#c7c7c7" stroke-linecap="round" stroke-width="1" stroke-dasharray="4 4"/>
            <circle id="Ellipse_8326" data-name="Ellipse 8326" cx="9.547" cy="9.547" r="9.547" transform="translate(278.363 327.321)" fill="none" stroke="#e0e0e0" stroke-linecap="round" stroke-width="1"/>
            <circle id="Ellipse_8327" data-name="Ellipse 8327" cx="9.547" cy="9.547" r="9.547" transform="translate(127.749 214.757)" fill="none" stroke="#e0e0e0" stroke-linecap="round" stroke-width="1"/>
            <circle id="Ellipse_8328" data-name="Ellipse 8328" cx="9.547" cy="9.547" r="9.547" transform="translate(240.747 177.266)" fill="none" stroke="#c7c7c7" stroke-linecap="round" stroke-width="1" stroke-dasharray="4 4"/>
            <circle id="Ellipse_8329" data-name="Ellipse 8329" cx="9.547" cy="9.547" r="9.547" transform="translate(165.525 64.062)" fill="none" stroke="#fab6b6" stroke-linecap="round" stroke-width="1"/>
            <circle id="Ellipse_8330" data-name="Ellipse 8330" cx="9.547" cy="9.547" r="9.547" transform="translate(728.773 325.848)" fill="none" stroke="#fab6b6" stroke-linecap="round" stroke-width="1"/>
            <circle id="Ellipse_8331" data-name="Ellipse 8331" cx="9.547" cy="9.547" r="9.547" transform="translate(52.471 102.08)" fill="none" stroke="#c7c7c7" stroke-linecap="round" stroke-width="1" stroke-dasharray="4 4"/>
            <path id="Path_90741" data-name="Path 90741" d="M682.538,432.247a2.383,2.383,0,1,0-2.383-2.383,2.383,2.383,0,0,0,2.383,2.383m0-3.819a1.436,1.436,0,1,1-1.327,1.537,1.376,1.376,0,0,1,0-.209,1.436,1.436,0,0,1,1.327-1.327" transform="translate(-160.697 -100.999)" fill="#e0e0e0" stroke="#707070" stroke-width="1"/>
            <path id="Path_90742" data-name="Path 90742" d="M678.829,442.481a4.674,4.674,0,0,0-4.674,4.674c.214,6.194,9.165,6.186,9.356,0a4.681,4.681,0,0,0-4.682-4.674m0,8.4a3.727,3.727,0,0,1,0-7.454,3.727,3.727,0,0,1,0,7.454" transform="translate(-159.279 -104.543)" fill="#e0e0e0" stroke="#707070" stroke-width="1"/>
            <path id="Path_90743" data-name="Path 90743" d="M678.829,442.481a4.674,4.674,0,0,0-4.674,4.674c.214,6.194,9.165,6.186,9.356,0A4.681,4.681,0,0,0,678.829,442.481Zm0,8.4a3.727,3.727,0,0,1,0-7.454A3.727,3.727,0,0,1,678.829,450.882Z" transform="translate(-159.279 -104.543)" fill="none" stroke="#e0e0e0" stroke-width="1"/>
            <path id="Path_90744" data-name="Path 90744" d="M671.147,448.371a7.164,7.164,0,0,1-1.077.084c-.726-.122-.947.855-.2.947a7.948,7.948,0,0,0,1.413-.084.481.481,0,0,0-.137-.947" transform="translate(-158.157 -105.934)" fill="#e0e0e0" stroke="#707070" stroke-width="1"/>
            <path id="Path_90745" data-name="Path 90745" d="M671.147,448.371a7.164,7.164,0,0,1-1.077.084c-.726-.122-.947.855-.2.947a7.948,7.948,0,0,0,1.413-.084.481.481,0,0,0-.137-.947Z" transform="translate(-158.157 -105.934)" fill="none" stroke="#e0e0e0" stroke-width="1"/>
            <path id="Path_90746" data-name="Path 90746" d="M679.224,434.47a.477.477,0,0,0,.9-.313c-.244-.58-1.107-2.986-1.909-2.413a.465.465,0,0,0-.1.651l.01.014a7.457,7.457,0,0,1,1.1,2.062" transform="translate(-160.193 -101.985)" fill="#e0e0e0" stroke="#707070" stroke-width="1"/>
            <path id="Path_90747" data-name="Path 90747" d="M679.224,434.47a.477.477,0,0,0,.9-.313c-.244-.58-1.107-2.986-1.909-2.413a.465.465,0,0,0-.1.651l.01.014A7.457,7.457,0,0,1,679.224,434.47Z" transform="translate(-160.193 -101.985)" fill="none" stroke="#e0e0e0" stroke-width="1"/>
            <path id="Path_90748" data-name="Path 90748" d="M666.154,447.561a7.645,7.645,0,0,1-2.054-1.1.481.481,0,0,0-.672.092c-.6.764,2,1.795,2.574,1.94a.481.481,0,0,0,.153-.932" transform="translate(-156.723 -105.46)" fill="#e0e0e0" stroke="#707070" stroke-width="1"/>
            <path id="Path_90749" data-name="Path 90749" d="M666.154,447.561a7.645,7.645,0,0,1-2.054-1.1.481.481,0,0,0-.672.092c-.6.764,2,1.795,2.574,1.94a.481.481,0,0,0,.153-.932Z" transform="translate(-156.723 -105.46)" fill="none" stroke="#e0e0e0" stroke-width="1"/>
            <path id="Path_90750" data-name="Path 90750" d="M675.489,430a.482.482,0,0,0,.39-.2c.542-.825-1.894-1.6-2.474-1.833a.481.481,0,0,0-.283.916A17.161,17.161,0,0,1,675.489,430" transform="translate(-158.963 -101.111)" fill="#e0e0e0" stroke="#707070" stroke-width="1"/>
            <path id="Path_90751" data-name="Path 90751" d="M675.489,430a.482.482,0,0,0,.39-.2c.542-.825-1.894-1.6-2.474-1.833a.481.481,0,0,0-.283.916A17.161,17.161,0,0,1,675.489,430Z" transform="translate(-158.963 -101.111)" fill="none" stroke="#e0e0e0" stroke-width="1"/>
            <path id="Path_90752" data-name="Path 90752" d="M666.829,428.84a8.848,8.848,0,0,1,2.452-.4c.626,0,.611-1.008,0-.955s-3.177.084-2.9,1.031a.481.481,0,0,0,.451.328" transform="translate(-157.437 -100.998)" fill="#e0e0e0" stroke="#707070" stroke-width="1"/>
            <path id="Path_90753" data-name="Path 90753" d="M666.829,428.84a8.848,8.848,0,0,1,2.452-.4c.626,0,.611-1.008,0-.955s-3.177.084-2.9,1.031A.481.481,0,0,0,666.829,428.84Z" transform="translate(-157.437 -100.998)" fill="none" stroke="#e0e0e0" stroke-width="1"/>
            <path id="Path_90754" data-name="Path 90754" d="M659.629,438.1a.489.489,0,0,0,.481-.474,7.325,7.325,0,0,1,.374-2.291.474.474,0,0,0-.3-.6l-.009,0c-.947-.283-.978,2.291-1.023,2.9a.473.473,0,0,0,.474.466" transform="translate(-155.735 -102.707)" fill="#e0e0e0" stroke="#707070" stroke-width="1"/>
            <path id="Path_90755" data-name="Path 90755" d="M659.629,438.1a.489.489,0,0,0,.481-.474,7.325,7.325,0,0,1,.374-2.291.474.474,0,0,0-.3-.6l-.009,0c-.947-.283-.978,2.291-1.023,2.9A.473.473,0,0,0,659.629,438.1Z" transform="translate(-155.735 -102.707)" fill="none" stroke="#e0e0e0" stroke-width="1"/>
            <path id="Path_90756" data-name="Path 90756" d="M660.557,441.447a.476.476,0,0,0-.91.28v0c.244.6.993,3,1.833,2.475a.481.481,0,0,0,.115-.664,7.635,7.635,0,0,1-1.039-2.093" transform="translate(-155.846 -104.219)" fill="#e0e0e0" stroke="#707070" stroke-width="1"/>
            <path id="Path_90757" data-name="Path 90757" d="M660.557,441.447a.476.476,0,0,0-.91.28v0c.244.6.993,3,1.833,2.475a.481.481,0,0,0,.115-.664A7.635,7.635,0,0,1,660.557,441.447Z" transform="translate(-155.846 -104.219)" fill="none" stroke="#e0e0e0" stroke-width="1"/>
            <path id="Path_90758" data-name="Path 90758" d="M663.782,429.69a.465.465,0,0,0-.649-.11l-.015.011c-.474.4-2.536,1.894-1.757,2.528a.473.473,0,0,0,.661-.1l0,0a7.566,7.566,0,0,1,1.657-1.65.481.481,0,0,0,.1-.672" transform="translate(-156.215 -101.474)" fill="#e0e0e0" stroke="#707070" stroke-width="1"/>
            <path id="Path_90759" data-name="Path 90759" d="M663.782,429.69a.465.465,0,0,0-.649-.11l-.015.011c-.474.4-2.536,1.894-1.757,2.528a.473.473,0,0,0,.661-.1l0,0a7.566,7.566,0,0,1,1.657-1.65A.481.481,0,0,0,663.782,429.69Z" transform="translate(-156.215 -101.474)" fill="none" stroke="#e0e0e0" stroke-width="1"/>
            <path id="Path_90760" data-name="Path 90760" d="M680.451,440.014c.8,0,.557-1.092.634-1.619.046-.321-.145-.7-.5-.664a.527.527,0,0,0-.475.574.518.518,0,0,0,.017.09c.092.527-.4,1.443.321,1.619" transform="translate(-160.671 -103.42)" fill="#e0e0e0" stroke="#707070" stroke-width="1"/>
            <path id="Path_90761" data-name="Path 90761" d="M680.451,440.014c.8,0,.557-1.092.634-1.619.046-.321-.145-.7-.5-.664a.527.527,0,0,0-.475.574.518.518,0,0,0,.017.09C680.221,438.922,679.725,439.838,680.451,440.014Z" transform="translate(-160.671 -103.42)" fill="none" stroke="#e0e0e0" stroke-width="1"/>
            <path id="Path_90762" data-name="Path 90762" d="M1125.982,88.95a2.383,2.383,0,1,0-2.383-2.383,2.383,2.383,0,0,0,2.383,2.383m0-3.819a1.436,1.436,0,1,1-1.327,1.537,1.392,1.392,0,0,1,0-.209,1.436,1.436,0,0,1,1.327-1.327" transform="translate(-265.467 -19.89)" fill="#e0e0e0" stroke="#707070" stroke-width="1"/>
            <path id="Path_90763" data-name="Path 90763" d="M1122.273,99.184a4.674,4.674,0,0,0-4.674,4.674c.214,6.194,9.165,6.186,9.356,0a4.681,4.681,0,0,0-4.682-4.674m0,8.4a3.727,3.727,0,0,1,0-7.454,3.727,3.727,0,0,1,0,7.454" transform="translate(-264.049 -23.434)" fill="#e0e0e0" stroke="#707070" stroke-width="1"/>
            <path id="Path_90764" data-name="Path 90764" d="M1122.273,99.184a4.674,4.674,0,0,0-4.674,4.674c.214,6.194,9.165,6.186,9.356,0A4.681,4.681,0,0,0,1122.273,99.184Zm0,8.4a3.727,3.727,0,0,1,0-7.454A3.727,3.727,0,0,1,1122.273,107.585Z" transform="translate(-264.049 -23.434)" fill="none" stroke="#e0e0e0" stroke-width="1"/>
            <path id="Path_90765" data-name="Path 90765" d="M1114.591,105.074a7.165,7.165,0,0,1-1.077.084c-.726-.122-.947.855-.2.947a7.949,7.949,0,0,0,1.413-.084.481.481,0,0,0-.137-.947Z" transform="translate(-262.927 -24.825)" fill="#e0e0e0" stroke="#707070" stroke-width="1"/>
            <path id="Path_90766" data-name="Path 90766" d="M1114.591,105.074a7.165,7.165,0,0,1-1.077.084c-.726-.122-.947.855-.2.947a7.949,7.949,0,0,0,1.413-.084.481.481,0,0,0-.137-.947Z" transform="translate(-262.927 -24.825)" fill="none" stroke="#e0e0e0" stroke-width="1"/>
            <path id="Path_90767" data-name="Path 90767" d="M1122.668,91.173a.477.477,0,1,0,.9-.313c-.244-.58-1.107-2.986-1.909-2.413a.465.465,0,0,0-.1.651l.01.014a7.453,7.453,0,0,1,1.1,2.062" transform="translate(-264.963 -20.876)" fill="#e0e0e0" stroke="#707070" stroke-width="1"/>
            <path id="Path_90768" data-name="Path 90768" d="M1122.668,91.173a.477.477,0,1,0,.9-.313c-.244-.58-1.107-2.986-1.909-2.413a.465.465,0,0,0-.1.651l.01.014A7.453,7.453,0,0,1,1122.668,91.173Z" transform="translate(-264.963 -20.876)" fill="none" stroke="#e0e0e0" stroke-width="1"/>
            <path id="Path_90769" data-name="Path 90769" d="M1109.6,104.264a7.645,7.645,0,0,1-2.054-1.1.481.481,0,0,0-.672.092c-.6.764,2,1.795,2.574,1.94a.481.481,0,0,0,.153-.932" transform="translate(-261.493 -24.351)" fill="#e0e0e0" stroke="#707070" stroke-width="1"/>
            <path id="Path_90770" data-name="Path 90770" d="M1109.6,104.264a7.645,7.645,0,0,1-2.054-1.1.481.481,0,0,0-.672.092c-.6.764,2,1.795,2.574,1.94a.481.481,0,0,0,.153-.932Z" transform="translate(-261.493 -24.351)" fill="none" stroke="#e0e0e0" stroke-width="1"/>
            <path id="Path_90771" data-name="Path 90771" d="M1118.933,86.7a.482.482,0,0,0,.39-.2c.542-.825-1.894-1.6-2.474-1.833a.481.481,0,0,0-.283.916,17.157,17.157,0,0,1,2.368,1.115" transform="translate(-263.734 -20.002)" fill="#e0e0e0" stroke="#707070" stroke-width="1"/>
            <path id="Path_90772" data-name="Path 90772" d="M1118.933,86.7a.482.482,0,0,0,.39-.2c.542-.825-1.894-1.6-2.474-1.833a.481.481,0,0,0-.283.916A17.157,17.157,0,0,1,1118.933,86.7Z" transform="translate(-263.734 -20.002)" fill="none" stroke="#e0e0e0" stroke-width="1"/>
            <path id="Path_90773" data-name="Path 90773" d="M1110.273,85.543a8.847,8.847,0,0,1,2.452-.4c.626,0,.611-1.008,0-.955s-3.177.084-2.9,1.031a.481.481,0,0,0,.451.328" transform="translate(-262.207 -19.889)" fill="#e0e0e0" stroke="#707070" stroke-width="1"/>
            <path id="Path_90774" data-name="Path 90774" d="M1110.273,85.543a8.847,8.847,0,0,1,2.452-.4c.626,0,.611-1.008,0-.955s-3.177.084-2.9,1.031A.481.481,0,0,0,1110.273,85.543Z" transform="translate(-262.207 -19.889)" fill="none" stroke="#e0e0e0" stroke-width="1"/>
            <path id="Path_90775" data-name="Path 90775" d="M1103.073,94.805a.489.489,0,0,0,.481-.474,7.324,7.324,0,0,1,.374-2.291.474.474,0,0,0-.3-.6l-.009,0c-.947-.283-.977,2.291-1.023,2.9a.473.473,0,0,0,.474.466" transform="translate(-260.505 -21.598)" fill="#e0e0e0" stroke="#707070" stroke-width="1"/>
            <path id="Path_90776" data-name="Path 90776" d="M1103.073,94.805a.489.489,0,0,0,.481-.474,7.324,7.324,0,0,1,.374-2.291.474.474,0,0,0-.3-.6l-.009,0c-.947-.283-.977,2.291-1.023,2.9A.473.473,0,0,0,1103.073,94.805Z" transform="translate(-260.505 -21.598)" fill="none" stroke="#e0e0e0" stroke-width="1"/>
            <path id="Path_90777" data-name="Path 90777" d="M1104,98.149a.476.476,0,0,0-.912.273l0,.009c.244.6.993,3,1.833,2.475a.481.481,0,0,0,.115-.664A7.63,7.63,0,0,1,1104,98.149" transform="translate(-260.616 -23.109)" fill="#e0e0e0" stroke="#707070" stroke-width="1"/>
            <path id="Path_90778" data-name="Path 90778" d="M1104,98.149a.476.476,0,0,0-.912.273l0,.009c.244.6.993,3,1.833,2.475a.481.481,0,0,0,.115-.664A7.63,7.63,0,0,1,1104,98.149Z" transform="translate(-260.616 -23.109)" fill="none" stroke="#e0e0e0" stroke-width="1"/>
            <path id="Path_90779" data-name="Path 90779" d="M1107.226,86.393a.465.465,0,0,0-.649-.11l-.015.011c-.474.4-2.536,1.894-1.757,2.528a.474.474,0,0,0,.661-.1l0,0a7.561,7.561,0,0,1,1.657-1.65.481.481,0,0,0,.1-.672" transform="translate(-260.985 -20.365)" fill="#e0e0e0" stroke="#707070" stroke-width="1"/>
            <path id="Path_90780" data-name="Path 90780" d="M1107.226,86.393a.465.465,0,0,0-.649-.11l-.015.011c-.474.4-2.536,1.894-1.757,2.528a.474.474,0,0,0,.661-.1l0,0a7.561,7.561,0,0,1,1.657-1.65A.481.481,0,0,0,1107.226,86.393Z" transform="translate(-260.985 -20.365)" fill="none" stroke="#e0e0e0" stroke-width="1"/>
            <path id="Path_90781" data-name="Path 90781" d="M1123.895,96.717c.8,0,.558-1.092.634-1.619.046-.321-.145-.695-.5-.664a.526.526,0,0,0-.458.664c.092.527-.4,1.443.321,1.619" transform="translate(-265.441 -22.311)" fill="#e0e0e0" stroke="#707070" stroke-width="1"/>
            <path id="Path_90782" data-name="Path 90782" d="M1123.895,96.717c.8,0,.558-1.092.634-1.619.046-.321-.145-.695-.5-.664a.526.526,0,0,0-.458.664C1123.666,95.625,1123.169,96.541,1123.895,96.717Z" transform="translate(-265.441 -22.311)" fill="none" stroke="#e0e0e0" stroke-width="1"/>
            <path id="Path_90783" data-name="Path 90783" d="M633.333,235.772a2.383,2.383,0,1,0-2.383-2.383,2.383,2.383,0,0,0,2.383,2.383m0-3.819a1.436,1.436,0,1,1-1.327,1.537,1.376,1.376,0,0,1,0-.209,1.436,1.436,0,0,1,1.327-1.327" transform="translate(-149.071 -54.579)" fill="#e0e0e0" stroke="#707070" stroke-width="1"/>
            <path id="Path_90784" data-name="Path 90784" d="M629.624,246.006a4.674,4.674,0,0,0-4.674,4.674c.214,6.194,9.165,6.186,9.356,0a4.681,4.681,0,0,0-4.682-4.674m0,8.4a3.727,3.727,0,0,1,0-7.454,3.727,3.727,0,0,1,0,7.454" transform="translate(-147.654 -58.123)" fill="#e0e0e0" stroke="#707070" stroke-width="1"/>
            <path id="Path_90785" data-name="Path 90785" d="M629.624,246.006a4.674,4.674,0,0,0-4.674,4.674c.214,6.194,9.165,6.186,9.356,0A4.681,4.681,0,0,0,629.624,246.006Zm0,8.4a3.727,3.727,0,0,1,0-7.454A3.727,3.727,0,0,1,629.624,254.407Z" transform="translate(-147.654 -58.123)" fill="none" stroke="#e0e0e0" stroke-width="1"/>
            <path id="Path_90786" data-name="Path 90786" d="M621.943,251.9a7.183,7.183,0,0,1-1.078.084c-.726-.122-.946.855-.2.947a7.883,7.883,0,0,0,1.414-.084.481.481,0,0,0-.137-.947" transform="translate(-146.532 -59.514)" fill="#e0e0e0" stroke="#707070" stroke-width="1"/>
            <path id="Path_90787" data-name="Path 90787" d="M621.943,251.9a7.183,7.183,0,0,1-1.078.084c-.726-.122-.946.855-.2.947a7.883,7.883,0,0,0,1.414-.084.481.481,0,0,0-.137-.947Z" transform="translate(-146.532 -59.514)" fill="none" stroke="#e0e0e0" stroke-width="1"/>
            <path id="Path_90788" data-name="Path 90788" d="M630.019,238a.477.477,0,0,0,.9-.313c-.244-.58-1.107-2.986-1.909-2.413a.465.465,0,0,0-.1.651l.01.014a7.46,7.46,0,0,1,1.1,2.062" transform="translate(-148.568 -55.565)" fill="#e0e0e0" stroke="#707070" stroke-width="1"/>
            <path id="Path_90789" data-name="Path 90789" d="M630.019,238a.477.477,0,0,0,.9-.313c-.244-.58-1.107-2.986-1.909-2.413a.465.465,0,0,0-.1.651l.01.014A7.46,7.46,0,0,1,630.019,238Z" transform="translate(-148.568 -55.565)" fill="none" stroke="#e0e0e0" stroke-width="1"/>
            <path id="Path_90790" data-name="Path 90790" d="M616.949,251.086a7.645,7.645,0,0,1-2.054-1.1.481.481,0,0,0-.672.092c-.6.764,2,1.795,2.574,1.94a.481.481,0,0,0,.153-.932Z" transform="translate(-145.098 -59.04)" fill="#e0e0e0" stroke="#707070" stroke-width="1"/>
            <path id="Path_90791" data-name="Path 90791" d="M616.949,251.086a7.645,7.645,0,0,1-2.054-1.1.481.481,0,0,0-.672.092c-.6.764,2,1.795,2.574,1.94a.481.481,0,0,0,.153-.932Z" transform="translate(-145.098 -59.04)" fill="none" stroke="#e0e0e0" stroke-width="1"/>
            <path id="Path_90792" data-name="Path 90792" d="M626.284,233.524a.482.482,0,0,0,.39-.2c.542-.825-1.894-1.6-2.474-1.833a.481.481,0,0,0-.283.917,17.154,17.154,0,0,1,2.368,1.115" transform="translate(-147.338 -54.691)" fill="#e0e0e0" stroke="#707070" stroke-width="1"/>
            <path id="Path_90793" data-name="Path 90793" d="M626.284,233.524a.482.482,0,0,0,.39-.2c.542-.825-1.894-1.6-2.474-1.833a.481.481,0,0,0-.283.917A17.154,17.154,0,0,1,626.284,233.524Z" transform="translate(-147.338 -54.691)" fill="none" stroke="#e0e0e0" stroke-width="1"/>
            <path id="Path_90794" data-name="Path 90794" d="M617.624,232.365a8.847,8.847,0,0,1,2.452-.4c.626,0,.611-1.008,0-.955s-3.177.084-2.9,1.031a.481.481,0,0,0,.451.328" transform="translate(-145.812 -54.578)" fill="#e0e0e0" stroke="#707070" stroke-width="1"/>
            <path id="Path_90795" data-name="Path 90795" d="M617.624,232.365a8.847,8.847,0,0,1,2.452-.4c.626,0,.611-1.008,0-.955s-3.177.084-2.9,1.031A.481.481,0,0,0,617.624,232.365Z" transform="translate(-145.812 -54.578)" fill="none" stroke="#e0e0e0" stroke-width="1"/>
            <path id="Path_90796" data-name="Path 90796" d="M610.424,241.627a.489.489,0,0,0,.481-.474,7.324,7.324,0,0,1,.374-2.291.474.474,0,0,0-.3-.6l-.009,0c-.947-.283-.978,2.291-1.023,2.9a.473.473,0,0,0,.474.466" transform="translate(-144.11 -56.287)" fill="#e0e0e0" stroke="#707070" stroke-width="1"/>
            <path id="Path_90797" data-name="Path 90797" d="M610.424,241.627a.489.489,0,0,0,.481-.474,7.324,7.324,0,0,1,.374-2.291.474.474,0,0,0-.3-.6l-.009,0c-.947-.283-.978,2.291-1.023,2.9A.473.473,0,0,0,610.424,241.627Z" transform="translate(-144.11 -56.287)" fill="none" stroke="#e0e0e0" stroke-width="1"/>
            <path id="Path_90798" data-name="Path 90798" d="M611.352,244.973a.476.476,0,0,0-.909.283c.244.6.993,3,1.833,2.475a.481.481,0,0,0,.115-.664,7.631,7.631,0,0,1-1.039-2.093" transform="translate(-144.221 -57.8)" fill="#e0e0e0" stroke="#707070" stroke-width="1"/>
            <path id="Path_90799" data-name="Path 90799" d="M611.352,244.973a.476.476,0,0,0-.909.283c.244.6.993,3,1.833,2.475a.481.481,0,0,0,.115-.664A7.631,7.631,0,0,1,611.352,244.973Z" transform="translate(-144.221 -57.8)" fill="none" stroke="#e0e0e0" stroke-width="1"/>
            <path id="Path_90800" data-name="Path 90800" d="M614.577,233.215a.465.465,0,0,0-.649-.11h0l-.015.011c-.474.4-2.536,1.894-1.757,2.528a.473.473,0,0,0,.661-.1l0,0a7.563,7.563,0,0,1,1.657-1.65.481.481,0,0,0,.1-.672" transform="translate(-144.59 -55.054)" fill="#e0e0e0" stroke="#707070" stroke-width="1"/>
            <path id="Path_90801" data-name="Path 90801" d="M614.577,233.215a.465.465,0,0,0-.649-.11h0l-.015.011c-.474.4-2.536,1.894-1.757,2.528a.473.473,0,0,0,.661-.1l0,0a7.563,7.563,0,0,1,1.657-1.65A.481.481,0,0,0,614.577,233.215Z" transform="translate(-144.59 -55.054)" fill="none" stroke="#e0e0e0" stroke-width="1"/>
            <path id="Path_90802" data-name="Path 90802" d="M631.246,243.539c.8,0,.557-1.092.634-1.619.046-.321-.145-.7-.5-.664a.525.525,0,0,0-.458.664c.092.527-.4,1.443.321,1.619" transform="translate(-149.046 -57)" fill="#e0e0e0" stroke="#707070" stroke-width="1"/>
            <path id="Path_90803" data-name="Path 90803" d="M631.246,243.539c.8,0,.557-1.092.634-1.619.046-.321-.145-.7-.5-.664a.525.525,0,0,0-.458.664C631.016,242.447,630.52,243.363,631.246,243.539Z" transform="translate(-149.046 -57)" fill="none" stroke="#e0e0e0" stroke-width="1"/>
            <path id="Path_90804" data-name="Path 90804" d="M386.776,137.468a2.383,2.383,0,1,0-2.383-2.383,2.383,2.383,0,0,0,2.383,2.383m0-3.819a1.436,1.436,0,1,1-1.327,1.537,1.361,1.361,0,0,1,0-.209,1.436,1.436,0,0,1,1.327-1.327" transform="translate(-90.818 -31.353)" fill="#e0e0e0" stroke="#707070" stroke-width="1"/>
            <path id="Path_90805" data-name="Path 90805" d="M383.067,147.7a4.674,4.674,0,0,0-4.674,4.674c.214,6.194,9.165,6.186,9.356,0a4.682,4.682,0,0,0-4.682-4.674m0,8.4a3.727,3.727,0,0,1,0-7.454,3.727,3.727,0,0,1,0,7.454" transform="translate(-89.401 -34.897)" fill="#e0e0e0" stroke="#707070" stroke-width="1"/>
            <path id="Path_90806" data-name="Path 90806" d="M383.067,147.7a4.674,4.674,0,0,0-4.674,4.674c.214,6.194,9.165,6.186,9.356,0A4.682,4.682,0,0,0,383.067,147.7Zm0,8.4a3.727,3.727,0,0,1,0-7.454A3.727,3.727,0,0,1,383.067,156.1Z" transform="translate(-89.401 -34.897)" fill="none" stroke="#e0e0e0" stroke-width="1"/>
            <path id="Path_90807" data-name="Path 90807" d="M375.385,153.592a7.163,7.163,0,0,1-1.077.084c-.726-.122-.947.855-.2.947a7.877,7.877,0,0,0,1.413-.084.481.481,0,0,0-.138-.947" transform="translate(-88.279 -36.288)" fill="#e0e0e0" stroke="#707070" stroke-width="1"/>
            <path id="Path_90808" data-name="Path 90808" d="M375.385,153.592a7.163,7.163,0,0,1-1.077.084c-.726-.122-.947.855-.2.947a7.877,7.877,0,0,0,1.413-.084.481.481,0,0,0-.138-.947Z" transform="translate(-88.279 -36.288)" fill="none" stroke="#e0e0e0" stroke-width="1"/>
            <path id="Path_90809" data-name="Path 90809" d="M383.462,139.691a.477.477,0,0,0,.9-.313c-.244-.58-1.107-2.986-1.909-2.413a.465.465,0,0,0-.1.651l.01.014a7.457,7.457,0,0,1,1.1,2.062" transform="translate(-90.315 -32.339)" fill="#e0e0e0" stroke="#707070" stroke-width="1"/>
            <path id="Path_90810" data-name="Path 90810" d="M383.462,139.691a.477.477,0,0,0,.9-.313c-.244-.58-1.107-2.986-1.909-2.413a.465.465,0,0,0-.1.651l.01.014A7.457,7.457,0,0,1,383.462,139.691Z" transform="translate(-90.315 -32.339)" fill="none" stroke="#e0e0e0" stroke-width="1"/>
            <path id="Path_90811" data-name="Path 90811" d="M370.392,152.782a7.645,7.645,0,0,1-2.054-1.1.481.481,0,0,0-.672.092c-.6.764,2,1.795,2.574,1.94a.481.481,0,0,0,.153-.932" transform="translate(-86.845 -35.814)" fill="#e0e0e0" stroke="#707070" stroke-width="1"/>
            <path id="Path_90812" data-name="Path 90812" d="M370.392,152.782a7.645,7.645,0,0,1-2.054-1.1.481.481,0,0,0-.672.092c-.6.764,2,1.795,2.574,1.94a.481.481,0,0,0,.153-.932Z" transform="translate(-86.845 -35.814)" fill="none" stroke="#e0e0e0" stroke-width="1"/>
            <path id="Path_90813" data-name="Path 90813" d="M379.727,135.22a.482.482,0,0,0,.389-.2c.542-.825-1.894-1.6-2.474-1.833a.481.481,0,0,0-.283.916,17.155,17.155,0,0,1,2.368,1.115" transform="translate(-89.085 -31.465)" fill="#e0e0e0" stroke="#707070" stroke-width="1"/>
            <path id="Path_90814" data-name="Path 90814" d="M379.727,135.22a.482.482,0,0,0,.389-.2c.542-.825-1.894-1.6-2.474-1.833a.481.481,0,0,0-.283.916A17.155,17.155,0,0,1,379.727,135.22Z" transform="translate(-89.085 -31.465)" fill="none" stroke="#e0e0e0" stroke-width="1"/>
            <path id="Path_90815" data-name="Path 90815" d="M371.067,134.061a8.847,8.847,0,0,1,2.452-.4c.626,0,.611-1.008,0-.955s-3.177.084-2.9,1.031a.481.481,0,0,0,.451.328" transform="translate(-87.559 -31.352)" fill="#e0e0e0" stroke="#707070" stroke-width="1"/>
            <path id="Path_90816" data-name="Path 90816" d="M371.067,134.061a8.847,8.847,0,0,1,2.452-.4c.626,0,.611-1.008,0-.955s-3.177.084-2.9,1.031A.481.481,0,0,0,371.067,134.061Z" transform="translate(-87.559 -31.352)" fill="none" stroke="#e0e0e0" stroke-width="1"/>
            <path id="Path_90817" data-name="Path 90817" d="M363.867,143.323a.489.489,0,0,0,.481-.474,7.325,7.325,0,0,1,.374-2.291.474.474,0,0,0-.3-.6l-.009,0c-.947-.283-.978,2.291-1.023,2.9a.473.473,0,0,0,.474.466" transform="translate(-85.857 -33.061)" fill="#e0e0e0" stroke="#707070" stroke-width="1"/>
            <path id="Path_90818" data-name="Path 90818" d="M363.867,143.323a.489.489,0,0,0,.481-.474,7.325,7.325,0,0,1,.374-2.291.474.474,0,0,0-.3-.6l-.009,0c-.947-.283-.978,2.291-1.023,2.9A.473.473,0,0,0,363.867,143.323Z" transform="translate(-85.857 -33.061)" fill="none" stroke="#e0e0e0" stroke-width="1"/>
            <path id="Path_90819" data-name="Path 90819" d="M364.8,146.669a.476.476,0,0,0-.909.283c.244.6.993,3,1.833,2.475a.481.481,0,0,0,.115-.664,7.632,7.632,0,0,1-1.039-2.093" transform="translate(-85.969 -34.574)" fill="#e0e0e0" stroke="#707070" stroke-width="1"/>
            <path id="Path_90820" data-name="Path 90820" d="M364.8,146.669a.476.476,0,0,0-.909.283c.244.6.993,3,1.833,2.475a.481.481,0,0,0,.115-.664A7.632,7.632,0,0,1,364.8,146.669Z" transform="translate(-85.969 -34.574)" fill="none" stroke="#e0e0e0" stroke-width="1"/>
            <path id="Path_90821" data-name="Path 90821" d="M368.02,134.911a.465.465,0,0,0-.649-.11l-.015.011c-.474.4-2.536,1.894-1.757,2.528a.473.473,0,0,0,.661-.1l0,0a7.562,7.562,0,0,1,1.657-1.65.481.481,0,0,0,.1-.672" transform="translate(-86.337 -31.828)" fill="#e0e0e0" stroke="#707070" stroke-width="1"/>
            <path id="Path_90822" data-name="Path 90822" d="M368.02,134.911a.465.465,0,0,0-.649-.11l-.015.011c-.474.4-2.536,1.894-1.757,2.528a.473.473,0,0,0,.661-.1l0,0a7.562,7.562,0,0,1,1.657-1.65A.481.481,0,0,0,368.02,134.911Z" transform="translate(-86.337 -31.828)" fill="none" stroke="#e0e0e0" stroke-width="1"/>
            <path id="Path_90823" data-name="Path 90823" d="M384.689,145.235c.8,0,.558-1.092.634-1.619.046-.321-.145-.7-.5-.664a.527.527,0,0,0-.475.574.521.521,0,0,0,.017.09c.092.527-.4,1.443.321,1.619" transform="translate(-90.793 -33.774)" fill="#e0e0e0" stroke="#707070" stroke-width="1"/>
            <path id="Path_90824" data-name="Path 90824" d="M384.689,145.235c.8,0,.558-1.092.634-1.619.046-.321-.145-.7-.5-.664a.527.527,0,0,0-.475.574.521.521,0,0,0,.017.09C384.459,144.143,383.963,145.059,384.689,145.235Z" transform="translate(-90.793 -33.774)" fill="none" stroke="#e0e0e0" stroke-width="1"/>
            <path id="Path_90825" data-name="Path 90825" d="M252.6,383.009a2.383,2.383,0,1,0-2.383-2.383,2.383,2.383,0,0,0,2.383,2.383m0-3.819a1.436,1.436,0,1,1-1.327,1.537,1.361,1.361,0,0,1,0-.209,1.436,1.436,0,0,1,1.327-1.327" transform="translate(-59.118 -89.365)" fill="#fab6b6" stroke="#707070" stroke-width="1"/>
            <path id="Path_90826" data-name="Path 90826" d="M248.9,393.243a4.674,4.674,0,0,0-4.674,4.674c.214,6.194,9.165,6.186,9.356,0a4.682,4.682,0,0,0-4.682-4.674m0,8.4a3.727,3.727,0,0,1,0-7.454,3.727,3.727,0,0,1,0,7.454" transform="translate(-57.701 -92.909)" fill="#fab6b6" stroke="#707070" stroke-width="1"/>
            <path id="Path_90827" data-name="Path 90827" d="M248.9,393.243a4.674,4.674,0,0,0-4.674,4.674c.214,6.194,9.165,6.186,9.356,0A4.682,4.682,0,0,0,248.9,393.243Zm0,8.4a3.727,3.727,0,0,1,0-7.454A3.727,3.727,0,0,1,248.9,401.644Z" transform="translate(-57.701 -92.909)" fill="none" stroke="#fab6b6" stroke-width="1"/>
            <path id="Path_90828" data-name="Path 90828" d="M241.213,399.133a7.168,7.168,0,0,1-1.077.084c-.726-.122-.947.855-.2.947a7.951,7.951,0,0,0,1.413-.084.481.481,0,0,0-.137-.947Z" transform="translate(-56.579 -94.301)" fill="#fab6b6" stroke="#707070" stroke-width="1"/>
            <path id="Path_90829" data-name="Path 90829" d="M241.213,399.133a7.168,7.168,0,0,1-1.077.084c-.726-.122-.947.855-.2.947a7.951,7.951,0,0,0,1.413-.084.481.481,0,0,0-.137-.947Z" transform="translate(-56.579 -94.301)" fill="none" stroke="#fab6b6" stroke-width="1"/>
            <path id="Path_90830" data-name="Path 90830" d="M249.29,385.232a.477.477,0,0,0,.9-.313c-.244-.58-1.107-2.986-1.909-2.413a.465.465,0,0,0-.1.651l.01.014a7.456,7.456,0,0,1,1.1,2.062" transform="translate(-58.615 -90.352)" fill="#fab6b6" stroke="#707070" stroke-width="1"/>
            <path id="Path_90831" data-name="Path 90831" d="M249.29,385.232a.477.477,0,0,0,.9-.313c-.244-.58-1.107-2.986-1.909-2.413a.465.465,0,0,0-.1.651l.01.014A7.456,7.456,0,0,1,249.29,385.232Z" transform="translate(-58.615 -90.352)" fill="none" stroke="#fab6b6" stroke-width="1"/>
            <path id="Path_90832" data-name="Path 90832" d="M236.22,398.323a7.644,7.644,0,0,1-2.054-1.1.481.481,0,0,0-.672.092c-.6.764,2,1.795,2.574,1.94a.481.481,0,0,0,.153-.932Z" transform="translate(-55.145 -93.827)" fill="#fab6b6" stroke="#707070" stroke-width="1"/>
            <path id="Path_90833" data-name="Path 90833" d="M236.22,398.323a7.644,7.644,0,0,1-2.054-1.1.481.481,0,0,0-.672.092c-.6.764,2,1.795,2.574,1.94a.481.481,0,0,0,.153-.932Z" transform="translate(-55.145 -93.827)" fill="none" stroke="#fab6b6" stroke-width="1"/>
            <path id="Path_90834" data-name="Path 90834" d="M245.555,380.761a.482.482,0,0,0,.39-.2c.542-.825-1.894-1.6-2.475-1.833a.481.481,0,0,0-.283.916,17.158,17.158,0,0,1,2.368,1.115" transform="translate(-57.385 -89.478)" fill="#fab6b6" stroke="#707070" stroke-width="1"/>
            <path id="Path_90835" data-name="Path 90835" d="M245.555,380.761a.482.482,0,0,0,.39-.2c.542-.825-1.894-1.6-2.475-1.833a.481.481,0,0,0-.283.916A17.158,17.158,0,0,1,245.555,380.761Z" transform="translate(-57.385 -89.478)" fill="none" stroke="#fab6b6" stroke-width="1"/>
            <path id="Path_90836" data-name="Path 90836" d="M236.9,379.6a8.846,8.846,0,0,1,2.452-.4c.626,0,.611-1.008,0-.955s-3.177.084-2.9,1.031a.481.481,0,0,0,.451.328" transform="translate(-55.859 -89.365)" fill="#fab6b6" stroke="#707070" stroke-width="1"/>
            <path id="Path_90837" data-name="Path 90837" d="M236.9,379.6a8.846,8.846,0,0,1,2.452-.4c.626,0,.611-1.008,0-.955s-3.177.084-2.9,1.031A.481.481,0,0,0,236.9,379.6Z" transform="translate(-55.859 -89.365)" fill="none" stroke="#fab6b6" stroke-width="1"/>
            <path id="Path_90838" data-name="Path 90838" d="M229.695,388.864a.489.489,0,0,0,.481-.474,7.325,7.325,0,0,1,.374-2.291.474.474,0,0,0-.3-.6l-.009,0c-.947-.283-.978,2.291-1.023,2.9a.473.473,0,0,0,.474.466" transform="translate(-54.157 -91.074)" fill="#fab6b6" stroke="#707070" stroke-width="1"/>
            <path id="Path_90839" data-name="Path 90839" d="M229.695,388.864a.489.489,0,0,0,.481-.474,7.325,7.325,0,0,1,.374-2.291.474.474,0,0,0-.3-.6l-.009,0c-.947-.283-.978,2.291-1.023,2.9A.473.473,0,0,0,229.695,388.864Z" transform="translate(-54.157 -91.074)" fill="none" stroke="#fab6b6" stroke-width="1"/>
            <path id="Path_90840" data-name="Path 90840" d="M230.623,392.209a.476.476,0,0,0-.91.28v0c.244.6.993,3,1.833,2.474a.481.481,0,0,0,.115-.664,7.633,7.633,0,0,1-1.039-2.093" transform="translate(-54.268 -92.586)" fill="#fab6b6" stroke="#707070" stroke-width="1"/>
            <path id="Path_90841" data-name="Path 90841" d="M230.623,392.209a.476.476,0,0,0-.91.28v0c.244.6.993,3,1.833,2.474a.481.481,0,0,0,.115-.664A7.633,7.633,0,0,1,230.623,392.209Z" transform="translate(-54.268 -92.586)" fill="none" stroke="#fab6b6" stroke-width="1"/>
            <path id="Path_90842" data-name="Path 90842" d="M233.848,380.452a.465.465,0,0,0-.649-.11l-.015.011c-.474.4-2.536,1.894-1.757,2.528a.473.473,0,0,0,.661-.1l0,0a7.563,7.563,0,0,1,1.657-1.65.481.481,0,0,0,.1-.672" transform="translate(-54.637 -89.841)" fill="#fab6b6" stroke="#707070" stroke-width="1"/>
            <path id="Path_90843" data-name="Path 90843" d="M233.848,380.452a.465.465,0,0,0-.649-.11l-.015.011c-.474.4-2.536,1.894-1.757,2.528a.473.473,0,0,0,.661-.1l0,0a7.563,7.563,0,0,1,1.657-1.65A.481.481,0,0,0,233.848,380.452Z" transform="translate(-54.637 -89.841)" fill="none" stroke="#fab6b6" stroke-width="1"/>
            <path id="Path_90844" data-name="Path 90844" d="M250.517,390.776c.8,0,.558-1.092.634-1.619.046-.321-.145-.7-.5-.664a.527.527,0,0,0-.475.574.52.52,0,0,0,.017.09c.092.527-.4,1.443.321,1.619" transform="translate(-59.093 -91.787)" fill="#fab6b6" stroke="#707070" stroke-width="1"/>
            <path id="Path_90845" data-name="Path 90845" d="M250.517,390.776c.8,0,.558-1.092.634-1.619.046-.321-.145-.7-.5-.664a.527.527,0,0,0-.475.574.52.52,0,0,0,.017.09C250.287,389.684,249.791,390.6,250.517,390.776Z" transform="translate(-59.093 -91.787)" fill="none" stroke="#fab6b6" stroke-width="1"/>
          </g>
        </g>
      </g>
    </g>
    <g id="Rectangle_32035" data-name="Rectangle 32035" transform="translate(966 3660)" fill="none" stroke="#e0e0e0" stroke-width="1">
      <rect width="278" height="90" stroke="none"/>
      <rect x="0.5" y="0.5" width="277" height="89" fill="none"/>
    </g>
  </g>
</svg>
