<svg xmlns="http://www.w3.org/2000/svg" xmlns:xlink="http://www.w3.org/1999/xlink" width="1920" height="816" viewBox="0 0 1920 816">
  <defs>
    <clipPath id="clip-path">
      <rect id="Rectangle_31737" data-name="Rectangle 31737" width="1920" height="816" transform="translate(32.821 -5)" fill="#fff" stroke="#707070" stroke-width="1"/>
    </clipPath>
    <clipPath id="clip-path-2">
      <path id="Path_90208" data-name="Path 90208" d="M1951.821,561.028S1300.152,764.842,827.629,764.842c-312.311,0-795.808-74.022-795.808-74.022v-584.9S465.294-33,1035.5-33c503.281,0,916.322,65.909,916.322,65.909Z" fill="#fef3f2"/>
    </clipPath>
  </defs>
  <g id="light_blue_splash_updated" transform="translate(-32.821 5)" clip-path="url(#clip-path)">
    <path id="Path_90206" data-name="Path 90206" d="M1951.821,603.028S1300.152,806.842,827.629,806.842c-312.311,0-795.808-74.022-795.808-74.022v-576.9S465.294,17,1035.5,17c503.281,0,916.322,65.909,916.322,65.909Z" transform="translate(0 -21)" fill="#f1f9fd"/>
    <g id="Mask_Group_54014" data-name="Mask Group 54014" transform="translate(0 29)" clip-path="url(#clip-path-2)">
      <path id="Path_90201" data-name="Path 90201" d="M1465.563,229.013q.833,5.173,1.534,10.388c4.23,31.688,4.8,64.3,2.7,96q-.415,6.189-.953,12.319a579.922,579.922,0,0,1-13.179,81.7q-1.665,7.04-3.5,14.037C1416.766,578.6,1335.065,700.053,1228.141,789.2a797.372,797.372,0,0,1-90.18,64.908q-13.775,8.55-27.946,16.605-25.231,14.376-51.59,27.146C963.642,943.848,859,974.17,753.294,986.342q-3.68.422-7.365.819c-101.6,10.88-203.989,4.954-299.363-19.992q-5.433-1.417-10.846-2.924-13.476-3.755-26.646-8.113a573.617,573.617,0,0,1-54.221-21.026q-8.422-3.757-16.693-7.783A581.7,581.7,0,0,1,235.7,863.616a595.872,595.872,0,0,1-71.362-65.33A617.314,617.314,0,0,1,1.133,342.126C8.366,223.5,46.76,60.557,172.121,14.256c134.505-49.677,267.991,43.571,393.093,80.16,120.223,35.164,244.441,37.75,366.35,9.346,130.944-30.5,286.026-128.5,419.57-55.944,37.189,20.212,64.1,49.589,82.874,84.2,15.94,29.372,26.015,62.509,31.556,97" transform="translate(-125.01 -159.604) rotate(-13)" fill="none" stroke="#d1ebf8" stroke-width="1"/>
    </g>
    <path id="Path_90204" data-name="Path 90204" d="M1951.821,597.345c-251.19,137.695-709.128,306.9-1124.192,306.9S.207,817.045.207,817.045" transform="translate(0 -95)" fill="none" stroke="#80f2dd" stroke-width="1"/>
  </g>
</svg>
