<svg xmlns="http://www.w3.org/2000/svg" xmlns:xlink="http://www.w3.org/1999/xlink" width="1920" height="628" viewBox="0 0 1920 628"><script xmlns="" id="__gaOptOutExtension"/>
  <defs>
    <clipPath id="clip-path">
      <rect id="Rectangle_31799" data-name="Rectangle 31799" width="1920" height="628" transform="translate(1)" fill="#fff"/>
    </clipPath>
    <clipPath id="clip-path-3">
      <path id="Path_90360" data-name="Path 90360" d="M1920,0V120s-726.122,449.254-913.525,542.11C856.746,736.3,688.063,778,509.64,778,328.3,778,157.03,734.93,5.49,658.46q-2.76-1.395-5.49-2.8V0Z" transform="translate(1 -150)" fill="#edfdfa"/>
    </clipPath>
    <clipPath id="clip-path-4">
      <path id="Subtraction_21" data-name="Subtraction 21" d="M6590.5,777.5h-1136V744.293c19.315-4.852,38.758-10.3,57.79-16.186,18.909-5.851,37.913-12.294,56.485-19.152,18.467-6.819,37-14.231,55.091-22.029,18-7.76,36.036-16.11,53.608-24.817,42.149-20.884,115.322-61.715,217.487-121.359,82.094-47.927,183.081-108.1,300.156-178.836,202.979-122.647,387.622-236.8,395.382-241.6V777.5Z" transform="translate(-4670)" fill="#fff" stroke="#707070" stroke-width="1"/>
    </clipPath>
  </defs>
  <g id="light_lavander_HERO_splash" transform="translate(-1)" clip-path="url(#clip-path)">
    <g id="Mask_Group_54028" data-name="Mask Group 54028" clip-path="url(#clip-path)">
      <path id="Path_90203" data-name="Path 90203" d="M1920,0V120s-726.122,449.254-913.525,542.11C856.746,736.3,688.063,778,509.64,778,328.3,778,157.03,734.93,5.49,658.46q-2.76-1.395-5.49-2.8V0Z" transform="translate(1 -150)" fill="#f0f2f5"/>
    </g>
    <g id="Group_96022" data-name="Group 96022">
      <g id="Mask_Group_54040" data-name="Mask Group 54040" clip-path="url(#clip-path-3)">
        <path id="Path_90268" data-name="Path 90268" d="M.207,597.345C251.4,735.04,709.335,904.248,1124.4,904.248s827.422-87.2,827.422-87.2" transform="translate(1.179 -300)" fill="none" stroke="#80f2dd" stroke-width="1"/>
      </g>
    </g>
    <g id="Mask_Group_54019" data-name="Mask Group 54019" transform="translate(0 -150)" clip-path="url(#clip-path-4)">
      <path id="Path_90257" data-name="Path 90257" d="M.207,597.345C251.4,735.04,709.335,904.248,1124.4,904.248s827.422-87.2,827.422-87.2" transform="translate(1.179 -150)" fill="none" stroke="#c5aef6" stroke-width="1" opacity="0.4"/>
    </g>
  </g>
</svg>