<svg xmlns="http://www.w3.org/2000/svg" xmlns:xlink="http://www.w3.org/1999/xlink" width="278" height="131" viewBox="0 0 278 131">
  <defs>
    <clipPath id="clip-path">
      <rect id="Rectangle_31878" data-name="Rectangle 31878" width="278" height="131" rx="18" transform="translate(1262 3219)" fill="#08111f"/>
    </clipPath>
    <clipPath id="clip-path-2">
      <rect id="Rectangle_31872" data-name="Rectangle 31872" width="228" height="196" transform="translate(0 126.145)" fill="none"/>
    </clipPath>
    <clipPath id="clip-path-3">
      <rect id="Rectangle_31873" data-name="Rectangle 31873" width="228" height="196" transform="translate(0 322.146)" fill="none"/>
    </clipPath>
    <clipPath id="clip-path-4">
      <rect id="Rectangle_31874" data-name="Rectangle 31874" width="228" height="196" transform="translate(228 125.145)" fill="none"/>
    </clipPath>
  </defs>
  <g id="terraform_bkg" transform="translate(-1262 -3219)">
    <rect id="Rectangle_31861" data-name="Rectangle 31861" width="278" height="131" rx="18" transform="translate(1262 3219)" fill="#08111f"/>
    <g id="Mask_Group_54038" data-name="Mask Group 54038" clip-path="url(#clip-path)">
      <g id="Group_96021" data-name="Group 96021" transform="translate(500 -104)">
        <path id="Path_90355" data-name="Path 90355" d="M26.89,126.145h3.22L228,12.735V10.889L27.135,126l-.245.141ZM8.136,126,228,0V1.846L11.11,126.145H7.89Zm57,0L228,32.666v1.846L68.11,126.145H64.89Zm-19,0L228,21.777v1.846L49.11,126.145H45.89l.246-.141m38,0L228,43.555V45.4L87.11,126.145H83.89l.245-.141Zm19,0L228,54.443v1.846L106.109,126.145H102.89Zm18.755.141h3.22L228,67.179V65.333L122.135,126Zm95,0L228,119.777v1.846l-7.891,4.522ZM141.135,126,228,76.222v1.846l-83.891,48.077h-3.22Zm19,0L228,87.11v1.846l-64.891,37.189h-3.22Zm38,0L228,108.888v1.847l-26.89,15.41h-3.221Zm-19,0L228,98v1.846l-45.891,26.3H178.89Z" transform="translate(732 3031)" fill="#844fba"/>
        <g id="Group_96016" data-name="Group 96016" transform="translate(732 3031)">
          <g id="Group_96015" data-name="Group 96015" clip-path="url(#clip-path-2)">
            <path id="Path_90356" data-name="Path 90356" d="M121.89,322.146h3.22L228,263.179v-1.845L122.135,322.005Zm95,0L228,315.778v1.845l-7.891,4.523Zm-75.755-.141L228,272.223v1.845l-83.891,48.078h-3.22Zm19,0L228,283.111v1.845l-64.891,37.19h-3.22Zm38,0L228,304.889v1.846l-26.89,15.411h-3.221Zm-19,0L228,294v1.845l-45.891,26.3H178.89ZM201.11,126.146h-3.22L0,239.557V241.4L200.865,126.287Zm18.754.141L0,252.291v-1.845l216.89-124.3h3.22Zm-57,0L0,219.625V217.78l159.89-91.634h3.22Zm19,0L0,230.514v-1.845L178.89,126.146h3.22Zm-38,0L0,208.736v-1.845l140.89-80.745h3.22Zm-19,0L0,197.848V196l121.891-69.857h3.219l-.245.141M227.918,174.27,0,304.89v1.845l.082-.047L228,176.069v-1.846ZM228,163.335v1.845L.082,295.8,0,295.847V294L227.918,163.382Zm0,21.777v1.846L.082,317.577,0,317.624v-1.845l227.918-130.62Zm0-32.666v1.845L.082,284.911,0,284.958v-1.846L227.918,152.493Zm0-10.889V143.4L.082,274.022,0,274.069v-1.846L227.918,141.6Zm0-10.889v1.845L.082,263.133,0,263.18v-1.846L227.918,130.715Z" fill="#844fba"/>
          </g>
        </g>
        <g id="Group_96018" data-name="Group 96018" transform="translate(732 3031)">
          <g id="Group_96017" data-name="Group 96017" clip-path="url(#clip-path-3)">
            <path id="Path_90357" data-name="Path 90357" d="M106.11,322.146h-3.22L0,381.113v1.845l105.865-60.671Zm-95,0L0,328.514v-1.845l7.89-4.523Zm75.755.141L0,372.069v-1.845l83.891-48.078h3.22Zm-19,0L0,361.181v-1.845l64.89-37.19h3.22Zm-38,0L0,339.4v-1.846l26.89-15.411h3.22Zm19,0L0,350.292v-1.845l45.89-26.3h3.22l-.245.141M26.89,518.146h3.22L228,404.735V402.89L27.135,518.005Zm-18.754-.141L228,392v1.845L11.11,518.146H7.89Zm57,0L228,424.667v1.845L68.11,518.146H64.89Zm-19,0L228,413.778v1.845L49.11,518.146H45.89l.246-.141m38,0L228,435.556V437.4L87.11,518.146H83.89l.245-.141Zm19,0L228,446.444v1.845L106.109,518.146H102.89Zm18.755.141h3.22L228,459.179v-1.845L122.135,518.005Zm95,0L228,511.778v1.845l-7.891,4.523Zm-75.755-.141L228,468.223v1.845l-83.891,48.078h-3.22Zm19,0L228,479.111v1.845l-64.891,37.19h-3.22Zm38,0L228,500.889v1.846l-26.89,15.411h-3.221Zm-19,0L228,490v1.845l-45.891,26.3H178.89ZM.082,470.022,228,339.4v-1.844l-.082.047L0,468.223v1.846ZM0,480.957v-1.845l227.918-130.62.082-.047v1.845L.082,480.91ZM0,459.18v-1.846L227.918,326.715l.082-.047v1.844L.082,459.133Zm0,32.666V490l227.918-130.62.082-.047v1.845L.082,491.8Zm0,10.889V500.89L227.918,370.27l.082-.047v1.845L.082,502.688Zm0,10.889v-1.845l227.918-130.62.082-.047v1.845L.082,513.577Z" fill="#844fba"/>
          </g>
        </g>
        <path id="Path_90358" data-name="Path 90358" d="M349.89,125.145h3.22L456,66.178V64.333L350.135,125Zm95,0L456,118.777v1.845l-7.891,4.523ZM369.135,125,456,75.222v1.845l-83.891,48.078h-3.22Zm19,0L456,86.11v1.845l-64.891,37.19h-3.22Zm38,0L456,107.888v1.846l-26.89,15.411h-3.221Zm-19,0L456,97v1.845l-45.891,26.3H406.89Z" transform="translate(732 3031)" fill="#844fba"/>
        <g id="Group_96020" data-name="Group 96020" transform="translate(732 3031)">
          <g id="Group_96019" data-name="Group 96019" clip-path="url(#clip-path-4)">
            <path id="Path_90359" data-name="Path 90359" d="M374.675,125.216l.054-.07h-2.148L228,311.589v2.768Zm-63.276-.07h-2.147L228,229.92v2.769l83.344-107.473Zm38,0h-2.148L228,278.92v2.769L349.341,125.216Zm12.67,0h-2.148L228,295.252v2.768l134.011-172.8Zm-25.333,0h-2.148L228,262.584v2.768L336.678,125.216Zm-12.67,0h-2.148L228,246.252v2.768l96.008-123.8ZM418.8,263.632a.851.851,0,0,0-.339-.251,1.206,1.206,0,0,0-.936,0,.892.892,0,0,0-.348.266l-44.581,57.5h2.148L418,265.366l38,48.995v-2.772L418.831,263.67ZM418,183.7l38,48.995v-2.772L418.831,182l-.026-.038a.854.854,0,0,0-.34-.251,1.2,1.2,0,0,0-.935,0,.89.89,0,0,0-.348.265l-107.863,139.1-.054.071h2.147Zm.8,14.6a.854.854,0,0,0-.34-.251,1.222,1.222,0,0,0-.935,0,.89.89,0,0,0-.348.265L321.933,321.146h2.148L418,200.034l38,49v-2.772l-37.169-47.918Zm-.8,15.984a1.208,1.208,0,0,0-.468.091.779.779,0,0,0-.31.231L334.659,321.075l-.055.071h2.148L418,216.366l38,48.995v-2.767l-37.2-47.967a.871.871,0,0,0-.34-.251A1.18,1.18,0,0,0,418,214.284Zm0,16.336a1.221,1.221,0,0,0-.469.092.765.765,0,0,0-.307.229l-69.9,90.134-.055.071h2.148L418,232.7l38,48.995v-2.767l-37.2-47.962a.854.854,0,0,0-.34-.251,1.163,1.163,0,0,0-.462-.093m.773,16.651a.408.408,0,0,0-.113-.1,1,1,0,0,0-.2-.116.438.438,0,0,0-.112-.039.746.746,0,0,0-.224-.047,1.1,1.1,0,0,0-.587.078l-.089.04,0,0a.405.405,0,0,0-.1.069.519.519,0,0,0-.051.042.169.169,0,0,0-.066.061.5.5,0,0,0-.06.069l-57.237,73.816h2.147L418,249.03l38,49v-2.772l-37.206-47.969Zm-.454-.113h0l0,0Zm.073.03h0l0,0Z" fill="#844fba"/>
          </g>
        </g>
      </g>
    </g>
  </g>
</svg>
