<svg id="ansible_logo" xmlns="http://www.w3.org/2000/svg" xmlns:xlink="http://www.w3.org/1999/xlink" width="120" height="39.181" viewBox="0 0 120 39.181">
  <defs>
    <clipPath id="clip-path">
      <rect id="Rectangle_24809" data-name="Rectangle 24809" width="120" height="39.181" fill="none"/>
    </clipPath>
  </defs>
  <g id="Group_81760" data-name="Group 81760" transform="translate(0 0)" clip-path="url(#clip-path)">
    <path id="Path_81317" data-name="Path 81317" d="M39.183,19.589A19.591,19.591,0,1,1,19.59,0,19.593,19.593,0,0,1,39.183,19.589" transform="translate(0 0)" fill="#1a1918"/>
    <path id="Path_81318" data-name="Path 81318" d="M19.921,11.967l5.07,12.513-7.658-6.031Zm9.006,15.395L21.128,8.6a1.248,1.248,0,0,0-1.208-.828,1.291,1.291,0,0,0-1.241.828L10.119,29.18h2.928l3.388-8.487,10.111,8.169a1.651,1.651,0,0,0,1.082.477,1.4,1.4,0,0,0,1.431-1.4,1.88,1.88,0,0,0-.133-.578Z" transform="translate(0 0)" fill="#fff"/>
    <path id="Path_81319" data-name="Path 81319" d="M66.035,25.45a.669.669,0,0,1-.572-.256l-6.494-8.54v8.711H57.488V14.638a.763.763,0,0,1,.757-.768.678.678,0,0,1,.589.273l6.477,8.523V13.989h1.481V24.7a.745.745,0,0,1-.737.752h-.021m8.568.1a12.8,12.8,0,0,1-4.474-.854l.353-1.229A13.535,13.535,0,0,0,74.6,24.2c1.868,0,2.844-.665,2.844-1.6,0-.854-.757-1.281-3.365-2.511s-3.634-2.014-3.634-3.552c0-1.93,1.48-2.715,4.274-2.715a16.6,16.6,0,0,1,3.971.548l-.236,1.263a16.844,16.844,0,0,0-3.7-.46c-1.968,0-2.776.376-2.776,1.316,0,.921.589,1.313,3.347,2.6,2.911,1.35,3.65,2.033,3.65,3.434,0,2.032-1.918,3.04-4.374,3.04M82.313,13.97h1.53V25.345h-1.53Zm11.755,6.092h-3.8v3.86h3.8a1.936,1.936,0,1,0,0-3.86m-.741-4.919H90.266v3.638h3.061a1.942,1.942,0,0,0,2.12-1.879c0-1.076-.774-1.759-2.12-1.759m.758,10.076H89.509a.763.763,0,0,1-.774-.768V14.613a.778.778,0,0,1,.774-.769h3.785c2.321,0,3.7,1.144,3.7,2.938a2.857,2.857,0,0,1-1.447,2.408,2.908,2.908,0,0,1,2.17,2.767,3.377,3.377,0,0,1-3.634,3.262m8.1-.126a.779.779,0,0,1-.766-.768V13.708h1.532V23.7h6.111v1.383Zm14.007.063c-3.13,0-5.013-1.161-5.013-3.5a2.84,2.84,0,0,1,1.835-2.664,2.852,2.852,0,0,1-1.481-2.443c0-2.118,1.633-3.126,4.706-3.126a18.181,18.181,0,0,1,3.685.393l-.169,1.264a22.924,22.924,0,0,0-3.634-.324c-1.985,0-3.045.547-3.045,1.861a2.062,2.062,0,0,0,2.272,1.86h2.625a.647.647,0,0,1,.656.636v.014a.651.651,0,0,1-.657.665h-2.826c-1.481,0-2.422.733-2.422,1.861,0,1.656,1.53,2.152,3.447,2.152a17.01,17.01,0,0,0,3.613-.41L120,24.638a14.891,14.891,0,0,1-3.786.513m-67.1-8.929L51.8,22.94l-4.05-3.24Zm4.764,8.266L49.754,14.411a.669.669,0,0,0-.64-.444.69.69,0,0,0-.656.444L43.946,25.765l1.532-.3,1.792-4.556,5.347,4.385a.868.868,0,0,0,.573.257.745.745,0,0,0,.756-.733V24.8a1.027,1.027,0,0,0-.07-.31Z" transform="translate(0 0)" fill="#1a1918"/>
  </g>
</svg>
