<svg id="Backup_icon" xmlns="http://www.w3.org/2000/svg" xmlns:xlink="http://www.w3.org/1999/xlink" width="48" height="48" viewBox="0 0 48 48">
  <defs>
    <clipPath id="clip-path">
      <rect id="Rectangle_31920" data-name="Rectangle 31920" width="48" height="48" fill="none"/>
    </clipPath>
    <clipPath id="clip-path-2">
      <rect id="Rectangle_31919" data-name="Rectangle 31919" width="48" height="48" transform="translate(0 0)" fill="none"/>
    </clipPath>
    <linearGradient id="linear-gradient" x1="0.868" y1="0.088" x2="-0.222" y2="1.024" gradientUnits="objectBoundingBox">
      <stop offset="0" stop-color="#2aa5dc"/>
      <stop offset="1" stop-color="#d1ebf8" stop-opacity="0.4"/>
    </linearGradient>
  </defs>
  <g id="Group_97074" data-name="Group 97074" clip-path="url(#clip-path)">
    <g id="Group_97073" data-name="Group 97073">
      <g id="Group_97072" data-name="Group 97072" clip-path="url(#clip-path-2)">
        <g id="Group_97071" data-name="Group 97071" opacity="0">
          <g id="Group_97070" data-name="Group 97070">
            <g id="Group_97069" data-name="Group 97069" clip-path="url(#clip-path-2)">
              <rect id="Rectangle_31917" data-name="Rectangle 31917" width="48" height="48" transform="translate(0 0)"/>
            </g>
          </g>
        </g>
        <path id="Path_90509" data-name="Path 90509" d="M17,34.555H11.539A10.547,10.547,0,0,1,10.615,13.5a13.415,13.415,0,0,1,26.737-.384,6.712,6.712,0,0,1,3.914,6.1c0,.082,0,.164,0,.248a7.67,7.67,0,0,1-1.218,15.06" fill="none" stroke="#082330" stroke-linecap="round" stroke-linejoin="round" stroke-width="2"/>
        <path id="Path_90510" data-name="Path 90510" d="M24,22A13,13,0,1,0,37,35,13,13,0,0,0,24,22M17.947,37.375a1,1,0,1,1-1.862.73A8.505,8.505,0,0,1,24,26.5a8.578,8.578,0,0,1,.951.058L23.711,23.9a1,1,0,1,1,1.813-.845l2.109,4.522.005.016c.013.026.019.053.03.08a1.024,1.024,0,0,1,.062.28c0,.017.006.033.006.051a1.018,1.018,0,0,1-.061.346c0,.01,0,.021-.006.032s-.01.012-.013.02-.013.045-.024.067a.992.992,0,0,1-.479.453l-.034.015a1.007,1.007,0,0,1-.382.085,1.051,1.051,0,0,1-.185-.043,1,1,0,0,1-.179-.032,6.505,6.505,0,0,0-8.426,8.429M24,43.5a8.533,8.533,0,0,1-.961-.06l1.252,2.685a1,1,0,1,1-1.812.846l-2.112-4.529c-.008-.017-.012-.036-.019-.053l-.006-.015a1.006,1.006,0,0,1-.077-.347.181.181,0,0,0,0-.023.993.993,0,0,1,.056-.316c.008-.023,0-.046.013-.069s.021-.028.028-.044.005-.016.009-.024.028-.032.039-.051a.987.987,0,0,1,.2-.258.113.113,0,0,1,.018-.012.986.986,0,0,1,.318-.181h0A.984.984,0,0,1,21.321,41c.006,0,.012,0,.019,0a.979.979,0,0,1,.286.051,6.5,6.5,0,0,0,8.427-8.427,1,1,0,1,1,1.861-.732A8.5,8.5,0,0,1,24,43.5" fill="url(#linear-gradient)"/>
      </g>
    </g>
  </g>
</svg>
