<svg xmlns="http://www.w3.org/2000/svg" xmlns:xlink="http://www.w3.org/1999/xlink" width="48" height="48" viewBox="0 0 48 48">
  <defs>
    <linearGradient id="linear-gradient" x1="0.88" y1="0.123" x2="0.129" y2="1.066" gradientUnits="objectBoundingBox">
      <stop offset="0" stop-color="#2aa5dc"/>
      <stop offset="1" stop-color="#d1ebf8" stop-opacity="0.039"/>
    </linearGradient>
  </defs>
  <g id="multi-cluster_icon" transform="translate(0 0)">
    <rect id="Rectangle_31745" data-name="Rectangle 31745" width="48" height="48" opacity="0"/>
    <path id="Path_90209" data-name="Path 90209" d="M1,31.351v9.3a2,2,0,0,0,1,1.732l7,4.042a2,2,0,0,0,2,0l7-4.042a2,2,0,0,0,1-1.732v-9.3a2,2,0,0,0-1-1.732l-7-4.041a2,2,0,0,0-2,0L2,29.619A2,2,0,0,0,1,31.351Z" fill="none" stroke="#082330" stroke-linecap="round" stroke-linejoin="round" stroke-width="2"/>
    <line id="Line_6039" data-name="Line 6039" y1="3.21" x2="5" transform="translate(19 26.986)" fill="none" stroke="#082330" stroke-linecap="round" stroke-linejoin="round" stroke-width="2"/>
    <path id="Path_90210" data-name="Path 90210" d="M24,26.986l4.077,2.6A2,2,0,0,1,29,31.275v9.374a2,2,0,0,0,1,1.732l7,4.042a2,2,0,0,0,2,0l7-4.042a2,2,0,0,0,1-1.732v-9.3a2,2,0,0,0-1-1.732l-7-4.042a2,2,0,0,0-2,0l-2.873,1.659" fill="none" stroke="#082330" stroke-linecap="round" stroke-linejoin="round" stroke-width="2"/>
    <path id="Path_90211" data-name="Path 90211" d="M25,1.577a2,2,0,0,0-2,0L16,5.618A2,2,0,0,0,15,7.35v9.3a2,2,0,0,0,1,1.732l7,4.041a2,2,0,0,1,1,1.732v2.832" fill="none" stroke="#082330" stroke-linecap="round" stroke-linejoin="round" stroke-width="2"/>
    <path id="Path_90212" data-name="Path 90212" d="M46.814,15.083A2.78,2.78,0,0,1,45.893,13a2.826,2.826,0,0,1,.921-2.087c.705-.623,1.382-1.463,1.084-2.357a16.51,16.51,0,0,0-.65-1.6c-.407-.84-1.491-.948-2.412-.894a2.853,2.853,0,0,1-2.113-.813,2.751,2.751,0,0,1-.813-2.113c.054-.949-.054-2.005-.894-2.412a16.51,16.51,0,0,0-1.6-.65c-.894-.3-1.707.379-2.358,1.084a2.779,2.779,0,0,1-2.086.921,2.822,2.822,0,0,1-2.086-.921C32.263.451,31.423-.226,30.529.072a16.39,16.39,0,0,0-1.6.65c-.84.407-.949,1.491-.9,2.412a2.849,2.849,0,0,1-.813,2.113,2.853,2.853,0,0,1-2.113.813c-.948-.054-2.005.054-2.412.894a16.768,16.768,0,0,0-.65,1.6c-.3.894.379,1.707,1.084,2.357A2.782,2.782,0,0,1,24.053,13a2.824,2.824,0,0,1-.921,2.086c-.7.624-1.382,1.464-1.084,2.358a16.644,16.644,0,0,0,.65,1.6c.407.84,1.491.949,2.412.9a2.787,2.787,0,0,1,2.926,2.926c-.054.948.055,2,.9,2.412a16.644,16.644,0,0,0,1.6.65c.894.3,1.707-.379,2.358-1.084a2.779,2.779,0,0,1,2.086-.921,2.822,2.822,0,0,1,2.086.921c.624.7,1.464,1.382,2.358,1.084a16.768,16.768,0,0,0,1.6-.65c.84-.407.948-1.491.894-2.412a2.327,2.327,0,0,1,.054-.623,3.42,3.42,0,0,1,2.276-2.276,4.853,4.853,0,0,1,.623-.055c.949.055,2.005-.054,2.412-.894a16.492,16.492,0,0,0,.65-1.6c.244-.867-.433-1.68-1.111-2.331m-9.05-2.059a2.818,2.818,0,1,1-2.818-2.818,2.816,2.816,0,0,1,2.818,2.818" fill="url(#linear-gradient)"/>
  </g>
</svg>
