<svg id="quick_deploy_icon" xmlns="http://www.w3.org/2000/svg" xmlns:xlink="http://www.w3.org/1999/xlink" width="48" height="48" viewBox="0 0 48 48">
  <defs>
    <linearGradient id="linear-gradient" x1="0.673" y1="0.169" x2="0.062" y2="0.894" gradientUnits="objectBoundingBox">
      <stop offset="0" stop-color="#2aa5dc"/>
      <stop offset="1" stop-color="#d1ebf8" stop-opacity="0.4"/>
    </linearGradient>
  </defs>
  <g id="Group_95992" data-name="Group 95992">
    <rect id="Rectangle_31844" data-name="Rectangle 31844" width="48" height="48" fill="#fff" opacity="0"/>
    <line id="Line_6052" data-name="Line 6052" y1="10.261" transform="translate(27 10.739)" fill="none" stroke="#082330" stroke-linecap="round" stroke-linejoin="round" stroke-width="2"/>
    <line id="Line_6053" data-name="Line 6053" x2="9.315" y2="9.315" transform="translate(27 21)" fill="none" stroke="#082330" stroke-linecap="round" stroke-linejoin="round" stroke-width="2"/>
    <path id="Path_90310" data-name="Path 90310" d="M7,22.09v-8A13.09,13.09,0,0,1,20.087,1H33.928A13.089,13.089,0,0,1,47,14.077V27.923A13.09,13.09,0,0,1,33.928,41L12.1,40.667" fill="none" stroke="#082330" stroke-linecap="round" stroke-linejoin="round" stroke-width="2"/>
    <path id="Path_90311" data-name="Path 90311" d="M22.669,31a.91.91,0,0,0-.884-.6h-7.7l1.568-9.9a.912.912,0,0,0-.6-1.047,1.246,1.246,0,0,0-1.3.408L.32,35.261A1.173,1.173,0,0,0,.056,36.4a.907.907,0,0,0,.883.6h7.7L7.071,46.9a.914.914,0,0,0,.6,1.047A1,1,0,0,0,8,48a1.312,1.312,0,0,0,.968-.461L22.4,32.139A1.17,1.17,0,0,0,22.669,31" fill="url(#linear-gradient)"/>
  </g>
</svg>
