<svg xmlns="http://www.w3.org/2000/svg" xmlns:xlink="http://www.w3.org/1999/xlink" width="468.5" height="105.305" viewBox="0 0 468.5 105.305">
  <defs>
    <clipPath id="clip-path">
      <rect id="Rectangle_31301" data-name="Rectangle 31301" width="468" height="102.596" fill="none"/>
    </clipPath>
  </defs>
  <g id="ACS_logo_slogan" transform="translate(-726 -7941.695)">
    <text id="open_source_cloud_computing" data-name="open source cloud computing" transform="translate(1017 8040)" fill="rgba(255,255,255,0.65)" font-size="22" font-family="DMSans-Medium, DM Sans" font-weight="500" letter-spacing="-0.005em"><tspan x="-154" y="0">open source cloud computing</tspan></text>
    <line id="Line_6014" data-name="Line 6014" x2="337" transform="translate(857.5 8020.5)" fill="none" stroke="rgba(255,255,255,0.4)" stroke-width="1"/>
    <g id="ACS_logo" transform="translate(716.223 7931.688)">
      <g id="Group_95167" data-name="Group 95167" transform="translate(9.776 10.007)">
        <g id="Group_95166" data-name="Group 95166" clip-path="url(#clip-path)">
          <g id="Group_95168" data-name="Group 95168" transform="translate(0 0)">
            <path id="Path_89654" data-name="Path 89654" d="M34.44,26.54l-7.693,7.305-1.518,5.093L24.578,43.7l9.32,6.286-13.87-6.068L11.9,46.676l-7.15,7.106L1.662,72.528,9.952,83.687l11.16,2.926,6.393.434L73.967,81.3l5.688-2.817L84.9,73.72l1.324-10.968-4.45-7.865L69.443,50.207l-7.914,2.924,4.633-3.7.167-4.495L62.072,33.085,57.3,27.776l-6.718-3.682L43,23.55Z" transform="translate(1.002 14.203)" fill="#fff"/>
            <path id="Path_89623" data-name="Path 89623" d="M11.715,86.509S15.346,89.231,23.42,88.7a3.309,3.309,0,0,0,2.474-1.609s.869-1.973-2.874-1.114A16.372,16.372,0,0,1,14.127,84.4S5.1,79.375,3.582,71.807A19.49,19.49,0,0,1,5.25,56.532a25.752,25.752,0,0,1,5.819-6.768,15.578,15.578,0,0,1,12.749-3.508s3.748.3,11.217,6.35c0,0,2.4.675,1.839-1.419,0,0-1.975-5.027-10.029-6.843,0,0-.208-6.677,3.071-9.585,0,0,5.607-10.611,17.847-9.447,0,0,11.029-.256,17.01,14.008,0,0,1.908,6.375.58,11.4l7.823-1.4-7.47-15A23.873,23.873,0,0,0,48.742,22.635s-11.1-2.554-20.452,9.1c0,0-4.049,6.911-4.328,11.866,0,0-13.681-3.49-22.127,12.985,0,0-8.145,18.594,9.889,29.924" transform="translate(-0.001 13.508)" fill="#2aa5dc"/>
            <path id="Path_89624" data-name="Path 89624" d="M62.075,71.554s15.314-13.4,1.074-27.085c0,0,.782-3.839-1.074-5.167,0,0-.741-1.884-5.835.559a8.6,8.6,0,0,1-7.959-1.885l-4.4,3.562a18.9,18.9,0,0,0-8.721,9.145s-1.884,5.862,0,8.1a1.644,1.644,0,0,0,2.174-.826c.022-.05.042-.1.059-.151a15.422,15.422,0,0,1,4.113-11.237s10.712-8.6,21.4,2.921c0,0,6.4,9.362-.832,18.022,0,0-3.952,3.421-3.533,4.049,0,0,1.132,1.047,3.533,0" transform="translate(20.7 22.903)" fill="#2aa5dc"/>
            <path id="Path_89625" data-name="Path 89625" d="M32.188,35.181a31.8,31.8,0,0,1,1.539-9.833,38.061,38.061,0,0,1,3.815-6.8,16.319,16.319,0,0,0,2.421-4.328S42.474,6.314,33.47,5.06a6.658,6.658,0,0,0-4.745,1A9.082,9.082,0,0,1,25.557,7.8S21.3,9.268,21.437,6.546c0,0-.769-4.048,8.867-5.167,0,0,11.784-2.023,13.153,7.331,0,0,1.924,5.725-5.058,14.311,0,0-3.838,5.944-2.932,12.4s0,.308,0,.308l-1.186.769-2.308-1.076" transform="translate(12.918 0.722)" fill="#2aa5dc"/>
            <path id="Path_89626" data-name="Path 89626" d="M44.423,48.139s6.263-1.539,7.284-6.746l-8.934-.606s-2.419-.848-3.719-4.961c0,0-5.4-2.9-5.027-7.092,0,0,.838-5.212,5.308-5.959,0,0,4.657-1.153,5.6,6.3,0,0,2.195,6.306-2.079,6.754,0,0-.92,2.029,2.429,2.122,0,0,4.085,1.21,6.975-1.21a5.853,5.853,0,0,1,4.288-1.46,1.047,1.047,0,0,0-.417-1.419l-.059-.029s-5.8-4.955-6.808-11.972c0,0-4.782-.664-5.375-4.049,0,0-1.117-5.236,3.213-6.282a8.708,8.708,0,0,1,4.154,0s3.52-9.6,13.573-11.239c0,0,8.307-1.956,11.274,4.328a13.112,13.112,0,0,1,.556,6.284s-.694,3.14.037,3.944c0,0,2.693-.628,3.8,1.117s1.608,5.479-.627,6.351A5.537,5.537,0,0,1,78.3,27.3s-7.082,4.118-9.1,7.61a11.756,11.756,0,0,1-.943,1.076,7.155,7.155,0,0,1-2.727,1.492,2.271,2.271,0,0,1-1.781-.093,1.385,1.385,0,0,0,1.1,1.619,1.536,1.536,0,0,0,.192.022,44.588,44.588,0,0,0,6.233-1.411L94.74,29.226s-1.092-2.932-.216-4.36c0,0,.481-.76.922-.927a3.977,3.977,0,0,0,1.826-3.068s-.228-3.062,1.972-3.206c0,0,2.106-.128,1.932,2.454l-.151,1.7s3.221-1.222,4.3.976c0,0,2.179,4.415-.128,7.974a7.175,7.175,0,0,1-7.868,1.242l-1.539-.943s-27.3,11.3-27.611,12.042a9.94,9.94,0,0,0-3.732,3.974s-5.481,9.774-8.307,12.356a12.349,12.349,0,0,1-3.174,2.8l.527,1.4H47.52l-.7-4.495-.874-8.8Z" transform="translate(20.508 0.001)" fill="#2aa5dc"/>
            <path id="Path_89627" data-name="Path 89627" d="M62.119,6.088s3.7-2.308,5.1.208A37.757,37.757,0,0,0,67,12.508a8.213,8.213,0,0,0,3.071,5.167s2.512,2.791,0,5.306c0,0-7.538,5.306-8.935,8.515,0,0-3.35,4.743-8.794,1.116,0,0-7.119-4.327-5.862-10.609a4.551,4.551,0,0,1,2.651-1.677s-4.466-7.259-.42-12.425c0,0,6.563-8.378,13.4-1.815" transform="translate(27.942 2.157)" fill="#b9e1f6"/>
            <path id="Path_89628" data-name="Path 89628" d="M45.5,9.371a10.9,10.9,0,0,0-1.569,5.481A3,3,0,0,1,41.416,12.3s-.593-3.177,2.236-3.7c0,0,1.428-.349,1.848.769" transform="translate(24.944 5.158)" fill="#b9e1f6"/>
            <path id="Path_89629" data-name="Path 89629" d="M60.256,10.783s1.539-1.047,2.583,0c0,0,1.563,1.526.664,2.821,0,0-.664.385-1.084,0a9.71,9.71,0,0,0-1.813-1.7.924.924,0,0,1-.348-1.117" transform="translate(36.297 6.223)" fill="#b9e1f6"/>
            <path id="Path_89630" data-name="Path 89630" d="M42.8,20.025s-.7-3.56-3.023-4.538a3.047,3.047,0,0,0-2.934,1A5.967,5.967,0,0,0,35.3,21.7a6.9,6.9,0,0,0,4.841,3.791s1.978.6,3.12-2.4a5.562,5.562,0,0,0-.466-3.071" transform="translate(21.227 9.302)" fill="#b9e1f6"/>
            <path id="Path_89631" data-name="Path 89631" d="M41.9,35.97s4.543-1.847,10.146-8.657c0,0,1.539-2.14,3.674-1.582,0,0,3.121.744,1.117,5.723,0,0-3.91,12.332-13.217,13.592,0,0,0-6.472-1.722-9.075" transform="translate(25.266 15.462)" fill="#b9e1f6"/>
            <path id="Path_89632" data-name="Path 89632" d="M31.446,41.677S15.065,38.605,9.294,52.286c0,0-4.933,16.285,15.171,21.5a112.977,112.977,0,0,0,32.388-.559S77.74,70.535,81.77,67.457c0,0-1.834,6.981-21.287,10.051,0,0-28.389,4.1-37.975,2.235,0,0,1.4.184,2.607-1.86,0,0,.465-1.489-3.719-.654a18.264,18.264,0,0,1-16.01-8.374S-5.318,54.4,9.573,41.382c0,0,8.935-9.851,21.872.295" transform="translate(1.002 22.368)" fill="#b9e1f6"/>
            <path id="Path_89633" data-name="Path 89633" d="M55.05,11.554s-.192-1.924-2.821-2.078a2.64,2.64,0,0,0-3.107,1.9s.228.943,1.274.3c0,0,0-1.4,1.884-1.483,0,0,1.8.33,1.991,1.709,0,0,.731.281.784-.348" transform="translate(29.623 5.68)" fill="#2aa5dc"/>
            <path id="Path_89634" data-name="Path 89634" d="M55.316,11.857s.139-1.956,1.762-2.321a2.823,2.823,0,0,1,3.386,1.353s.367.856.034,1.092c0,0-.736.271-.959-1.013a1.711,1.711,0,0,0-1.771-.917,1.585,1.585,0,0,0-1.31,1.214s-.051,1.154-1.143.593" transform="translate(33.357 5.664)" fill="#2aa5dc"/>
            <path id="Path_89635" data-name="Path 89635" d="M49.849,15.046a1.858,1.858,0,0,1,1.8.256,18.326,18.326,0,0,0,1.667.9,8.024,8.024,0,0,0,3.495.856,14.453,14.453,0,0,0,1.972-.024c.529-.075,1.074-.128,1.6-.188a5.279,5.279,0,0,0,1.9-.5c.292-.154.587-.274.869-.447.256-.16.513-.375.76-.535.117-.074.434-.308.576-.282.189.034.367.543.317.72a7.825,7.825,0,0,0-1.042.556,10.6,10.6,0,0,0-1.347.838,6.165,6.165,0,0,0-1.72,1.659A11.352,11.352,0,0,1,57.229,22.8a4.839,4.839,0,0,1-2.615.628,5.506,5.506,0,0,1-2.74-.635,3.218,3.218,0,0,1-1.539-1.882,9.237,9.237,0,0,1,0-2.523,5.237,5.237,0,0,0-.139-2.223c-.107-.2-.147-.141-.327-.3a.589.589,0,0,1-.143-.6c.011-.043.074-.224.12-.223" transform="translate(29.97 8.999)" fill="#2aa5dc"/>
            <path id="Path_89636" data-name="Path 89636" d="M54.606,13.57a.742.742,0,1,1-.776-.707l.034,0a.725.725,0,0,1,.742.707v0" transform="translate(32.035 7.757)" fill="#2aa5dc"/>
            <path id="Path_89637" data-name="Path 89637" d="M56.5,13.494a.742.742,0,1,1-.776-.707l.035,0a.726.726,0,0,1,.741.709" transform="translate(33.177 7.711)" fill="#2aa5dc"/>
            <path id="Path_89638" data-name="Path 89638" d="M72.467,20.607a2.918,2.918,0,0,1,.37-3.387s1.912-.654,1.964-2.134c0,0-.527-2.331.561-3.145,0,0,1.805-1.239,2.037.909a5.991,5.991,0,0,1-.257,3.246s2.664-.683,3.867,0,1.621,4.335.534,6.226a5.257,5.257,0,0,1-4.933,2.111s-3.241.128-3.31-2.222a5.344,5.344,0,0,0-.834-1.606" transform="translate(43.473 6.987)" fill="#b9e1f6"/>
          </g>
          <path id="Path_89639" data-name="Path 89639" d="M79.985,50.429h-.093a6.432,6.432,0,0,1-3.025,2.547,10.485,10.485,0,0,1-3.979.774,10.339,10.339,0,0,1-2.983-.434,7.492,7.492,0,0,1-2.526-1.3A6.255,6.255,0,0,1,65.65,49.88a6.546,6.546,0,0,1-.639-2.958,6.751,6.751,0,0,1,.709-3.23,6.3,6.3,0,0,1,1.908-2.186,9.56,9.56,0,0,1,2.755-1.343,20.868,20.868,0,0,1,3.207-.707,31.144,31.144,0,0,1,3.324-.275c1.106-.03,2.13-.042,3.074-.042a3.544,3.544,0,0,0-1.3-2.89,4.654,4.654,0,0,0-3.067-1.071,6.657,6.657,0,0,0-3.072.707,8.343,8.343,0,0,0-2.479,1.927L66.427,34.08a12.486,12.486,0,0,1,4.462-2.666,16.054,16.054,0,0,1,5.276-.889,13.823,13.823,0,0,1,4.938.753,7.168,7.168,0,0,1,3.1,2.209,8.49,8.49,0,0,1,1.616,3.571,23.592,23.592,0,0,1,.455,4.891V53.193H79.985ZM78.3,43.508q-.777,0-1.927.07a9.811,9.811,0,0,0-2.232.383,5.085,5.085,0,0,0-1.819.963A2.211,2.211,0,0,0,71.57,46.7a1.948,1.948,0,0,0,1.05,1.819,4.355,4.355,0,0,0,2.183.6,6.894,6.894,0,0,0,1.927-.275,5.756,5.756,0,0,0,1.663-.774,3.789,3.789,0,0,0,1.159-1.274,3.7,3.7,0,0,0,.434-1.822V43.527Z" transform="translate(31.163 17.325)" fill="#fff"/>
          <path id="Path_89640" data-name="Path 89640" d="M76.035,31.076h6.279v2.911h.1a7.5,7.5,0,0,1,1.071-1.2,8,8,0,0,1,1.546-1.117,9.671,9.671,0,0,1,1.927-.821,7.665,7.665,0,0,1,2.227-.317,11.427,11.427,0,0,1,4.462.842,9.961,9.961,0,0,1,3.436,2.365,10.584,10.584,0,0,1,2.206,3.611,13.141,13.141,0,0,1,.772,4.6,13.99,13.99,0,0,1-.7,4.439,12.228,12.228,0,0,1-2,3.751,9.77,9.77,0,0,1-3.163,2.617,8.955,8.955,0,0,1-4.233.98,11.75,11.75,0,0,1-3.982-.66,6.369,6.369,0,0,1-3.025-2.253h-.091V63.56H76.035Zm6.279,11.058a5.714,5.714,0,0,0,1.444,4.049,6.016,6.016,0,0,0,8.054,0,6.432,6.432,0,0,0,0-8.1,6.017,6.017,0,0,0-8.054,0,5.726,5.726,0,0,0-1.444,4.051" transform="translate(45.856 17.335)" fill="#fff"/>
          <path id="Path_89641" data-name="Path 89641" d="M102.364,50.423h-.093a6.432,6.432,0,0,1-3.025,2.547,10.485,10.485,0,0,1-3.979.774,10.339,10.339,0,0,1-2.983-.434,7.492,7.492,0,0,1-2.526-1.3,6.255,6.255,0,0,1-1.728-2.139,6.546,6.546,0,0,1-.639-2.958,6.778,6.778,0,0,1,.709-3.23A6.3,6.3,0,0,1,90.007,41.5a9.6,9.6,0,0,1,2.762-1.343,20.928,20.928,0,0,1,3.207-.707,31.137,31.137,0,0,1,3.326-.275c1.1-.03,2.127-.042,3.072-.042a3.544,3.544,0,0,0-1.3-2.89A4.666,4.666,0,0,0,98,35.174a6.657,6.657,0,0,0-3.072.707,8.343,8.343,0,0,0-2.479,1.927l-3.643-3.732a12.486,12.486,0,0,1,4.462-2.666,16.048,16.048,0,0,1,5.278-.879,13.918,13.918,0,0,1,4.936.749,7.231,7.231,0,0,1,3.1,2.211,8.5,8.5,0,0,1,1.616,3.571,23.6,23.6,0,0,1,.455,4.894v11.24h-6.286Zm-1.686-6.92q-.777,0-1.927.07a9.81,9.81,0,0,0-2.232.383,5.085,5.085,0,0,0-1.819.963,2.211,2.211,0,0,0-.751,1.775A1.949,1.949,0,0,0,95,48.513a4.355,4.355,0,0,0,2.183.6,6.894,6.894,0,0,0,1.927-.275,5.756,5.756,0,0,0,1.663-.774,3.789,3.789,0,0,0,1.159-1.274,3.7,3.7,0,0,0,.434-1.822V43.521Z" transform="translate(60.982 17.33)" fill="#fff"/>
          <path id="Path_89642" data-name="Path 89642" d="M113.493,38.22a3.843,3.843,0,0,0-1.411-1.2,4.147,4.147,0,0,0-1.957-.483,5.232,5.232,0,0,0-4.028,1.549,6.448,6.448,0,0,0,0,8.1,5.21,5.21,0,0,0,4.028,1.546,3.709,3.709,0,0,0,1.957-.5,6.041,6.041,0,0,0,1.411-1.185L118,50.778a8.719,8.719,0,0,1-3.753,2.3,13.884,13.884,0,0,1-8.908-.156,11.617,11.617,0,0,1-3.916-2.344,10.992,10.992,0,0,1-2.617-3.664,12.45,12.45,0,0,1,0-9.556,11.03,11.03,0,0,1,2.617-3.662,11.623,11.623,0,0,1,3.916-2.346,13.884,13.884,0,0,1,8.908-.156,8.7,8.7,0,0,1,3.753,2.3Z" transform="translate(74.927 17.345)" fill="#fff"/>
          <path id="Path_89643" data-name="Path 89643" d="M114.173,25.494V40.786h.091a4.12,4.12,0,0,1,.774-1.274,5.978,5.978,0,0,1,1.318-1.141,7.239,7.239,0,0,1,1.822-.821,7.809,7.809,0,0,1,2.274-.317,9.408,9.408,0,0,1,4.189.8,6.044,6.044,0,0,1,2.479,2.207,8.886,8.886,0,0,1,1.2,3.321,25.392,25.392,0,0,1,.32,4.142V59.9h-6.825V49.064c0-.641-.021-1.3-.068-1.978a6.1,6.1,0,0,0-.408-1.889,2.936,2.936,0,0,0-3.072-1.959,4.232,4.232,0,0,0-2.139.483,3.212,3.212,0,0,0-1.248,1.274,5.123,5.123,0,0,0-.571,1.8,15.358,15.358,0,0,0-.138,2.095V59.9h-6.827v-34.4Z" transform="translate(87.58 10.629)" fill="#fff"/>
          <path id="Path_89644" data-name="Path 89644" d="M139.676,49.369a10.88,10.88,0,0,1-4.14,3.23,12.415,12.415,0,0,1-5.19,1.138,13.971,13.971,0,0,1-4.8-.821,11.57,11.57,0,0,1-3.914-2.344,10.992,10.992,0,0,1-2.617-3.664,12.4,12.4,0,0,1,0-9.554,10.983,10.983,0,0,1,2.617-3.662,11.582,11.582,0,0,1,3.914-2.349,14.032,14.032,0,0,1,4.8-.816,11,11,0,0,1,4.3.816,8.993,8.993,0,0,1,3.277,2.349A10.66,10.66,0,0,1,140,37.355a14.82,14.82,0,0,1,.721,4.777V44.27H124.883a5.424,5.424,0,0,0,1.777,3.116,5.016,5.016,0,0,0,3.37,1.159,5.09,5.09,0,0,0,2.843-.751,7.545,7.545,0,0,0,2.025-1.927ZM133.9,39.631a3.968,3.968,0,0,0-1.138-2.96,4.051,4.051,0,0,0-3.051-1.229,5,5,0,0,0-3.482,1.3,4.145,4.145,0,0,0-.963,1.32,4.416,4.416,0,0,0-.389,1.572Z" transform="translate(101.85 17.335)" fill="#fff"/>
          <path id="Path_89645" data-name="Path 89645" d="M144.964,38.215a3.843,3.843,0,0,0-1.411-1.2,4.147,4.147,0,0,0-1.957-.483,5.232,5.232,0,0,0-4.028,1.549,6.448,6.448,0,0,0,0,8.1,5.214,5.214,0,0,0,4.037,1.546,3.709,3.709,0,0,0,1.957-.5,6.04,6.04,0,0,0,1.411-1.185l4.506,4.73a8.719,8.719,0,0,1-3.753,2.3,13.884,13.884,0,0,1-8.908-.156,11.547,11.547,0,0,1-3.914-2.344,10.99,10.99,0,0,1-2.643-3.66,12.444,12.444,0,0,1,0-9.554A10.983,10.983,0,0,1,132.88,33.7a11.567,11.567,0,0,1,3.912-2.356,13.869,13.869,0,0,1,8.908-.156,8.7,8.7,0,0,1,3.753,2.3Z" transform="translate(116.842 17.335)" fill="#199cd8"/>
          <rect id="Rectangle_31300" data-name="Rectangle 31300" width="6.825" height="34.404" transform="translate(268.403 36.116)" fill="#199cd8"/>
          <path id="Path_89646" data-name="Path 89646" d="M143.338,42.129a11.533,11.533,0,0,1,.963-4.779,10.99,10.99,0,0,1,2.615-3.662,11.541,11.541,0,0,1,3.914-2.342,14.459,14.459,0,0,1,9.6,0,11.541,11.541,0,0,1,3.914,2.342,11.006,11.006,0,0,1,2.617,3.662,12.413,12.413,0,0,1,0,9.558,11.006,11.006,0,0,1-2.617,3.662,11.541,11.541,0,0,1-3.914,2.342,14.46,14.46,0,0,1-9.6,0,11.541,11.541,0,0,1-3.914-2.342,10.99,10.99,0,0,1-2.615-3.662,11.533,11.533,0,0,1-.963-4.779m6.825,0a5.724,5.724,0,0,0,1.444,4.049,6.01,6.01,0,0,0,8.054,0,6.432,6.432,0,0,0,0-8.1,6.01,6.01,0,0,0-8.054,0,5.726,5.726,0,0,0-1.444,4.051" transform="translate(135.533 17.333)" fill="#199cd8"/>
          <path id="Path_89647" data-name="Path 89647" d="M176.691,52.875h-6.554v-3h-.091a7.781,7.781,0,0,1-.931,1.274,6.2,6.2,0,0,1-1.388,1.138,8.271,8.271,0,0,1-1.866.821,7.82,7.82,0,0,1-2.274.317,9.611,9.611,0,0,1-4.212-.8,6.026,6.026,0,0,1-2.5-2.209,8.679,8.679,0,0,1-1.185-3.324,27.363,27.363,0,0,1-.294-4.142V30.759h6.825V41.593q0,.962.068,1.983a6.186,6.186,0,0,0,.411,1.889,2.926,2.926,0,0,0,3.072,1.955,4.226,4.226,0,0,0,2.137-.48,3.28,3.28,0,0,0,1.25-1.274,5.241,5.241,0,0,0,.571-1.8,15.3,15.3,0,0,0,.138-2.092V30.759h6.825Z" transform="translate(151.6 17.644)" fill="#199cd8"/>
          <path id="Path_89648" data-name="Path 89648" d="M190.077,59.895H183.8V56.982H183.7a7.188,7.188,0,0,1-1.071,1.2,7.907,7.907,0,0,1-1.546,1.117,9.492,9.492,0,0,1-1.955.816,7.622,7.622,0,0,1-2.209.32,11.427,11.427,0,0,1-4.462-.842,9.961,9.961,0,0,1-3.436-2.365,10.584,10.584,0,0,1-2.207-3.611,13.2,13.2,0,0,1-.774-4.6,13.988,13.988,0,0,1,.7-4.436,12.19,12.19,0,0,1,2-3.753,9.734,9.734,0,0,1,3.163-2.615,8.949,8.949,0,0,1,4.233-.98,11.751,11.751,0,0,1,3.982.66,6.354,6.354,0,0,1,3.025,2.253h.091V25.491h6.825ZM183.8,48.837a5.726,5.726,0,0,0-1.444-4.051,6.017,6.017,0,0,0-8.054,0,6.432,6.432,0,0,0,0,8.1,6.017,6.017,0,0,0,8.054,0,5.725,5.725,0,0,0,1.444-4.049" transform="translate(165.791 10.625)" fill="#199cd8"/>
          <path id="Path_89649" data-name="Path 89649" d="M191.765,37.572a4.826,4.826,0,0,0-3.961-1.864,3.7,3.7,0,0,0-1.686.411,1.444,1.444,0,0,0-.821,1.409,1.263,1.263,0,0,0,.844,1.2,11.133,11.133,0,0,0,2.137.688l2.773.632a10.7,10.7,0,0,1,2.78,1.068,6.264,6.264,0,0,1,2.137,1.985,5.909,5.909,0,0,1,.844,3.345,6.2,6.2,0,0,1-.933,3.524,7.157,7.157,0,0,1-2.391,2.232,10.38,10.38,0,0,1-3.277,1.183,19.979,19.979,0,0,1-3.594.341,17.322,17.322,0,0,1-4.688-.662,8.694,8.694,0,0,1-4-2.339l4.14-4.6a6.874,6.874,0,0,0,2.116,1.805,5.763,5.763,0,0,0,2.708.613,6.33,6.33,0,0,0,2.137-.345,1.254,1.254,0,0,0,.963-1.25,1.38,1.38,0,0,0-.842-1.295,9.25,9.25,0,0,0-2.139-.723l-2.778-.634a11.473,11.473,0,0,1-2.773-1.029,5.734,5.734,0,0,1-2.139-1.924A5.891,5.891,0,0,1,178.476,38a6.72,6.72,0,0,1,.8-3.37,7.043,7.043,0,0,1,2.095-2.323,9.118,9.118,0,0,1,2.983-1.343,13.7,13.7,0,0,1,3.412-.432,15.976,15.976,0,0,1,4.415.637,8.223,8.223,0,0,1,3.776,2.274Z" transform="translate(181.622 17.339)" fill="#199cd8"/>
          <path id="Path_89650" data-name="Path 89650" d="M203.62,39.965H197.6v7.373A14.131,14.131,0,0,0,197.691,49a3.264,3.264,0,0,0,.41,1.3,2.042,2.042,0,0,0,.987.84,4.248,4.248,0,0,0,1.752.3,11.958,11.958,0,0,0,1.444-.112,2.462,2.462,0,0,0,1.346-.525v5.691a10.357,10.357,0,0,1-2.372.543,21.259,21.259,0,0,1-2.407.138,13.068,13.068,0,0,1-3.184-.366,7.211,7.211,0,0,1-2.552-1.157,5.408,5.408,0,0,1-1.705-2.071,7.148,7.148,0,0,1-.616-3.1V39.965h-4.378V34.5h4.366V27.95h6.829V34.5h6.018Z" transform="translate(192.935 13.901)" fill="#199cd8"/>
          <path id="Path_89651" data-name="Path 89651" d="M209.587,50.427h-.093a6.424,6.424,0,0,1-3.025,2.549,10.438,10.438,0,0,1-3.979.772,10.246,10.246,0,0,1-2.983-.432,7.535,7.535,0,0,1-2.526-1.3,6.255,6.255,0,0,1-1.728-2.139,6.547,6.547,0,0,1-.639-2.958,6.754,6.754,0,0,1,.709-3.233,6.314,6.314,0,0,1,1.908-2.183,9.511,9.511,0,0,1,2.75-1.346,20.333,20.333,0,0,1,3.207-.707,31.1,31.1,0,0,1,3.324-.275q1.658-.042,3.074-.047a3.556,3.556,0,0,0-1.3-2.888,4.664,4.664,0,0,0-3.072-1.068,6.656,6.656,0,0,0-3.072.707,8.313,8.313,0,0,0-2.479,1.927l-3.643-3.732a12.487,12.487,0,0,1,4.462-2.666,15.993,15.993,0,0,1,5.276-.889,13.816,13.816,0,0,1,4.935.751,7.2,7.2,0,0,1,3.1,2.209,8.524,8.524,0,0,1,1.623,3.573,23.687,23.687,0,0,1,.457,4.9V53.2h-6.284ZM207.9,43.509q-.777,0-1.927.068a9.815,9.815,0,0,0-2.232.385,5.013,5.013,0,0,0-1.819.963,2.208,2.208,0,0,0-.751,1.775,1.951,1.951,0,0,0,1.05,1.819,4.353,4.353,0,0,0,2.183.595,6.809,6.809,0,0,0,1.927-.275,5.756,5.756,0,0,0,1.663-.774,3.746,3.746,0,0,0,1.159-1.274,3.7,3.7,0,0,0,.434-1.819V43.525Z" transform="translate(203.853 17.322)" fill="#199cd8"/>
          <path id="Path_89652" data-name="Path 89652" d="M220.715,38.214a3.843,3.843,0,0,0-1.411-1.2,4.147,4.147,0,0,0-1.957-.483,5.232,5.232,0,0,0-4.028,1.549,6.448,6.448,0,0,0,0,8.1,5.21,5.21,0,0,0,4.028,1.546,3.709,3.709,0,0,0,1.957-.5,6.041,6.041,0,0,0,1.411-1.185l4.506,4.73a8.719,8.719,0,0,1-3.753,2.3,13.884,13.884,0,0,1-8.908-.156,11.547,11.547,0,0,1-3.914-2.344,10.966,10.966,0,0,1-2.619-3.664,12.45,12.45,0,0,1,0-9.556,11,11,0,0,1,2.619-3.662,11.59,11.59,0,0,1,3.914-2.346,13.869,13.869,0,0,1,8.908-.156,8.7,8.7,0,0,1,3.753,2.3Z" transform="translate(217.796 17.336)" fill="#199cd8"/>
          <path id="Path_89653" data-name="Path 89653" d="M214.57,25.492h6.825V46.514l7.553-8.735h8.374l-8.782,9.967,9.013,12.15h-8.6L221.488,48.7h-.093V59.9H214.57Z" transform="translate(230.449 10.626)" fill="#199cd8"/>
        </g>
      </g>
    </g>
  </g>
</svg>
