<svg id="ACS_logo" xmlns="http://www.w3.org/2000/svg" xmlns:xlink="http://www.w3.org/1999/xlink" width="121.928" height="37.084" viewBox="0 0 121.928 37.084">
  <defs>
    <clipPath id="clip-path">
      <rect id="Rectangle_31301" data-name="Rectangle 31301" width="121.928" height="37.084" fill="none"/>
    </clipPath>
  </defs>
  <g id="Group_95167" data-name="Group 95167">
    <g id="Group_95166" data-name="Group 95166" clip-path="url(#clip-path)">
      <g id="Group_95168" data-name="Group 95168" transform="translate(0.478 3.476)">
        <path id="Path_89654" data-name="Path 89654" d="M11.289,24.428,9.03,26.574l-.446,1.5-.191,1.4,2.737,1.846L7.057,29.533l-2.387.809-2.1,2.087-.907,5.506L4.1,41.213l3.278.859,1.878.128L22.9,40.512l1.67-.827,1.54-1.4.389-3.221-1.307-2.31L21.57,31.379l-2.324.859,1.361-1.086.049-1.32L19.4,26.351,18,24.791,16.031,23.71,13.8,23.55Z" transform="translate(-0.88 -12.462)" fill="#fff"/>
        <path id="Path_89623" data-name="Path 89623" d="M3.441,41.228a5.407,5.407,0,0,0,3.438.643.972.972,0,0,0,.726-.473s.255-.58-.844-.327a4.809,4.809,0,0,1-2.612-.461s-2.653-1.477-3.1-3.7a5.724,5.724,0,0,1,.49-4.486,7.563,7.563,0,0,1,1.709-1.988A4.575,4.575,0,0,1,7,29.405s1.1.088,3.294,1.865c0,0,.7.2.54-.417a3.94,3.94,0,0,0-2.945-2.01s-.061-1.961.9-2.815a5.538,5.538,0,0,1,5.242-2.775s3.239-.075,5,4.114a7.323,7.323,0,0,1,.17,3.348l2.3-.41L19.3,25.9a7.012,7.012,0,0,0-4.982-3.432s-3.259-.75-6.007,2.674a10.1,10.1,0,0,0-1.271,3.485S3.02,27.6.539,32.44a7.056,7.056,0,0,0,2.9,8.789" transform="translate(-0.001 -11.852)" fill="#2aa5dc"/>
        <path id="Path_89624" data-name="Path 89624" d="M42.476,47.838s4.5-3.936.315-7.955c0,0,.23-1.128-.315-1.517,0,0-.218-.553-1.714.164a2.527,2.527,0,0,1-2.338-.554l-1.291,1.046a5.552,5.552,0,0,0-2.561,2.686s-.553,1.722,0,2.378a.483.483,0,0,0,.638-.242c.007-.015.012-.029.017-.044a4.529,4.529,0,0,1,1.208-3.3s3.146-2.525,6.285.858a4.5,4.5,0,0,1-.244,5.293s-1.161,1-1.038,1.189c0,0,.332.307,1.038,0" transform="translate(-18.165 -20.096)" fill="#2aa5dc"/>
        <path id="Path_89625" data-name="Path 89625" d="M24.585,11.177a9.34,9.34,0,0,1,.452-2.888,11.179,11.179,0,0,1,1.121-2,4.793,4.793,0,0,0,.711-1.271A2.026,2.026,0,0,0,24.961,2.33a1.955,1.955,0,0,0-1.394.293,2.667,2.667,0,0,1-.93.513s-1.251.43-1.21-.369c0,0-.226-1.189,2.6-1.517,0,0,3.461-.594,3.863,2.153,0,0,.565,1.681-1.485,4.2a6.023,6.023,0,0,0-.861,3.641c.266,1.9,0,.09,0,.09l-.348.226-.678-.316" transform="translate(-11.337 -0.632)" fill="#2aa5dc"/>
        <path id="Path_89626" data-name="Path 89626" d="M37.067,14.138s1.84-.452,2.139-1.981l-2.624-.178a2.125,2.125,0,0,1-1.092-1.457S33.9,9.669,34.014,8.439c0,0,.246-1.531,1.559-1.75,0,0,1.368-.339,1.646,1.849,0,0,.645,1.852-.611,1.984,0,0-.27.6.713.623a2.416,2.416,0,0,0,2.049-.355,1.719,1.719,0,0,1,1.259-.429.307.307,0,0,0-.122-.417l-.017-.008a6.429,6.429,0,0,1-2-3.516s-1.4-.195-1.579-1.189c0,0-.328-1.538.944-1.845a2.557,2.557,0,0,1,1.22,0,5.446,5.446,0,0,1,3.986-3.3S45.5-.49,46.373,1.355A3.851,3.851,0,0,1,46.536,3.2s-.2.922.011,1.158c0,0,.791-.185,1.117.328s.472,1.609-.184,1.865a1.626,1.626,0,0,1-.462,1.466,9.484,9.484,0,0,0-2.674,2.235,3.45,3.45,0,0,1-.277.316,2.1,2.1,0,0,1-.8.438.667.667,0,0,1-.523-.027.407.407,0,0,0,.323.476.451.451,0,0,0,.056.007,13.1,13.1,0,0,0,1.831-.414l6.892-2.465s-.321-.861-.064-1.281c0,0,.141-.223.271-.272a1.168,1.168,0,0,0,.536-.9s-.067-.9.579-.942c0,0,.619-.038.567.721l-.044.5s.946-.359,1.263.287a2.606,2.606,0,0,1-.038,2.342,2.107,2.107,0,0,1-2.311.365l-.452-.277s-8.017,3.318-8.109,3.537a2.919,2.919,0,0,0-1.1,1.167,23.2,23.2,0,0,1-2.44,3.629,3.627,3.627,0,0,1-.932.823l.155.41H37.977l-.205-1.32-.257-2.585Z" transform="translate(-17.997 0.001)" fill="#2aa5dc"/>
        <path id="Path_89627" data-name="Path 89627" d="M50.971,4.314s1.087-.678,1.5.061A11.089,11.089,0,0,0,52.406,6.2a2.412,2.412,0,0,0,.9,1.517,1.131,1.131,0,0,1,0,1.558s-2.214,1.558-2.624,2.5A1.8,1.8,0,0,1,48.1,12.1s-2.091-1.271-1.722-3.116a1.337,1.337,0,0,1,.779-.492s-1.312-2.132-.123-3.649c0,0,1.928-2.461,3.937-.533" transform="translate(-24.52 -1.892)" fill="#b9e1f6"/>
        <path id="Path_89628" data-name="Path 89628" d="M42.58,8.792a3.2,3.2,0,0,0-.461,1.61.88.88,0,0,1-.739-.749s-.174-.933.657-1.087c0,0,.419-.1.543.226" transform="translate(-21.89 -4.525)" fill="#b9e1f6"/>
        <path id="Path_89629" data-name="Path 89629" d="M60.209,10.454s.452-.307.758,0c0,0,.459.448.195.829,0,0-.195.113-.318,0a2.852,2.852,0,0,0-.532-.5.271.271,0,0,1-.1-.328" transform="translate(-31.851 -5.46)" fill="#b9e1f6"/>
        <path id="Path_89630" data-name="Path 89630" d="M37.432,16.775s-.205-1.046-.888-1.333a.9.9,0,0,0-.862.294,1.752,1.752,0,0,0-.452,1.531,2.026,2.026,0,0,0,1.422,1.113s.581.177.916-.7a1.634,1.634,0,0,0-.137-.9" transform="translate(-18.627 -8.161)" fill="#b9e1f6"/>
        <path id="Path_89631" data-name="Path 89631" d="M41.9,28.673a8.728,8.728,0,0,0,2.98-2.542,1.123,1.123,0,0,1,1.079-.465s.917.218.328,1.681c0,0-1.148,3.622-3.882,3.992a6.62,6.62,0,0,0-.506-2.665" transform="translate(-22.172 -13.567)" fill="#b9e1f6"/>
        <path id="Path_89632" data-name="Path 89632" d="M10.41,38.437S5.6,37.535,3.9,41.553c0,0-1.449,4.783,4.456,6.315a33.182,33.182,0,0,0,9.512-.164s6.134-.791,7.318-1.695c0,0-.539,2.05-6.252,2.952,0,0-8.338,1.2-11.153.656,0,0,.41.054.766-.546,0,0,.137-.437-1.092-.192a5.364,5.364,0,0,1-4.7-2.46,5.883,5.883,0,0,1,1.23-8.069s2.624-2.893,6.424.087" transform="translate(-0.88 -19.627)" fill="#b9e1f6"/>
        <path id="Path_89633" data-name="Path 89633" d="M50.863,10.044s-.056-.565-.829-.61a.775.775,0,0,0-.912.558s.067.277.374.087c0,0,0-.412.553-.436,0,0,.527.1.585.5,0,0,.215.082.23-.1" transform="translate(-25.995 -4.983)" fill="#2aa5dc"/>
        <path id="Path_89634" data-name="Path 89634" d="M55.314,10.115s.041-.574.517-.682a.829.829,0,0,1,.994.4s.108.251.01.321c0,0-.216.08-.282-.3a.5.5,0,0,0-.52-.269.466.466,0,0,0-.385.356s-.015.339-.336.174" transform="translate(-29.271 -4.969)" fill="#2aa5dc"/>
        <path id="Path_89635" data-name="Path 89635" d="M49.742,14.958a.546.546,0,0,1,.527.075,5.383,5.383,0,0,0,.49.264,2.357,2.357,0,0,0,1.026.251,4.245,4.245,0,0,0,.579-.007c.155-.022.315-.038.471-.055a1.55,1.55,0,0,0,.557-.148c.086-.045.172-.081.255-.131s.151-.11.223-.157c.034-.022.128-.09.169-.083s.108.16.093.211a2.3,2.3,0,0,0-.306.163,3.115,3.115,0,0,0-.4.246,1.811,1.811,0,0,0-.505.487,3.334,3.334,0,0,1-1.017,1.162,1.421,1.421,0,0,1-.768.185,1.617,1.617,0,0,1-.8-.186.945.945,0,0,1-.452-.553,2.713,2.713,0,0,1,0-.741,1.538,1.538,0,0,0-.041-.653c-.032-.059-.043-.041-.1-.087a.173.173,0,0,1-.042-.176c0-.013.022-.066.035-.065" transform="translate(-26.299 -7.896)" fill="#2aa5dc"/>
        <path id="Path_89636" data-name="Path 89636" d="M53.558,13.069a.218.218,0,1,1-.228-.208h.01a.213.213,0,0,1,.218.208h0" transform="translate(-28.112 -6.805)" fill="#2aa5dc"/>
        <path id="Path_89637" data-name="Path 89637" d="M55.452,12.993a.218.218,0,1,1-.228-.208h.01a.213.213,0,0,1,.218.208" transform="translate(-29.114 -6.765)" fill="#2aa5dc"/>
        <path id="Path_89638" data-name="Path 89638" d="M72.2,14.235a.857.857,0,0,1,.109-.995s.562-.192.577-.627c0,0-.155-.685.165-.924,0,0,.53-.364.6.267a1.76,1.76,0,0,1-.075.953,2.069,2.069,0,0,1,1.136,0c.353.2.476,1.273.157,1.829a1.544,1.544,0,0,1-1.449.62s-.952.038-.972-.653a1.569,1.569,0,0,0-.245-.472" transform="translate(-38.148 -6.13)" fill="#b9e1f6"/>
      </g>
      <path id="Path_89639" data-name="Path 89639" d="M68.728,35.465h-.023a1.6,1.6,0,0,1-.752.633,2.6,2.6,0,0,1-.989.192,2.569,2.569,0,0,1-.741-.108,1.861,1.861,0,0,1-.628-.322,1.554,1.554,0,0,1-.429-.531,1.626,1.626,0,0,1-.159-.735,1.677,1.677,0,0,1,.176-.8,1.565,1.565,0,0,1,.474-.543,2.375,2.375,0,0,1,.684-.334,5.184,5.184,0,0,1,.8-.176,7.738,7.738,0,0,1,.826-.068c.275-.008.529-.01.764-.01a.88.88,0,0,0-.323-.718,1.156,1.156,0,0,0-.762-.266,1.654,1.654,0,0,0-.763.176,2.073,2.073,0,0,0-.616.479L65.36,31.4a3.1,3.1,0,0,1,1.108-.662,3.988,3.988,0,0,1,1.311-.221,3.434,3.434,0,0,1,1.227.187,1.781,1.781,0,0,1,.769.549,2.109,2.109,0,0,1,.4.887,5.86,5.86,0,0,1,.113,1.215v2.793H68.728Zm-.419-1.719q-.193,0-.479.017a2.437,2.437,0,0,0-.555.1,1.263,1.263,0,0,0-.452.239.549.549,0,0,0-.187.441.484.484,0,0,0,.261.452,1.082,1.082,0,0,0,.542.148,1.712,1.712,0,0,0,.479-.068,1.43,1.43,0,0,0,.413-.192.941.941,0,0,0,.288-.316.92.92,0,0,0,.108-.453v-.359Z" transform="translate(-35.451 -12.835)" fill="#08111f"/>
      <path id="Path_89640" data-name="Path 89640" d="M76.035,30.663h1.56v.723h.025a1.863,1.863,0,0,1,.266-.3,1.989,1.989,0,0,1,.384-.278,2.4,2.4,0,0,1,.479-.2,1.9,1.9,0,0,1,.553-.079,2.839,2.839,0,0,1,1.108.209,2.475,2.475,0,0,1,.854.588,2.63,2.63,0,0,1,.548.9A3.264,3.264,0,0,1,82,33.363a3.476,3.476,0,0,1-.174,1.1,3.038,3.038,0,0,1-.5.932,2.427,2.427,0,0,1-.786.65,2.225,2.225,0,0,1-1.052.243,2.919,2.919,0,0,1-.989-.164,1.582,1.582,0,0,1-.752-.56h-.023v3.166h-1.7Zm1.56,2.747a1.419,1.419,0,0,0,.359,1.006,1.5,1.5,0,0,0,2,0,1.6,1.6,0,0,0,0-2.012,1.5,1.5,0,0,0-2,0,1.423,1.423,0,0,0-.359,1.007" transform="translate(-40.089 -12.838)" fill="#08111f"/>
      <path id="Path_89641" data-name="Path 89641" d="M91.107,35.467h-.023a1.6,1.6,0,0,1-.752.633,2.6,2.6,0,0,1-.989.192,2.568,2.568,0,0,1-.741-.108,1.861,1.861,0,0,1-.628-.322,1.554,1.554,0,0,1-.429-.531,1.626,1.626,0,0,1-.159-.735,1.684,1.684,0,0,1,.176-.8,1.565,1.565,0,0,1,.474-.543,2.385,2.385,0,0,1,.686-.334,5.2,5.2,0,0,1,.8-.176,7.735,7.735,0,0,1,.826-.068c.274-.008.528-.01.763-.01a.88.88,0,0,0-.323-.718,1.159,1.159,0,0,0-.763-.266,1.654,1.654,0,0,0-.763.176,2.072,2.072,0,0,0-.616.479l-.905-.927a3.1,3.1,0,0,1,1.108-.662,3.987,3.987,0,0,1,1.311-.218,3.458,3.458,0,0,1,1.226.186,1.8,1.8,0,0,1,.769.549,2.112,2.112,0,0,1,.4.887,5.862,5.862,0,0,1,.113,1.216v2.792H91.107Zm-.419-1.719q-.193,0-.479.017a2.437,2.437,0,0,0-.555.1,1.263,1.263,0,0,0-.452.239.549.549,0,0,0-.187.441.484.484,0,0,0,.26.452,1.082,1.082,0,0,0,.542.148,1.713,1.713,0,0,0,.479-.068,1.43,1.43,0,0,0,.413-.192A.941.941,0,0,0,91,34.564a.92.92,0,0,0,.108-.453v-.359Z" transform="translate(-44.863 -12.837)" fill="#08111f"/>
      <path id="Path_89642" data-name="Path 89642" d="M101.738,32.443a.955.955,0,0,0-.351-.3,1.03,1.03,0,0,0-.486-.12,1.3,1.3,0,0,0-1,.385,1.6,1.6,0,0,0,0,2.012,1.294,1.294,0,0,0,1,.384.922.922,0,0,0,.486-.123,1.5,1.5,0,0,0,.351-.294l1.119,1.175a2.166,2.166,0,0,1-.932.571,3.449,3.449,0,0,1-2.213-.039,2.886,2.886,0,0,1-.973-.582,2.731,2.731,0,0,1-.65-.91,3.093,3.093,0,0,1,0-2.374,2.74,2.74,0,0,1,.65-.91,2.887,2.887,0,0,1,.973-.583,3.449,3.449,0,0,1,2.213-.039,2.16,2.16,0,0,1,.932.571Z" transform="translate(-49.265 -12.841)" fill="#08111f"/>
      <path id="Path_89643" data-name="Path 89643" d="M109.043,25.494v3.8h.023a1.024,1.024,0,0,1,.192-.316,1.485,1.485,0,0,1,.327-.283,1.8,1.8,0,0,1,.453-.2,1.94,1.94,0,0,1,.565-.079,2.337,2.337,0,0,1,1.041.2,1.5,1.5,0,0,1,.616.548,2.207,2.207,0,0,1,.3.825,6.307,6.307,0,0,1,.079,1.029v3.03h-1.7V31.349c0-.159-.005-.323-.017-.491a1.515,1.515,0,0,0-.1-.469.729.729,0,0,0-.763-.487,1.051,1.051,0,0,0-.531.12.8.8,0,0,0-.31.316,1.273,1.273,0,0,0-.142.446,3.817,3.817,0,0,0-.034.52v2.736h-1.7V25.494Z" transform="translate(-53.258 -10.722)" fill="#08111f"/>
      <path id="Path_89644" data-name="Path 89644" d="M123.428,35.208a2.7,2.7,0,0,1-1.029.8,3.084,3.084,0,0,1-1.289.283,3.471,3.471,0,0,1-1.192-.2,2.874,2.874,0,0,1-.972-.582,2.73,2.73,0,0,1-.65-.91,3.081,3.081,0,0,1,0-2.373,2.728,2.728,0,0,1,.65-.91,2.877,2.877,0,0,1,.972-.584,3.486,3.486,0,0,1,1.192-.2,2.734,2.734,0,0,1,1.069.2,2.234,2.234,0,0,1,.814.584,2.649,2.649,0,0,1,.515.91,3.682,3.682,0,0,1,.179,1.187v.531h-3.933a1.347,1.347,0,0,0,.442.774,1.246,1.246,0,0,0,.837.288,1.264,1.264,0,0,0,.706-.187,1.874,1.874,0,0,0,.5-.479Zm-1.435-2.419a.986.986,0,0,0-.283-.735,1.006,1.006,0,0,0-.758-.305,1.242,1.242,0,0,0-.865.322,1.03,1.03,0,0,0-.239.328,1.1,1.1,0,0,0-.1.391Z" transform="translate(-57.762 -12.838)" fill="#08111f"/>
      <path id="Path_89645" data-name="Path 89645" d="M133.2,32.437a.954.954,0,0,0-.351-.3,1.03,1.03,0,0,0-.486-.12,1.3,1.3,0,0,0-1,.385,1.6,1.6,0,0,0,0,2.012,1.3,1.3,0,0,0,1,.384.921.921,0,0,0,.486-.123,1.5,1.5,0,0,0,.351-.294l1.119,1.175a2.166,2.166,0,0,1-.932.571,3.449,3.449,0,0,1-2.213-.039,2.868,2.868,0,0,1-.972-.582,2.73,2.73,0,0,1-.657-.909,3.091,3.091,0,0,1,0-2.373,2.729,2.729,0,0,1,.65-.91,2.874,2.874,0,0,1,.972-.585,3.445,3.445,0,0,1,2.213-.039,2.161,2.161,0,0,1,.932.571Z" transform="translate(-62.494 -12.838)" fill="#199cd8"/>
      <rect id="Rectangle_31300" data-name="Rectangle 31300" width="1.695" height="8.547" transform="translate(72.343 14.771)" fill="#199cd8"/>
      <path id="Path_89646" data-name="Path 89646" d="M143.337,33.408a2.865,2.865,0,0,1,.239-1.187,2.73,2.73,0,0,1,.65-.91,2.867,2.867,0,0,1,.972-.582,3.592,3.592,0,0,1,2.386,0,2.867,2.867,0,0,1,.972.582,2.735,2.735,0,0,1,.65.91,3.084,3.084,0,0,1,0,2.375,2.735,2.735,0,0,1-.65.91,2.867,2.867,0,0,1-.972.582,3.592,3.592,0,0,1-2.386,0,2.867,2.867,0,0,1-.972-.582,2.73,2.73,0,0,1-.65-.91,2.865,2.865,0,0,1-.239-1.187m1.7,0a1.422,1.422,0,0,0,.359,1.006,1.493,1.493,0,0,0,2,0,1.6,1.6,0,0,0,0-2.012,1.493,1.493,0,0,0-2,0,1.422,1.422,0,0,0-.359,1.007" transform="translate(-68.393 -12.838)" fill="#199cd8"/>
      <path id="Path_89647" data-name="Path 89647" d="M160.685,36.253h-1.628v-.746h-.023a1.934,1.934,0,0,1-.231.316,1.541,1.541,0,0,1-.345.283,2.054,2.054,0,0,1-.464.2,1.942,1.942,0,0,1-.565.079,2.388,2.388,0,0,1-1.046-.2,1.5,1.5,0,0,1-.621-.549,2.157,2.157,0,0,1-.294-.826,6.8,6.8,0,0,1-.073-1.029V30.759h1.7v2.692q0,.239.017.493a1.537,1.537,0,0,0,.1.469.727.727,0,0,0,.763.486,1.05,1.05,0,0,0,.531-.119.815.815,0,0,0,.311-.316,1.3,1.3,0,0,0,.142-.448,3.789,3.789,0,0,0,.034-.52V30.759h1.7Z" transform="translate(-73.464 -12.936)" fill="#199cd8"/>
      <path id="Path_89648" data-name="Path 89648" d="M172.015,34.038h-1.56v-.724h-.023a1.785,1.785,0,0,1-.266.3,1.964,1.964,0,0,1-.384.278,2.358,2.358,0,0,1-.486.2,1.894,1.894,0,0,1-.549.079,2.839,2.839,0,0,1-1.108-.209,2.475,2.475,0,0,1-.854-.588,2.63,2.63,0,0,1-.548-.9,3.28,3.28,0,0,1-.192-1.143,3.475,3.475,0,0,1,.175-1.1,3.028,3.028,0,0,1,.5-.932,2.418,2.418,0,0,1,.786-.65,2.223,2.223,0,0,1,1.052-.243,2.919,2.919,0,0,1,.989.164,1.578,1.578,0,0,1,.752.56h.023V25.491h1.7Zm-1.56-2.747a1.423,1.423,0,0,0-.359-1.006,1.5,1.5,0,0,0-2,0,1.6,1.6,0,0,0,0,2.012,1.5,1.5,0,0,0,2,0,1.422,1.422,0,0,0,.359-1.006" transform="translate(-77.943 -10.72)" fill="#199cd8"/>
      <path id="Path_89649" data-name="Path 89649" d="M181.364,32.279a1.2,1.2,0,0,0-.984-.463.918.918,0,0,0-.419.1.359.359,0,0,0-.2.35.314.314,0,0,0,.21.3,2.766,2.766,0,0,0,.531.171l.689.157a2.659,2.659,0,0,1,.691.265,1.556,1.556,0,0,1,.531.493,1.468,1.468,0,0,1,.21.831,1.541,1.541,0,0,1-.232.876,1.778,1.778,0,0,1-.594.555,2.578,2.578,0,0,1-.814.294,4.963,4.963,0,0,1-.893.085,4.3,4.3,0,0,1-1.165-.165,2.16,2.16,0,0,1-.994-.581l1.029-1.143a1.708,1.708,0,0,0,.526.448,1.432,1.432,0,0,0,.673.152,1.573,1.573,0,0,0,.531-.086.312.312,0,0,0,.239-.311.343.343,0,0,0-.209-.322,2.3,2.3,0,0,0-.531-.18l-.69-.158a2.851,2.851,0,0,1-.689-.256,1.424,1.424,0,0,1-.531-.478,1.463,1.463,0,0,1-.209-.83,1.669,1.669,0,0,1,.2-.837,1.75,1.75,0,0,1,.52-.577,2.265,2.265,0,0,1,.741-.334,3.4,3.4,0,0,1,.848-.107,3.969,3.969,0,0,1,1.1.158,2.043,2.043,0,0,1,.938.565Z" transform="translate(-82.94 -12.84)" fill="#199cd8"/>
      <path id="Path_89650" data-name="Path 89650" d="M190.69,30.935h-1.5v1.832a3.51,3.51,0,0,0,.023.413.811.811,0,0,0,.1.322.507.507,0,0,0,.245.209,1.055,1.055,0,0,0,.435.074,2.972,2.972,0,0,0,.359-.028.612.612,0,0,0,.334-.13v1.414a2.572,2.572,0,0,1-.589.135,5.281,5.281,0,0,1-.6.034,3.246,3.246,0,0,1-.791-.091,1.791,1.791,0,0,1-.634-.287,1.343,1.343,0,0,1-.424-.515,1.775,1.775,0,0,1-.153-.769V30.935h-1.088V29.578H187.5V27.95h1.7v1.628h1.495Z" transform="translate(-86.51 -11.755)" fill="#199cd8"/>
      <path id="Path_89651" data-name="Path 89651" d="M198.33,35.463h-.023a1.6,1.6,0,0,1-.752.633,2.593,2.593,0,0,1-.989.192,2.545,2.545,0,0,1-.741-.107,1.872,1.872,0,0,1-.628-.322,1.553,1.553,0,0,1-.429-.531,1.626,1.626,0,0,1-.159-.735,1.678,1.678,0,0,1,.176-.8,1.569,1.569,0,0,1,.474-.542,2.363,2.363,0,0,1,.683-.334,5.051,5.051,0,0,1,.8-.176,7.725,7.725,0,0,1,.826-.068q.412-.01.764-.012a.883.883,0,0,0-.323-.717,1.159,1.159,0,0,0-.763-.265,1.654,1.654,0,0,0-.763.176,2.065,2.065,0,0,0-.616.479l-.905-.927a3.1,3.1,0,0,1,1.108-.662,3.973,3.973,0,0,1,1.311-.221,3.432,3.432,0,0,1,1.226.187,1.788,1.788,0,0,1,.77.549,2.118,2.118,0,0,1,.4.888,5.883,5.883,0,0,1,.114,1.218v2.792H198.33Zm-.419-1.719q-.193,0-.479.017a2.438,2.438,0,0,0-.555.1,1.245,1.245,0,0,0-.452.239.548.548,0,0,0-.187.441.485.485,0,0,0,.261.452,1.081,1.081,0,0,0,.542.148,1.692,1.692,0,0,0,.479-.068,1.43,1.43,0,0,0,.413-.192.931.931,0,0,0,.288-.316.917.917,0,0,0,.108-.452v-.359Z" transform="translate(-89.956 -12.834)" fill="#199cd8"/>
      <path id="Path_89652" data-name="Path 89652" d="M208.96,32.437a.955.955,0,0,0-.351-.3,1.03,1.03,0,0,0-.486-.12,1.3,1.3,0,0,0-1,.385,1.6,1.6,0,0,0,0,2.012,1.294,1.294,0,0,0,1,.384.921.921,0,0,0,.486-.123,1.5,1.5,0,0,0,.351-.294l1.119,1.175a2.166,2.166,0,0,1-.932.571,3.449,3.449,0,0,1-2.213-.039,2.869,2.869,0,0,1-.972-.582,2.724,2.724,0,0,1-.651-.91,3.093,3.093,0,0,1,0-2.374,2.733,2.733,0,0,1,.651-.91,2.879,2.879,0,0,1,.972-.583,3.445,3.445,0,0,1,2.213-.039,2.16,2.16,0,0,1,.932.571Z" transform="translate(-94.357 -12.839)" fill="#199cd8"/>
      <path id="Path_89653" data-name="Path 89653" d="M214.57,25.492h1.7v5.223l1.876-2.17h2.08L218.04,31.02l2.239,3.018h-2.137l-1.854-2.781h-.023v2.781h-1.7Z" transform="translate(-98.351 -10.721)" fill="#199cd8"/>
    </g>
  </g>
</svg>
