<svg id="automation_icon" xmlns="http://www.w3.org/2000/svg" xmlns:xlink="http://www.w3.org/1999/xlink" width="48" height="48" viewBox="0 0 48 48">
  <defs>
    <clipPath id="clip-path">
      <rect id="Rectangle_31868" data-name="Rectangle 31868" width="48" height="48" fill="none"/>
    </clipPath>
    <linearGradient id="linear-gradient" x1="0.831" y1="0.133" x2="-0.176" y2="1.084" gradientUnits="objectBoundingBox">
      <stop offset="0" stop-color="#2aa5dc"/>
      <stop offset="1" stop-color="#d1ebf8" stop-opacity="0.4"/>
    </linearGradient>
  </defs>
  <g id="Group_96013" data-name="Group 96013" clip-path="url(#clip-path)">
    <g id="Group_96012" data-name="Group 96012">
      <g id="Group_96011" data-name="Group 96011" clip-path="url(#clip-path)">
        <g id="Group_96010" data-name="Group 96010" opacity="0">
          <g id="Group_96009" data-name="Group 96009">
            <g id="Group_96008" data-name="Group 96008" clip-path="url(#clip-path)">
              <rect id="Rectangle_31865" data-name="Rectangle 31865" width="48" height="48"/>
            </g>
          </g>
        </g>
        <path id="Path_90353" data-name="Path 90353" d="M39.213,17.786c1.084-.959,2.126-2.251,1.667-3.627a25.457,25.457,0,0,0-1-2.459c-.626-1.293-2.293-1.459-3.71-1.376a4.388,4.388,0,0,1-3.252-1.251,4.231,4.231,0,0,1-1.25-3.251c.083-1.459-.084-3.085-1.376-3.71a25.378,25.378,0,0,0-2.46-1c-1.375-.458-2.626.584-3.626,1.668A4.28,4.28,0,0,1,21,4.2a4.347,4.347,0,0,1-3.21-1.417C16.827,1.7,15.535.653,14.159,1.111a25.36,25.36,0,0,0-2.459,1c-1.293.625-1.46,2.293-1.376,3.71A4.386,4.386,0,0,1,9.073,9.073a4.386,4.386,0,0,1-3.251,1.251c-1.459-.083-3.085.083-3.71,1.376a25.211,25.211,0,0,0-1,2.459c-.458,1.376.584,2.627,1.668,3.627A4.28,4.28,0,0,1,4.2,21a4.349,4.349,0,0,1-1.417,3.21C1.7,25.165.653,26.457,1.111,27.833a25.211,25.211,0,0,0,1,2.459c.625,1.292,2.292,1.459,3.71,1.376a4.389,4.389,0,0,1,3.251,1.25,4.39,4.39,0,0,1,1.251,3.252c-.084,1.459.083,3.085,1.376,3.71a25.1,25.1,0,0,0,2.459,1c1.376.459,2.626-.583,3.627-1.667A4.279,4.279,0,0,1,21,37.8a4.349,4.349,0,0,1,3.21,1.417c.958,1.084,2.251,2.126,3.626,1.667a25.121,25.121,0,0,0,2.46-1M20.954,25.373a4.335,4.335,0,1,1,4.335-4.335" fill="none" stroke="#082330" stroke-linecap="round" stroke-linejoin="round" stroke-width="2"/>
        <path id="Path_90354" data-name="Path 90354" d="M35,22A13,13,0,1,0,48,35,13,13,0,0,0,35,22m6.64,15.133-8.881,5.551a1,1,0,1,1-1.06-1.7l8.915-5.571a.374.374,0,0,0,.217-.33.466.466,0,0,0-.228-.407l-8.9-5.565a.475.475,0,0,0-.7.4v7.544a1,1,0,0,1-2,0V29.513a2.473,2.473,0,0,1,3.744-2.1l8.93,5.581A2.463,2.463,0,0,1,42.83,35.14a2.347,2.347,0,0,1-1.19,1.993" fill="url(#linear-gradient)"/>
      </g>
    </g>
  </g>
</svg>
