<svg id="blog_icon" xmlns="http://www.w3.org/2000/svg" xmlns:xlink="http://www.w3.org/1999/xlink" width="47.892" height="48" viewBox="0 0 47.892 48">
  <defs>
    <clipPath id="clip-path">
      <rect id="Rectangle_31714" data-name="Rectangle 31714" width="47.892" height="48" fill="none"/>
    </clipPath>
  </defs>
  <g id="Group_95812" data-name="Group 95812" clip-path="url(#clip-path)">
    <path id="Path_90167" data-name="Path 90167" d="M39.912,17.455h5.8a2.181,2.181,0,0,1,2.182,2.181V39.273A8.727,8.727,0,0,1,39.165,48H10.909A10.909,10.909,0,0,1,0,37.091V6.545A6.545,6.545,0,0,1,6.545,0H28.364a6.545,6.545,0,0,1,6.545,6.545l-.017,33.091a4.5,4.5,0,0,0,9,0V21.455h-3.98a2,2,0,1,1,0-4M7,17a3,3,0,0,0,3,3h7a3,3,0,0,0,3-3V10a3,3,0,0,0-3-3H10a3,3,0,0,0-3,3ZM19.455,31.5a1.5,1.5,0,0,0-1.5-1.5H8.785a1.5,1.5,0,0,0,0,3h9.17a1.5,1.5,0,0,0,1.5-1.5m9.169-6a1.5,1.5,0,0,0-1.5-1.5H8.785a1.5,1.5,0,0,0,0,3H27.124a1.5,1.5,0,0,0,1.5-1.5" fill="#08111f"/>
  </g>
</svg>
