<svg xmlns="http://www.w3.org/2000/svg" width="121" height="48.003" viewBox="0 0 121 48.003">
  <g id="ceph_logo" transform="translate(-7.504 -9)">
    <rect id="Rectangle_24791" data-name="Rectangle 24791" width="121" height="48" transform="translate(7.504 9.002)" fill="#fff" opacity="0"/>
    <path id="Path_81263" data-name="Path 81263" d="M47.784,52.2c-1.734-.928-2.74-1.973-2.961-3.111-.213-1.1.277-2.323,1.5-3.74A18.491,18.491,0,0,0,32.369,14.73H32.2A18.491,18.491,0,0,0,18.252,45.351c1.231,1.426,1.712,2.6,1.518,3.69-.213,1.134-1.211,2.195-2.971,3.156a25.8,25.8,0,0,1-6.554-8.267A24.433,24.433,0,0,1,32.217,8.778h.165A24.439,24.439,0,0,1,54.345,43.93,26.066,26.066,0,0,1,47.788,52.2m-9.032,4.573a8.994,8.994,0,0,1-2.2-2.211,10.009,10.009,0,0,1-1.918-6.111,13.492,13.492,0,0,1,1-4.845,13.758,13.758,0,0,1,2.66-4.155l.007-.011.251-.292a11.277,11.277,0,0,0,1.23-1.618,8.394,8.394,0,0,0,.945-2.321,8.616,8.616,0,0,0-3.827-9.3,8.58,8.58,0,0,0-4.543-1.3h-.175a8.552,8.552,0,0,0-4.54,1.3,8.6,8.6,0,0,0-3.826,9.3,8.444,8.444,0,0,0,.943,2.319,11.622,11.622,0,0,0,1.231,1.618l.252.292.006.011A13.705,13.705,0,0,1,28.912,43.6a13.461,13.461,0,0,1,1,4.843,10.009,10.009,0,0,1-1.918,6.111,9.29,9.29,0,0,1-2.2,2.211l-1.417-.425A25.309,25.309,0,0,1,20.3,54.55a6.941,6.941,0,0,0,3.653-6.108A7.333,7.333,0,0,0,22,43.62c-.019-.021-.038-.041-.054-.057l-.388-.424-1.04-1.22a14.561,14.561,0,0,1,9.62-23.112,14.313,14.313,0,0,1,2.051-.145h.184a14.527,14.527,0,0,1,7.688,2.2,14.717,14.717,0,0,1,4.175,3.931,14.514,14.514,0,0,1,2.3,11.812,14.588,14.588,0,0,1-2.5,5.329c-.325.433-.667.81-1.04,1.219l-.375.415a.417.417,0,0,0-.066.07,7.4,7.4,0,0,0-1.954,4.82,6.947,6.947,0,0,0,3.657,6.107,24.329,24.329,0,0,1-4.072,1.795l-1.409.426m-6.5-18.505a4.825,4.825,0,1,1,4.824-4.825,4.833,4.833,0,0,1-4.824,4.825" transform="translate(0.222 0.222)" fill="#f0424d"/>
    <path id="Path_81264" data-name="Path 81264" d="M71.425,34.758c0,3.429-.306,4.376-1.133,5.2a3.553,3.553,0,0,1-2.7.826H62.558a4.386,4.386,0,0,1-3.286-.947C58.2,38.768,57.9,37.482,57.9,32.525s.306-6.244,1.376-7.315c.674-.673,1.644-.947,3.286-.947h5.02a3.383,3.383,0,0,1,2.693.826c.8.8,1.1,1.9,1.1,4.987H68.283c-.062-2.142-.184-2.52-.368-2.693s-.438-.274-1.132-.274H62.958c-.949,0-1.2.093-1.407.307-.306.306-.459.875-.459,5.11s.153,4.8.459,5.11c.214.215.461.307,1.407.307h3.856c.673,0,.982-.062,1.2-.274s.337-.827.337-2.908h3.092m5.363-3.737h7.529c0-2.785-.184-3.4-.458-3.672-.186-.183-.461-.306-1.408-.306h-3.8c-.949,0-1.2.091-1.438.336-.277.275-.4.826-.439,3.641Zm0,2.541c.033,3.244.214,3.886.461,4.131s.459.306,1.406.306h4.272c.705,0,.92-.122,1.1-.306.213-.215.274-.581.337-2.05h3.089c-.062,2.569-.307,3.488-1.133,4.316a3.43,3.43,0,0,1-2.693.826H78.285A4.385,4.385,0,0,1,75,39.84c-1.074-1.072-1.376-2.358-1.376-7.315s.3-6.244,1.376-7.315c.673-.673,1.642-.947,3.286-.947h4.528a4.557,4.557,0,0,1,3.287.917c1.07,1.072,1.376,2.358,1.376,7.194V33.2c0,.243-.091.367-.368.367H76.789m23.162,4.009c-.274.274-.675.4-1.682.4H95.879a6.32,6.32,0,0,1-3-.871l-.214-.107v-9a6.654,6.654,0,0,1,3.092-.919h2.519c1.008,0,1.408.123,1.682.4.461.461.581,1.345.581,5.039s-.122,4.6-.581,5.039ZM99.03,24.23H96.8c-1.377,0-2.05.307-4.132,2.022V24.263h-3.18V44.442h3.182v-5.6c2.081,1.682,2.754,1.988,4.132,1.988h2.233c1.776,0,2.664-.306,3.367-1.008.877-.875,1.314-2.142,1.314-7.284s-.43-6.4-1.314-7.285c-.7-.7-1.591-1.012-3.367-1.012m19.987.951a3.647,3.647,0,0,0-2.846-.95h-2.6c-1.376,0-2.05.306-4.132,2.021v-6.3a11.489,11.489,0,0,0-3.159-1.184.071.071,0,0,0-.022.008v22h3.182v-12.8l.661-.312a5.691,5.691,0,0,1,2.432-.606h2.143c1.071,0,1.376.123,1.713.461a2.151,2.151,0,0,1,.438,1.591V40.789h3.184V28.914c0-2.3-.337-3.092-.979-3.734" transform="translate(7.251 1.652)" fill="#fff"/>
  </g>
</svg>
