<svg id="citrix_logo" xmlns="http://www.w3.org/2000/svg" width="167.7" height="60.016" viewBox="0 0 167.7 60.016">
  <g id="Group_97080" data-name="Group 97080" transform="translate(0 0)">
    <path id="Path_90531" data-name="Path 90531" d="M0,27.97C0,21.282,4.473,16.6,10.869,16.6c4.306,0,7.817,2.174,9.238,5.518a1.905,1.905,0,0,1,.209.961,1.258,1.258,0,0,1-1.254,1.254h-.084a1.392,1.392,0,0,1-1.338-1,6.871,6.871,0,0,0-6.73-4.264c-4.765,0-8.151,3.637-8.151,8.9,0,5.225,3.3,8.862,8.11,8.862A6.822,6.822,0,0,0,17.64,32.15a1.38,1.38,0,0,1,1.3-1,1.321,1.321,0,0,1,1.338,1.338v.042a2.183,2.183,0,0,1-.167.878C18.811,37,15.341,39.3,10.869,39.3,4.431,39.3,0,34.659,0,27.97" transform="translate(0 -9.661)" fill="#fff"/>
    <path id="Path_90532" data-name="Path 90532" d="M83.117,27.8a1.332,1.332,0,0,1-1.379,1.5c-.878,0-1.338-.585-1.338-1.5V1.547C80.4.585,80.9,0,81.779,0s1.338.543,1.338,1.547V7.524h4.724a1.179,1.179,0,0,1,1.338,1.212,1.179,1.179,0,0,1-1.338,1.212H83.117Z" transform="translate(-46.791 0)" fill="#fff"/>
    <path id="Path_90533" data-name="Path 90533" d="M120.723,18.643a1.267,1.267,0,0,1-1.254,1.3h-.125a2.013,2.013,0,0,1-1-.293,4.406,4.406,0,0,0-2.216-.46c-2.926,0-4.807,2.55-4.807,5.769v12.5c0,.961-.46,1.5-1.338,1.5a1.313,1.313,0,0,1-1.379-1.5V18.476c0-.961.5-1.547,1.379-1.547s1.338.543,1.338,1.547v.543a6.28,6.28,0,0,1,5.142-2.425,6.968,6.968,0,0,1,3.553.836,1.355,1.355,0,0,1,.711,1.212" transform="translate(-63.203 -9.655)" fill="#fff"/>
    <path id="Path_90534" data-name="Path 90534" d="M144.3,18.947c0-.961.5-1.547,1.379-1.547s1.338.543,1.338,1.547V37.925a1.332,1.332,0,0,1-1.379,1.5c-.878,0-1.338-.585-1.338-1.5Z" transform="translate(-83.98 -10.126)" fill="#fff"/>
    <path id="Path_90535" data-name="Path 90535" d="M60.2,18.947c0-.961.5-1.547,1.379-1.547s1.338.543,1.338,1.547V37.925a1.332,1.332,0,0,1-1.379,1.5c-.878,0-1.338-.585-1.338-1.5V18.947" transform="translate(-35.035 -10.126)" fill="#fff"/>
    <path id="Path_90536" data-name="Path 90536" d="M60.474,0A2.174,2.174,0,1,1,58.3,2.174,2.174,2.174,0,0,1,60.474,0" transform="translate(-33.929 0)" fill="#fff"/>
    <path id="Path_90537" data-name="Path 90537" d="M171.365,30.163l-7.483,8.778a1.386,1.386,0,0,1-1.087.543,1.267,1.267,0,0,1-1.3-1.254,1.324,1.324,0,0,1,.376-.961l7.817-8.862-7.524-8.653a1.335,1.335,0,0,1-.46-1,1.253,1.253,0,0,1,1.338-1.254h.042a1.307,1.307,0,0,1,1.045.543l7.274,8.569,7.274-8.569a1.307,1.307,0,0,1,1.045-.543,1.244,1.244,0,0,1,1.338,1.212v.042a1.335,1.335,0,0,1-.46,1l-7.524,8.653,7.817,8.862a1.4,1.4,0,0,1,.376.961,1.241,1.241,0,0,1-1.3,1.254,1.386,1.386,0,0,1-1.087-.543Z" transform="translate(-93.99 -10.181)" fill="#fff"/>
    <path id="Path_90539" data-name="Path 90539" d="M182.074,0A2.174,2.174,0,1,1,179.9,2.174,2.174,2.174,0,0,1,182.074,0" transform="translate(-104.698 0)" fill="#fff"/>
  </g>
  <path id="Path_90540" data-name="Path 90540" d="M17.061-14.711V3.566H15.184v-8.5H3.9v8.5H2.02V-14.711H3.9v8.2H15.184v-8.2ZM24,9.246a4.823,4.823,0,0,1-.84-.074,3.017,3.017,0,0,1-.741-.222l.2-1.457a2.474,2.474,0,0,0,1.111.222A1.58,1.58,0,0,0,25,7.209a6.038,6.038,0,0,0,.827-1.346l1.161-2.47L21.136-9.5h1.951L27.928,1.442,32.621-9.5h1.951L27.583,6.11a11.208,11.208,0,0,1-.63,1.3,4.691,4.691,0,0,1-.741.988,2.9,2.9,0,0,1-.939.63A3.286,3.286,0,0,1,24,9.246ZM45.069-9.746a6.392,6.392,0,0,1,2.519.482,5.8,5.8,0,0,1,1.976,1.371,6.17,6.17,0,0,1,1.3,2.124A7.925,7.925,0,0,1,51.317-3,8.134,8.134,0,0,1,50.86-.213a6.127,6.127,0,0,1-1.3,2.149,5.953,5.953,0,0,1-1.976,1.383,6.253,6.253,0,0,1-2.519.494,5.927,5.927,0,0,1-3.248-.827A5.276,5.276,0,0,1,39.857.75V9H38.079V-9.5h1.729l.049,2.816a5.276,5.276,0,0,1,1.963-2.235A5.927,5.927,0,0,1,45.069-9.746Zm-.42,12.028A4.946,4.946,0,0,0,46.625,1.9,4.435,4.435,0,0,0,48.144.837a4.714,4.714,0,0,0,.976-1.655,6.432,6.432,0,0,0,.346-2.161,6.219,6.219,0,0,0-.346-2.136,4.89,4.89,0,0,0-.976-1.642A4.223,4.223,0,0,0,46.625-7.82a5.09,5.09,0,0,0-1.976-.37,5.024,5.024,0,0,0-1.951.37,4.223,4.223,0,0,0-1.519,1.062A4.867,4.867,0,0,0,40.2-5.1a6.325,6.325,0,0,0-.346,2.149A6.325,6.325,0,0,0,40.2-.806,4.733,4.733,0,0,0,41.179.837,4.435,4.435,0,0,0,42.7,1.9,4.882,4.882,0,0,0,44.649,2.282ZM67.272-3.127v.42a2.51,2.51,0,0,1-.025.4H56.825a5.749,5.749,0,0,0,1.284,3.421A3.855,3.855,0,0,0,61.172,2.38a4.831,4.831,0,0,0,2.4-.593A5.733,5.733,0,0,0,65.4.158l1.358.766A6.275,6.275,0,0,1,64.37,3.072a6.852,6.852,0,0,1-3.174.741,6.5,6.5,0,0,1-2.569-.494,5.636,5.636,0,0,1-1.976-1.383A6.354,6.354,0,0,1,55.38-.2a8.029,8.029,0,0,1-.457-2.779,8.231,8.231,0,0,1,.445-2.779,6.2,6.2,0,0,1,1.26-2.136,5.526,5.526,0,0,1,1.963-1.371,6.483,6.483,0,0,1,2.532-.482,6.539,6.539,0,0,1,2.519.469,5.372,5.372,0,0,1,1.939,1.346,6.211,6.211,0,0,1,1.247,2.1A7.864,7.864,0,0,1,67.272-3.127Zm-6.15-5.187a3.872,3.872,0,0,0-3.038,1.272,5.507,5.507,0,0,0-1.26,3.47H65.42a5.507,5.507,0,0,0-1.26-3.47A3.872,3.872,0,0,0,61.123-8.314ZM73.4-7.3q1.408-2.445,5.187-2.445l-.148,1.63A5.561,5.561,0,0,0,74.731-7a3.719,3.719,0,0,0-1.309,2.988V3.566H71.644V-9.5h1.729Zm6.891-2.2h1.951L87.006,1.516,91.773-9.5h1.951L87.92,3.566h-1.8Zm17.017,0h1.778V3.566H97.305Zm.889-3.285a1.173,1.173,0,0,1-.864-.346,1.143,1.143,0,0,1-.346-.84,1.173,1.173,0,0,1,.346-.864,1.173,1.173,0,0,1,.864-.346,1.143,1.143,0,0,1,.84.346,1.173,1.173,0,0,1,.346.864,1.143,1.143,0,0,1-.346.84A1.143,1.143,0,0,1,98.194-12.784Zm9.953,16.6a8.975,8.975,0,0,1-2.569-.346,4.92,4.92,0,0,1-1.926-1.037l.741-1.111a5.016,5.016,0,0,0,1.778.827,8.318,8.318,0,0,0,1.976.235,3.826,3.826,0,0,0,2.248-.593,1.866,1.866,0,0,0,.84-1.605,1.714,1.714,0,0,0-.778-1.482,6.687,6.687,0,0,0-1.964-.889l-1.408-.42a11.917,11.917,0,0,1-1.4-.494,4.381,4.381,0,0,1-1.087-.654,2.761,2.761,0,0,1-.716-.914,2.873,2.873,0,0,1-.259-1.272,3.618,3.618,0,0,1,.333-1.568,3.415,3.415,0,0,1,.939-1.2,4.4,4.4,0,0,1,1.445-.766,6.079,6.079,0,0,1,1.877-.272,8,8,0,0,1,4.446,1.186l-.766,1.21a6.1,6.1,0,0,0-1.729-.741,7.507,7.507,0,0,0-1.828-.222,3.534,3.534,0,0,0-2.087.568,1.783,1.783,0,0,0-.8,1.531,1.564,1.564,0,0,0,.692,1.383,5.978,5.978,0,0,0,1.754.766l1.408.42a9.964,9.964,0,0,1,1.42.494,4.737,4.737,0,0,1,1.2.741,3.463,3.463,0,0,1,.827,1.037,3.01,3.01,0,0,1,.309,1.408,3.314,3.314,0,0,1-1.321,2.741A5.671,5.671,0,0,1,108.148,3.813Zm15.14,0a7.321,7.321,0,0,1-2.741-.494,6.112,6.112,0,0,1-2.112-1.383A6.161,6.161,0,0,1,117.076-.2a7.586,7.586,0,0,1-.482-2.754,7.658,7.658,0,0,1,.482-2.779,6.161,6.161,0,0,1,1.358-2.136,6.112,6.112,0,0,1,2.112-1.383,7.321,7.321,0,0,1,2.741-.494A7.252,7.252,0,0,1,126-9.252a5.985,5.985,0,0,1,2.1,1.383,6.255,6.255,0,0,1,1.346,2.136,7.658,7.658,0,0,1,.482,2.779A7.586,7.586,0,0,1,129.45-.2,6.255,6.255,0,0,1,128.1,1.936,5.985,5.985,0,0,1,126,3.319,7.252,7.252,0,0,1,123.288,3.813Zm0-1.531a4.858,4.858,0,0,0,1.963-.383A4.337,4.337,0,0,0,126.745.837a4.839,4.839,0,0,0,.963-1.642,6.325,6.325,0,0,0,.346-2.149,6.325,6.325,0,0,0-.346-2.149,4.978,4.978,0,0,0-.963-1.655,4.13,4.13,0,0,0-1.494-1.062,5,5,0,0,0-1.963-.37,5.09,5.09,0,0,0-1.976.37,4.223,4.223,0,0,0-1.519,1.062,4.867,4.867,0,0,0-.976,1.655,6.325,6.325,0,0,0-.346,2.149,6.325,6.325,0,0,0,.346,2.149,4.733,4.733,0,0,0,.976,1.642A4.435,4.435,0,0,0,121.312,1.9,4.946,4.946,0,0,0,123.288,2.282ZM136.106-7.3q1.408-2.445,5.187-2.445l-.148,1.63A5.561,5.561,0,0,0,137.44-7a3.719,3.719,0,0,0-1.309,2.988V3.566h-1.778V-9.5h1.729Z" transform="translate(26.407 50.77)" fill="#fff"/>
</svg>
