<svg xmlns="http://www.w3.org/2000/svg" xmlns:xlink="http://www.w3.org/1999/xlink" width="160.084" height="28.03" viewBox="0 0 160.084 28.03">
  <defs>
    <clipPath id="clip-path">
      <rect id="Rectangle_31848" data-name="Rectangle 31848" width="160.084" height="28.03" fill="none"/>
    </clipPath>
  </defs>
  <g id="CloudOps_logo" transform="translate(0 0)">
    <g id="Group_96002" data-name="Group 96002" transform="translate(0 0)" clip-path="url(#clip-path)">
      <path id="Path_90322" data-name="Path 90322" d="M19.829,9.316l-3.664,3.939a4.645,4.645,0,0,1-.807-.718A6.029,6.029,0,0,0,12.7,11.078,5.134,5.134,0,0,0,6.348,14.82a6.692,6.692,0,0,0,.327,4.854A5.022,5.022,0,0,0,10.7,22.667a8.617,8.617,0,0,0,1.277.074q4.041,0,8.082,0a1.049,1.049,0,0,0,.461-.037c.034-.139-.069-.217-.135-.305a13.652,13.652,0,0,1-2.619-6.643,13.34,13.34,0,0,1-.1-2.093.908.908,0,0,1,.262-.624q1.674-1.783,3.339-3.575c.052-.056.1-.117.17-.2a15.713,15.713,0,0,0-1.971-2.034,4.652,4.652,0,0,1,.729-1.251A13.867,13.867,0,0,1,29.527.222a15.332,15.332,0,0,1,8.244.835,13.685,13.685,0,0,1,3.966,2.406,13.3,13.3,0,0,1,4.582,8.488,14,14,0,0,1-1.1,7.855,13.671,13.671,0,0,1-5.474,6.135,14.118,14.118,0,0,1-5.691,1.939,23.572,23.572,0,0,1-2.9.148c-6.657,0-13.315.015-19.972-.011a11.1,11.1,0,0,1-7.1-2.447A10.445,10.445,0,0,1,.256,19.259,11.166,11.166,0,0,1,2.675,9.474,10.6,10.6,0,0,1,9.892,5.708a12.576,12.576,0,0,1,6.252.783,10.054,10.054,0,0,1,3.571,2.558.373.373,0,0,1,.114.267m4.132,5.146a7.064,7.064,0,0,0,.507,2.6A8.022,8.022,0,0,0,33,22.431a7.615,7.615,0,0,0,5.86-3.624,8.614,8.614,0,0,0,1.275-5.721,8.238,8.238,0,0,0-3.323-5.995,7.909,7.909,0,0,0-6.335-1.4,7.542,7.542,0,0,0-5.19,3.5,8.986,8.986,0,0,0-1.328,5.277" transform="translate(0 0)" fill="#62b5e5"/>
      <path id="Path_90323" data-name="Path 90323" d="M128.979,14.577a8.491,8.491,0,0,1,2.481-6.316,8.623,8.623,0,0,1,5.007-2.537,9.281,9.281,0,0,1,7.693,2.039,8.2,8.2,0,0,1,2.865,5.121,8.615,8.615,0,0,1-2.682,8.04,8.829,8.829,0,0,1-5.23,2.315,9.471,9.471,0,0,1-5.877-1.2,8.5,8.5,0,0,1-4.257-7.466m3.973.591c-.079,1.728,1.639,3.837,3.671,4.392a4.824,4.824,0,0,0,5.085-1.314,5.479,5.479,0,0,0,.835-6.368,5,5,0,0,0-6.581-2.311c-2.086.928-2.961,2.676-3.01,5.6" transform="translate(-12.144 -0.527)" fill="#62b5e5"/>
      <path id="Path_90324" data-name="Path 90324" d="M122.742,11.251V5.281a11.942,11.942,0,0,1,3.733-.074V22.9h-3.613c-.228-.515,0-1.048-.164-1.536-.241.032-.332.218-.457.349a4.9,4.9,0,0,1-5.529,1.137,5.771,5.771,0,0,1-3.822-4.616,8.278,8.278,0,0,1,.426-5.043,5.732,5.732,0,0,1,5.363-3.606,5.041,5.041,0,0,1,3.671,1.47,3.291,3.291,0,0,0,.26.214c.01.009.034,0,.132-.013m.029,5.168a3.95,3.95,0,0,0-.5-2.025,2.963,2.963,0,0,0-4.739-.691,4.016,4.016,0,0,0-.155,5.258,2.978,2.978,0,0,0,4.4.106,3.683,3.683,0,0,0,.992-2.648" transform="translate(-10.61 -0.48)" fill="#62b5e5"/>
      <path id="Path_90325" data-name="Path 90325" d="M153.813,22v5.258c-1.262.071-2.448.026-3.6.032-.19-.515-.214-16.363-.038-16.977h3.559c.217.526.033,1.071.146,1.637.343-.314.643-.624.978-.889a5.4,5.4,0,0,1,6.482.14,6.412,6.412,0,0,1,2.453,4.535,7.858,7.858,0,0,1-.833,4.921,5.5,5.5,0,0,1-4.86,2.988,5.157,5.157,0,0,1-4.021-1.562.214.214,0,0,0-.262-.084m.007-4.976a3.465,3.465,0,0,0,.5,1.874,2.983,2.983,0,0,0,5.112.207,3.976,3.976,0,0,0,.219-4.125,2.973,2.973,0,0,0-4.453-1.135,3.536,3.536,0,0,0-1.375,3.18" transform="translate(-14.128 -0.946)" fill="#62b5e5"/>
      <path id="Path_90326" data-name="Path 90326" d="M74.655,8.237c-.783.972-1.555,1.852-2.339,2.713a1.676,1.676,0,0,1-.755-.457,5.675,5.675,0,0,0-4.245-1.33,4.509,4.509,0,0,0-3.49,2.21,5.665,5.665,0,0,0-.409,5.367,4.978,4.978,0,0,0,7.365,2.235c.528-.334,1.015-.732,1.454-1.051l2.42,2.4A6.1,6.1,0,0,1,73.1,21.739a8.515,8.515,0,0,1-4.189,1.506,8.962,8.962,0,0,1-5.311-.937,8.324,8.324,0,0,1-4.528-6.472A8.8,8.8,0,0,1,60.841,8.9a8.314,8.314,0,0,1,5.267-3.151,10.371,10.371,0,0,1,5.615.5,9.069,9.069,0,0,1,2.932,1.982" transform="translate(-5.552 -0.525)" fill="#62b5e5"/>
      <path id="Path_90327" data-name="Path 90327" d="M96.529,17.559c.128,2.675-2.565,5.67-6.055,6.09a7.187,7.187,0,0,1-6.143-1.938,6.752,6.752,0,0,1-.649-8.868,6.832,6.832,0,0,1,4.778-2.714,7.162,7.162,0,0,1,4.873,1c2.135,1.318,3.163,3.267,3.195,6.431m-7.117,2.872a3.244,3.244,0,0,0,3.4-3.468,3.431,3.431,0,0,0-3.309-3.63A3.3,3.3,0,0,0,86.08,16.79a3.378,3.378,0,0,0,3.332,3.641" transform="translate(-7.751 -0.947)" fill="#62b5e5"/>
      <path id="Path_90328" data-name="Path 90328" d="M110.568,23.39h-3.543c-.217-.515-.021-1.043-.171-1.605a8.7,8.7,0,0,1-1.144,1.084,4.743,4.743,0,0,1-5.546-.123A4.273,4.273,0,0,1,98.7,19.687c-.234-2.926-.059-5.857-.107-8.786a.707.707,0,0,1,.163-.55h3.479a1.017,1.017,0,0,1,.133.74c.005,2.055,0,4.111,0,6.166A5.066,5.066,0,0,0,102.648,19a1.793,1.793,0,0,0,1.678,1.237c1.684.13,2.56-.856,2.584-2.588.03-2.17.005-4.34.01-6.509a1.425,1.425,0,0,1,.11-.785h3.5c.2.467.229,12.408.034,13.04" transform="translate(-9.281 -0.975)" fill="#62b5e5"/>
      <path id="Path_90329" data-name="Path 90329" d="M175.29,11.707c-.414.832-.878,1.651-1.388,2.5-.508-.229-.992-.438-1.467-.663a6.945,6.945,0,0,0-1.866-.512,1.891,1.891,0,0,0-1.006.153.749.749,0,0,0-.266,1.256,2.476,2.476,0,0,0,.933.534c.973.388,2,.64,2.944,1.092a6.757,6.757,0,0,1,1.307.809c1.806,1.433,1.39,4.962-.737,6.076a6.017,6.017,0,0,1-2.451.693,8.982,8.982,0,0,1-5.552-1.391c-.177-.113-.35-.231-.517-.357a2.041,2.041,0,0,1-.227-.244c.448-.838,1.017-1.592,1.546-2.422a12.1,12.1,0,0,0,2.144,1.121,4.7,4.7,0,0,0,2.68.329,1.565,1.565,0,0,0,.427-.152.767.767,0,0,0,.116-1.294,3.358,3.358,0,0,0-1.281-.607,17.652,17.652,0,0,1-2.7-.922,3.516,3.516,0,0,1-2.3-3.864,3.884,3.884,0,0,1,2.855-3.423,8,8,0,0,1,6.656,1.121c.045.028.072.084.144.169" transform="translate(-15.535 -0.953)" fill="#62b5e5"/>
      <path id="Path_90330" data-name="Path 90330" d="M80.983,22.9H77.318V5.244a12.847,12.847,0,0,1,3.665-.036Z" transform="translate(-7.28 -0.48)" fill="#62b5e5"/>
    </g>
  </g>
</svg>
