<svg xmlns="http://www.w3.org/2000/svg" xmlns:xlink="http://www.w3.org/1999/xlink" width="158.465" height="29.973" viewBox="0 0 158.465 29.973">
  <defs>
    <clipPath id="clip-path">
      <rect id="Rectangle_24799" data-name="Rectangle 24799" width="158.465" height="29.972" fill="none"/>
    </clipPath>
  </defs>
  <g id="cloudian_logo" transform="translate(0 0)">
    <path id="Path_81269" data-name="Path 81269" d="M12.98,0,0,7.494l4.716,2.724L12.98,5.446Z" fill="#fff"/>
    <path id="Path_81270" data-name="Path 81270" d="M18.636,15.127,14.946,13l-3.69,2.13,3.69,2.13Z" transform="translate(-1.966 -2.27)" fill="#fff"/>
    <path id="Path_81271" data-name="Path 81271" d="M15.727,21.97h0l3.69-2.13V15.578l-3.69,2.13Z" transform="translate(-2.747 -2.721)" fill="#b7d433"/>
    <path id="Path_81272" data-name="Path 81272" d="M23.988,11.8v9.542l-8.262,4.767v5.446L28.7,24.068V9.08Z" transform="translate(-2.747 -1.586)" fill="#b7d433"/>
    <path id="Path_81273" data-name="Path 81273" d="M14.946,21.97V17.708l-3.69-2.13v4.261Z" transform="translate(-1.966 -2.721)" fill="#a4a7a9"/>
    <path id="Path_81274" data-name="Path 81274" d="M0,24.068l12.98,7.491V26.112L4.715,21.345V11.8L0,9.08Z" transform="translate(0 -1.586)" fill="#a4a7a9"/>
    <g id="Group_81746" data-name="Group 81746" transform="translate(0 0)">
      <g id="Group_81745" data-name="Group 81745" clip-path="url(#clip-path)">
        <path id="Path_81275" data-name="Path 81275" d="M48.726,20.394H41.539V13.567h7.187v1.611h2.689V14.135c0-2.069-.7-2.585-2.87-2.585H41.72c-2.171,0-2.843.543-2.843,2.585V19.9c0,2.017.648,2.585,2.843,2.585h6.825c2.17,0,2.87-.543,2.87-2.585V18.626H48.726Z" transform="translate(-6.79 -2.017)" fill="#fff"/>
        <path id="Path_81276" data-name="Path 81276" d="M61.289,11.553H58.6V22.488h11.27V20.444H61.289Z" transform="translate(-10.236 -2.018)" fill="#fff"/>
        <path id="Path_81277" data-name="Path 81277" d="M87.363,20.395H78.549V13.57h8.814Zm-.18-8.842H78.73c-2.146,0-2.843.491-2.843,2.585V19.9c0,2.069.673,2.585,2.843,2.585h8.452c2.146,0,2.842-.516,2.842-2.585V14.138c0-2.094-.7-2.585-2.842-2.585" transform="translate(-13.255 -2.018)" fill="#fff"/>
        <path id="Path_81278" data-name="Path 81278" d="M107.959,20.444h-7.6V11.553H97.7V19.9c0,2.042.673,2.585,2.843,2.585h7.239c2.17,0,2.87-.543,2.87-2.585v-8.35h-2.689Z" transform="translate(-17.064 -2.018)" fill="#fff"/>
        <path id="Path_81279" data-name="Path 81279" d="M124.359,20.444h-3.438V13.518h4.706c2.533,0,3.8,1.059,3.8,3.334,0,2.843-1.682,3.592-5.068,3.592m1.24-8.891h-7.368V22.488h6.7c4.808,0,7.239-1.808,7.239-5.507,0-3.386-2.25-5.427-6.566-5.427" transform="translate(-20.651 -2.018)" fill="#fff"/>
        <rect id="Rectangle_24798" data-name="Rectangle 24798" width="2.662" height="10.935" transform="translate(115.096 9.535)" fill="#fff"/>
        <path id="Path_81280" data-name="Path 81280" d="M151.7,18.092l2.456-4.55,2.56,4.55Zm1.317-6.539-6.49,10.935h2.662l1.369-2.4h7.238l1.369,2.4h3l-6.588-10.935Z" transform="translate(-25.592 -2.018)" fill="#fff"/>
        <path id="Path_81281" data-name="Path 81281" d="M180.223,11.553v7.264l-9.278-7.264h-1.836V22.488h2.428V15.12l9.256,7.368h1.836V11.553Z" transform="translate(-29.537 -2.018)" fill="#fff"/>
        <path id="Path_81282" data-name="Path 81282" d="M189.679,12.348v.541h.262a.639.639,0,0,0,.313-.059.215.215,0,0,0,.1-.2.234.234,0,0,0-.1-.215.615.615,0,0,0-.319-.064Zm.989.249a.439.439,0,0,1-.095.291.47.47,0,0,1-.276.15l.366.743h-.344l-.332-.7h-.3v.7h-.307V12.149h.617c.448,0,.675.151.675.449m.442-.083a1.175,1.175,0,0,0-.267-.4,1.245,1.245,0,0,0-.405-.28,1.221,1.221,0,0,0-.485-.095,1.291,1.291,0,0,0-.475.089,1.108,1.108,0,0,0-.4.267,1.326,1.326,0,0,0-.282.417,1.231,1.231,0,0,0-.1.48,1.183,1.183,0,0,0,.095.472,1.229,1.229,0,0,0,.273.405,1.287,1.287,0,0,0,.405.276,1.177,1.177,0,0,0,.467.1,1.2,1.2,0,0,0,.481-.1,1.388,1.388,0,0,0,.415-.273,1.148,1.148,0,0,0,.273-.393,1.232,1.232,0,0,0,.092-.473,1.288,1.288,0,0,0-.092-.491m-.6-.853a1.377,1.377,0,0,1,.47.319,1.457,1.457,0,0,1,.307.464,1.476,1.476,0,0,1,0,1.105,1.366,1.366,0,0,1-.313.457,1.6,1.6,0,0,1-.48.319,1.413,1.413,0,0,1-1.1,0,1.471,1.471,0,0,1-.47-.323,1.543,1.543,0,0,1-.313-.464,1.431,1.431,0,0,1,0-1.1,1.5,1.5,0,0,1,.325-.48,1.336,1.336,0,0,1,.454-.307,1.466,1.466,0,0,1,.547-.1,1.36,1.36,0,0,1,.565.1" transform="translate(-32.924 -2.018)" fill="#fff"/>
      </g>
    </g>
  </g>
</svg>
