<svg xmlns="http://www.w3.org/2000/svg" xmlns:xlink="http://www.w3.org/1999/xlink" width="188.05" height="24.008" viewBox="0 0 188.05 24.008">
  <defs>
    <clipPath id="clip-path">
      <rect id="Rectangle_31969" data-name="Rectangle 31969" width="188.05" height="24.008" fill="none"/>
    </clipPath>
  </defs>
  <g id="dell_logo" transform="translate(0 53)">
    <g id="Group_97175" data-name="Group 97175" transform="translate(0 -53)" clip-path="url(#clip-path)">
      <path id="Path_90624" data-name="Path 90624" d="M36.482,1.466V.706L36.156.489H23.149l-.217.217v.76l.217.217h5.537L28.9,1.9V17.727l.217.217H30.1l.217-.217V2l.217-.217h5.641l.326-.324Zm2.925,3.787c-3.474,0-5.537,2.492-5.537,6.059v.546c0,3.474,1.737,6.5,5.746,6.5,3.474,0,4.78-2.277,4.989-3.787l-.214-.214h-.979l-.214.214a3.349,3.349,0,0,1-3.474,2.494c-3.265,0-4.231-3.03-4.231-4.545l.219-.214h9.011l.219-.219v-.76c0-3.578-1.951-6.059-5.537-6.059Zm0,1.3a3.673,3.673,0,0,1,3.134,1.465,4.743,4.743,0,0,1,.867,2.769l-.214.219h-7.6l-.219-.219a4.76,4.76,0,0,1,.867-2.769A3.718,3.718,0,0,1,39.4,6.554Zm8.018,5.2c0-3.474,1.734-5.3,4.231-5.3a3.529,3.529,0,0,1,3.787,3.03l.217.217h1.084l.217-.217c-.217-2.494-2.277-4.231-5.3-4.231-3.265,0-5.746,2.061-5.746,6.5,0,4.545,2.494,6.5,5.746,6.5,3.03,0,4.989-1.734,5.3-4.231l-.217-.217h-.977l-.217.217a3.465,3.465,0,0,1-3.787,3.03c-2.494,0-4.336-1.734-4.336-5.3ZM69.1,17.837v-7.6c0-3.265-1.734-4.989-4.545-4.989a4.54,4.54,0,0,0-4.022,2.061H60.32V.805L59.993.482h-.977L58.8.7V17.832l.217.217h.977l.217-.217V10.989c0-2.821,1.3-4.545,4.022-4.545,2.061,0,3.265,1.3,3.265,3.787v7.6l.217.217h.977l.434-.217Zm12.8,0v-7.6c0-3.265-1.734-4.989-4.545-4.989a4.54,4.54,0,0,0-4.022,2.061h-.217L72.9,5.791l-.217-.217h-.76l-.217.217v12.04l.217.217H72.9l.217-.217V10.989c0-2.821,1.3-4.545,4.022-4.545,2.061,0,3.265,1.3,3.265,3.787v7.6l.217.217h1.084l.217-.217ZM89.162,5.353c-3.265,0-5.746,2.28-5.746,6.5s2.5,6.5,5.746,6.5,5.746-2.275,5.746-6.5-2.5-6.5-5.746-6.5m0,1.194a3.833,3.833,0,0,1,3.056,1.439A6.09,6.09,0,0,1,93.4,11.851a6.048,6.048,0,0,1-1.178,3.865,3.973,3.973,0,0,1-6.112,0,6.09,6.09,0,0,1-1.178-3.865,6.1,6.1,0,0,1,1.178-3.918,3.818,3.818,0,0,1,3.056-1.4Zm9.115,11.283V.7L97.951.479h-.977L96.757.7V17.829l.217.217h.977Zm7.5-12.484c-3.265,0-5.746,2.28-5.746,6.5s2.5,6.5,5.746,6.5,5.746-2.275,5.746-6.5-2.492-6.5-5.746-6.5m0,1.194a3.837,3.837,0,0,1,3.056,1.439,6.091,6.091,0,0,1,1.183,3.865,6.049,6.049,0,0,1-1.183,3.865,3.973,3.973,0,0,1-6.112,0,6.061,6.061,0,0,1-1.188-3.865,6.1,6.1,0,0,1,1.183-3.918,3.818,3.818,0,0,1,3.056-1.4Zm12.354-1.3c-3.474,0-5.328,2.821-5.328,6.5,0,3.787,1.737,6.5,5.328,6.5,2.277,0,3.474-.977,4.022-2.061v.107c0,3.265-.757,5.746-3.787,5.746-2.277,0-3.03-.974-3.265-2.275l-.219-.219H113.9l-.219.219c.217,2.061,1.739,3.474,4.78,3.474,3.265,0,5.328-2.061,5.328-7.052V5.763l-.219-.214h-.76l-.214.214-.219,1.52h-.214a4.287,4.287,0,0,0-4.022-2.061Zm0,1.194a3.574,3.574,0,0,1,2.951,1.311,6.391,6.391,0,0,1,1.071,4,6.4,6.4,0,0,1-1.071,4,3.967,3.967,0,0,1-5.9,0,6.392,6.392,0,0,1-1.066-4,6.5,6.5,0,0,1,1.066-3.97,3.542,3.542,0,0,1,2.951-1.353ZM127.66,3.3V1.78l-.217-.217h-.977l-.326.217V3.3l.217.217h.977Zm0,14.522V5.778l-.217-.217h-.977l-.326.217v12.04l.217.217h.977ZM134.921,5.23c-3.474,0-5.537,2.492-5.537,6.059v.546c0,3.474,1.737,6.5,5.746,6.5,3.474,0,4.78-2.277,4.989-3.787l-.219-.214h-.974l-.219.214a3.345,3.345,0,0,1-3.474,2.494c-3.265,0-4.231-3.03-4.231-4.545l.219-.214h9.011l.219-.219v-.76c0-3.474-2.063-6.059-5.537-6.059Zm0,1.3A3.753,3.753,0,0,1,138.081,8a4.743,4.743,0,0,1,.867,2.769l-.219.219h-7.6l-.214-.219A4.76,4.76,0,0,1,131.781,8a3.694,3.694,0,0,1,3.134-1.465Zm16.167,8.253c0-2.277-1.3-3.265-3.787-3.787-2.494-.543-4.022-.76-4.022-2.494,0-1.3.977-2.061,2.821-2.061,2.277,0,3.03.977,3.03,2.277l.217.217h.977l.217-.217c0-2.494-2.061-3.474-4.545-3.474-2.821,0-4.231,1.517-4.231,3.265,0,2.061,1.517,3.03,4.022,3.474,2.494.543,3.787.76,3.787,2.821,0,1.3-.76,2.277-3.265,2.277-2.277,0-3.265-1.3-3.265-2.821l-.217-.217h-.977l-.217.217c0,2.277,1.734,4.022,4.78,4.022,3.134.11,4.675-1.41,4.675-3.474Z" transform="translate(36.962 0.772)" fill="#fff"/>
      <path id="Path_90625" data-name="Path 90625" d="M59.863,15.122V18.7H48.58V.992h4.1V15.1h7.182ZM25.648,0l-10,7.7a8.782,8.782,0,0,0-8.462-6.66H0V18.753H7.182a8.554,8.554,0,0,0,8.462-6.66l10,7.7,10-7.7v6.66H46.934v-3.6H39.49V1.045h-4.1V7.7l-9.481,7.7-2.05-1.8,4.623-3.6,4.884-3.839L30.545,3.863l-9.481,7.444-2.05-1.8,9.481-7.182L25.674.021h-.005ZM3.839,4.623H6.921a4.447,4.447,0,0,1,1.847.407,4.938,4.938,0,0,1,1.557,1.134,5.386,5.386,0,0,1,1.071,1.7,5.916,5.916,0,0,1,.034,4.171,5.571,5.571,0,0,1-1.016,1.719,4.845,4.845,0,0,1-1.541,1.188,4.47,4.47,0,0,1-1.954.444H3.837V4.628Z" transform="translate(0 0)" fill="#fff"/>
    </g>
  </g>
</svg>
