<?xml version="1.0" encoding="UTF-8"?><svg xmlns="http://www.w3.org/2000/svg" viewBox="0 0 439 164"><defs><style>.d{fill:#fff;}.e{fill:#0998ff;}</style></defs><g id="a"/><g id="b"><g><g><rect class="e" x="10.71" y="10.43" width="122.47" height="122.47" rx="10.59" ry="10.59"/><rect class="e" x="405.2" y="22.54" width="23.09" height="98.25" rx=".95" ry=".95"/><rect class="e" x="151.37" y="22.54" width="23.09" height="98.25" rx=".95" ry=".95"/><path class="e" d="M293.96,22.54h-22.85c-.33,0-.63,.17-.8,.45l-24.53,39.45-24.53-39.45c-.17-.28-.48-.45-.8-.45h-22.85c-.52,0-.95,.42-.95,.95V119.85c0,.52,.42,.95,.95,.95h20.92c.52,0,.95-.42,.95-.95V60.51l25.11,38.11c.17,.27,.47,.43,.79,.43h.55c.32,0,.61-.16,.79-.43l25.38-38.53v59.75c0,.52,.42,.95,.95,.95h20.92c.52,0,.95-.42,.95-.95V23.49c0-.52-.42-.95-.95-.95Z"/><path class="e" d="M385.6,79.82c-1.38-3.14-3.46-5.92-6.18-8.25-2.69-2.3-6.02-4.3-9.91-5.94-3.84-1.61-8.27-3.09-13.17-4.38-4.09-1.09-7.54-2.06-10.25-2.88-2.63-.8-4.73-1.65-6.22-2.53-1.4-.82-2.37-1.73-2.88-2.72-.52-1-.79-2.22-.79-3.62v-.28c0-2.1,.89-3.81,2.73-5.24,1.89-1.47,4.82-2.21,8.71-2.21s8.03,.83,12.03,2.48c4.05,1.67,8.25,3.97,12.49,6.86,.43,.29,1.02,.18,1.31-.25l11.01-15.97c.28-.41,.2-.97-.19-1.28-5.01-3.99-10.59-7.1-16.58-9.24-6-2.14-12.66-3.22-19.8-3.22-5.04,0-9.71,.71-13.9,2.11-4.21,1.41-7.89,3.46-10.94,6.1-3.05,2.64-5.45,5.83-7.14,9.47-1.69,3.64-2.55,7.78-2.55,12.31v.28c0,4.89,.8,9.06,2.37,12.38,1.58,3.33,3.83,6.16,6.69,8.39,2.83,2.21,6.3,4.09,10.33,5.58,3.98,1.48,8.48,2.83,13.35,4.02,4,1,7.29,1.96,9.77,2.86,2.45,.89,4.39,1.79,5.74,2.66,1.27,.82,2.13,1.68,2.56,2.57,.44,.93,.67,2.01,.67,3.24v.28c0,2.53-1.05,4.46-3.22,5.89-2.26,1.49-5.54,2.25-9.73,2.25-5.35,0-10.33-1.04-14.82-3.08-4.54-2.07-9.03-4.89-13.35-8.41-.4-.33-.99-.27-1.32,.13l-12.53,15c-.33,.39-.29,.97,.09,1.31,5.85,5.29,12.44,9.27,19.59,11.82,7.14,2.55,14.52,3.84,21.93,3.84,5.3,0,10.2-.69,14.57-2.04,4.39-1.36,8.23-3.36,11.42-5.95,3.19-2.6,5.72-5.86,7.51-9.69,1.78-3.83,2.69-8.25,2.69-13.13v-.28c0-4.33-.7-8.12-2.08-11.26Z"/></g><g><path class="e" d="M175.42,141.96v-.06c0-6.35,4.75-11.61,11.35-11.61,4.07,0,6.51,1.44,8.75,3.56l-1.73,1.86c-1.89-1.8-4.01-3.08-7.05-3.08-4.97,0-8.69,4.04-8.69,9.2v.06c0,5.2,3.75,9.27,8.69,9.27,3.08,0,5.1-1.19,7.25-3.24l1.67,1.64c-2.34,2.37-4.91,3.94-8.98,3.94-6.48,0-11.26-5.1-11.26-11.54Z"/><path class="e" d="M199.08,129.71h2.47v23.41h-2.47v-23.41Z"/><path class="e" d="M205.47,144.91v-.06c0-4.68,3.66-8.66,8.66-8.66s8.63,3.91,8.63,8.59v.06c0,4.68-3.69,8.66-8.69,8.66s-8.59-3.91-8.59-8.59Zm14.75,0v-.06c0-3.56-2.66-6.48-6.16-6.48s-6.06,2.92-6.06,6.41v.06c0,3.56,2.63,6.45,6.12,6.45s6.09-2.89,6.09-6.38Z"/><path class="e" d="M226.15,146.84v-10.29h2.47v9.68c0,3.08,1.67,5,4.59,5s4.97-2.08,4.97-5.19v-9.49h2.44v16.58h-2.44v-2.89c-1.12,1.8-2.82,3.24-5.68,3.24-4.01,0-6.35-2.69-6.35-6.64Z"/><path class="e" d="M244.4,144.88v-.06c0-5.42,3.94-8.63,7.92-8.63,3.08,0,5.07,1.67,6.35,3.53v-10.01h2.47v23.41h-2.47v-3.34c-1.35,1.99-3.3,3.69-6.35,3.69-3.98,0-7.92-3.14-7.92-8.59Zm14.37-.03v-.06c0-3.82-2.92-6.38-6-6.38s-5.84,2.37-5.84,6.38v.06c0,3.91,2.73,6.41,5.84,6.41s6-2.6,6-6.41Z"/><path class="e" d="M287.76,149.95c-2.05,2.21-4.43,3.5-7.34,3.5-4.04,0-7.05-2.53-7.05-6.29v-.06c0-2.98,1.99-5.13,5.42-6.48-1.54-1.8-2.24-3.17-2.24-4.94v-.06c0-2.95,2.37-5.32,5.93-5.32,3.14,0,5.45,2.28,5.45,5.07v.06c0,2.85-2.02,4.68-5.29,5.84l5.13,5.23c.99-1.44,1.89-3.14,2.69-5l2.08,.96c-.99,2.12-2.02,4.04-3.24,5.64l3.91,4.01-1.92,1.48-3.53-3.62Zm-1.54-1.57l-6-6.19c-2.98,1.09-4.3,2.92-4.3,4.81v.06c0,2.41,1.92,4.23,4.68,4.23,2.12,0,3.98-1.12,5.61-2.92Zm-.67-12.83v-.06c0-1.8-1.35-3.11-3.17-3.11-2.02,0-3.4,1.41-3.4,3.24v.06c0,1.31,.55,2.31,2.24,4.14,2.85-.96,4.33-2.34,4.33-4.27Z"/><path class="e" d="M303.96,149.85l1.57-1.86c2.34,2.12,4.59,3.17,7.7,3.17s5-1.6,5-3.82v-.06c0-2.08-1.12-3.27-5.84-4.27-5.16-1.12-7.54-2.79-7.54-6.48v-.06c0-3.53,3.11-6.12,7.38-6.12,3.27,0,5.61,.93,7.89,2.76l-1.47,1.96c-2.08-1.7-4.17-2.44-6.48-2.44-2.92,0-4.78,1.6-4.78,3.62v.06c0,2.12,1.15,3.3,6.09,4.36,5,1.09,7.31,2.92,7.31,6.35v.06c0,3.85-3.21,6.35-7.66,6.35-3.56,0-6.48-1.19-9.17-3.59Z"/><path class="e" d="M323.71,144.88v-.06c0-4.78,3.37-8.63,7.95-8.63,4.91,0,7.73,3.91,7.73,8.75,0,.32,0,.51-.03,.8h-13.15c.35,3.59,2.89,5.61,5.84,5.61,2.28,0,3.88-.93,5.23-2.34l1.54,1.38c-1.67,1.86-3.69,3.11-6.83,3.11-4.55,0-8.27-3.5-8.27-8.63Zm13.18-.96c-.26-3.01-1.99-5.64-5.29-5.64-2.89,0-5.07,2.4-5.39,5.64h10.68Z"/><path class="e" d="M342.92,136.54h2.47v4.33c1.22-2.76,3.62-4.75,6.77-4.62v2.66h-.19c-3.62,0-6.57,2.6-6.57,7.6v6.61h-2.47v-16.58Z"/><path class="e" d="M353.48,136.54h2.73l5.58,13.76,5.61-13.76h2.66l-7.21,16.71h-2.18l-7.18-16.71Z"/><path class="e" d="M373.2,130.19h2.82v2.73h-2.82v-2.73Zm.16,6.35h2.47v16.58h-2.47v-16.58Z"/><path class="e" d="M379.74,144.91v-.06c0-4.68,3.66-8.66,8.5-8.66,3.14,0,5.1,1.31,6.64,2.95l-1.64,1.73c-1.31-1.38-2.79-2.5-5.03-2.5-3.37,0-5.93,2.85-5.93,6.41v.06c0,3.59,2.63,6.45,6.09,6.45,2.12,0,3.75-1.06,5.07-2.47l1.57,1.48c-1.67,1.86-3.66,3.21-6.77,3.21-4.84,0-8.5-3.94-8.5-8.59Z"/><path class="e" d="M396.77,144.88v-.06c0-4.78,3.37-8.63,7.95-8.63,4.91,0,7.73,3.91,7.73,8.75,0,.32,0,.51-.03,.8h-13.15c.35,3.59,2.89,5.61,5.84,5.61,2.28,0,3.88-.93,5.23-2.34l1.54,1.38c-1.67,1.86-3.69,3.11-6.83,3.11-4.55,0-8.27-3.5-8.27-8.63Zm13.18-.96c-.26-3.01-1.99-5.64-5.29-5.64-2.89,0-5.07,2.4-5.39,5.64h10.68Z"/><path class="e" d="M414.6,151l1.25-1.76c1.8,1.35,3.78,2.12,5.74,2.12s3.43-1.03,3.43-2.63v-.06c0-1.67-1.96-2.31-4.14-2.92-2.6-.74-5.48-1.64-5.48-4.68v-.06c0-2.85,2.37-4.75,5.64-4.75,2.02,0,4.27,.71,5.96,1.83l-1.12,1.86c-1.54-.99-3.3-1.6-4.91-1.6-1.96,0-3.21,1.03-3.21,2.41v.06c0,1.57,2.05,2.18,4.27,2.85,2.57,.77,5.32,1.76,5.32,4.75v.06c0,3.14-2.6,4.97-5.9,4.97-2.37,0-5-.93-6.86-2.44Z"/></g><path class="d" d="M105.02,36.09c-4.67-4.44-10.32-7.95-16.78-10.45-5.35-2.07-11.2-3.28-17.43-3.63v-.12H30.15l-1.19,.02c-.64,0-1.16,.52-1.16,1.16v19.48c0,.64,.52,1.16,1.16,1.16h37.96c4.16,0,8.01,.69,11.45,2.06,3.42,1.36,6.38,3.29,8.78,5.74,2.41,2.45,4.32,5.44,5.69,8.87,1.37,3.44,2.06,7.25,2.06,11.32v.28c0,4.16-.69,7.96-2.05,11.3-1.37,3.35-3.28,6.29-5.69,8.74-2.4,2.45-5.35,4.35-8.77,5.67-3.44,1.32-7.3,2-11.47,2h-15.23V56.49l-.02-1.31c0-.7-.57-1.27-1.27-1.27H29.07c-.7,0-1.27,.57-1.27,1.27v8.4h0v56.61c0,.7,.57,1.27,1.27,1.27h37.85c7.7,0,14.88-1.29,21.33-3.83,6.46-2.55,12.1-6.09,16.77-10.52,4.68-4.44,8.35-9.77,10.9-15.82,2.55-6.04,3.84-12.65,3.84-19.63v-.28c0-6.98-1.29-13.56-3.84-19.56-2.55-6-6.22-11.3-10.9-15.74Z"/></g></g><g id="c"/></svg>