<svg xmlns="http://www.w3.org/2000/svg" xmlns:xlink="http://www.w3.org/1999/xlink" width="48.005" height="48" viewBox="0 0 48.005 48">
  <defs>
    <linearGradient id="linear-gradient" x1="0.699" y1="0.433" x2="0.235" y2="0.956" gradientUnits="objectBoundingBox">
      <stop offset="0" stop-color="#2aa5dc"/>
      <stop offset="1" stop-color="#d1ebf8" stop-opacity="0.4"/>
    </linearGradient>
  </defs>
  <g id="easy_to_use_icon" transform="translate(0.005)">
    <g id="Group_95972" data-name="Group 95972">
      <rect id="Rectangle_31838" data-name="Rectangle 31838" width="48" height="48" opacity="0"/>
      <path id="Path_90306" data-name="Path 90306" d="M29.779,29.121a1.377,1.377,0,0,1,0-1.646l4.467-6.2a1.18,1.18,0,0,0-1.8-1.525L21.305,30.882a.6.6,0,0,1-.639.154.563.563,0,0,1-.37-.511c0-.134-.281-1.168-2.246-4a3.41,3.41,0,0,0-2.827-1.71h-.191a.562.562,0,0,0-.466.3.537.537,0,0,0,0,.537,26.709,26.709,0,0,1,3.3,11.358,2.984,2.984,0,0,0,.849,1.928l3.242,3.242a4.7,4.7,0,0,0,5.909.6,26.545,26.545,0,0,0,6-6.12,1.8,1.8,0,0,0,0-2.164Zm-4.319-6.5a1,1,0,0,1-.7-1.71L27,18.686a1,1,0,1,1,1.408,1.42l-2.246,2.227a.993.993,0,0,1-.7.29m-3.395-2.182a1,1,0,0,1-1-1V16.25a1,1,0,0,1,2,0v3.191a1,1,0,0,1-1,1m-3.274,2.507a1,1,0,0,1-.707-.293l-2.247-2.246A1,1,0,1,1,17.251,19L19.5,21.241a1,1,0,0,1-.707,1.707" fill="url(#linear-gradient)"/>
      <path id="Path_90307" data-name="Path 90307" d="M13.809,37.552l-2.27,0A10.547,10.547,0,0,1,10.616,16.5a13.415,13.415,0,0,1,26.737-.383,6.709,6.709,0,0,1,3.913,6.095c0,.081,0,.164,0,.247a7.671,7.671,0,0,1-1.219,15.061l-2.537,0" fill="none" stroke="#082330" stroke-linecap="round" stroke-linejoin="round" stroke-width="2"/>
    </g>
  </g>
</svg>
