<svg xmlns="http://www.w3.org/2000/svg" xmlns:xlink="http://www.w3.org/1999/xlink" width="22" height="21.633" viewBox="0 0 22 21.633">
  <defs>
    <clipPath id="clip-path">
      <rect id="Rectangle_31490" data-name="Rectangle 31490" width="22" height="21.633" fill="none"/>
    </clipPath>
  </defs>
  <g id="git_mini_icon" transform="translate(0 0)">
    <g id="Group_95500" data-name="Group 95500" transform="translate(0 0)" clip-path="url(#clip-path)">
      <path id="Path_89932" data-name="Path 89932" d="M11.009,0A11.1,11.1,0,0,0,7.528,21.612c.547.11.747-.239.747-.532,0-.257-.018-1.138-.018-2.057-3.062.661-3.7-1.322-3.7-1.322a2.834,2.834,0,0,0-1.221-1.616c-1-.679.073-.679.073-.679a2.309,2.309,0,0,1,1.7,1.138,2.332,2.332,0,0,0,3.208.918A2.363,2.363,0,0,1,9,15.975c-2.443-.257-5.012-1.212-5.012-5.472a4.342,4.342,0,0,1,1.13-2.975,4.034,4.034,0,0,1,.11-2.938s.93-.294,3.026,1.138a10.5,10.5,0,0,1,5.5,0c2.1-1.432,3.026-1.138,3.026-1.138A4.034,4.034,0,0,1,16.9,7.529a4.259,4.259,0,0,1,1.13,2.975c0,4.26-2.57,5.2-5.031,5.472a2.634,2.634,0,0,1,.747,2.057c0,1.487-.018,2.681-.018,3.048,0,.294.2.643.747.533A11.1,11.1,0,0,0,11.009,0" transform="translate(0 0)" fill="#fff" fill-rule="evenodd"/>
    </g>
  </g>
</svg>
