<svg xmlns="http://www.w3.org/2000/svg" xmlns:xlink="http://www.w3.org/1999/xlink" width="48.813" height="48" viewBox="0 0 48.813 48">
  <defs>
    <clipPath id="clip-path">
      <rect id="Rectangle_31490" data-name="Rectangle 31490" width="48.813" height="48" fill="none"/>
    </clipPath>
  </defs>
  <g id="git_logo" transform="translate(0 0)">
    <g id="Group_95500" data-name="Group 95500" transform="translate(0 0)" clip-path="url(#clip-path)">
      <path id="Path_89932" data-name="Path 89932" d="M24.427,0A24.633,24.633,0,0,0,16.7,47.953c1.214.245,1.658-.529,1.658-1.181,0-.57-.04-2.526-.04-4.563-6.795,1.467-8.21-2.933-8.21-2.933C9.019,36.424,7.4,35.69,7.4,35.69c-2.224-1.507.162-1.507.162-1.507a5.123,5.123,0,0,1,3.762,2.526c2.183,3.748,5.7,2.689,7.117,2.037a5.243,5.243,0,0,1,1.537-3.3c-5.42-.57-11.122-2.689-11.122-12.141a9.634,9.634,0,0,1,2.507-6.6,8.951,8.951,0,0,1,.243-6.519s2.063-.652,6.713,2.526a23.286,23.286,0,0,1,12.214,0c4.651-3.178,6.714-2.526,6.714-2.526a8.95,8.95,0,0,1,.242,6.519A9.449,9.449,0,0,1,40,23.3c0,9.452-5.7,11.53-11.162,12.141a5.844,5.844,0,0,1,1.658,4.563c0,3.3-.04,5.949-.04,6.763,0,.652.445,1.427,1.658,1.182A24.633,24.633,0,0,0,24.427,0" transform="translate(0 0)" fill="#24292f" fill-rule="evenodd"/>
    </g>
  </g>
</svg>
