<svg id="ikoula_logo" xmlns="http://www.w3.org/2000/svg" xmlns:xlink="http://www.w3.org/1999/xlink" width="109.209" height="39.998" viewBox="0 0 109.209 39.998">
  <defs>
    <clipPath id="clip-path">
      <rect id="Rectangle_31849" data-name="Rectangle 31849" width="109.209" height="39.998" fill="none"/>
    </clipPath>
  </defs>
  <path id="Path_90331" data-name="Path 90331" d="M60.94,86.168h4.129V73.14L60.94,77.269Z" transform="translate(-39.002 -46.811)" fill="#1e195a"/>
  <g id="Group_96004" data-name="Group 96004">
    <g id="Group_96003" data-name="Group 96003" clip-path="url(#clip-path)">
      <path id="Path_90332" data-name="Path 90332" d="M238.589,65.763V48.8H234.46V66.166c0,2.948,1.832,5.029,4.781,5.029a7.127,7.127,0,0,0,2.329-.342V67.408a5.448,5.448,0,0,1-1.274.155c-1.238,0-1.706-.684-1.706-1.8" transform="translate(-150.058 -31.233)" fill="#1e195a"/>
      <path id="Path_90333" data-name="Path 90333" d="M275.127,77.258V71.967A6.688,6.688,0,0,0,274.846,70a5.2,5.2,0,0,0-4.129-3.607,10.031,10.031,0,0,0-2.236-.234c-4.1,0-6.3,2.642-6.552,5.033l3.665.774a2.716,2.716,0,0,1,2.919-2.484,2.668,2.668,0,0,1,2.207.864,1.811,1.811,0,0,1,.371,1.127.953.953,0,0,1-.371.8,1.661,1.661,0,0,1-.778.284l-3.758.558c-2.545.374-4.565,1.894-4.565,4.626,0,2.39,1.987,4.6,5.249,4.6a5.36,5.36,0,0,0,4.525-2.261,3.508,3.508,0,0,0,1.98,1.825,6.617,6.617,0,0,0,2.578.04l.7-3.384a1.739,1.739,0,0,1-.212.014,1.3,1.3,0,0,1-1.31-1.318m-4.039-1.534a4.42,4.42,0,0,1-.36,1.872,3.048,3.048,0,0,1-3,1.667,1.793,1.793,0,0,1-1.987-1.771,1.931,1.931,0,0,1,1.894-1.926l3.074-.468.371-.058v.684Z" transform="translate(-167.44 -42.343)" fill="#1e195a"/>
      <path id="Path_90334" data-name="Path 90334" d="M145.317,73.7A8.014,8.014,0,1,1,137.3,65.59a7.845,7.845,0,0,1,8.013,8.107m-4.133,0c0-2.887-1.865-4.349-3.884-4.349s-3.884,1.462-3.884,4.349c0,2.858,1.865,4.349,3.884,4.349s3.884-1.462,3.884-4.349" transform="translate(-82.747 -41.978)" fill="#1e195a"/>
      <path id="Path_90335" data-name="Path 90335" d="M193.163,80.516a4.826,4.826,0,0,1-4.223,2.048c-3.7,0-5.81-2.7-5.81-6.026V66.88h4.133V75.7c0,1.71.871,3.074,2.8,3.074a2.756,2.756,0,0,0,2.887-3.013V66.88h4.133V79.4a25.419,25.419,0,0,0,.155,2.765h-3.949a10.573,10.573,0,0,1-.122-1.645" transform="translate(-117.206 -42.804)" fill="#1e195a"/>
      <path id="Path_90336" data-name="Path 90336" d="M93.977,61.738l6.12-6.429H94.69l-5.281,5.684V48.8L85.28,52.929V70.59h4.129V66.555l1.71-1.8,4.039,5.839h5.061Z" transform="translate(-54.58 -31.233)" fill="#1e195a"/>
      <path id="Path_90337" data-name="Path 90337" d="M3.639,41.967a12.419,12.419,0,0,1,0-17.567l8.784,8.784Z" transform="translate(0 -15.616)" fill="#ff7828"/>
      <path id="Path_90338" data-name="Path 90338" d="M28.039,17.567A12.419,12.419,0,0,1,28.039,0l8.784,8.784Z" transform="translate(-15.616)" fill="#ff7828"/>
      <path id="Path_90339" data-name="Path 90339" d="M28.039,66.367a12.419,12.419,0,0,1,0-17.567l8.784,8.784Z" transform="translate(-15.616 -31.233)" fill="#ff7828"/>
      <path id="Path_90340" data-name="Path 90340" d="M52.439,41.967a12.419,12.419,0,0,1,0-17.567l8.784,8.784Z" transform="translate(-31.233 -15.616)" fill="#ff7828"/>
      <path id="Path_90341" data-name="Path 90341" d="M62.533,42.32A2.333,2.333,0,1,1,60.2,44.653a2.333,2.333,0,0,1,2.333-2.333" transform="translate(-38.529 -27.085)" fill="#1e195a"/>
    </g>
  </g>
</svg>
