<svg xmlns="http://www.w3.org/2000/svg" width="270.904" height="50.327" viewBox="0 0 270.904 50.327">
  <g id="kubernetes_logo" transform="translate(1.168 1.16)">
    <g id="Group_97079" data-name="Group 97079" transform="translate(0 0)">
      <path id="Path_90517" data-name="Path 90517" d="M45.282,12.579A3.47,3.47,0,0,0,43.566,10.6L27.214,2.768a3,3,0,0,0-1.34-.268,5.658,5.658,0,0,0-1.34.107L8.181,10.488a2.881,2.881,0,0,0-1.608,1.984L2.552,30.111a3.382,3.382,0,0,0,.59,2.573L14.454,46.677A3.9,3.9,0,0,0,16.92,47.8H34.934A2.672,2.672,0,0,0,37.4,46.677L48.713,32.684a3.661,3.661,0,0,0,.643-2.573Z" transform="translate(-1.159 -1.16)" fill="#fff"/>
      <path id="Path_90518" data-name="Path 90518" d="M45.282,12.579A3.47,3.47,0,0,0,43.566,10.6L27.214,2.768a3,3,0,0,0-1.34-.268,5.658,5.658,0,0,0-1.34.107L8.181,10.488a2.881,2.881,0,0,0-1.608,1.984L2.552,30.111a3.382,3.382,0,0,0,.59,2.573L14.454,46.677A3.9,3.9,0,0,0,16.92,47.8H34.934A2.672,2.672,0,0,0,37.4,46.677L48.713,32.684a3.661,3.661,0,0,0,.643-2.573Z" transform="translate(-1.159 -1.16)" fill="none" stroke="#fff" stroke-width="5"/>
      <path id="Path_90519" data-name="Path 90519" d="M45.282,12.579A3.47,3.47,0,0,0,43.566,10.6L27.214,2.768a3,3,0,0,0-1.34-.268,5.658,5.658,0,0,0-1.34.107L8.181,10.488a2.881,2.881,0,0,0-1.608,1.984L2.552,30.111a3.382,3.382,0,0,0,.59,2.573L14.454,46.677A3.9,3.9,0,0,0,16.92,47.8H34.934A2.672,2.672,0,0,0,37.4,46.677L48.713,32.684a3.661,3.661,0,0,0,.643-2.573Z" transform="translate(-1.159 -1.16)" fill="#326de6"/>
      <path id="Path_90520" data-name="Path 90520" d="M47.615,34.368h0c-.054,0-.107,0-.107-.054s-.107-.054-.214-.054a2.61,2.61,0,0,0-.643-.054.68.68,0,0,1-.322-.054h-.054a10.835,10.835,0,0,1-1.823-.322.648.648,0,0,1-.375-.375h0l-.429-.107a13.982,13.982,0,0,0-.214-4.718,14.524,14.524,0,0,0-1.876-4.4l.322-.322V23.86a.748.748,0,0,1,.161-.483,9.6,9.6,0,0,1,1.5-1.072l.322-.161c.214-.107.375-.214.59-.322.054-.054.107-.054.161-.107s0-.054,0-.107a1.049,1.049,0,0,0,.214-1.5,1.024,1.024,0,0,0-.751-.375,1.281,1.281,0,0,0-.751.268l-.054.054c-.054.054-.107.107-.161.107a3.469,3.469,0,0,0-.429.483c-.054.107-.161.161-.214.214a7.05,7.05,0,0,1-1.34,1.179.762.762,0,0,1-.322.107.322.322,0,0,1-.214-.054h-.054l-.429.268c-.429-.429-.911-.858-1.34-1.287a13.737,13.737,0,0,0-6.97-2.788l-.054-.429v.054a.737.737,0,0,1-.268-.429,10.711,10.711,0,0,1,.107-1.823V15.6c0-.107.054-.214.054-.322.054-.214.054-.429.107-.643v-.322a1.061,1.061,0,0,0-.911-1.126,1.076,1.076,0,0,0-.911.375,1.059,1.059,0,0,0-.322.751v.268a2.691,2.691,0,0,0,.107.643.68.68,0,0,1,.054.322V15.6a10.1,10.1,0,0,1,.107,1.823.737.737,0,0,1-.268.429v.107l-.054.429c-.59.054-1.179.161-1.823.268a12.781,12.781,0,0,0-6.594,3.753l-.322-.214h-.054c-.054,0-.107.054-.214.054a.762.762,0,0,1-.322-.107,9.885,9.885,0,0,1-1.34-1.233c-.054-.107-.161-.161-.214-.214-.161-.161-.268-.322-.429-.483-.054-.054-.107-.054-.161-.107l-.054-.054a1.281,1.281,0,0,0-.751-.268.811.811,0,0,0-.751.375,1.153,1.153,0,0,0,.214,1.5.053.053,0,0,1,.054.054s.107.107.161.107a5.848,5.848,0,0,0,.59.322l.322.161a7.612,7.612,0,0,1,1.5,1.072.54.54,0,0,1,.161.483v-.054l.322.322c-.054.107-.107.161-.161.268a12.731,12.731,0,0,0-1.876,8.793l-.429.107a.053.053,0,0,1-.054.054.845.845,0,0,1-.375.375,9.958,9.958,0,0,1-1.823.322.68.68,0,0,0-.322.054c-.214,0-.429.054-.643.054-.054,0-.107.054-.214.054-.054,0-.054,0-.107.054a1.046,1.046,0,0,0-.858,1.233,1,1,0,0,0,1.072.751.483.483,0,0,0,.268-.054c.054,0,.054,0,.054-.054s.161,0,.214,0c.214-.054.429-.161.59-.214a.762.762,0,0,1,.322-.107h.054a9.557,9.557,0,0,1,1.769-.483h.054a.609.609,0,0,1,.429.161.053.053,0,0,1,.054.054l.483-.054a12.94,12.94,0,0,0,4.4,6.273,8.5,8.5,0,0,0,1.448.965l-.268.375a.053.053,0,0,0,.054.054.634.634,0,0,1,.054.536,8.8,8.8,0,0,1-.858,1.555v.054a.941.941,0,0,1-.214.268c-.107.107-.214.322-.375.536-.054.054-.054.107-.107.161a.053.053,0,0,1-.054.054,1.1,1.1,0,0,0,.429,1.448.994.994,0,0,0,.375.107,1.2,1.2,0,0,0,1.019-.643.053.053,0,0,1,.054-.054c0-.054.054-.107.107-.161.054-.214.161-.375.214-.59l.107-.322a9.074,9.074,0,0,1,.7-1.662.834.834,0,0,1,.429-.322c.054,0,.054,0,.054-.054l.214-.429a12.62,12.62,0,0,0,4.664.858,10.735,10.735,0,0,0,2.9-.375,16.018,16.018,0,0,0,1.716-.483l.214.375c.054,0,.054,0,.054.054a.834.834,0,0,1,.429.322,9.074,9.074,0,0,1,.7,1.662v.054l.107.322a1.921,1.921,0,0,0,.214.59c.054.054.054.107.107.161a.053.053,0,0,0,.054.054,1.2,1.2,0,0,0,1.019.643,1.262,1.262,0,0,0,.429-.107.9.9,0,0,0,.483-.59,1.379,1.379,0,0,0-.054-.8.053.053,0,0,0-.054-.054c0-.054-.054-.107-.107-.161a1.926,1.926,0,0,0-.375-.536.941.941,0,0,0-.214-.268v-.107a6.334,6.334,0,0,1-.858-1.555.634.634,0,0,1,.054-.536.053.053,0,0,1,.054-.054l-.161-.429a13.252,13.252,0,0,0,5.79-7.291l.429.054a.053.053,0,0,0,.054-.054.609.609,0,0,1,.429-.161h.054a9.014,9.014,0,0,1,1.716.483h.054a.762.762,0,0,0,.322.107,2.873,2.873,0,0,0,.59.268c.054,0,.107.054.214.054.054,0,.054,0,.107.054a.483.483,0,0,0,.268.054,1.166,1.166,0,0,0,1.072-.751,1.264,1.264,0,0,0-.965-1.126M32.121,32.706l-1.448.7-1.448-.7-.375-1.555,1.019-1.287h1.608L32.5,31.152Zm8.739-3.485a10.264,10.264,0,0,1,.214,3.378l-5.093-1.448a.877.877,0,0,1-.643-1.072.864.864,0,0,1,.214-.375l4.021-3.646a10.907,10.907,0,0,1,1.287,3.163m-2.9-5.147-4.4,3.11a.912.912,0,0,1-1.179-.214.487.487,0,0,1-.161-.375l-.322-5.415a10.09,10.09,0,0,1,6.058,2.9m-9.7-2.734,1.072-.214-.268,5.361a.893.893,0,0,1-.911.858,1.262,1.262,0,0,1-.429-.107l-4.45-3.163a10.647,10.647,0,0,1,4.986-2.734M21.72,26.058,25.688,29.6a.862.862,0,0,1,.107,1.233.6.6,0,0,1-.429.268l-5.2,1.5a11.286,11.286,0,0,1,1.555-6.541m-.911,9.061,5.308-.911a.878.878,0,0,1,.911.7.634.634,0,0,1-.054.536l-2.037,4.932a10.547,10.547,0,0,1-4.128-5.254m12.17,6.648a10.849,10.849,0,0,1-2.305.268A12.016,12.016,0,0,1,27.3,41.5l2.627-4.772A.832.832,0,0,1,31,36.513a2.685,2.685,0,0,1,.429.375L34,41.553a8.711,8.711,0,0,0-1.019.214M39.52,37.1A10.237,10.237,0,0,1,36.3,40.319l-2.091-5.04a.872.872,0,0,1,.483-1.019,1.566,1.566,0,0,1,.483-.107l5.361.911A8.051,8.051,0,0,1,39.52,37.1" transform="translate(-6.013 -6.114)" fill="#fff"/>
      <path id="Path_90521" data-name="Path 90521" d="M123.087,33.6c.59-.643,1.126-1.287,1.769-1.93.59-.7,1.179-1.34,1.769-1.984.59-.7,1.126-1.287,1.608-1.876s.965-1.126,1.34-1.555h6.862c-1.394,1.555-2.734,3.11-4.021,4.557-1.34,1.448-2.734,2.949-4.289,4.45a26.783,26.783,0,0,1,2.413,2.52c.8.965,1.608,1.93,2.413,3,.751,1.019,1.5,2.091,2.145,3.11s1.18,1.984,1.608,2.842h-6.648c-.429-.7-.911-1.394-1.448-2.2s-1.126-1.608-1.662-2.466a26.5,26.5,0,0,0-1.93-2.359,12.743,12.743,0,0,0-1.93-1.876v8.953H117.3V17.411l5.79-.911Z" transform="translate(-54.41 -7.654)" fill="#fff"/>
      <path id="Path_90522" data-name="Path 90522" d="M175.836,54.33a37.224,37.224,0,0,1-8.685,1.126,11.9,11.9,0,0,1-4.343-.7,7.068,7.068,0,0,1-2.734-1.93,8.04,8.04,0,0,1-1.448-3.056,15.5,15.5,0,0,1-.429-3.86V34.6h5.79V45.269a8.184,8.184,0,0,0,.751,4.021,2.935,2.935,0,0,0,2.734,1.233,11.661,11.661,0,0,0,1.34-.054,7.675,7.675,0,0,0,1.233-.161V34.6h5.79Z" transform="translate(-73.382 -16.05)" fill="#fff"/>
      <path id="Path_90523" data-name="Path 90523" d="M214.425,36.283c0-3.753-1.394-5.576-4.128-5.576a6.66,6.66,0,0,0-1.769.214,4.549,4.549,0,0,0-1.394.59V42.02c.268.054.643.107,1.072.161a12.13,12.13,0,0,0,1.448.054,4.092,4.092,0,0,0,3.592-1.608,7.684,7.684,0,0,0,1.179-4.343m5.9.214a12.728,12.728,0,0,1-.751,4.45,9.061,9.061,0,0,1-2.037,3.378,9.722,9.722,0,0,1-3.324,2.2,12.817,12.817,0,0,1-4.5.751c-.7,0-1.448-.054-2.2-.107s-1.5-.161-2.252-.214c-.7-.107-1.394-.214-2.091-.375a7,7,0,0,1-1.769-.483V17.411l5.79-.911V26.687a12.873,12.873,0,0,1,2.037-.643,10.681,10.681,0,0,1,2.252-.214,8.761,8.761,0,0,1,3.86.8,7.793,7.793,0,0,1,2.788,2.145,9.171,9.171,0,0,1,1.716,3.378,18.912,18.912,0,0,1,.483,4.343" transform="translate(-93.421 -7.654)" fill="#fff"/>
      <path id="Path_90524" data-name="Path 90524" d="M243.192,44.584a12.851,12.851,0,0,1,.8-4.718,10.15,10.15,0,0,1,2.2-3.431A8.471,8.471,0,0,1,249.3,34.4a9.578,9.578,0,0,1,3.646-.7,9,9,0,0,1,6.862,2.681c1.662,1.769,2.52,4.4,2.52,7.774a8.7,8.7,0,0,1-.054,1.126,7.934,7.934,0,0,0-.054,1.072H249.089a3.855,3.855,0,0,0,1.662,2.842,6.92,6.92,0,0,0,3.967,1.072,20.293,20.293,0,0,0,3.11-.268,13.63,13.63,0,0,0,2.52-.751l.8,4.718a8.426,8.426,0,0,1-1.233.483,10.414,10.414,0,0,1-1.769.375c-.643.107-1.287.214-2.037.322-.7.054-1.448.107-2.2.107a12.352,12.352,0,0,1-4.825-.8,8.662,8.662,0,0,1-5.361-5.576,19.57,19.57,0,0,1-.536-4.289m13.618-2.2a4.6,4.6,0,0,0-.268-1.448A3.39,3.39,0,0,0,255.9,39.7a3.67,3.67,0,0,0-1.126-.911,3.868,3.868,0,0,0-3.324,0,3.707,3.707,0,0,0-1.179.858,3.87,3.87,0,0,0-.751,1.287,7.02,7.02,0,0,0-.322,1.448h7.613" transform="translate(-112.806 -15.632)" fill="#fff"/>
      <path id="Path_90525" data-name="Path 90525" d="M299.628,39.367c-.536-.107-1.126-.268-1.823-.375a10.681,10.681,0,0,0-2.252-.214,12.254,12.254,0,0,0-1.34.107,8.324,8.324,0,0,0-1.126.214V54.7H287.3V35.292a28.239,28.239,0,0,1,3.646-1.019,17.651,17.651,0,0,1,4.718-.483c.375,0,.751.054,1.126.054a6.081,6.081,0,0,1,1.34.161c.429.054.858.107,1.34.214a4.45,4.45,0,0,1,1.126.322Z" transform="translate(-133.268 -15.67)" fill="#fff"/>
      <path id="Path_90526" data-name="Path 90526" d="M317.9,34.874c1.233-.322,2.52-.59,3.807-.8a29.911,29.911,0,0,1,4.879-.375,11.8,11.8,0,0,1,4.289.7,6.122,6.122,0,0,1,2.734,1.876,7.591,7.591,0,0,1,1.448,2.949,15.079,15.079,0,0,1,.429,3.807V54.55h-5.737V43.773a7.946,7.946,0,0,0-.751-3.967,3.027,3.027,0,0,0-2.734-1.179,11.661,11.661,0,0,0-1.34.054,8.125,8.125,0,0,0-1.233.107V54.55H317.9Z" transform="translate(-147.462 -15.627)" fill="#fff"/>
      <path id="Path_90527" data-name="Path 90527" d="M358.89,44.584a12.85,12.85,0,0,1,.8-4.718,10.149,10.149,0,0,1,2.2-3.431A8.47,8.47,0,0,1,365,34.4a9.578,9.578,0,0,1,3.646-.7,9,9,0,0,1,6.863,2.681c1.662,1.769,2.52,4.4,2.52,7.828a8.7,8.7,0,0,1-.054,1.126,7.938,7.938,0,0,0-.054,1.072H364.787a3.855,3.855,0,0,0,1.662,2.842,6.92,6.92,0,0,0,3.967,1.072,20.293,20.293,0,0,0,3.11-.268,11.872,11.872,0,0,0,2.573-.8l.8,4.718a8.426,8.426,0,0,1-1.233.483,10.413,10.413,0,0,1-1.769.375c-.643.107-1.287.214-2.037.322-.7.054-1.448.107-2.2.107a12.352,12.352,0,0,1-4.825-.8,8.662,8.662,0,0,1-5.361-5.576,13.354,13.354,0,0,1-.59-4.289m13.564-2.2a4.6,4.6,0,0,0-.268-1.448,3.391,3.391,0,0,0-.643-1.233,3.669,3.669,0,0,0-1.126-.911,3.868,3.868,0,0,0-3.324,0,3.5,3.5,0,0,0-1.126.858,3.871,3.871,0,0,0-.751,1.287,7.024,7.024,0,0,0-.322,1.448h7.56" transform="translate(-166.473 -15.632)" fill="#fff"/>
      <path id="Path_90528" data-name="Path 90528" d="M402.585,24.311l5.79-.911v6h6.97V34.23h-6.97v7.184a5.355,5.355,0,0,0,.643,2.9,2.842,2.842,0,0,0,2.627,1.072,10.63,10.63,0,0,0,1.876-.161,10.12,10.12,0,0,0,1.823-.483l.8,4.5a17.269,17.269,0,0,1-2.359.751,15.443,15.443,0,0,1-3.163.322,9.7,9.7,0,0,1-3.914-.643,6.328,6.328,0,0,1-2.466-1.769,7.479,7.479,0,0,1-1.34-2.788,13.592,13.592,0,0,1-.322-3.592Z" transform="translate(-186.74 -10.855)" fill="#fff"/>
      <path id="Path_90529" data-name="Path 90529" d="M431.892,44.584a12.85,12.85,0,0,1,.8-4.718,10.15,10.15,0,0,1,2.2-3.431A8.471,8.471,0,0,1,438,34.4a9.579,9.579,0,0,1,3.646-.7,9,9,0,0,1,6.862,2.681c1.662,1.769,2.52,4.4,2.52,7.828a8.707,8.707,0,0,1-.054,1.126c0,.429-.054.751-.054,1.072H437.843a3.855,3.855,0,0,0,1.662,2.842,6.92,6.92,0,0,0,3.967,1.072,20.291,20.291,0,0,0,3.11-.268,10.613,10.613,0,0,0,2.52-.8l.8,4.718a8.426,8.426,0,0,1-1.233.483,10.412,10.412,0,0,1-1.769.375c-.643.107-1.287.214-2.037.322-.7.054-1.448.107-2.2.107a12.352,12.352,0,0,1-4.825-.8,8.662,8.662,0,0,1-5.361-5.576,17.2,17.2,0,0,1-.59-4.289m13.564-2.2a4.6,4.6,0,0,0-.268-1.448,3.391,3.391,0,0,0-.643-1.233,3.669,3.669,0,0,0-1.126-.911,3.868,3.868,0,0,0-3.324,0,3.708,3.708,0,0,0-1.18.858,3.869,3.869,0,0,0-.751,1.287,7.02,7.02,0,0,0-.322,1.448h7.613" transform="translate(-200.338 -15.632)" fill="#fff"/>
      <path id="Path_90530" data-name="Path 90530" d="M480.828,50.481a5.351,5.351,0,0,0,2.252-.322,1.194,1.194,0,0,0,.643-1.179,1.355,1.355,0,0,0-.858-1.179,11.584,11.584,0,0,0-2.627-1.179,21.265,21.265,0,0,1-2.466-1.072,7.31,7.31,0,0,1-1.876-1.287,5.088,5.088,0,0,1-1.18-1.823,6.74,6.74,0,0,1-.429-2.52,5.564,5.564,0,0,1,2.145-4.557,9.233,9.233,0,0,1,5.844-1.662,16.358,16.358,0,0,1,3.592.375,17.057,17.057,0,0,1,2.734.7l-1.019,4.557c-.751-.268-1.448-.429-2.2-.643a10.935,10.935,0,0,0-2.627-.268c-1.823,0-2.734.483-2.734,1.5a2.692,2.692,0,0,0,.107.643,1.521,1.521,0,0,0,.483.536,10.41,10.41,0,0,0,.911.536,9.116,9.116,0,0,0,1.555.643,20.34,20.34,0,0,1,3.11,1.394,5.87,5.87,0,0,1,1.93,1.5,4.157,4.157,0,0,1,1.019,1.769,8.162,8.162,0,0,1,.322,2.252,5.144,5.144,0,0,1-2.305,4.611,11.4,11.4,0,0,1-6.434,1.555,16.279,16.279,0,0,1-4.557-.483c-.858-.214-1.662-.483-2.466-.751l.965-4.718a19.392,19.392,0,0,0,3,.911c1.072.054,2.091.161,3.163.161" transform="translate(-219.732 -15.632)" fill="#fff"/>
    </g>
  </g>
</svg>
