<svg id="KVM_logo" xmlns="http://www.w3.org/2000/svg" xmlns:xlink="http://www.w3.org/1999/xlink" width="119.88" height="40.004" viewBox="0 0 119.88 40.004">
  <defs>
    <clipPath id="clip-path">
      <rect id="Rectangle_24867" data-name="Rectangle 24867" width="119.88" height="40.004" fill="none"/>
    </clipPath>
    <clipPath id="clip-path-3">
      <path id="Path_81416" data-name="Path 81416" d="M13.023,23.411h.01a.869.869,0,0,0-.548.242,1.213,1.213,0,0,0-.316.51,3.088,3.088,0,0,0-.074,1.208,3.511,3.511,0,0,0,.195,1.078,1.377,1.377,0,0,0,.3.464,1.033,1.033,0,0,0,.464.278.874.874,0,0,0,.511-.018A1.117,1.117,0,0,0,14,26.9a1.562,1.562,0,0,0,.372-.649,2.539,2.539,0,0,0,.083-.744,2.832,2.832,0,0,0-.149-.929,2.21,2.21,0,0,0-.473-.809,1.166,1.166,0,0,0-.362-.27.959.959,0,0,0-.4-.094l-.048,0" transform="translate(-12.07 -23.409)" fill="none"/>
    </clipPath>
    <radialGradient id="radial-gradient" cx="0.5" cy="0.459" r="2.306" gradientUnits="objectBoundingBox">
      <stop offset="0" stop-color="#fdfdfb"/>
      <stop offset="0.761" stop-color="#fdfdfb"/>
      <stop offset="1" stop-color="#d4d4d4"/>
    </radialGradient>
    <clipPath id="clip-path-4">
      <path id="Path_81417" data-name="Path 81417" d="M17.115,23.222a2.168,2.168,0,0,0-.316.167v.01a1.85,1.85,0,0,0-.715.882A2.138,2.138,0,0,0,16.14,25.7a2.394,2.394,0,0,0,.835,1.2,1.508,1.508,0,0,0,.688.269,1.285,1.285,0,0,0,.725-.12,1.39,1.39,0,0,0,.6-.66,2.389,2.389,0,0,0,.195-.883,3.178,3.178,0,0,0-.139-1.142,1.919,1.919,0,0,0-.733-.985,1.463,1.463,0,0,0-.586-.222,1.285,1.285,0,0,0-.181-.012,1.223,1.223,0,0,0-.433.077" transform="translate(-15.986 -23.145)" fill="none"/>
    </clipPath>
    <radialGradient id="radial-gradient-2" cx="0.512" cy="0.488" r="2.31" xlink:href="#radial-gradient"/>
    <clipPath id="clip-path-5">
      <path id="Path_81418" data-name="Path 81418" d="M14.92,25.13a1.064,1.064,0,0,0-.344.3c-.2.232-.325.51-.53.733l-.009.01c-.113.12-.241.232-.353.362a1.538,1.538,0,0,0-.131.214.7.7,0,0,0-.047.241.5.5,0,0,0,.074.251.54.54,0,0,0,.186.2.963.963,0,0,0,.5.149c.353.018.7-.112,1.05-.121a3.419,3.419,0,0,1,.453.029,2.414,2.414,0,0,0,.6.017.875.875,0,0,0,.474-.214.566.566,0,0,0,.139-.214.494.494,0,0,0,.018-.26.53.53,0,0,0-.112-.232,1.618,1.618,0,0,0-.185-.176,2.593,2.593,0,0,1-.391-.335,2.325,2.325,0,0,1-.222-.427,1.411,1.411,0,0,0-.288-.409.81.81,0,0,0-.446-.214.527.527,0,0,0-.068,0,.769.769,0,0,0-.368.106" transform="translate(-13.507 -25.024)" fill="none"/>
    </clipPath>
    <radialGradient id="radial-gradient-3" cx="0.412" cy="0.345" r="2.888" gradientUnits="objectBoundingBox">
      <stop offset="0" stop-color="#010103"/>
      <stop offset="0.741" stop-color="#010103"/>
      <stop offset="1" stop-color="#5b5b5b"/>
    </radialGradient>
    <clipPath id="clip-path-7">
      <path id="Path_81420" data-name="Path 81420" d="M17.287,23.282c.019.112.186.26.3.372.138.14.4.418.455.354.13-.131-.093-.483-.27-.624a.888.888,0,0,0-.414-.149c-.046,0-.074.014-.07.047" transform="translate(-17.286 -23.235)" fill="none"/>
    </clipPath>
    <linearGradient id="linear-gradient" x1="-13.463" y1="14.698" x2="-12.676" y2="14.698" gradientUnits="objectBoundingBox">
      <stop offset="0" stop-color="#939393"/>
      <stop offset="0.502" stop-color="#939393"/>
      <stop offset="1" stop-color="#939393"/>
    </linearGradient>
    <clipPath id="clip-path-8">
      <path id="Path_81421" data-name="Path 81421" d="M17.991,22.427a.959.959,0,0,0-.139.223,2.366,2.366,0,0,1,.688.288,2.876,2.876,0,0,1,.93,1.1,1.482,1.482,0,0,0,.139-.185,2.761,2.761,0,0,0-.948-1.142,2.188,2.188,0,0,0-.66-.289Z" transform="translate(-17.852 -22.417)" fill="none"/>
    </clipPath>
    <linearGradient id="linear-gradient-2" x1="-7" y1="7.986" x2="-6.601" y2="7.986" gradientUnits="objectBoundingBox">
      <stop offset="0" stop-color="#646464"/>
      <stop offset="0.302" stop-color="#646464"/>
      <stop offset="0.471" stop-color="#646464"/>
      <stop offset="0.722" stop-color="#646464"/>
      <stop offset="1" stop-color="#646464"/>
    </linearGradient>
    <clipPath id="clip-path-9">
      <path id="Path_81422" data-name="Path 81422" d="M13.042,22.661H12.9a1.571,1.571,0,0,1,.464.12,2.054,2.054,0,0,1,.529.362,2.589,2.589,0,0,1,.642.949,2.711,2.711,0,0,0-.232-.763,1.719,1.719,0,0,0-.177-.186,1.917,1.917,0,0,0-.529-.362,1.456,1.456,0,0,0-.558-.13Z" transform="translate(-12.903 -22.651)" fill="none"/>
    </clipPath>
    <linearGradient id="linear-gradient-3" x1="-5.526" y1="8.643" x2="-5.088" y2="8.643" xlink:href="#linear-gradient-2"/>
    <clipPath id="clip-path-11">
      <path id="Path_81424" data-name="Path 81424" d="M12.8,23.448c-.038.028-.029.1-.019.139h.01c.028.074.121.1.168.158a.694.694,0,0,1,.13.185c.055.131-.056.335.055.428a.129.129,0,0,0,.14,0,.533.533,0,0,0,.046-.53.635.635,0,0,0-.306-.371.3.3,0,0,0-.138-.041.116.116,0,0,0-.085.031" transform="translate(-12.777 -23.417)" fill="none"/>
    </clipPath>
    <linearGradient id="linear-gradient-4" x1="-10.23" y1="16.917" x2="-9.411" y2="16.917" gradientUnits="objectBoundingBox">
      <stop offset="0" stop-color="#757574"/>
      <stop offset="0.259" stop-color="#757574"/>
      <stop offset="0.502" stop-color="#757574"/>
      <stop offset="1" stop-color="#757574"/>
    </linearGradient>
    <clipPath id="clip-path-13">
      <rect id="Rectangle_24859" data-name="Rectangle 24859" width="6.066" height="4.246" fill="none"/>
    </clipPath>
    <clipPath id="clip-path-14">
      <path id="Path_81433" data-name="Path 81433" d="M15.825,34.382h0" transform="translate(-15.768 -34.381)" fill="none"/>
    </clipPath>
    <radialGradient id="radial-gradient-4" cx="0.469" cy="0.163" r="20.126" gradientUnits="objectBoundingBox">
      <stop offset="0"/>
      <stop offset="1"/>
    </radialGradient>
    <clipPath id="clip-path-15">
      <path id="Path_81434" data-name="Path 81434" d="M14.549,33.046c-.007.028,0,.057,0,.085,0-.028.011-.055.014-.085Z" transform="translate(-14.544 -33.046)" fill="none"/>
    </clipPath>
    <radialGradient id="radial-gradient-5" cx="0.551" cy="0.026" r="0.448" xlink:href="#radial-gradient-4"/>
    <clipPath id="clip-path-17">
      <rect id="Rectangle_24863" data-name="Rectangle 24863" width="2.471" height="2.562" fill="none"/>
    </clipPath>
    <clipPath id="clip-path-18">
      <rect id="Rectangle_24864" data-name="Rectangle 24864" width="0.466" height="4.617" fill="none"/>
    </clipPath>
    <clipPath id="clip-path-19">
      <rect id="Rectangle_24865" data-name="Rectangle 24865" width="7.312" height="9.565" fill="none"/>
    </clipPath>
  </defs>
  <g id="Group_81887" data-name="Group 81887" clip-path="url(#clip-path)">
    <g id="Group_81848" data-name="Group 81848" transform="translate(0 0)">
      <g id="Group_81847" data-name="Group 81847" clip-path="url(#clip-path)">
        <path id="Path_81405" data-name="Path 81405" d="M41.722,8.423V34.8h5.519V25.172l3.254-2.486L59.968,34.8h6.515L54.3,19.576,65.563,8.423h-6.44L47.233,20.389V8.423H41.722Zm25.408,0h0L76.861,34.8h5.648l9.67-26.374H86.47L81.05,25.361c-.175.586-.349,1.186-.525,1.779s-.289,1.118-.41,1.589c-.175.563-.288,1.1-.411,1.6-.113-.524-.288-1.072-.41-1.642-.175-.486-.288-1.026-.464-1.612s-.348-1.156-.524-1.726L72.884,8.415h-5.77Zm27.9,0h0V34.8h4.895V17.082c-.059-.662-.059-1.293-.113-1.893,0-.7-.062-1.407-.062-2.129.236.981.525,1.923.76,2.805.114.373.236.76.351,1.156a9.078,9.078,0,0,1,.289,1.163,8.6,8.6,0,0,1,.288,1.049,8.56,8.56,0,0,1,.289.836L106.5,34.781h3.9l4.776-14.711a6.455,6.455,0,0,1,.236-.836,5.716,5.716,0,0,0,.288-1.049c.114-.38.236-.76.35-1.163s.236-.783.349-1.156c.236-.882.463-1.824.7-2.805,0,.624-.062,1.263-.062,1.931a18,18,0,0,0-.06,1.856c-.062.676-.062,1.33-.062,1.969V34.8h4.9V8.43h-7.337l-4.661,14.848c-.061.19-.114.395-.175.638s-.175.487-.236.746-.174.532-.236.813a3.768,3.768,0,0,1-.236.806c-.113.6-.288,1.223-.463,1.87-.175-.662-.35-1.3-.524-1.908-.115-.524-.29-1.064-.411-1.627a14.15,14.15,0,0,0-.41-1.429L102.4,8.438h-7.4Z" transform="translate(-1.936 -0.39)" fill="#fff"/>
        <path id="Path_81406" data-name="Path 81406" d="M33.35,14.49a3.735,3.735,0,1,1-3.734-3.734A3.735,3.735,0,0,1,33.35,14.49" transform="translate(-1.201 -0.499)" fill="#70c808"/>
        <path id="Path_81407" data-name="Path 81407" d="M13.836,3.735A3.735,3.735,0,1,1,10.1,0a3.735,3.735,0,0,1,3.734,3.734" transform="translate(-0.295 0)" fill="#03a7f2"/>
        <path id="Path_81408" data-name="Path 81408" d="M9.169,25.986a3.735,3.735,0,1,1-3.734-3.734,3.735,3.735,0,0,1,3.734,3.734" transform="translate(-0.079 -1.033)" fill="#c6006e"/>
        <path id="Path_81409" data-name="Path 81409" d="M7.446,35.954c-.586.288-1.134.66-1.728.929a2.961,2.961,0,0,1-1.9.27,6.416,6.416,0,0,0-.827-.223A.818.818,0,0,0,2.568,37a.551.551,0,0,0-.278.316,1.261,1.261,0,0,0-.019.325,1.245,1.245,0,0,1-.288.846.744.744,0,0,1-.408.241.8.8,0,0,1-.521-.121,1.657,1.657,0,0,1-.408-.362,3.737,3.737,0,0,1-.419-.51A1.331,1.331,0,0,1,0,37.125a1.436,1.436,0,0,1,.1-.623,2.882,2.882,0,0,1,.317-.548,7,7,0,0,1,1.319-1.4,13.941,13.941,0,0,1,1.645-1.087c.65-.38,1.3-.762,1.979-1.1a22.091,22.091,0,0,1,3.205-1.2,4.6,4.6,0,0,1,2.23-.279,2.342,2.342,0,0,1,.854.362,2.275,2.275,0,0,1,.976,1.821,1.757,1.757,0,0,1-.112.66,1.151,1.151,0,0,1-.408.529,1.514,1.514,0,0,1-.558.214c-.195.037-.4.065-.594.1a9.242,9.242,0,0,0-1.459.539c-.678.288-1.385.511-2.044.836Z" transform="translate(0 -1.431)" fill="#010103"/>
        <path id="Path_81410" data-name="Path 81410" d="M7.107,35.823A11.175,11.175,0,0,0,4.3,37.375a1.356,1.356,0,0,1-1.338-1.747A2.427,2.427,0,0,1,3.7,34.606a13.74,13.74,0,0,1,1.867-1.394,13.476,13.476,0,0,1,2.917-1.486,9.455,9.455,0,0,1,2.434-.5c-.343.734-.706,1.459-1.078,2.184-.334.65-.678,1.282-1.04,1.923a10.656,10.656,0,0,0-1.691.5Z" transform="translate(-0.135 -1.449)" fill="#fff"/>
        <path id="Path_81411" data-name="Path 81411" d="M7.107,35.823A11.175,11.175,0,0,0,4.3,37.375a1.356,1.356,0,0,1-1.338-1.747A2.427,2.427,0,0,1,3.7,34.606a13.74,13.74,0,0,1,1.867-1.394,13.476,13.476,0,0,1,2.917-1.486,9.455,9.455,0,0,1,2.434-.5c-.343.734-.706,1.459-1.078,2.184-.334.65-.678,1.282-1.04,1.923a10.656,10.656,0,0,0-1.691.5Z" transform="translate(-0.135 -1.449)" fill="#010103"/>
        <path id="Path_81412" data-name="Path 81412" d="M6.883,35.825c-.688.316-1.366.631-2.053.948a1.939,1.939,0,0,1-.938-.66,1.9,1.9,0,0,1-.4-1.078v-.2c.074-.074.158-.149.233-.223a13.813,13.813,0,0,1,1.867-1.393,13.545,13.545,0,0,1,2.917-1.487,9.537,9.537,0,0,1,2.155-.474c-.288.6-.594,1.208-.9,1.8-.335.65-.678,1.283-1.04,1.923-.613.288-1.226.566-1.839.846Z" transform="translate(-0.162 -1.451)" fill="#fff"/>
        <path id="Path_81413" data-name="Path 81413" d="M15.277,25.184c-.2,0-.39.01-.586.028a3.213,3.213,0,0,0-2.071,1,4.166,4.166,0,0,0-.809,1.757,14.55,14.55,0,0,1-.5,1.885,28.9,28.9,0,0,1-1.691,2.8,28.406,28.406,0,0,0-1.236,3.391c-.38,1.031-.929,2-1.3,3.029a8.988,8.988,0,0,0-.474,2.09H25.172a12.405,12.405,0,0,0,.046-3.614,17.484,17.484,0,0,0-1.477-4.9c-.371-.809-.78-1.6-1.152-2.4-.3-.659-.576-1.338-.938-1.969a4.965,4.965,0,0,0-1.4-1.644,5.5,5.5,0,0,0-1.43-.7,17.438,17.438,0,0,0-1.8-.521,8,8,0,0,0-1.747-.232Z" transform="translate(-0.307 -1.169)" fill="#010103"/>
        <path id="Path_81414" data-name="Path 81414" d="M11.491,28.228c-.01-.883-.037-1.775-.092-2.657-.047-.855-.112-1.7-.084-2.556a6.306,6.306,0,0,1,.557-2.517,4.213,4.213,0,0,1,1.775-1.848,4.918,4.918,0,0,1,2.36-.548,5.39,5.39,0,0,1,3.113.994,5.6,5.6,0,0,1,1.4,1.514,6.044,6.044,0,0,1,.725,1.616,17.419,17.419,0,0,1,.306,3.624,32.842,32.842,0,0,1,.176,3.446,1.749,1.749,0,0,1-.149.725,1.268,1.268,0,0,1-.5.511,1.981,1.981,0,0,1-.688.223c-.483.074-.976.028-1.458.074-.707.065-1.375.325-2.072.437a12.787,12.787,0,0,1-2.527,0c-.335-.01-.678-.019-1.013-.056a2.873,2.873,0,0,1-.966-.278,1.8,1.8,0,0,1-.492-.38,1.4,1.4,0,0,1-.3-.539,3.1,3.1,0,0,1-.037-.93,4.389,4.389,0,0,0-.055-.854Z" transform="translate(-0.525 -0.84)" fill="#010103"/>
        <path id="Path_81415" data-name="Path 81415" d="M13.992,27.824h-.167a2.063,2.063,0,0,0-.632.139,1.236,1.236,0,0,0-.762.892,3.045,3.045,0,0,0-.074.567,5.208,5.208,0,0,1-.092,1.142,3.353,3.353,0,0,1-.6,1.068,6.413,6.413,0,0,0-1.021,1.839,3.261,3.261,0,0,0-.121,1.273,14.149,14.149,0,0,0-1.189,2.137,11.64,11.64,0,0,0-.956,3.577,8.331,8.331,0,0,0-.047.836H22.521a10.352,10.352,0,0,0-.707-5.454,6.736,6.736,0,0,0-1.2-1.728,9.553,9.553,0,0,0-.762-2.564c-.269-.6-.594-1.143-.854-1.747-.1-.241-.195-.492-.306-.734a2.129,2.129,0,0,0-.446-.649,1.941,1.941,0,0,0-.7-.409,3.305,3.305,0,0,0-.8-.139c-.54-.029-1.087.046-1.626.018-.381-.018-.753-.074-1.134-.074Z" transform="translate(-0.387 -1.291)" fill="#fdfdfb"/>
      </g>
    </g>
    <g id="Group_81850" data-name="Group 81850" transform="translate(11.51 22.323)">
      <g id="Group_81849" data-name="Group 81849" clip-path="url(#clip-path-3)">
        <rect id="Rectangle_24850" data-name="Rectangle 24850" width="2.424" height="3.83" transform="translate(-0.032 0)" fill="url(#radial-gradient)"/>
      </g>
    </g>
    <g id="Group_81852" data-name="Group 81852" transform="translate(15.244 22.071)">
      <g id="Group_81851" data-name="Group 81851" clip-path="url(#clip-path-4)">
        <rect id="Rectangle_24851" data-name="Rectangle 24851" width="3.289" height="4.054" transform="translate(-0.069 0)" fill="url(#radial-gradient-2)"/>
      </g>
    </g>
    <g id="Group_81854" data-name="Group 81854" transform="translate(12.88 23.863)">
      <g id="Group_81853" data-name="Group 81853" clip-path="url(#clip-path-5)">
        <rect id="Rectangle_24852" data-name="Rectangle 24852" width="3.512" height="2.578" transform="translate(0 0)" fill="url(#radial-gradient-3)"/>
      </g>
    </g>
    <g id="Group_81856" data-name="Group 81856" transform="translate(0 0)">
      <g id="Group_81855" data-name="Group 81855" clip-path="url(#clip-path)">
        <path id="Path_81419" data-name="Path 81419" d="M17.268,22.963a.72.72,0,0,0-.335.112.807.807,0,0,0-.251.251,1.242,1.242,0,0,0-.2.678,1.284,1.284,0,0,0,.074.529.933.933,0,0,0,.3.437.844.844,0,0,0,1.021.047.966.966,0,0,0,.288-.325,1.3,1.3,0,0,0,.131-.418,1.234,1.234,0,0,0-.121-.752,1.065,1.065,0,0,0-.558-.511.762.762,0,0,0-.324-.047Z" transform="translate(-0.765 -1.065)" fill="#010103"/>
      </g>
    </g>
    <g id="Group_81858" data-name="Group 81858" transform="translate(16.484 22.157)">
      <g id="Group_81857" data-name="Group 81857" clip-path="url(#clip-path-7)">
        <rect id="Rectangle_24854" data-name="Rectangle 24854" width="1.212" height="1.218" transform="matrix(0.647, -0.763, 0.763, 0.647, -0.417, 0.486)" fill="url(#linear-gradient)"/>
      </g>
    </g>
    <g id="Group_81860" data-name="Group 81860" transform="translate(17.024 21.377)">
      <g id="Group_81859" data-name="Group 81859" clip-path="url(#clip-path-8)">
        <rect id="Rectangle_24855" data-name="Rectangle 24855" width="2.387" height="2.381" transform="matrix(0.727, -0.686, 0.686, 0.727, -0.807, 0.761)" fill="url(#linear-gradient-2)"/>
      </g>
    </g>
    <g id="Group_81862" data-name="Group 81862" transform="translate(12.304 21.6)">
      <g id="Group_81861" data-name="Group 81861" clip-path="url(#clip-path-9)">
        <rect id="Rectangle_24856" data-name="Rectangle 24856" width="2.177" height="2.172" transform="matrix(0.72, -0.694, 0.694, 0.72, -0.72, 0.693)" fill="url(#linear-gradient-3)"/>
      </g>
    </g>
    <g id="Group_81864" data-name="Group 81864" transform="translate(0 0)">
      <g id="Group_81863" data-name="Group 81863" clip-path="url(#clip-path)">
        <path id="Path_81423" data-name="Path 81423" d="M12.22,23.761a1.444,1.444,0,0,0,.047.771,1.428,1.428,0,0,0,.269.437.926.926,0,0,0,.26.2.49.49,0,0,0,.325.037.521.521,0,0,0,.251-.168.781.781,0,0,0,.139-.278,1.491,1.491,0,0,0-.018-.9,1.151,1.151,0,0,0-.344-.557.787.787,0,0,0-.278-.149.465.465,0,0,0-.316.028.474.474,0,0,0-.242.241,1.1,1.1,0,0,0-.1.335Z" transform="translate(-0.566 -1.074)" fill="#010103"/>
      </g>
    </g>
    <g id="Group_81866" data-name="Group 81866" transform="translate(12.184 22.33)">
      <g id="Group_81865" data-name="Group 81865" clip-path="url(#clip-path-11)">
        <rect id="Rectangle_24858" data-name="Rectangle 24858" width="1.165" height="1.045" transform="translate(-0.427 0.734) rotate(-60.432)" fill="url(#linear-gradient-4)"/>
      </g>
    </g>
    <g id="Group_81871" data-name="Group 81871" transform="translate(0 0)">
      <g id="Group_81870" data-name="Group 81870" clip-path="url(#clip-path)">
        <path id="Path_81425" data-name="Path 81425" d="M12.064,28.446a.269.269,0,0,0,.037.092.52.52,0,0,0,.121.131,1.19,1.19,0,0,0,.149.093,2.679,2.679,0,0,1,.678.65,4.229,4.229,0,0,0,.827.948,1.791,1.791,0,0,0,.827.3,2.6,2.6,0,0,0,1.031-.121,3.755,3.755,0,0,0,.883-.39,8.793,8.793,0,0,1,1.542-1.013c.13-.047.26-.084.38-.139a.623.623,0,0,0,.3-.26,1.289,1.289,0,0,0,.074-.38c.019-.14.065-.27.084-.409a.688.688,0,0,0-.028-.409.554.554,0,0,0-.242-.241.8.8,0,0,0-.334-.084,5.647,5.647,0,0,0-.679.065c-.3.029-.6-.009-.91,0-.381.01-.752.093-1.124.112-.427.019-.854-.046-1.291-.065a2.237,2.237,0,0,0-.558.028,1.329,1.329,0,0,0-.521.2,4.978,4.978,0,0,0-.408.362,1.386,1.386,0,0,1-.223.158.632.632,0,0,1-.26.065.363.363,0,0,0-.139.009.22.22,0,0,0-.074.047c-.018.019-.037.047-.055.065a1.074,1.074,0,0,0-.1.177Z" transform="translate(-0.559 -1.263)" fill="#d8b30c"/>
        <path id="Path_81426" data-name="Path 81426" d="M13.828,28.985a.718.718,0,0,0,.074.539.779.779,0,0,0,.418.353.888.888,0,0,0,.688-.074.854.854,0,0,0,.307-.269.448.448,0,0,0,.065-.2.5.5,0,0,0-.019-.2.5.5,0,0,0-.13-.186.791.791,0,0,0-.195-.112,1.188,1.188,0,0,0-.446-.037,4.08,4.08,0,0,0-.678.084l-.084.092Z" transform="translate(-0.641 -1.336)" fill="#d8b30c"/>
        <path id="Path_81427" data-name="Path 81427" d="M13.025,27.483c-.149.093-.3.186-.446.288a.645.645,0,0,0-.195.2.415.415,0,0,0-.037.185,1.336,1.336,0,0,1-.01.2.615.615,0,0,0-.018.13.174.174,0,0,0,.009.066.326.326,0,0,0,.029.055.191.191,0,0,0,.074.047c.028.01.055.01.083.018a.8.8,0,0,1,.353.205c.1.092.2.195.3.278a1.665,1.665,0,0,0,1.04.335,4.5,4.5,0,0,0,1.106-.158,6.52,6.52,0,0,0,.845-.233,3.707,3.707,0,0,0,1.152-.687,4.8,4.8,0,0,1,.474-.391c.149-.092.325-.157.483-.251a.121.121,0,0,0,.037-.028c.009-.01.028-.018.028-.037a.127.127,0,0,0,0-.084c-.01-.028-.028-.046-.037-.074a.221.221,0,0,0-.065-.065,1.02,1.02,0,0,0-.6-.2c-.214-.019-.427-.01-.641-.037a5.981,5.981,0,0,1-.576-.167,4.778,4.778,0,0,0-.613-.149,3.945,3.945,0,0,0-1.477.037,4.074,4.074,0,0,0-1.31.511Z" transform="translate(-0.572 -1.247)" fill="#604405"/>
        <path id="Path_81428" data-name="Path 81428" d="M12.957,26.924a2.673,2.673,0,0,0-.586.529,1.285,1.285,0,0,0-.232.39c-.037.112-.047.233-.074.354a.6.6,0,0,0-.019.13.151.151,0,0,0,.01.065.191.191,0,0,0,.037.056.2.2,0,0,0,.1.046.442.442,0,0,0,.112.01,1.046,1.046,0,0,1,.455.2c.14.092.26.2.409.3a2.106,2.106,0,0,0,1.05.3,4.329,4.329,0,0,0,1.1-.112,5.116,5.116,0,0,0,.845-.232,5.21,5.21,0,0,0,1.152-.688,4.815,4.815,0,0,0,.474-.39,1.988,1.988,0,0,1,.149-.139.49.49,0,0,1,.176-.1.9.9,0,0,1,.316-.009,2.149,2.149,0,0,0,.233.028.294.294,0,0,0,.121-.028.245.245,0,0,0,.092-.066.2.2,0,0,0,.047-.148.28.28,0,0,0-.047-.149.555.555,0,0,0-.241-.2,3.067,3.067,0,0,0-.409-.121,5.792,5.792,0,0,1-1.236-.445c-.195-.093-.38-.205-.576-.307a3.59,3.59,0,0,0-.613-.269,2.367,2.367,0,0,0-1.477.065,3.238,3.238,0,0,0-1.366.929Z" transform="translate(-0.559 -1.199)" fill="#f6da49"/>
        <path id="Path_81429" data-name="Path 81429" d="M16.469,27.08a.176.176,0,0,0-.1-.065.519.519,0,0,0-.121-.01.644.644,0,0,0-.223.1,2.563,2.563,0,0,0-.52.483,1.889,1.889,0,0,0-.419.827.465.465,0,0,0-.009.158.24.24,0,0,0,.065.139.163.163,0,0,0,.12.055.248.248,0,0,0,.14-.018.937.937,0,0,0,.232-.149,2.775,2.775,0,0,0,.864-1.236.816.816,0,0,0,.028-.149.182.182,0,0,0-.046-.139Z" transform="translate(-0.699 -1.253)" fill="#f6da49"/>
        <path id="Path_81430" data-name="Path 81430" d="M10.817,34l.01-.01c-.223-.343.055-1.161.055-1.161a4.375,4.375,0,0,0-.492,1.143c-.139.576.065.557-.112.956s-.9,1.71-.9,1.71c.446-.4.8-.864,1.282-1.217a6.7,6.7,0,0,1,1.849-.873c.347-.076.7-.127.854-.148-2.611.356-2.435-.226-2.545-.4" transform="translate(-0.435 -1.524)"/>
        <path id="Path_81431" data-name="Path 81431" d="M13.555,34.479l.085-.01-.085.01" transform="translate(-0.629 -1.599)"/>
        <g id="Group_81869" data-name="Group 81869" transform="translate(15.094 31.021)" opacity="0.11">
          <g id="Group_81868" data-name="Group 81868">
            <g id="Group_81867" data-name="Group 81867" clip-path="url(#clip-path-13)">
              <path id="Path_81432" data-name="Path 81432" d="M21.7,35.856a8.891,8.891,0,0,1-.994-1.6,10.77,10.77,0,0,1-.26-1.728,2.177,2.177,0,0,1-.669,1.31h.01a2.657,2.657,0,0,1-1.542.409c-.607.067-2.136.051-2.414.047a4.982,4.982,0,0,1,.778.1,17.037,17.037,0,0,1,2.425.465,5.774,5.774,0,0,1,1.31.585c.576.362.994.93,1.552,1.329a1.932,1.932,0,0,0-.2-.92" transform="translate(-15.828 -32.53)"/>
            </g>
          </g>
        </g>
      </g>
    </g>
    <g id="Group_81873" data-name="Group 81873" transform="translate(15.036 32.786)">
      <g id="Group_81872" data-name="Group 81872" clip-path="url(#clip-path-14)">
        <rect id="Rectangle_24861" data-name="Rectangle 24861" width="0.057" height="0.001" transform="translate(0 0)" fill="url(#radial-gradient-4)"/>
      </g>
    </g>
    <g id="Group_81875" data-name="Group 81875" transform="translate(13.869 31.513)">
      <g id="Group_81874" data-name="Group 81874" clip-path="url(#clip-path-15)">
        <rect id="Rectangle_24862" data-name="Rectangle 24862" width="0.016" height="0.085" transform="translate(-0.002 0)" fill="url(#radial-gradient-5)"/>
      </g>
    </g>
    <g id="Group_81886" data-name="Group 81886" transform="translate(0 0)">
      <g id="Group_81885" data-name="Group 81885" clip-path="url(#clip-path)">
        <g id="Group_81878" data-name="Group 81878" transform="translate(12.602 31.598)" opacity="0.11">
          <g id="Group_81877" data-name="Group 81877">
            <g id="Group_81876" data-name="Group 81876" clip-path="url(#clip-path-17)">
              <path id="Path_81435" data-name="Path 81435" d="M14.869,34.054a1.121,1.121,0,0,1-.3-.335.922.922,0,0,1-.089-.584c-.018.138-.038.277-.069.407a2.208,2.208,0,0,1-.066.241.5.5,0,0,1-.139.205.752.752,0,0,1-.186.112,2.785,2.785,0,0,1-.808.232l.335.028a1.414,1.414,0,0,1,.2.037.757.757,0,0,1,.2.084.544.544,0,0,1,.148.176,1.2,1.2,0,0,1,.112.446,3.091,3.091,0,0,1,0,.594,1.474,1.474,0,0,1,.084-.39,1.77,1.77,0,0,1,.353-.613,1.458,1.458,0,0,1,.214-.186,1.183,1.183,0,0,1,.827-.2,1.292,1.292,0,0,1-.817-.251" transform="translate(-13.215 -33.136)"/>
            </g>
          </g>
        </g>
        <g id="Group_81881" data-name="Group 81881" transform="translate(12.75 35.378)" opacity="0.11">
          <g id="Group_81880" data-name="Group 81880">
            <g id="Group_81879" data-name="Group 81879" clip-path="url(#clip-path-18)">
              <path id="Path_81436" data-name="Path 81436" d="M13.8,37.109a10.589,10.589,0,0,0-.288,1.626c-.074.78-.047,1.552-.092,2.332-.019.214-.029.437-.047.65h.3c-.019-.827.092-1.654.139-2.471a15.074,15.074,0,0,0-.019-2.147Z" transform="translate(-13.371 -37.099)"/>
            </g>
          </g>
        </g>
        <path id="Path_81437" data-name="Path 81437" d="M25.969,27.684a9.086,9.086,0,0,1,1.5-2.147A5.59,5.59,0,0,0,28.571,24.3a2.662,2.662,0,0,0,.232-1.5,4.739,4.739,0,0,1-.046-.892,1.023,1.023,0,0,1,.13-.437.543.543,0,0,1,.353-.269.569.569,0,0,1,.279.018.79.79,0,0,1,.241.139,2.036,2.036,0,0,1,.343.446,9.085,9.085,0,0,1,.762,1.579,5.811,5.811,0,0,1,.223,3.279,7.61,7.61,0,0,1-1.663,2.991,16.732,16.732,0,0,1-2.8,2.639,15.013,15.013,0,0,1-1.533,1,5.08,5.08,0,0,1-.594.3,1.708,1.708,0,0,1-.65.112,1.424,1.424,0,0,1-.613-.176,1.744,1.744,0,0,1-.493-.409,3.423,3.423,0,0,1-.6-1.133,2.354,2.354,0,0,1-.149-.66,1.032,1.032,0,0,1,.176-.641,1.135,1.135,0,0,1,.5-.344,4.642,4.642,0,0,1,.586-.158,3.554,3.554,0,0,0,1.514-.743,6.12,6.12,0,0,0,1.208-1.783Z" transform="translate(-1.02 -0.984)" fill="#010103"/>
        <path id="Path_81438" data-name="Path 81438" d="M25.9,27.75a9.281,9.281,0,0,1,1.561-2.267,4.731,4.731,0,0,0,1.058-1.18,2.854,2.854,0,0,0,.233-1.367c0-.334-.019-.678,0-1.013a1,1,0,0,1,.1-.436A.656.656,0,0,1,29,21.311a.424.424,0,0,1,.205-.092.374.374,0,0,1,.278.065.685.685,0,0,0-.176.251,1.044,1.044,0,0,0-.047.381c.019.613.2,1.207.214,1.82a2.291,2.291,0,0,1-.2,1.115,5.074,5.074,0,0,1-.539.734,8.963,8.963,0,0,0-1.245,2.36c-.195.5-.38,1-.613,1.486a3.3,3.3,0,0,1-1.1,1.412,3.565,3.565,0,0,1-1.543.474,4.115,4.115,0,0,1-.827.019,1.916,1.916,0,0,1-.78-.233,1.491,1.491,0,0,1-.464-.409c.372-.195.743-.371,1.124-.547a5.881,5.881,0,0,0,1.57-.9,5.481,5.481,0,0,0,1.04-1.515Z" transform="translate(-1.028 -0.984)" fill="#fff"/>
        <path id="Path_81439" data-name="Path 81439" d="M25.872,27.73c.223-.409.446-.809.7-1.2a6.468,6.468,0,0,1,.864-1.078,3.842,3.842,0,0,1,.288-.269,3.237,3.237,0,0,0,.771-.9,2.275,2.275,0,0,0,.2-.65,4.381,4.381,0,0,0,.037-.7v-.26a6.6,6.6,0,0,1,.01-.752c.01-.074.018-.158.028-.233a1.087,1.087,0,0,1,.074-.222.393.393,0,0,1,.065-.1.692.692,0,0,1,.084-.083.372.372,0,0,1,.1-.065.465.465,0,0,1,.112-.037.3.3,0,0,1,.158.009.414.414,0,0,1,.148.066l.037.028-.037.028a.266.266,0,0,0-.092.112.569.569,0,0,0-.065.13,1.188,1.188,0,0,0-.037.176.672.672,0,0,0,0,.2,6.156,6.156,0,0,0,.112.919c.046.3.092.6.112.9a2.411,2.411,0,0,1-.037.576,1.842,1.842,0,0,1-.176.547,3.557,3.557,0,0,1-.409.576c-.047.056-.093.112-.139.168a6.343,6.343,0,0,0-.707,1.124c-.2.4-.371.817-.539,1.226-.046.112-.074.2-.112.288-.157.408-.316.808-.5,1.2a5.117,5.117,0,0,1-.455.791,2.5,2.5,0,0,1-.65.641,2.718,2.718,0,0,1-.752.334,4.735,4.735,0,0,1-.809.149,3.045,3.045,0,0,1-.409.029,3.215,3.215,0,0,1-.418-.01,1.655,1.655,0,0,1-.427-.084,1.892,1.892,0,0,1-.372-.157,1.532,1.532,0,0,1-.474-.419l-.028-.037.037-.018c.186-.1.372-.2.558-.279s.371-.176.566-.269l.158-.074a5.15,5.15,0,0,0,1.4-.817,5.254,5.254,0,0,0,1-1.449c.01-.01.028-.056.037-.065Zm.762-1.152c-.251.38-.474.79-.7,1.189l-.028.055a5.4,5.4,0,0,1-1.022,1.469,5.471,5.471,0,0,1-1.421.836l-.158.074c-.186.083-.372.176-.566.269-.176.084-.353.176-.521.26a1.807,1.807,0,0,0,.176.186,1.274,1.274,0,0,0,.251.176,1.688,1.688,0,0,0,.354.149,2.208,2.208,0,0,0,.418.074,3.085,3.085,0,0,0,.409.009l.408-.028a5.737,5.737,0,0,0,.8-.139,2.6,2.6,0,0,0,.734-.325,2.5,2.5,0,0,0,.631-.623,5.021,5.021,0,0,0,.456-.78c.186-.39.343-.79.5-1.2.037-.1.084-.2.112-.288.167-.418.335-.836.539-1.236a6.911,6.911,0,0,1,.715-1.142l.139-.167a2.912,2.912,0,0,0,.4-.558,1.739,1.739,0,0,0,.167-.529,3.776,3.776,0,0,0,.037-.566,5.823,5.823,0,0,0-.111-.893,7.687,7.687,0,0,1-.112-.929v-.2a.72.72,0,0,1,.046-.195.774.774,0,0,1,.074-.149.7.7,0,0,1,.074-.092.289.289,0,0,0-.083-.037.648.648,0,0,0-.131-.01c-.037.01-.065.018-.092.028s-.065.037-.093.055a.683.683,0,0,0-.074.074.9.9,0,0,0-.055.093.73.73,0,0,0-.065.2,1.786,1.786,0,0,0-.029.223c-.018.251-.009.5-.009.752v.26a4.483,4.483,0,0,1-.037.706,2.077,2.077,0,0,1-.205.669,3.351,3.351,0,0,1-.79.919c-.092.093-.195.176-.288.27a6.749,6.749,0,0,0-.854,1.068Z" transform="translate(-1.026 -0.983)" fill="#010103"/>
        <g id="Group_81884" data-name="Group 81884" transform="translate(21.14 20.229)" opacity="0.251">
          <g id="Group_81883" data-name="Group 81883">
            <g id="Group_81882" data-name="Group 81882" clip-path="url(#clip-path-19)">
              <path id="Path_81440" data-name="Path 81440" d="M29.267,21.795a.463.463,0,0,0-.186.2,2.477,2.477,0,0,0-.065,1.356c.1.437.325.678.158,1.068-.121.279-.725.335-.957.521a7.138,7.138,0,0,0-.929,1.17,4.7,4.7,0,0,0-.623.976,6.169,6.169,0,0,1-2.7,3.261,4.743,4.743,0,0,1-1.737.437c-.018-.019-.037-.047-.055-.065.371-.186.743-.372,1.124-.548a7.129,7.129,0,0,0,1.57-.9A3.416,3.416,0,0,0,25.9,27.75a6.6,6.6,0,0,1,1.561-2.267A4.741,4.741,0,0,0,28.524,24.3a2.969,2.969,0,0,0,.232-1.366c0-.334-.018-.678,0-1.013a1.013,1.013,0,0,1,.1-.437A.666.666,0,0,1,29,21.311a.424.424,0,0,1,.205-.092.37.37,0,0,1,.278.065.685.685,0,0,0-.176.251,1.311,1.311,0,0,0-.047.26Z" transform="translate(-22.168 -21.213)" fill="#838383"/>
            </g>
          </g>
        </g>
        <path id="Path_81441" data-name="Path 81441" d="M2.778,39.724a2.972,2.972,0,0,0,1.318.3,5.773,5.773,0,0,0,1.292-.316,3.735,3.735,0,0,1,1.532-.168,3.35,3.35,0,0,1,1.115.362,5.192,5.192,0,0,1,.827.529,1.253,1.253,0,0,0,.233.158.414.414,0,0,0,.278.037.4.4,0,0,0,.186-.121.736.736,0,0,0,.112-.185,1.408,1.408,0,0,0,.112-.725,1.723,1.723,0,0,0-.213-.707,3.342,3.342,0,0,0-1.2-1.217,4.165,4.165,0,0,0-2.351-.8c-.334.01-.66.074-.993.093a1.8,1.8,0,0,1-.968-.158,2.815,2.815,0,0,1-.779-.771,2.606,2.606,0,0,0-.391-.39,1.112,1.112,0,0,0-.5-.223.916.916,0,0,0-.474.056,1.555,1.555,0,0,0-.417.241,5.145,5.145,0,0,0-.66.7,4.684,4.684,0,0,0-.5.622,1.284,1.284,0,0,0-.222.753.953.953,0,0,0,.166.464,1.464,1.464,0,0,0,.345.362A4.687,4.687,0,0,0,1.5,39.1c.426.214.844.456,1.282.65Z" transform="translate(-0.005 -1.643)" fill="#010103"/>
        <path id="Path_81442" data-name="Path 81442" d="M15.9,26.2c.167.047.288.149.26.241s-.176.121-.344.074-.288-.149-.259-.241.176-.121.343-.074" transform="translate(-0.722 -1.215)" fill="#503905" fill-rule="evenodd"/>
      </g>
    </g>
  </g>
</svg>
