<svg xmlns="http://www.w3.org/2000/svg" xmlns:xlink="http://www.w3.org/1999/xlink" width="144.419" height="29.996" viewBox="0 0 144.419 29.996">
  <defs>
    <clipPath id="clip-path">
      <rect id="Rectangle_31415" data-name="Rectangle 31415" width="144.419" height="29.996" fill="none"/>
    </clipPath>
  </defs>
  <g id="leaseweb" transform="translate(0 0)">
    <g id="Group_95330" data-name="Group 95330" transform="translate(0 0)" clip-path="url(#clip-path)">
      <path id="Path_89792" data-name="Path 89792" d="M33.63,10.118a.917.917,0,0,1-.138-.011L19.7,8.1a1.6,1.6,0,0,1-1.255-1.575V1c0-.6.338-1,.84-1a1.069,1.069,0,0,1,.333.057L33.466,4.506a1.839,1.839,0,0,1,1.091,1.66v2.85a1,1,0,0,1-.927,1.1m-14.1,8.859a1.1,1.1,0,0,1-1.083-1.2V12.281a1.186,1.186,0,0,1,1.136-1.254.953.953,0,0,1,.1,0L33.459,12.2a1.338,1.338,0,0,1,1.1,1.379v2.848a1.336,1.336,0,0,1-1.1,1.379L19.625,18.971a.9.9,0,0,1-.1,0M19.286,30c-.5,0-.841-.4-.841-.994V23.468A1.6,1.6,0,0,1,19.7,21.893l13.792-2a.874.874,0,0,1,.136-.009,1,1,0,0,1,.927,1.1V23.83a1.819,1.819,0,0,1-1.09,1.661L19.618,29.941a1.032,1.032,0,0,1-.332.055" transform="translate(3.197 0)" fill="#f28700" fill-rule="evenodd"/>
      <path id="Path_89793" data-name="Path 89793" d="M.946,11.955A1,1,0,0,1,0,10.85v-.463A2.377,2.377,0,0,1,1.164,8.42L18.564.1a.93.93,0,0,1,.4-.1c.4,0,.665.352.665.893V6.445a1.729,1.729,0,0,1-1.221,1.661L1.173,11.929a1,1,0,0,1-.228.026m17.619,7.028a1.057,1.057,0,0,1-.135-.009l-17.2-2.206A1.532,1.532,0,0,1,0,15.231v-.466a1.533,1.533,0,0,1,1.23-1.537l17.2-2.2a1.079,1.079,0,0,1,.137-.009,1.116,1.116,0,0,1,1.062,1.209v5.551a1.29,1.29,0,0,1-.312.868,1,1,0,0,1-.751.34M18.963,30a.931.931,0,0,1-.4-.1l-17.4-8.318A2.376,2.376,0,0,1,0,19.612v-.467a1,1,0,0,1,.945-1.1,1.021,1.021,0,0,1,.229.026l17.233,3.821a1.734,1.734,0,0,1,1.223,1.664v5.552a1.064,1.064,0,0,1-.194.664.583.583,0,0,1-.472.226" transform="translate(0 0)" fill="#26338c" fill-rule="evenodd"/>
      <path id="Path_89794" data-name="Path 89794" d="M39.489,23.378h3.7V4.739h-3.7Zm9.64-5.105c.262,1.876,1.212,2.8,3.087,2.8a7.4,7.4,0,0,0,3.324-.689l.832,2.3a9.994,9.994,0,0,1-4.583.926c-3.918,0-6.174-2.588-6.174-6.673,0-4.013,2.09-6.6,5.77-6.6,3.7,0,5.58,2.517,5.414,6.838l-7.67,1.091Zm2.113-5.746c-1.519,0-2.469,1.306-2.35,3.942l4.463-.666c0-2.279-.759-3.276-2.113-3.276M63.8,23.616c-3.7,0-5.6-1.376-5.6-4.036,0-3.3,3.3-4.274,7.147-4.63v-.594c0-1.329-.9-1.71-2.255-1.71a8.448,8.448,0,0,0-3.324.784l-.807-2.114a12.271,12.271,0,0,1,4.82-.974c2.9,0,5.034,1.212,5.034,4.679v7.645a11.118,11.118,0,0,1-5.01.95Zm1.543-6.957c-2.232.214-3.681.736-3.681,2.778,0,1.5.855,2.137,2.328,2.137a3.11,3.11,0,0,0,1.353-.262Zm9.261,6.933a7.177,7.177,0,0,1-3.752-.927l.95-2.349a3.885,3.885,0,0,0,2.279.736,1.442,1.442,0,0,0,1.591-1.4c0-.855-.452-1.331-1.639-1.806-2.349-.925-2.872-2.23-2.872-3.561a3.99,3.99,0,0,1,4.274-3.942,6.551,6.551,0,0,1,3.68.927l-.9,2.113a3.261,3.261,0,0,0-1.947-.664A1.314,1.314,0,0,0,74.8,14.047c0,.854.642,1.329,1.638,1.756,2.47,1.045,3.04,2.256,3.04,3.752,0,2.233-1.828,4.036-4.867,4.036m10.209-5.319c.26,1.876,1.21,2.8,3.086,2.8a7.409,7.409,0,0,0,3.325-.689l.83,2.3a9.981,9.981,0,0,1-4.582.926c-3.918,0-6.174-2.588-6.174-6.673,0-4.013,2.09-6.6,5.77-6.6,3.7,0,5.58,2.517,5.414,6.838l-7.67,1.091Zm2.112-5.746c-1.519,0-2.469,1.306-2.35,3.942l4.464-.666c0-2.279-.76-3.276-2.114-3.276m21.3,10.851H104.81l-1.829-6.934a10.577,10.577,0,0,1-.26-1.756H102.7a9.3,9.3,0,0,1-.285,1.758l-1.876,6.933h-3.4l-3.514-12.8h3.681l1.544,7.385a12.186,12.186,0,0,1,.237,1.851h.047a9.065,9.065,0,0,1,.31-1.851l1.947-7.385h3.039l1.829,7.385a16.331,16.331,0,0,1,.309,1.851h.047a10.708,10.708,0,0,1,.237-1.875l1.638-7.361h3.252Zm8.144-5.105c.26,1.876,1.212,2.8,3.086,2.8a7.4,7.4,0,0,0,3.325-.689l.832,2.3a9.991,9.991,0,0,1-4.583.926c-3.919,0-6.174-2.588-6.174-6.673,0-4.013,2.089-6.6,5.769-6.6,3.705,0,5.58,2.517,5.415,6.838l-7.67,1.091Zm2.113-5.746c-1.519,0-2.469,1.306-2.35,3.942L120.6,15.8c0-2.279-.76-3.276-2.113-3.276m12.537,11.088a9.044,9.044,0,0,1-4.631-.949V4.738h3.7v6.151a5.105,5.105,0,0,1,2.375-.475c3.015,0,5.1,2.422,5.1,6.2,0,4.488-2.35,7-6.552,7m.4-11.088a2.65,2.65,0,0,0-1.331.284v8.382a3.093,3.093,0,0,0,1.14.19c1.875,0,2.682-1.661,2.682-4.535,0-2.493-.522-4.321-2.492-4.321" transform="translate(6.844 0.821)" fill="#26338c" fill-rule="evenodd"/>
    </g>
  </g>
</svg>
