<svg xmlns="http://www.w3.org/2000/svg" width="20" height="19.118" viewBox="0 0 20 19.118">
  <g id="linkedin_icon" transform="translate(-1222.198 -9.397)">
    <path id="Path_886" data-name="Path 886" d="M1226.738,28.514v-12.9h-4.288v12.9ZM1224.6,13.855a2.389,2.389,0,1,0-.029,0h.029Zm4.516,14.659h4.287v-7.2a2.927,2.927,0,0,1,.141-1.046,2.346,2.346,0,0,1,2.2-1.569c1.551,0,2.172,1.183,2.172,2.918v6.9h4.287v-7.4c0-3.961-2.115-5.806-4.936-5.806a4.272,4.272,0,0,0-3.892,2.173h.028v-1.87h-4.287c.055,1.21,0,12.9,0,12.9Z" fill="#fff"/>
  </g>
</svg>
