<svg xmlns="http://www.w3.org/2000/svg" xmlns:xlink="http://www.w3.org/1999/xlink" width="137.212" height="20" viewBox="0 0 137.212 20">
  <defs>
    <clipPath id="clip-path">
      <rect id="Rectangle_31421" data-name="Rectangle 31421" width="137.212" height="20" fill="none"/>
    </clipPath>
  </defs>
  <g id="ntt" transform="translate(0 0)">
    <path id="Path_89797" data-name="Path 89797" d="M75.821.761V4.888H82.1V20.333h4.447V4.888h6.28V.761Z" transform="translate(-55.015 -0.552)" fill="#6485c1"/>
    <g id="Group_95335" data-name="Group 95335" transform="translate(0 0)">
      <g id="Group_95334" data-name="Group 95334" clip-path="url(#clip-path)">
        <path id="Path_89798" data-name="Path 89798" d="M310.052.76h-11.2V4.921h10.892c1.6,0,2.227.732,2.227,2.6v.7h-9.034c-3.438,0-5.144,1.714-5.144,5.6v.925c0,3.991,1.773,5.6,5.338,5.6h13.243V7.469c0-4.925-1.63-6.709-6.327-6.709M303.6,16.149c-.673,0-1.429-.335-1.429-2.018s.738-1.975,1.429-1.975h8.377v3.993Z" transform="translate(-216.075 -0.552)" fill="#6485c1"/>
        <path id="Path_89799" data-name="Path 89799" d="M444.55.76H433.358V4.921h10.9c1.6,0,2.218.732,2.218,2.6v.7H437.45c-3.438,0-5.151,1.714-5.151,5.6v.925c0,3.991,1.773,5.6,5.335,5.6h13.243V7.469c0-4.925-1.63-6.709-6.327-6.709M438.1,16.149c-.673,0-1.428-.335-1.428-2.018s.739-1.975,1.428-1.975h8.378v3.993Z" transform="translate(-313.666 -0.552)" fill="#6485c1"/>
        <path id="Path_89800" data-name="Path 89800" d="M142.91.76V4.887h6.277V20.333h4.456V4.887h6.277V.76Z" transform="translate(-103.692 -0.552)" fill="#6485c1"/>
        <path id="Path_89801" data-name="Path 89801" d="M368.753.76V4.887h6.277V20.333h4.445V4.887h6.277V.76Z" transform="translate(-267.558 -0.552)" fill="#6485c1"/>
        <path id="Path_89802" data-name="Path 89802" d="M242.935,13.5V7.644c0-5.119-1.983-6.85-6.471-6.85H224.557V20.357h12.116c4.756,0,6.262-2.368,6.262-6.856m-4.539.092c0,1.865-.63,2.6-2.227,2.6h-7.16V4.955h7.16c1.6,0,2.227.731,2.227,2.614Z" transform="translate(-162.933 -0.576)" fill="#6485c1"/>
        <path id="Path_89803" data-name="Path 89803" d="M14.53,15.117C14.437,14.94,8.5,3.369,7.773,2.227A4.14,4.14,0,0,0,3.967,0C2.151,0,0,.8,0,5.159V19.79H4.378V7.587c0-.873-.05-2.176-.059-2.437-.008-.218,0-.419.11-.478.116-.077.243.041.335.2s5.588,11.059,6.764,12.9A4.119,4.119,0,0,0,15.336,20c1.816,0,3.959-.807,3.959-5.16V.208H14.917v12.2c0,.881.05,2.176.066,2.437,0,.211,0,.419-.109.48-.127.075-.252-.043-.345-.211" transform="translate(0 0)" fill="#6485c1"/>
      </g>
    </g>
  </g>
</svg>
