<svg id="nutanix_logo" xmlns="http://www.w3.org/2000/svg" xmlns:xlink="http://www.w3.org/1999/xlink" width="141.507" height="18.048" viewBox="0 0 141.507 18.048">
  <defs>
    <clipPath id="clip-path">
      <rect id="Rectangle_32031" data-name="Rectangle 32031" width="141.507" height="18.048" fill="none"/>
    </clipPath>
  </defs>
  <g id="Group_97287" data-name="Group 97287" transform="translate(0 0)" clip-path="url(#clip-path)">
    <path id="Path_90689" data-name="Path 90689" d="M313.456,17.9a.4.4,0,0,1-.263.1H308.05a.421.421,0,0,1-.388-.235.41.41,0,0,1,.107-.486l9.386-7.905a.442.442,0,0,0,0-.676L307.783.732a.427.427,0,0,1-.154-.392.409.409,0,0,1,.4-.34h4.95a.416.416,0,0,1,.263.1l10.215,8.593.092.079a.344.344,0,0,1,.009.515l-.1.092Z" transform="translate(-192.548 0)" fill="#fff" fill-rule="evenodd"/>
    <path id="Path_90690" data-name="Path 90690" d="M20.611.144H17.472a.687.687,0,0,0-.685.685V10.974a.278.278,0,0,1-.46.209L4.71,1.07A3.855,3.855,0,0,0,2.149.03C1.348.03,0,.357,0,2.546V17.223a.684.684,0,0,0,.685.685H3.821a.684.684,0,0,0,.684-.684V7.036a.278.278,0,0,1,.461-.209L16.706,17.094a3.5,3.5,0,0,0,2.352.973c.836,0,2.237-.342,2.237-2.632V.829a.686.686,0,0,0-.684-.684" transform="translate(0 -0.019)" fill="#174489" fill-rule="evenodd"/>
    <path id="Path_90691" data-name="Path 90691" d="M81.634.336H77.986a.407.407,0,0,0-.406.406v11.88c0,.979-1.215,1.475-3.613,1.475H69.005c-2.443,0-3.684-.5-3.684-1.475V.742a.406.406,0,0,0-.407-.406H61.222a.407.407,0,0,0-.407.406V12.805a5.056,5.056,0,0,0,.417,2.147,4.513,4.513,0,0,0,1.111,1.487,5.135,5.135,0,0,0,1.581.933,9.95,9.95,0,0,0,1.8.49,13.686,13.686,0,0,0,1.9.2q.947.035,1.78.035h4.037c2.963,0,5.073-.41,6.449-1.252a4.425,4.425,0,0,0,2.145-4.042V.742a.407.407,0,0,0-.407-.406" transform="translate(-38.065 -0.21)" fill="#174489" fill-rule="evenodd"/>
    <path id="Path_90692" data-name="Path 90692" d="M140.888,3.434V1.1a.819.819,0,0,0-.819-.819H122.227a.82.82,0,0,0-.82.82V3.434a.82.82,0,0,0,.82.82h6.242a.413.413,0,0,1,.413.413V17.242a.82.82,0,0,0,.82.82h2.867a.82.82,0,0,0,.82-.82V4.667a.413.413,0,0,1,.413-.413h6.266a.82.82,0,0,0,.82-.82" transform="translate(-75.991 -0.173)" fill="#174489" fill-rule="evenodd"/>
    <path id="Path_90693" data-name="Path 90693" d="M167.8,9.02l2.286-3.285a.264.264,0,0,1,.433,0l2.313,3.262a.229.229,0,0,1-.187.361H167.98a.214.214,0,0,1-.176-.336m5.029-7.636A2.859,2.859,0,0,0,170.415.09a2.826,2.826,0,0,0-2.4,1.322L157.01,17.305a.407.407,0,0,0,.03.5.441.441,0,0,0,.334.138H161.7a.408.408,0,0,0,.342-.186l2.764-4.253a.328.328,0,0,1,.275-.149s9.215,0,10.61,0a.327.327,0,0,1,.274.148l2.827,4.258a.405.405,0,0,0,.339.183h4.152a.408.408,0,0,0,.336-.635Z" transform="translate(-98.23 -0.056)" fill="#174489" fill-rule="evenodd"/>
    <path id="Path_90694" data-name="Path 90694" d="M251.665.144H248.44a.641.641,0,0,0-.64.641V11.069a.235.235,0,0,1-.389.177L235.723,1.07A3.858,3.858,0,0,0,233.16.03c-.8,0-2.149.327-2.149,2.516v14.72a.643.643,0,0,0,.641.641h3.224a.642.642,0,0,0,.642-.642V6.941a.235.235,0,0,1,.389-.177l11.811,10.329a3.5,3.5,0,0,0,2.352.973c.835,0,2.237-.342,2.237-2.632V.786a.642.642,0,0,0-.642-.642" transform="translate(-144.595 -0.019)" fill="#174489" fill-rule="evenodd"/>
    <path id="Path_90695" data-name="Path 90695" d="M295.877.336h-3.691a.406.406,0,0,0-.407.406v16.95a.407.407,0,0,0,.407.407h3.691a.408.408,0,0,0,.407-.407V.742a.407.407,0,0,0-.407-.406" transform="translate(-182.631 -0.21)" fill="#174489" fill-rule="evenodd"/>
    <path id="Path_90696" data-name="Path 90696" d="M349.815,7.541a.44.44,0,0,0,.569,0L358.577.732a.428.428,0,0,0,.154-.392.41.41,0,0,0-.4-.34h-4.95a.416.416,0,0,0-.263.1l-5.749,4.687a.44.44,0,0,0,0,.671Z" transform="translate(-217.325 0)" fill="#174489" fill-rule="evenodd"/>
    <path id="Path_90697" data-name="Path 90697" d="M350.006,27.942a.44.44,0,0,1,.569,0l8.315,6.791a.427.427,0,0,1,.154.392.41.41,0,0,1-.4.34h-4.95a.415.415,0,0,1-.263-.1l-5.713-4.757a.44.44,0,0,1,0-.671Z" transform="translate(-217.543 -17.424)" fill="#174489" fill-rule="evenodd"/>
  </g>
</svg>
