<svg width="61.413" height="34.053" viewBox="0 0 61.413 34.053" xmlns="http://www.w3.org/2000/svg">
  <path d="M104.188 218.676h-45.54V97.82h26.036v48.25h13.91c24.582 0 41.019 11.336 41.019 36.371 0 18.129-9.027 36.235-35.425 36.235M96.254 164h-11.57v36.727H95.53c13 0 18.059-6.766 18.059-18.606 0-12.355-7.047-18.121-17.336-18.121m144.505 23.52c0 20.66-13.008 31.156-34.332 31.156h-48.067V97.832h26.016v51.109h13.613l27.621-51.109h27.95l-34.067 59.973c14.461 2.941 21.266 13.734 21.266 29.715m-45.547-21.649h-10.836v34.856h12.281c11.742 0 18.074-5.571 18.074-16.747 0-13.042-7.042-18.109-19.519-18.109" style="fill:#4f4c4c;fill-opacity:1;fill-rule:nonzero;stroke:none" transform="matrix(.13333 0 0 -.13333 0 34.053)"/>
  <path d="M364.438 219.914a65.033 65.033 0 0 1-13.895-1.535V97.656a67.319 67.319 0 0 1 13.895-1.535c4.777.024 9.433.57 13.886 1.535V218.38a64.871 64.871 0 0 1-13.886 1.535" style="fill:#0573ac;fill-opacity:1;fill-rule:nonzero;stroke:none" transform="matrix(.13333 0 0 -.13333 0 34.053)"/>
  <path d="M36.55 10.41h-8.355l-5.254 19.856h-.113L17.797 10.41H9.379L0 39.98h8.59l5.437-20.078h.106L19.05 39.98h7.894l5.043-20.02h.102l5.433 20.02h8.356L36.55 10.41m47.653 0h-8.347L70.59 30.266h-.113L65.445 10.41h-8.422l-9.37 29.57h8.578l5.437-20.078h.113l4.922 20.078h7.903l5.023-20.02h.113l5.438 20.02h8.34l-9.317-29.57m47.652 0H123.5l-5.258 19.856h-.121l-5.035-19.856h-8.402l-9.383 29.57h8.57l5.449-20.078h.11l4.918 20.078h7.898l5.035-20.02h.106l5.441 20.02h8.36l-9.333-29.57m14.184.012h8.984v8.797h-8.984v-8.797m16.649 29.558h7.71v-3.77h.125c1.95 3.146 5.153 4.58 8.809 4.58 9.277 0 13.445-7.5 13.445-15.907 0-7.89-4.339-15.281-12.976-15.281-3.547 0-6.93 1.543-8.867 4.468h-.129V0h-8.117zm21.976-14.863c0 4.688-1.906 9.563-7.105 9.563-5.325 0-7.036-4.758-7.036-9.563 0-4.805 1.836-9.383 7.09-9.383 5.325 0 7.051 4.578 7.051 9.383m14.063 14.863h7.714v-5.488h.125c1.481 3.723 5.5 6.297 9.434 6.297a5.59 5.59 0 0 0 1.77-.3v-7.54c-.723.176-1.926.293-2.907.293-5.953 0-8.015-4.289-8.015-9.511V10.41h-8.121v29.57m37.695.81c9.324 0 15.32-6.188 15.32-15.626 0-9.383-5.996-15.562-15.32-15.562-9.258 0-15.27 6.18-15.27 15.562 0 9.438 6.012 15.625 15.27 15.625m0-25.066c5.555 0 7.215 4.757 7.215 9.441 0 4.758-1.66 9.516-7.215 9.516-5.484 0-7.141-4.758-7.141-9.516 0-4.684 1.657-9.441 7.141-9.441m21.914 28.84h8.133v6.699h-8.133zm0-34.141h8.133V39.98h-8.133V10.422m29.98 30.368c9.305 0 15.321-6.188 15.321-15.626 0-9.383-6.016-15.562-15.321-15.562-9.277 0-15.273 6.18-15.273 15.562 0 9.438 5.996 15.625 15.273 15.625m0-25.066c5.536 0 7.207 4.757 7.207 9.441 0 4.758-1.671 9.516-7.207 9.516-5.5 0-7.16-4.758-7.16-9.516 0-4.684 1.66-9.441 7.16-9.441m22.02-5.301h8.977v8.797h-8.977v-8.797m36.777 19.156c-.527 3.324-2.625 5.09-6.004 5.09-5.207 0-6.933-5.266-6.933-9.61 0-4.238 1.679-9.324 6.758-9.324 3.769 0 5.957 2.391 6.464 5.996h7.832c-1.027-7.832-6.457-12.12-14.25-12.12-8.906 0-14.91 6.296-14.91 15.156 0 9.218 5.477 16.023 15.086 16.023 6.985 0 13.391-3.66 13.899-11.21h-7.942m28.145 11.211c9.328 0 15.324-6.188 15.324-15.626 0-9.383-5.996-15.562-15.324-15.562-9.278 0-15.274 6.18-15.274 15.562 0 9.438 5.996 15.625 15.274 15.625m0-25.066c5.558 0 7.199 4.757 7.199 9.441 0 4.758-1.641 9.516-7.199 9.516-5.496 0-7.156-4.758-7.156-9.516 0-4.684 1.66-9.441 7.156-9.441m21.906 24.257h7.664v-3.996h.11c2.117 3.04 5.214 4.805 9.042 4.805 3.719 0 7.04-1.375 8.641-4.922 1.711 2.578 4.817 4.922 8.926 4.922 6.289 0 10.801-2.93 10.801-10.586V10.41h-8.106v16.77c0 3.953-.351 7.195-4.988 7.195-4.59 0-5.43-3.77-5.43-7.488V10.41h-8.136v16.594c0 3.426.234 7.371-4.911 7.371-1.593 0-5.488-1.023-5.488-6.797V10.41h-8.125v29.57" style="fill:#231f20;fill-opacity:1;fill-rule:nonzero;stroke:none" transform="matrix(.13333 0 0 -.13333 0 34.053)"/>
  <path d="M364.438 255.082c-53.133-.008-96.192-43.059-96.192-96.184 0-53.144 43.059-96.195 96.192-96.203 53.125.008 96.203 43.059 96.203 96.203 0 53.125-43.078 96.184-96.203 96.184m0-169.34c-40.379 0-73.106 32.742-73.106 73.121 0 40.367 32.727 73.102 73.106 73.102 40.371 0 73.097-32.735 73.097-73.102 0-40.379-32.726-73.12-73.097-73.12" style="fill:#0573ac;fill-opacity:1;fill-rule:nonzero;stroke:none" transform="matrix(.13333 0 0 -.13333 0 34.053)"/>
  <path d="M281.332 86.652H27.949V231.27h253.5a108.638 108.638 0 0 0 31.477 24.113H17.598c-7.582 0-13.754-6.172-13.754-13.762V76.301c0-7.59 6.172-13.762 13.754-13.762H312.66a108.449 108.449 0 0 0-31.328 24.113" style="fill:#4f4c4c;fill-opacity:1;fill-rule:nonzero;stroke:none" transform="matrix(.13333 0 0 -.13333 0 34.053)"/>
</svg>
