<svg id="pure_storage-logo" xmlns="http://www.w3.org/2000/svg" xmlns:xlink="http://www.w3.org/1999/xlink" width="171.5" height="30" viewBox="0 0 171.5 30">
  <defs>
    <clipPath id="clip-path">
      <rect id="Rectangle_24797" data-name="Rectangle 24797" width="171.5" height="30" fill="none"/>
    </clipPath>
  </defs>
  <g id="Group_81743" data-name="Group 81743" clip-path="url(#clip-path)">
    <path id="Path_81267" data-name="Path 81267" d="M32.929,12.857,26.643,2a4.886,4.886,0,0,0-3.714-2H10.643A4.1,4.1,0,0,0,6.929,2L.643,12.857a3.892,3.892,0,0,0,0,4.286L6.929,28a4.1,4.1,0,0,0,3.714,2h7.143L9.215,14.857l3.714-6.286h7.429l3.714,6.286-4,6.857H27.5a4.165,4.165,0,0,0,3.714-2l1.714-2.572a5.569,5.569,0,0,0,0-4.286" fill="#fe5000"/>
    <path id="Path_81268" data-name="Path 81268" d="M174.712,12.705A1.516,1.516,0,0,1,173,10.99a1.714,1.714,0,1,1,3.428,0,1.647,1.647,0,0,1-1.714,1.715m0-3.143a1.349,1.349,0,0,0-1.428,1.428,1.428,1.428,0,1,0,2.857,0,1.349,1.349,0,0,0-1.428-1.428m-.286,2.572h-.286v-2h.572c.572,0,.858.286.858.572l-.572.571.572.858h-.286l-.572-.858h-.286Zm.286-1.143.572-.285-.572-.286h-.286v.571Zm-95.143,8-.857-1.143a4.459,4.459,0,0,0,2-3.714c0-2.857-2-4.286-4.857-4.286H71V23.276h3.143V18.7h1.142l.857.857,1.428,3.715h3.715Zm-5.142-2.857V12.419h.857c1.143,0,2,.571,2,1.714,0,1.428-.857,2-2.285,2Zm62,2.857c-.286-.858-.572-1.143-1.143-1.143a4.044,4.044,0,0,0,2.572-4c0-2.857-1.714-4-4.572-4h-4.572V23.276h1.715V18.133h2.857c.858,0,1.143.572,1.429,1.428l1.714,3.429h1.714Zm-4-2h-2v-6h1.714c2.286,0,4,.286,4,3.143,0,2-1.428,2.857-3.714,2.857m32-7.143h7.428v1.428h-5.714v4.286H171v1.429h-4.857v4.856h5.714v1.429h-7.428Zm-2.857,12a7.016,7.016,0,0,1-4.286,1.429c-3.428,0-5.714-2.286-5.714-7.143,0-5.143,3.142-6.857,5.714-6.857a5.825,5.825,0,0,1,4.286,2.286l-1.142.858a3.947,3.947,0,0,0-3.143-1.714c-2.572,0-4,2-4,5.428,0,3.714,1.142,5.714,4,5.714l2.572-.571v-4H157V15.847h4.572Zm-21.714,1.429,4.572-13.429h2l4.857,13.429H149.57l-1.429-4.286h-5.428l-1.428,4.286Zm3.429-5.429h4.286l-2.286-6.571ZM121,23.276c-3.428,0-5.428-2.572-5.428-7.143,0-5.143,2.857-6.857,5.428-6.857,2.857,0,5.429,1.714,5.429,6.857,0,4.857-2.286,7.143-5.429,7.143m0-1.429c2.857,0,3.714-2.857,3.714-5.428s-.571-5.714-3.714-5.714c-2.857,0-4,2.857-4,5.428s.858,5.714,4,5.714m-6.571-12v1.428h-4v12H109v-12h-4V9.848ZM95.284,20.7A8.074,8.074,0,0,0,99,21.847c1.429,0,2.857-.571,2.857-2.571,0-1.715-1.428-2-3.143-2.572-2-.572-3.714-1.143-3.714-3.715,0-2.285,1.714-3.714,4.286-3.714a6.549,6.549,0,0,1,4.286,1.714l-.857,1.143a5.935,5.935,0,0,0-3.429-1.428c-1.142,0-2.572.571-2.572,2,0,1.714,1.143,2.286,2.857,2.571,2,.572,4,1.429,4,4s-1.714,4-4.572,4a6.784,6.784,0,0,1-4.286-1.429Zm-12-10.857h8.857v2.857H86.712v2.286h4.572v2.857H86.712v2.286h5.429v3.143H83.284Zm-22,0v8.571a1.805,1.805,0,0,0,2,2c1.142,0,1.714-.572,1.714-2V9.848h3.429v9.143c0,2.571-2,4.286-5.143,4.286-3.428,0-5.143-1.429-5.143-4.572V9.848ZM49.569,23.276H46.141V9.848H51c3.142,0,5.142,1.428,5.142,4.286,0,3.142-2.286,4.572-5.714,4.572h-.857Zm.857-7.143a1.805,1.805,0,0,0,2-2c0-1.143-.572-1.714-2-1.714h-.857v3.714Z" transform="translate(-4.927 -0.99)" fill="#222"/>
  </g>
</svg>
