<?xml version="1.0" encoding="UTF-8" standalone="no"?>
<!-- Uploaded to: SVG Repo, www.svgrepo.com, Generator: SVG Repo Mixer Tools -->

<svg
   height="175"
   width="175"
   version="1.1"
   id="Layer_1"
   viewBox="0 0 546.875 177.1875"
   xml:space="preserve"
   sodipodi:docname="reddit_icon.svg"
   inkscape:version="1.3.2 (091e20e, 2023-11-25)"
   xmlns:inkscape="http://www.inkscape.org/namespaces/inkscape"
   xmlns:sodipodi="http://sodipodi.sourceforge.net/DTD/sodipodi-0.dtd"
   xmlns="http://www.w3.org/2000/svg"
   xmlns:svg="http://www.w3.org/2000/svg"><defs
   id="defs7" /><sodipodi:namedview
   id="namedview7"
   pagecolor="#ffffff"
   bordercolor="#000000"
   borderopacity="0.25"
   inkscape:showpageshadow="2"
   inkscape:pageopacity="0.0"
   inkscape:pagecheckerboard="0"
   inkscape:deskcolor="#d1d1d1"
   inkscape:zoom="0.97125"
   inkscape:cx="160.10296"
   inkscape:cy="400.5148"
   inkscape:window-width="1392"
   inkscape:window-height="1027"
   inkscape:window-x="59"
   inkscape:window-y="25"
   inkscape:window-maximized="0"
   inkscape:current-layer="g1" />
<style
   type="text/css"
   id="style1">
	.st0{fill:#FF4500;}
	.st1{fill:#FFFFFF;}
</style>
<g
   id="g1"
   transform="translate(1.525097e-7,-273.48778)">
	
	<g
   id="g2"
   transform="translate(-135.13514,-35.392535)"><circle
     class="st0"
     cx="406.60001"
     cy="405.60001"
     r="402.29999"
     id="circle1"
     style="fill:none" /><path
     class="st1"
     d="M 674.9,405.6 C 673.7,373.2 646.5,347.9 614,349 c -14.4,0.5 -28.1,6.4 -38.5,16.3 C 529.7,334.1 475.9,317 420.6,315.8 l 26.1,-125.5 86.1,18.1 c 2.4,22.1 22.2,38.1 44.3,35.7 22.1,-2.4 38.1,-22.2 35.7,-44.3 -2.4,-22.1 -22.2,-38.1 -44.3,-35.7 -12.7,1.3 -24.1,8.7 -30.4,19.7 l -98.6,-19.7 c -6.7,-1.5 -13.4,2.7 -14.9,9.5 0,0.1 0,0.1 0,0.2 l -29.7,139.6 c -56,0.9 -110.5,18.1 -156.9,49.5 -23.6,-22.2 -60.8,-21.1 -83,2.6 -22.2,23.6 -21.1,60.8 2.6,83 4.6,4.3 9.9,8 15.8,10.6 -0.4,5.9 -0.4,11.8 0,17.7 0,90.1 105,163.4 234.5,163.4 129.5,0 234.5,-73.2 234.5,-163.4 0.4,-5.9 0.4,-11.8 0,-17.7 20.2,-10.1 32.9,-30.9 32.5,-53.5 z m -402.3,40.3 c 0,-22.2 18.1,-40.3 40.3,-40.3 22.2,0 40.3,18.1 40.3,40.3 0,22.2 -18.1,40.3 -40.3,40.3 -22.3,-0.2 -40.3,-18.1 -40.3,-40.3 z m 233.7,110.6 c -28.6,21.5 -63.6,32.5 -99.4,31 -35.8,1.5 -70.8,-9.5 -99.4,-31 -3.8,-4.6 -3.1,-11.5 1.5,-15.3 4,-3.3 9.7,-3.3 13.8,0 24.2,17.7 53.7,26.7 83.7,25.3 30,1.6 59.6,-7 84.1,-24.5 4.4,-4.3 11.6,-4.2 15.9,0.2 4.3,4.4 4.2,11.6 -0.2,15.9 v 0 z m -7.2,-68.9 c -22.2,0 -40.3,-18.1 -40.3,-40.3 0,-22.2 18.1,-40.3 40.3,-40.3 22.2,0 40.3,18.1 40.3,40.3 0.9,22.2 -16.4,40.9 -38.6,41.8 -0.7,0 -1.3,0 -2,0 z"
     id="path1"
     style="fill:#f9f9f9" /></g>
</g>

</svg>
