<svg width="165" height="47" viewBox="0 0 165 47" fill="none" xmlns="http://www.w3.org/2000/svg">
<path d="M18.344 46.962C28.4751 46.962 36.688 38.7492 36.688 28.618C36.688 18.4869 28.4751 10.274 18.344 10.274C8.21289 10.274 0 18.4869 0 28.618C0 38.7492 8.21289 46.962 18.344 46.962Z" fill="#E22B2B"/>
<path d="M64.261 46.962C74.3921 46.962 82.605 38.7492 82.605 28.618C82.605 18.4869 74.3921 10.274 64.261 10.274C54.1299 10.274 45.917 18.4869 45.917 28.618C45.917 38.7492 54.1299 46.962 64.261 46.962Z" fill="#396BC6"/>
<path d="M41.303 46.962C54.2712 46.962 64.784 36.4492 64.784 23.481C64.784 10.5128 54.2712 0 41.303 0C28.3348 0 17.822 10.5128 17.822 23.481C17.822 36.4492 28.3348 46.962 41.303 46.962Z" fill="#F2D430"/>
<path d="M45.918 28.618C45.9165 31.529 46.6088 34.3984 47.9377 36.9884C49.2665 39.5784 51.1935 41.8144 53.559 43.511C56.2446 41.8682 58.5724 39.7021 60.404 37.1414C62.2355 34.5808 63.5333 31.6779 64.2203 28.6055C64.9072 25.5332 64.9692 22.354 64.4026 19.2572C63.8359 16.1603 62.6523 13.2091 60.922 10.579C56.7078 11.3597 52.8999 13.5913 50.1592 16.8864C47.4185 20.1814 45.918 24.3321 45.918 28.618Z" fill="#94BE50"/>
<path d="M36.6891 28.618C36.6883 24.3334 35.1879 20.1841 32.4481 16.8899C29.7082 13.5958 25.9018 11.3645 21.6891 10.583C19.9591 13.213 18.7757 16.164 18.2093 19.2605C17.6428 22.3571 17.7049 25.5359 18.3918 28.608C19.0787 31.68 20.3765 34.5826 22.2078 37.143C24.0392 39.7034 26.3667 41.8693 29.0521 43.512C31.4169 41.8149 33.3433 39.5786 34.6714 36.9884C35.9995 34.3982 36.6912 31.5288 36.6891 28.618Z" fill="#ED9846"/>
<path d="M82.606 23.1851H0V25.9351H82.606V23.1851Z" fill="white"/>
<path d="M82.606 33.53H0V36.28H82.606V33.53Z" fill="white"/>
<g opacity="0.6">
<path opacity="0.6" d="M95.002 44.251C94.226 43.79 93.6067 43.106 93.225 42.288C92.7918 41.3425 92.5798 40.3107 92.6051 39.271C92.579 38.2367 92.7911 37.2102 93.225 36.271C93.6105 35.4597 94.2292 34.7818 95.002 34.324C95.831 33.8536 96.7722 33.6175 97.725 33.641C98.4401 33.6331 99.151 33.7512 99.8251 33.99C100.446 34.2138 101.011 34.5716 101.478 35.038L100.997 36.015C100.537 35.6019 100.009 35.2713 99.4371 35.038C98.8938 34.8339 98.3174 34.7322 97.737 34.738C97.2089 34.7085 96.681 34.7994 96.1932 35.0038C95.7054 35.2082 95.2704 35.5208 94.921 35.918C94.198 36.8796 93.8432 38.0684 93.921 39.269C93.8429 40.476 94.1947 41.6716 94.914 42.644C95.2628 43.0445 95.6987 43.3597 96.1882 43.5655C96.6777 43.7712 97.2079 43.8621 97.738 43.831C98.3181 43.8384 98.8944 43.7384 99.438 43.536C100.01 43.3025 100.538 42.972 100.998 42.559L101.479 43.536C101.012 44.002 100.447 44.3595 99.826 44.583C99.152 44.8218 98.4411 44.9399 97.726 44.932C96.773 44.9565 95.8314 44.7211 95.002 44.251Z" fill="#151515" stroke="#151515" stroke-width="0.5" stroke-miterlimit="10"/>
<path opacity="0.6" d="M105.402 44.251C104.638 43.7855 104.03 43.1019 103.657 42.288C103.23 41.3468 103.02 40.3214 103.044 39.288C103.019 38.2521 103.225 37.2237 103.649 36.278C104.02 35.467 104.625 34.7859 105.387 34.323C106.211 33.8748 107.134 33.64 108.072 33.64C109.009 33.64 109.932 33.8748 110.756 34.323C111.518 34.7862 112.123 35.4672 112.494 36.278C112.894 37.2279 113.099 38.2482 113.098 39.2787C113.097 40.3093 112.889 41.3291 112.487 42.278C112.111 43.0897 111.503 43.7725 110.741 44.241C109.924 44.6925 109.006 44.9299 108.073 44.9313C107.14 44.9327 106.221 44.698 105.403 44.249L105.402 44.251ZM110.802 42.651C111.439 41.6411 111.778 40.4718 111.779 39.2777C111.781 38.0836 111.445 36.9134 110.81 35.902C110.457 35.5288 110.032 35.2317 109.56 35.0288C109.088 34.826 108.58 34.7217 108.066 34.7223C107.552 34.723 107.044 34.8286 106.573 35.0327C106.102 35.2367 105.677 35.5349 105.325 35.909C104.617 36.8806 104.272 38.0693 104.348 39.269C104.271 40.4756 104.617 41.6713 105.325 42.651C105.675 43.0279 106.098 43.3285 106.57 43.534C107.041 43.7396 107.549 43.8457 108.064 43.8457C108.578 43.8457 109.086 43.7396 109.557 43.534C110.029 43.3285 110.452 43.0279 110.802 42.651Z" fill="#151515" stroke="#151515" stroke-width="0.5" stroke-miterlimit="10"/>
<path opacity="0.6" d="M124.287 33.762V44.809H123.294L116.623 35.919V44.809H115.428V33.762H116.406L123.078 42.652V33.762H124.287Z" fill="#151515" stroke="#151515" stroke-width="0.5" stroke-miterlimit="10"/>
<path opacity="0.6" d="M126.382 43.537L126.863 42.56C127.355 42.9923 127.924 43.329 128.539 43.553C129.18 43.7607 129.851 43.8604 130.525 43.848C131.248 43.8931 131.966 43.7116 132.581 43.329C132.815 43.1648 133.004 42.9444 133.13 42.688C133.256 42.4316 133.316 42.1475 133.303 41.862C133.31 41.695 133.282 41.5284 133.222 41.3725C133.162 41.2165 133.071 41.0745 132.954 40.955C132.694 40.7053 132.381 40.5171 132.039 40.404C131.543 40.2362 131.038 40.0964 130.526 39.985C129.813 39.8387 129.113 39.6364 128.432 39.38C127.915 39.185 127.455 38.8619 127.097 38.441C126.74 37.9845 126.558 37.415 126.585 36.836C126.575 36.2416 126.75 35.6588 127.085 35.168C127.437 34.6694 127.922 34.2797 128.485 34.043C129.155 33.7625 129.877 33.6263 130.603 33.643C131.332 33.6371 132.057 33.7579 132.745 34C133.374 34.2174 133.946 34.5728 134.42 35.04L133.92 36.017C133.454 35.6043 132.922 35.2739 132.345 35.04C131.788 34.8284 131.195 34.7229 130.599 34.729C129.885 34.6875 129.176 34.881 128.582 35.28C128.346 35.4532 128.156 35.6815 128.029 35.9451C127.902 36.2087 127.841 36.4995 127.852 36.792C127.838 37.039 127.889 37.2855 128 37.5063C128.112 37.7271 128.28 37.9143 128.488 38.049C129.095 38.3991 129.755 38.6458 130.443 38.779C131.395 39.0063 132.142 39.2156 132.685 39.407C133.201 39.5817 133.667 39.88 134.042 40.276C134.418 40.7 134.613 41.2541 134.585 41.82C134.595 42.4047 134.42 42.9777 134.085 43.457C133.726 43.9493 133.234 44.3289 132.666 44.551C131.977 44.8228 131.241 44.9544 130.501 44.938C129 45.0127 127.526 44.5116 126.382 43.537Z" fill="#151515" stroke="#151515" stroke-width="0.5" stroke-miterlimit="10"/>
<path opacity="0.6" d="M138.623 44.251C137.859 43.7855 137.251 43.1019 136.878 42.288C136.451 41.3468 136.241 40.3214 136.265 39.288C136.24 38.2521 136.447 37.2237 136.87 36.278C137.241 35.4672 137.846 34.7862 138.608 34.323C139.432 33.8748 140.355 33.64 141.293 33.64C142.23 33.64 143.153 33.8748 143.977 34.323C144.739 34.7862 145.344 35.4672 145.715 36.278C146.115 37.2279 146.32 38.2483 146.319 39.2788C146.317 40.3094 146.109 41.3292 145.707 42.278C145.331 43.0897 144.723 43.7725 143.961 44.241C143.144 44.6925 142.226 44.9299 141.293 44.9313C140.36 44.9327 139.441 44.698 138.623 44.249V44.251ZM144.023 42.651C144.66 41.6411 144.999 40.4718 145 39.2777C145.002 38.0836 144.666 36.9134 144.031 35.902C143.678 35.5287 143.253 35.2315 142.781 35.0285C142.309 34.8256 141.801 34.7212 141.287 34.7219C140.773 34.7225 140.265 34.8282 139.794 35.0323C139.323 35.2365 138.898 35.5348 138.546 35.909C137.838 36.8805 137.492 38.0692 137.568 39.269C137.492 40.4757 137.837 41.6714 138.546 42.651C138.896 43.0279 139.32 43.3285 139.791 43.534C140.262 43.7396 140.771 43.8457 141.285 43.8457C141.799 43.8457 142.307 43.7396 142.778 43.534C143.25 43.3285 143.673 43.0279 144.023 42.651Z" fill="#151515" stroke="#151515" stroke-width="0.5" stroke-miterlimit="10"/>
<path opacity="0.6" d="M148.647 33.762H149.92V43.723H155.459V44.809H148.648L148.647 33.762Z" fill="#151515" stroke="#151515" stroke-width="0.5" stroke-miterlimit="10"/>
<path opacity="0.6" d="M157.102 33.762H164.084V34.817H158.359V38.665H163.774V39.736H158.359V43.754H164.084V44.809H157.102V33.762Z" fill="#151515" stroke="#151515" stroke-width="0.5" stroke-miterlimit="10"/>
</g>
<path d="M95.136 27.3771C94.1691 27.1426 93.2538 26.7317 92.436 26.1651L93.69 23.3381C94.42 23.8021 95.2104 24.1631 96.039 24.4111C96.8497 24.6566 97.692 24.782 98.539 24.7831C99.209 24.8181 99.8781 24.698 100.494 24.4321C100.688 24.3597 100.857 24.2311 100.978 24.0627C101.099 23.8944 101.167 23.6938 101.174 23.4865C101.181 23.2793 101.126 23.0746 101.016 22.8986C100.907 22.7226 100.747 22.5832 100.558 22.4981C99.8252 22.1428 99.0448 21.8955 98.241 21.7641C97.0849 21.5702 95.9614 21.2161 94.903 20.7121C94.2158 20.3907 93.6362 19.8774 93.234 19.2341C92.8989 18.5997 92.7341 17.8892 92.756 17.1721C92.7474 16.2765 93.023 15.4012 93.543 14.6721C94.105 13.8978 94.8702 13.2942 95.754 12.9281C96.7828 12.4947 97.8909 12.2811 99.007 12.3011C100.083 12.2989 101.154 12.4528 102.186 12.7581C103.065 12.9871 103.886 13.3957 104.599 13.9581L103.366 16.7851C102.72 16.3277 102.011 15.9663 101.261 15.7121C100.549 15.4684 99.8024 15.3427 99.05 15.3401C98.4415 15.3114 97.8373 15.4553 97.307 15.7551C97.1066 15.8643 96.9394 16.0256 96.8232 16.2221C96.707 16.4186 96.6461 16.6428 96.647 16.8711C96.6394 17.106 96.7233 17.3348 96.881 17.5091C97.1325 17.7364 97.4299 17.9069 97.753 18.0091C98.3777 18.2273 99.0169 18.401 99.666 18.5291C100.79 18.7417 101.88 19.1029 102.909 19.6031C103.591 19.9272 104.169 20.4353 104.578 21.0701C104.918 21.684 105.086 22.3778 105.067 23.0791C105.091 23.7559 104.946 24.4281 104.646 25.0349C104.345 25.6418 103.898 26.1642 103.345 26.5551C101.904 27.4806 100.206 27.9237 98.497 27.8201C97.3621 27.8214 96.2319 27.6725 95.136 27.3771Z" fill="#151515"/>
<path d="M110.381 15.726H105.873V12.494H118.93V15.726H114.42V27.635H110.381V15.726Z" fill="#151515"/>
<path d="M128.767 24.506H122.048L120.708 27.631H116.708L123.787 12.493H126.934L134.034 27.631H130.1L128.767 24.506ZM127.467 21.506L125.405 16.722L123.343 21.506H127.467Z" fill="#151515"/>
<path d="M137.753 26.856C136.604 26.2313 135.664 25.2808 135.053 24.124C134.402 22.8632 134.077 21.4596 134.107 20.041C134.078 18.6331 134.403 17.2404 135.053 15.991C135.667 14.8391 136.606 13.8929 137.753 13.27C139.02 12.6014 140.436 12.2681 141.868 12.302C142.846 12.2999 143.818 12.4508 144.749 12.749C145.574 12.9899 146.338 13.403 146.992 13.961L145.78 16.788C144.681 15.9416 143.339 15.4724 141.952 15.45C141.427 15.4177 140.902 15.5051 140.416 15.7057C139.929 15.9063 139.495 16.2149 139.146 16.608C138.426 17.6017 138.079 18.8179 138.168 20.042C138.079 21.2762 138.425 22.5027 139.146 23.508C139.494 23.9041 139.927 24.2154 140.413 24.418C140.9 24.6207 141.426 24.7092 141.952 24.677C143.338 24.6537 144.68 24.1842 145.779 23.338L146.991 26.165C146.337 26.7229 145.573 27.136 144.748 27.377C143.817 27.6753 142.845 27.8261 141.867 27.824C140.436 27.858 139.019 27.5248 137.753 26.856Z" fill="#151515"/>
<path d="M159.131 27.635L153.07 20.765V27.635H149.07V12.494H153.07V19L158.959 12.494H163.637L156.937 19.68L163.87 27.635H159.131Z" fill="#151515"/>
</svg>
