<svg id="storpool_logo" xmlns="http://www.w3.org/2000/svg" xmlns:xlink="http://www.w3.org/1999/xlink" width="155.912" height="48" viewBox="0 0 155.912 48">
  <defs>
    <clipPath id="clip-path">
      <rect id="Rectangle_24800" data-name="Rectangle 24800" width="155.912" height="48" fill="none"/>
    </clipPath>
  </defs>
  <path id="Path_81283" data-name="Path 81283" d="M0,19.676,10.353,37.6l5.009-8.69-5.331-9.229Z" fill="#b2d334"/>
  <path id="Path_81284" data-name="Path 81284" d="M0,18.511H10.04l5.322-9.24L10.353.582Z" fill="#b2d334"/>
  <path id="Path_81285" data-name="Path 81285" d="M11.361,0l5.052,8.689H27.077L32.056,0Z" fill="#b2d334"/>
  <path id="Path_81286" data-name="Path 81286" d="M37.762,28.324,27.42,10.4,22.4,19.094l5.332,9.23Z" fill="#b2d334"/>
  <path id="Path_81287" data-name="Path 81287" d="M10.685,39.311,5.706,48H26.4L21.35,39.311Z" fill="#b2d334"/>
  <path id="Path_81288" data-name="Path 81288" d="M27.732,29.488,22.4,38.728l5.021,8.69,10.343-17.93Z" fill="#b2d334"/>
  <g id="Group_81749" data-name="Group 81749">
    <g id="Group_81748" data-name="Group 81748" clip-path="url(#clip-path)">
      <path id="Path_81289" data-name="Path 81289" d="M59.756,17.764a9.1,9.1,0,0,0-2.36-1.123c-.852-.291-1.632-.53-2.38-.738l-1.362-.447a6.809,6.809,0,0,1-1.174-.488,2.506,2.506,0,0,1-.821-.686,1.388,1.388,0,0,1-.323-.936,1.925,1.925,0,0,1,.707-1.486,3.318,3.318,0,0,1,2.214-.624,7.736,7.736,0,0,1,5.062,1.892l2.349-2.983a10.251,10.251,0,0,0-3.232-1.861,11.5,11.5,0,0,0-3.981-.654,9.565,9.565,0,0,0-2.817.415A6.735,6.735,0,0,0,49.32,9.2a5.665,5.665,0,0,0-1.507,1.861,5.092,5.092,0,0,0-.582,2.494,5.457,5.457,0,0,0,.416,2.381,4.991,4.991,0,0,0,1.3,1.663,7.573,7.573,0,0,0,2.079,1.184,28.1,28.1,0,0,0,2.858,1.04,13.664,13.664,0,0,1,3.212,1.06,1.811,1.811,0,0,1,.915,1.6c0,1.569-1.185,2.359-3.535,2.359a7.9,7.9,0,0,1-2.806-.561,8.441,8.441,0,0,1-2.65-1.642l-2.485,2.91a10.171,10.171,0,0,0,3.472,2.141,12.117,12.117,0,0,0,4.345.78,12.272,12.272,0,0,0,3.253-.406,7.2,7.2,0,0,0,2.495-1.2,5.27,5.27,0,0,0,1.652-1.819,6.051,6.051,0,0,0,.614-2.682,5.058,5.058,0,0,0-.718-2.806,5.875,5.875,0,0,0-1.891-1.788m11.506,7.141H70.43a1.769,1.769,0,0,1-1.361-.426,2.328,2.328,0,0,1-.354-1.435V16.07h3.119V13.076H68.715V8.1L64.932,9.584v3.5H62.593V16.08h2.266v8.149a4.271,4.271,0,0,0,1.092,3.3,4.441,4.441,0,0,0,2.983,1.039,11.064,11.064,0,0,0,1.86-.187c.645-.124,1.227-.28,1.767-.436l-.312-3.035-1.039.1m14.8-10.239a6.244,6.244,0,0,0-2.276-1.559,8.115,8.115,0,0,0-5.81,0,6.55,6.55,0,0,0-2.308,1.549,6.977,6.977,0,0,0-1.465,2.484,9.59,9.59,0,0,0-.531,3.337,9.668,9.668,0,0,0,.51,3.305,6.839,6.839,0,0,0,1.445,2.474,6.084,6.084,0,0,0,2.234,1.59A7.542,7.542,0,0,0,80.8,28.5a7.73,7.73,0,0,0,2.858-.561,6.524,6.524,0,0,0,2.287-1.57,7.439,7.439,0,0,0,1.517-2.484,9.566,9.566,0,0,0,.541-3.336,9.085,9.085,0,0,0-.53-3.243,7.271,7.271,0,0,0-1.466-2.495M83.86,22.421a5.236,5.236,0,0,1-.634,1.486,2.763,2.763,0,0,1-4.8.093,6.009,6.009,0,0,1-.853-3.45,6.043,6.043,0,0,1,.821-3.285,2.609,2.609,0,0,1,2.349-1.351A2.805,2.805,0,0,1,83.226,17.2a6.118,6.118,0,0,1,.842,3.378,7.962,7.962,0,0,1-.208,1.787m12.358-9.115a4.335,4.335,0,0,0-1.767,1.694h-.073V13.035H90.429V28.158h3.949v-8.1A3.5,3.5,0,0,1,95.22,17.4a3.564,3.564,0,0,1,2.381-.748,14.3,14.3,0,0,1,2.3.249c.1-.613.218-1.237.364-1.871s.249-1.257.343-1.871a5.645,5.645,0,0,0-2.183-.436,4.812,4.812,0,0,0-2.245.53M115.8,9.573a6.05,6.05,0,0,0-2.214-1.195A9.864,9.864,0,0,0,110.78,8h-8.71V28.158h4.064V21h4.459a9.711,9.711,0,0,0,2.9-.405,6.24,6.24,0,0,0,2.287-1.216,5.716,5.716,0,0,0,1.486-2.079,7.644,7.644,0,0,0,.52-2.931,7.3,7.3,0,0,0-.509-2.817,5.192,5.192,0,0,0-1.445-1.995m-3.046,7.171a3.374,3.374,0,0,1-2.193.78h-4.459V11.527h4.158a3.711,3.711,0,0,1,2.339.718,2.7,2.7,0,0,1,.914,2.266,2.816,2.816,0,0,1-.79,2.193m18.273-1.913a6.115,6.115,0,0,0-2.266-1.559,8.142,8.142,0,0,0-5.82,0,6.336,6.336,0,0,0-2.277,1.549,6.784,6.784,0,0,0-1.5,2.484,10.684,10.684,0,0,0,0,6.579,7.2,7.2,0,0,0,1.445,2.485,6.261,6.261,0,0,0,2.245,1.58,7.548,7.548,0,0,0,2.983.561,7.732,7.732,0,0,0,2.911-.541,6.484,6.484,0,0,0,2.276-1.559,7.264,7.264,0,0,0,1.476-2.463,9.618,9.618,0,0,0,.541-3.337,9.071,9.071,0,0,0-.531-3.243,7.265,7.265,0,0,0-1.475-2.494m-2.152,7.6a5.124,5.124,0,0,1-.624,1.476,3.038,3.038,0,0,1-1.039,1.039,2.645,2.645,0,0,1-1.383.343A2.744,2.744,0,0,1,123.492,24a6.082,6.082,0,0,1-.831-3.45,6.053,6.053,0,0,1,.8-3.285,2.649,2.649,0,0,1,2.308-1.33,2.763,2.763,0,0,1,2.484,1.288A6.03,6.03,0,0,1,129.1,20.6a7.425,7.425,0,0,1-.228,1.787m18.376-7.6a6.307,6.307,0,0,0-2.266-1.559,7.82,7.82,0,0,0-2.92-.54,7.714,7.714,0,0,0-2.9.54,6.473,6.473,0,0,0-2.287,1.549,6.784,6.784,0,0,0-1.5,2.484,10.114,10.114,0,0,0-.53,3.337,9.819,9.819,0,0,0,.52,3.242,7.1,7.1,0,0,0,1.434,2.485,6.244,6.244,0,0,0,2.256,1.58,7.548,7.548,0,0,0,2.983.561,7.727,7.727,0,0,0,2.91-.541,6.446,6.446,0,0,0,2.287-1.559,7.534,7.534,0,0,0,1.466-2.463,9.594,9.594,0,0,0,.54-3.337,9.07,9.07,0,0,0-.53-3.243,7.107,7.107,0,0,0-1.466-2.494M145.1,22.421a5.74,5.74,0,0,1-.624,1.475,3.266,3.266,0,0,1-1.039,1.04,2.712,2.712,0,0,1-1.393.343A2.774,2.774,0,0,1,139.666,24a6.074,6.074,0,0,1-.832-3.45,6.058,6.058,0,0,1,.811-3.285,2.611,2.611,0,0,1,2.339-1.341,2.84,2.84,0,0,1,2.494,1.3,6.115,6.115,0,0,1,.842,3.379,6.909,6.909,0,0,1-.229,1.787m6.663-14.7V28.158h3.981V6.122Z" fill="#006696"/>
      <path id="Path_81290" data-name="Path 81290" d="M48.853,41.764a5.8,5.8,0,0,0,1.528-.208,3.743,3.743,0,0,0,1.2-.717,3.235,3.235,0,0,0,.8-1.247,5.442,5.442,0,0,0,0-3.628,3.275,3.275,0,0,0-.853-1.133,3.111,3.111,0,0,0-1.226-.675,4.986,4.986,0,0,0-1.455-.229H46.774v7.837Zm0-6.829a3.325,3.325,0,0,1,1.237.208,2.41,2.41,0,0,1,.862.582,2.488,2.488,0,0,1,.53.925,3.568,3.568,0,0,1,.177,1.195,3.034,3.034,0,0,1-.707,2.079,2.617,2.617,0,0,1-2.078.79H47.813V34.893Zm4.76,6.819h1.164V33.927h-1.1ZM57.5,33.9a2.369,2.369,0,0,0-.842.426,2.151,2.151,0,0,0-.572.686,2.071,2.071,0,0,0-.2.894,2.138,2.138,0,0,0,.166.883,1.627,1.627,0,0,0,.488.6,2.6,2.6,0,0,0,.78.426c.312.125.634.239,1.039.364l.77.26a1.983,1.983,0,0,1,.582.281,1.415,1.415,0,0,1,.374.374.884.884,0,0,1,.125.509.97.97,0,0,1-.458.936,2.525,2.525,0,0,1-1.268.28,2.952,2.952,0,0,1-1.154-.187A3.6,3.6,0,0,1,56.295,40l-.665.842a3.816,3.816,0,0,0,1.226.78,4.175,4.175,0,0,0,1.539.28,3.439,3.439,0,0,0,2.182-.592,1.977,1.977,0,0,0,.77-1.653,1.866,1.866,0,0,0-.25-1.1,2.394,2.394,0,0,0-.717-.686,3.818,3.818,0,0,0-.936-.436l-.945-.312a4.267,4.267,0,0,1-.541-.187,1.684,1.684,0,0,1-.468-.239,1.136,1.136,0,0,1-.343-.323.881.881,0,0,1-.135-.458,1.039,1.039,0,0,1,.374-.778,1.549,1.549,0,0,1,1.04-.281,3.115,3.115,0,0,1,2,.686l.125-.125c0-.083.135-.177.208-.27l.218-.26.115-.156a3.952,3.952,0,0,0-1.154-.655,4.013,4.013,0,0,0-1.4-.228,3.589,3.589,0,0,0-1.04.145m7.484.946h2.38V33.9H61.523v1.039h2.36v6.829h1.039Zm8.5.322a2.2,2.2,0,0,0-.519-.748,2.5,2.5,0,0,0-.821-.437,4.011,4.011,0,0,0-1.04-.135H67.832v7.837h1.04V38.76h2.079l1.382,2.994H73.57l-1.486-3.2a2.171,2.171,0,0,0,1.185-.79,2.438,2.438,0,0,0,.426-1.476,2.639,2.639,0,0,0-.187-1.039m-2.464-.322a1.578,1.578,0,0,1,1.04.353,1.321,1.321,0,0,1,.4,1.04,1.452,1.452,0,0,1-.385,1.039,1.533,1.533,0,0,1-1.1.384H68.924V34.914ZM74.6,41.774h1.133V33.927H74.62Zm6.86-4.261a1.579,1.579,0,0,0,.79-.635,1.859,1.859,0,0,0-.312-2.431,2.5,2.5,0,0,0-1.642-.51H77.01v7.837h3.254a2.848,2.848,0,0,0,1.985-.613,2.2,2.2,0,0,0,.7-1.725A1.911,1.911,0,0,0,82.53,38.2a1.72,1.72,0,0,0-1.04-.645Zm-1.226-2.578a1.213,1.213,0,0,1,.893.281,1.161,1.161,0,0,1,0,1.6,1.2,1.2,0,0,1-.9.312H78.143V34.914Zm0,3.118a1.708,1.708,0,0,1,1.039.343,1.2,1.2,0,0,1,.447,1.04,1.277,1.277,0,0,1-.374,1.039,1.625,1.625,0,0,1-1.144.354H78.1V38.053Zm8.7,2.994a3.535,3.535,0,0,0,.822-2.5V33.927H88.641v4.625a2.891,2.891,0,0,1-.467,1.726,1.945,1.945,0,0,1-2.734.145l-.135-.145a2.926,2.926,0,0,1-.468-1.778V33.927H83.715V38.49a3.592,3.592,0,0,0,.79,2.546,2.849,2.849,0,0,0,2.214.853,3,3,0,0,0,2.255-.842m4.563-6h2.422V34.01H90.273v1.039h2.349v6.829h1.04ZM96.4,41.878h5.467V40.839H97.705V38.1h2.869V37.066H97.705V34.935h4.054V33.9h-5.2Zm7.972,0a5.8,5.8,0,0,0,1.528-.208,3.263,3.263,0,0,0,2.079-1.9,5.566,5.566,0,0,0,0-3.627,3.225,3.225,0,0,0-.853-1.216,3.111,3.111,0,0,0-1.237-.676,4.926,4.926,0,0,0-1.507-.208H102.3v7.837Zm0-6.829a3.391,3.391,0,0,1,1.237.208,2.436,2.436,0,0,1,.862.582,2.488,2.488,0,0,1,.53.925,3.571,3.571,0,0,1,.177,1.2,3.12,3.12,0,0,1-.707,2.079,2.608,2.608,0,0,1-2.078.79h-1.04V35.008Zm8.367-.977a2.729,2.729,0,0,0-.852.427,2.175,2.175,0,0,0-.572.7,2.023,2.023,0,0,0-.208.894,2.083,2.083,0,0,0,.177.873,1.744,1.744,0,0,0,.488.613,2.992,2.992,0,0,0,.79.291c.312.125.666.239,1.04.364l.759.26a2,2,0,0,1,.582.281,1.316,1.316,0,0,1,.384.374.974.974,0,0,1,.125.509,1.037,1.037,0,0,1-.468.935,2.5,2.5,0,0,1-1.258.281,3.179,3.179,0,0,1-1.122-.229,3.577,3.577,0,0,1-1.039-.634l-.707.811a3.584,3.584,0,0,0,1.216.78,4.153,4.153,0,0,0,1.559.28,3.429,3.429,0,0,0,2.172-.592,1.985,1.985,0,0,0,.686-1.622,1.917,1.917,0,0,0-.27-1.039,2.581,2.581,0,0,0-.717-.707,4.261,4.261,0,0,0-1.04-.436l-.935-.312a3.413,3.413,0,0,1-.54-.187,1.719,1.719,0,0,1-.479-.239,1.261,1.261,0,0,1-.343-.312.8.8,0,0,1-.124-.457.955.955,0,0,1,.363-.79,1.635,1.635,0,0,1,1.04-.323,3.12,3.12,0,0,1,1.995.686l.1-.124.219-.271.208-.259.124-.146a3.651,3.651,0,0,0-1.153-.665,4.234,4.234,0,0,0-1.393-.229,3.59,3.59,0,0,0-1.04.156m7.692,1.1h2.318v-1.04h-5.831v1.04h2.37v6.766h1.039Zm7.11,6.673a3.121,3.121,0,0,0,1.039-.821,3.858,3.858,0,0,0,.665-1.279,5.636,5.636,0,0,0,.229-1.663,5.426,5.426,0,0,0-.229-1.642,3.767,3.767,0,0,0-.665-1.279,2.814,2.814,0,0,0-1.039-.821,2.972,2.972,0,0,0-1.372-.291,3.223,3.223,0,0,0-1.424.3,2.812,2.812,0,0,0-1.04.852,3.723,3.723,0,0,0-.634,1.289,5.225,5.225,0,0,0-.229,1.6,5.357,5.357,0,0,0,.219,1.621,3.526,3.526,0,0,0,.644,1.279,2.972,2.972,0,0,0,1.04.831,3.022,3.022,0,0,0,1.413.312,3.343,3.343,0,0,0,1.383-.291m-.593-6.538a1.744,1.744,0,0,1,.686.634,3.118,3.118,0,0,1,.426,1.039,5.148,5.148,0,0,1,.125,1.206,4.9,4.9,0,0,1-.125,1.164,3.511,3.511,0,0,1-.426,1.04,1.939,1.939,0,0,1-.675.654,2.075,2.075,0,0,1-1.923,0,2.165,2.165,0,0,1-.686-.654,3.194,3.194,0,0,1-.406-1.04,5.188,5.188,0,0,1,0-2.39,3.12,3.12,0,0,1,.406-1.04,2.072,2.072,0,0,1,.686-.634A1.881,1.881,0,0,1,125.842,35a1.845,1.845,0,0,1,1.039.229m8.9.166a2.137,2.137,0,0,0-.53-.748,2.254,2.254,0,0,0-.821-.437,3.589,3.589,0,0,0-1.04-.145h-3.336V41.9h1.039V38.916h2.079l1.382,2.983h1.237l-1.528-3.118a2.211,2.211,0,0,0,1.185-.8,2.444,2.444,0,0,0,.426-1.487,2.569,2.569,0,0,0-.187-1.039m-2.349-.406a1.521,1.521,0,0,1,1.04.364,1.334,1.334,0,0,1,.415,1.04,1.481,1.481,0,0,1-.4,1.039,1.569,1.569,0,0,1-1.1.374h-2.142V34.914Zm8.43,5.062c.1.312.228.6.332.9s.229.6.343.883h1.2c-.53-1.31-1.04-2.619-1.549-3.908l-1.518-3.929h-1.288L136.226,41.9h1.185l.332-.883c.125-.3.219-.593.343-.9Zm-3.306-1.039,1.456-3.929q.342,1.039.717,2c.249.623.5,1.257.738,1.923Zm6.923-4.979a2.782,2.782,0,0,0-1.039.769,3.688,3.688,0,0,0-.676,1.279,5.245,5.245,0,0,0-.312,1.7,5.327,5.327,0,0,0,.229,1.674,3.426,3.426,0,0,0,.655,1.268,2.84,2.84,0,0,0,1.039.821,3.543,3.543,0,0,0,2.671.052,2.368,2.368,0,0,0,1.04-.644,2.818,2.818,0,0,0,.613-1.04,4.275,4.275,0,0,0,.208-1.361V37.8H147.42v1.039h1.289a3.673,3.673,0,0,1-.073.686,2,2,0,0,1-.291.686,1.5,1.5,0,0,1-.582.53,1.91,1.91,0,0,1-1.039.208,1.984,1.984,0,0,1-1.663-.821,2.73,2.73,0,0,1-.426-1.039,5.043,5.043,0,0,1-.136-1.248,4.7,4.7,0,0,1,.136-1.205,2.923,2.923,0,0,1,.415-.946,1.965,1.965,0,0,1,.686-.624,1.826,1.826,0,0,1,1.04-.218,2.308,2.308,0,0,1,1.777.852l.811-.748a3.178,3.178,0,0,0-1.1-.863,3.509,3.509,0,0,0-1.465-.28,3.225,3.225,0,0,0-1.362.28m5.145,7.671h5.332V40.725h-4.157V38.1h2.868V37.066h-2.868V34.935H155.8V33.9h-5.2Z" fill="#006696"/>
    </g>
  </g>
</svg>
