<svg xmlns="http://www.w3.org/2000/svg" xmlns:xlink="http://www.w3.org/1999/xlink" width="144" height="34.642" viewBox="0 0 144 34.642">
  <defs>
    <clipPath id="clip-path">
      <rect id="Rectangle_24810" data-name="Rectangle 24810" width="144" height="34.642" transform="translate(0 0)" fill="none"/>
    </clipPath>
  </defs>
  <g id="terraform_logo" transform="translate(0 0)">
    <g id="Group_81762" data-name="Group 81762" clip-path="url(#clip-path)">
      <path id="Path_81320" data-name="Path 81320" d="M47.1,11.254h-5.12V8.2H55.692v3.058H50.566V26.533H47.111ZM67.165,3.819a3.945,3.945,0,0,0,.743.086c.305,0,.42-.138.42-.432V2.321c0-.265-.1-.409-.415-.409a1.215,1.215,0,0,0-.748.294Zm2-.363a1,1,0,0,1-1.106,1.152,4.855,4.855,0,0,1-.892-.092v1.3l-.841.127V1.336H67l.08.271a1.823,1.823,0,0,1,1.06-.34c.674,0,1.031.386,1.031,1.118ZM65.811,1.993a6.749,6.749,0,0,0-.887.466V4.533h-.84V1.308h.708l.058.357a3.776,3.776,0,0,1,.881-.421Zm-3.824-.052c-.449,0-.622.19-.622.576v.864c0,.363.173.576.622.576s.622-.19.622-.576v-.9c0-.362-.173-.552-.622-.552Zm0,2.667c-1.152,0-1.457-.611-1.457-1.267v-.83c0-.662.311-1.267,1.457-1.267s1.457.611,1.457,1.267v.812c.006.663-.305,1.285-1.457,1.285M57.253,1.354c0-.807.49-1.279,1.63-1.279a5.428,5.428,0,0,1,1.244.144l-.1.72A7.056,7.056,0,0,0,58.906.824c-.576,0-.789.2-.789.668V3.168c0,.466.19.668.789.668a7.056,7.056,0,0,0,1.123-.115l.1.72a5.428,5.428,0,0,1-1.244.144c-1.152,0-1.63-.467-1.63-1.279Zm-1.509,3.19V1.308h.841V4.527Zm0-3.674V.064h.841V.853ZM54.2,4.544V2.3c0-.173-.075-.259-.271-.259a2.385,2.385,0,0,0-.876.259V4.527h-.84V0l.84.127V1.549a3.062,3.062,0,0,1,1.227-.311c.576,0,.76.375.76.951V4.527Zm-3.848.064A4.127,4.127,0,0,1,49.2,4.423l.115-.616a3.891,3.891,0,0,0,1,.138c.374,0,.426-.08.426-.322s-.04-.3-.576-.421c-.817-.19-.915-.391-.915-1.013s.282-.951,1.244-.951a4.609,4.609,0,0,1,1.007.116l-.08.639A6.077,6.077,0,0,0,50.5,1.9c-.362,0-.426.08-.426.276s0,.277.472.392c.939.236,1.026.357,1.026,1.019s-.2,1.02-1.216,1.02m-2.6-1.3h-.622c-.277,0-.351.075-.351.317s.074.322.339.322a1.366,1.366,0,0,0,.634-.167Zm.824,1.215h-.692l-.063-.219a1.892,1.892,0,0,1-.979.3c-.611,0-.875-.4-.875-.956,0-.657.293-.9.979-.9h.806V2.39c0-.357-.1-.483-.639-.483a4.824,4.824,0,0,0-.928.1l-.115-.61a4.569,4.569,0,0,1,1.152-.15c1.054,0,1.365.357,1.365,1.152Zm-4.032,0V2.667H42.82v1.86h-.841V.064h.87V1.935h1.728V.064h.869V4.527Z" fill="#fff"/>
      <path id="Path_81321" data-name="Path 81321" d="M132.694,26.534V17.175c0-.715-.3-1.072-1.071-1.072a9.271,9.271,0,0,0-3.5,1.152v9.279h-3.358V13.126h2.563l.328,1.152a13.44,13.44,0,0,1,5.38-1.429,2.547,2.547,0,0,1,2.534,1.434,13.17,13.17,0,0,1,5.4-1.434c2.229,0,3.03,1.567,3.03,3.963v9.722h-3.358V17.175c0-.715-.3-1.072-1.071-1.072a8.9,8.9,0,0,0-3.5,1.152v9.279Zm-9.226-10.6a26.325,26.325,0,0,0-3.554,1.953v8.639h-3.357v-13.4h2.833l.219,1.486a15.024,15.024,0,0,1,3.525-1.763Zm-14.479-.224c-1.791,0-2.477.8-2.477,2.3v3.606c0,1.515.691,2.3,2.477,2.3s2.476-.8,2.476-2.3V18.027c0-1.515-.685-2.315-2.476-2.315m0,11.1c-4.608,0-5.834-2.534-5.834-5.287V18.136c0-2.753,1.238-5.287,5.834-5.287s5.834,2.534,5.834,5.287v3.387c.006,2.753-1.238,5.287-5.834,5.287m-6.554-16.742a9.791,9.791,0,0,0-1.93-.219c-1.319,0-1.514.576-1.514,1.6v1.682h3.415l-.19,2.672H99V26.534H95.639V15.8H93.491V13.126h2.148V11.254c0-2.782,1.3-4.158,4.267-4.158a10.618,10.618,0,0,1,2.88.386Zm-13.679,11.4H86.28c-1.1,0-1.4.306-1.4,1.319s.305,1.348,1.347,1.348a5.288,5.288,0,0,0,2.534-.691Zm3.358,5.069H89.361l-.248-.91a7.333,7.333,0,0,1-3.991,1.186c-2.448,0-3.5-1.682-3.5-3.991,0-2.724,1.187-3.773,3.911-3.773h3.219v-1.4c0-1.486-.414-2.01-2.563-2.01a18.7,18.7,0,0,0-3.714.415l-.415-2.563a17.54,17.54,0,0,1,4.607-.634c4.211,0,5.455,1.486,5.455,4.844Zm-11.236-10.6a26.325,26.325,0,0,0-3.554,1.953v8.639H73.966v-13.4H76.8l.219,1.486a15.024,15.024,0,0,1,3.525-1.763Zm-8.2,0a26.28,26.28,0,0,0-3.565,1.953v8.639H65.754v-13.4h2.833l.219,1.486a15.062,15.062,0,0,1,3.525-1.763ZM56.239,18.43h4.268v-.679c0-1.267-.386-2.149-2.039-2.149s-2.229.882-2.229,2.149Zm2.615,5.627a14.015,14.015,0,0,0,4.1-.634l.524,2.535a14.41,14.41,0,0,1-4.93.852c-4.21,0-5.673-1.952-5.673-5.183V18.085c0-2.834,1.267-5.23,5.563-5.23s5.259,2.505,5.259,5.4v2.879H56.21v.691c.029,1.6.6,2.235,2.644,2.235" fill="#fff"/>
      <path id="Path_81322" data-name="Path 81322" d="M20.964,11.634v10.9l9.445-5.448V6.174Z" fill="#4040b2"/>
      <path id="Path_81323" data-name="Path 81323" d="M10.482,6.174l9.445,5.46v10.9l-9.445-5.454Z" fill="#5c4ee5"/>
      <path id="Path_81324" data-name="Path 81324" d="M10.482,29.188l9.445,5.454V23.734L10.482,18.28ZM0,.086V10.994l9.445,5.454V5.54Z" fill="#5c4ee5"/>
    </g>
  </g>
</svg>
