<svg id="tungsten_logo" xmlns="http://www.w3.org/2000/svg" xmlns:xlink="http://www.w3.org/1999/xlink" width="251.116" height="48.038" viewBox="0 0 251.116 48.038">
  <defs>
    <linearGradient id="linear-gradient" x1="-0.111" y1="-1.296" x2="1.013" y2="1.389" gradientUnits="objectBoundingBox">
      <stop offset="0" stop-color="#eb7125"/>
      <stop offset="1" stop-color="#e0282a"/>
    </linearGradient>
    <linearGradient id="linear-gradient-2" x1="0.227" y1="-0.246" x2="0.67" y2="0.788" xlink:href="#linear-gradient"/>
  </defs>
  <path id="Path_90586" data-name="Path 90586" d="M251.165,7.579a2.94,2.94,0,0,1,3.136.482q.368.257.784-.172l5.039-4.974c.351-.319.376-.58.082-.784A8.88,8.88,0,0,0,254.284,0a11.608,11.608,0,0,0-4.68,1.045,14.023,14.023,0,0,0-5.251,4.01A16.138,16.138,0,0,0,242.1,8.763a15.731,15.731,0,0,0-.866,2.393L239.9,16.122l-4.239,15.819h-9.392l-1.323,4.949a15.729,15.729,0,0,1-.866,2.393H233.7l-2.238,8.191q-.147.564.417.564h6.231a.683.683,0,0,0,.719-.564l2.205-8.232H247a.683.683,0,0,0,.719-.564l1.658-6.191q.147-.564-.417-.564h-5.97l5.57-20.785a4.967,4.967,0,0,1,2.605-3.561" transform="translate(-205.782)" fill="#fff"/>
  <path id="Union_90" data-name="Union 90" d="M7885.294-1086.931a4.98,4.98,0,0,1-1.993-2.588c-.042-.124,0-.222.148-.294l2.358-1.176c.14-.074.237-.058.277.064a3.08,3.08,0,0,0,1.765,1.847,4.412,4.412,0,0,0,2.981.1,6.417,6.417,0,0,0,2.857-1.731,6.405,6.405,0,0,0,1.649-2.844l.359-1.356a9.128,9.128,0,0,1-5.178,1.7,6.3,6.3,0,0,1-2.833-.629,5.065,5.065,0,0,1-1.951-1.715,6.068,6.068,0,0,1-.507-5.577,10.076,10.076,0,0,1,3.544-4.834,9.454,9.454,0,0,1,5.479-2.1,5.606,5.606,0,0,1,4.517,1.7l.417-1.518a.255.255,0,0,1,.27-.214h2.36c.138,0,.2.074.154.214l-3.878,14.463a9.892,9.892,0,0,1-3.586,5.252,9.284,9.284,0,0,1-5.831,2.181A6.04,6.04,0,0,1,7885.294-1086.931Zm4.826-17a6.187,6.187,0,0,0-2.254,3.283,3.67,3.67,0,0,0,.489,3.283,3.386,3.386,0,0,0,2.925,1.356,5.841,5.841,0,0,0,3.65-1.356,6.243,6.243,0,0,0,2.236-3.283,3.721,3.721,0,0,0-.473-3.283,3.412,3.412,0,0,0-2.923-1.356A5.77,5.77,0,0,0,7890.121-1103.926Zm51.982,10.7c-.14,0-.2-.066-.156-.212l3.9-14.5a.25.25,0,0,1,.27-.212h2.408c.14,0,.2.064.156.212l-.3,1.118a7.2,7.2,0,0,1,.865-.465,6.689,6.689,0,0,1,2.434-.645,9.013,9.013,0,0,1,1.07.016,4.344,4.344,0,0,1,1.314.327,4.053,4.053,0,0,1,1.8,1.422,4.305,4.305,0,0,1,.777,2.213,5.094,5.094,0,0,1-.058,1.258,4.9,4.9,0,0,1-.122.645l-.132.481c-.082.286-.164.6-.254.939l-.122.467-.106.449c-.2.735-.343,1.29-.441,1.649-.352,1.372-.653,2.506-.9,3.421l-.293,1.176a.257.257,0,0,1-.27.214h-2.376c-.14,0-.2-.066-.156-.214l.328-1.176q.368-1.372.931-3.421c.1-.359.246-.915.457-1.649l.122-.449.124-.467c.09-.342.18-.653.251-.939l.132-.489a3.516,3.516,0,0,0,.122-1.022,2.4,2.4,0,0,0-2.548-2.31,4.8,4.8,0,0,0-4.221,3.333c-.016.048-.074.244-.074.244l-2.247,8.373a.256.256,0,0,1-.27.212Zm-36.742-.05a7.879,7.879,0,0,1-1-.212,4.8,4.8,0,0,1-1.4-.645,4.868,4.868,0,0,1-.587-.465,2.441,2.441,0,0,1-.319-.343c-.082-.1-.058-.2.082-.31l2.157-1.633a.222.222,0,0,1,.286-.016,1.8,1.8,0,0,0,.2.2c.082.064.147.122.206.162a3.5,3.5,0,0,0,2.939.5,4.438,4.438,0,0,0,.735-.23,1.909,1.909,0,0,0,.915-.873,1.454,1.454,0,0,0,.114-1.192,3.529,3.529,0,0,0-1.4-1.136l-.539-.278-.262-.13-.106-.05-.132-.066a9.993,9.993,0,0,1-1.11-.661,3.9,3.9,0,0,1-1.044-1.036.9.9,0,0,1-.1-.18l-.08-.2a2.222,2.222,0,0,1-.14-.417l-.056-.23c-.01-.09-.018-.162-.026-.228v-.375s.032-.328.042-.417l.048-.228.008-.034.034-.114s.154-.481.219-.645a3.818,3.818,0,0,1,.212-.433,4.839,4.839,0,0,1,1.308-1.552,5.113,5.113,0,0,1,1.591-.891,6.078,6.078,0,0,1,1.388-.309,5.431,5.431,0,0,1,.6-.032h.563a7.008,7.008,0,0,1,1.006.13,5,5,0,0,1,1.454.613,3,3,0,0,1,.458.326,3.163,3.163,0,0,1,.439.449c.1.1.074.206-.064.312l-1.911,1.47c-.116.09-.206.09-.286.016s-.14-.122-.2-.18c-.09-.066-.162-.122-.22-.164a3.179,3.179,0,0,0-.867-.341,3.7,3.7,0,0,0-.611-.066h-.359c-.074,0-.262.008-.352.016a3.553,3.553,0,0,0-.735.164,2.337,2.337,0,0,0-.523.294,1.283,1.283,0,0,0-.344.433l-.032.066-.042.08-.056.164-.026.082-.024.082-.024.148v.114l.024.1.034.114.032.066.032.066a2.065,2.065,0,0,0,.54.513c.211.148,1.969,1.038,1.969,1.038a6.661,6.661,0,0,1,1.118.693,3.507,3.507,0,0,1,1.013,1.086,2.735,2.735,0,0,1,.4,1.715,7.589,7.589,0,0,1-.2,1.02,7.052,7.052,0,0,1-.28.753,5.18,5.18,0,0,1-1.184,1.649,5.337,5.337,0,0,1-1.607,1.086,7.753,7.753,0,0,1-1.52.5,8.486,8.486,0,0,1-1.3.148A10.95,10.95,0,0,1,7905.361-1093.277Zm-37.429.05c-.14,0-.2-.066-.156-.212l3.9-14.5a.25.25,0,0,1,.27-.212h2.408c.14,0,.2.064.156.212l-.3,1.118a7.2,7.2,0,0,1,.865-.465,6.689,6.689,0,0,1,2.434-.645,9.013,9.013,0,0,1,1.07.016,4.357,4.357,0,0,1,1.314.327,4.053,4.053,0,0,1,1.8,1.422,4.305,4.305,0,0,1,.777,2.213,5.094,5.094,0,0,1-.058,1.258,4.9,4.9,0,0,1-.122.645l-.132.481c-.082.286-.164.6-.254.939l-.122.467-.106.449c-.2.735-.343,1.29-.441,1.649-.351,1.372-.653,2.506-.9,3.421l-.293,1.176a.257.257,0,0,1-.27.214h-2.376c-.14,0-.2-.066-.156-.214l.328-1.176q.365-1.372.931-3.421c.1-.359.246-.915.457-1.649l.122-.449.124-.467c.09-.342.178-.653.251-.939l.132-.489a3.516,3.516,0,0,0,.122-1.022,2.4,2.4,0,0,0-2.548-2.31,4.8,4.8,0,0,0-4.221,3.333c-.018.048-.074.244-.074.244l-2.247,8.373a.256.256,0,0,1-.27.212Zm-11.859-.058a4.769,4.769,0,0,1-1.16-.341,3.867,3.867,0,0,1-1.763-1.488,4.429,4.429,0,0,1-.711-2.278,6.422,6.422,0,0,1,.114-1.29c.042-.188.082-.383.124-.6l.063-.244.066-.23c.13-.481.294-1.1.5-1.861l.122-.449.1-.433c.082-.309.156-.571.211-.793q.539-2.082.907-3.455l.312-1.176a.264.264,0,0,1,.277-.228h2.358c.14,0,.2.074.156.228l-.326,1.176c-.246.915-.555,2.067-.94,3.455-.106.385-.251.941-.449,1.667l-.138.449-.122.465c-.1.349-.18.669-.253.954l-.066.246-.066.228a3.955,3.955,0,0,0-.162,1.1,2.491,2.491,0,0,0,.35,1.274,2.247,2.247,0,0,0,.964.841,2.966,2.966,0,0,0,.637.2l.1.016a1.294,1.294,0,0,1,.132.024,1.885,1.885,0,0,0,.293.01h.164a4.236,4.236,0,0,0,2.556-1.022,4.411,4.411,0,0,0,.817-.841,5.709,5.709,0,0,0,.465-.743c.058-.124.1-.222.13-.293l.066-.18.082-.246,2.392-8.87a.258.258,0,0,1,.27-.212h2.395c.138,0,.2.074.154.212l-3.87,14.455a.258.258,0,0,1-.27.214h-2.395c-.146,0-.2-.074-.153-.214l.211-.791c-.328.2-.645.359-.938.5a7.088,7.088,0,0,1-2.458.613c-.1,0-.213.007-.334.007A6.4,6.4,0,0,1,7856.072-1093.285Zm70.447-2.131a5.841,5.841,0,0,1-.775-5.236,9.985,9.985,0,0,1,3.511-5.284,8.932,8.932,0,0,1,5.659-2.123h.034a5.081,5.081,0,0,1,4.451,2.181,5.862,5.862,0,0,1,.71,5.12l-.253.939a.26.26,0,0,1-.253.214l-11.146.938a3.205,3.205,0,0,0,1.166,1.919,3.676,3.676,0,0,0,2.294.727,5.516,5.516,0,0,0,2.378-.563,6.654,6.654,0,0,0,2.106-1.568c.106-.124.212-.148.319-.082l1.713,1.192q.174.1,0,.294a10.629,10.629,0,0,1-3.4,2.572,8.766,8.766,0,0,1-3.872.941A5.4,5.4,0,0,1,7926.52-1095.415Zm4.467-8.78a6.317,6.317,0,0,0-2.2,2.778l8.756-.743a2.875,2.875,0,0,0-.9-2.262,3.48,3.48,0,0,0-2.492-.859A5.314,5.314,0,0,0,7930.986-1104.2Zm-13.083,10.559a2.444,2.444,0,0,1-1.176-1.518,4.38,4.38,0,0,1,.058-2.312l2.107-7.872h-2.263c-.146,0-.2-.074-.154-.214l.629-2.342a.254.254,0,0,1,.268-.214h2.262l.817-3.119a.256.256,0,0,1,.27-.212h2.36c.14,0,.2.072.156.212l-.833,3.119h2.263c.138,0,.2.074.156.214l-.629,2.342a.258.258,0,0,1-.27.214h-2.262l-2.109,7.872c-.18.7-.1,1.16.27,1.364.3.18.735.116,1.292-.18.13-.064.212-.04.26.066l.9,1.879c.066.122.026.22-.129.294a5.325,5.325,0,0,1-2.68.809A3,3,0,0,1,7917.9-1093.636Zm-73.518,0a2.453,2.453,0,0,1-1.176-1.518,4.381,4.381,0,0,1,.058-2.312l2.106-7.872h-2.262c-.146,0-.2-.074-.154-.214l.629-2.342a.255.255,0,0,1,.27-.214h2.26l.817-3.119a.256.256,0,0,1,.27-.212h2.36c.14,0,.2.072.156.212l-.833,3.119h2.262c.138,0,.2.074.154.214l-.627,2.342a.258.258,0,0,1-.27.214h-2.263l-2.106,7.872c-.18.7-.09,1.16.27,1.364.3.18.735.116,1.29-.18.13-.064.211-.04.261.066l.9,1.879c.064.122.024.22-.132.294a5.324,5.324,0,0,1-2.678.809A3,3,0,0,1,7844.385-1093.636Z" transform="translate(-7781.558 1126.981)" fill="url(#linear-gradient)"/>
  <g id="Group_97146" data-name="Group 97146">
    <path id="Path_90601" data-name="Path 90601" d="M2253.313,137.355c-.155,0-.212-.073-.172-.229l.294-1.086a.276.276,0,0,1,.294-.229h5.562c.155,0,.212.073.171.229l-.294,1.086a.276.276,0,0,1-.294.229Zm-1.731,12.83c-.147,0-.2-.074-.155-.229l5.129-19.151a5.794,5.794,0,0,1,1.119-2.213,4.978,4.978,0,0,1,1.878-1.454,3.787,3.787,0,0,1,2-.327,3.161,3.161,0,0,1,1.764.743c.106.09.1.2-.041.327l-.9.874c-.123.122-.229.139-.327.049a2,2,0,0,0-2.189-.278,3.261,3.261,0,0,0-1.764,2.279l-5.129,19.151a.276.276,0,0,1-.294.229Z" transform="translate(-2067.542 -116.431)" fill="#fff"/>
    <path id="Path_90602" data-name="Path 90602" d="M2345.531,251.857c-.131,0-.188-.065-.18-.2q.171-1.188.367-2.23a7.616,7.616,0,0,1-1.339,1.1,7.731,7.731,0,0,1-2.614,1.143,7.219,7.219,0,0,1-2.744.065,3.635,3.635,0,0,1-1.29-.482,2.4,2.4,0,0,1-.923-1.037,4.019,4.019,0,0,1,.066-2.891,4.958,4.958,0,0,1,.808-1.47,5.1,5.1,0,0,1,1.266-1.16,7.963,7.963,0,0,1,2.622-1.086,13.466,13.466,0,0,1,2.229-.31c.588-.033,1.184-.041,1.789-.016.245,0,.49.008.735.033.163,0,.367.008.62.033l.245.016c.425-1.682.417-2.842-.024-3.471a2.832,2.832,0,0,0-2.434-.841,7.224,7.224,0,0,0-2.605.482,8.031,8.031,0,0,0-.89.417c-.106.057-.2.114-.31.18q-.123.086-.221.147-.184.135-.294,0l-.629-.743c-.09-.123-.057-.237.09-.343.1-.065.2-.131.3-.2.131-.09.27-.18.417-.261a9.3,9.3,0,0,1,1.143-.564,9.056,9.056,0,0,1,3.414-.678q2.487,0,3.43,1.323a4.036,4.036,0,0,1,.506,2.793,12.344,12.344,0,0,1-.294,1.6l-.221.825-.212.792c-.114.376-.2.7-.286.988-.237.874-.457,1.895-.678,3.071-.163.858-.31,1.764-.441,2.711a.269.269,0,0,1-.3.261h-1.119Zm-.27-3.8a8.58,8.58,0,0,0,.947-1.437l.164-.31.114-.5.147-.482.131-.482c-.122-.008-.229-.025-.335-.033-.449-.041-.874-.074-1.266-.082-.572-.008-1.127,0-1.674.033a12.152,12.152,0,0,0-1.952.261,5.879,5.879,0,0,0-1.96.792,3,3,0,0,0-1.225,1.6,2.638,2.638,0,0,0-.025,1.878,1.737,1.737,0,0,0,1.388.907,5.337,5.337,0,0,0,2.1-.016,6.071,6.071,0,0,0,3.447-2.132" transform="translate(-2145.745 -218.104)" fill="#fff"/>
    <path id="Path_90603" data-name="Path 90603" d="M2518.951,132.867a5.044,5.044,0,0,1,3.732,2.034,5.474,5.474,0,0,1,.939,4.263,8.463,8.463,0,0,1-1.143,3.087,9.973,9.973,0,0,1-2.164,2.54,10.1,10.1,0,0,1-2.826,1.731,8.206,8.206,0,0,1-3.144.645,5.782,5.782,0,0,1-2.957-.743,4.751,4.751,0,0,1-1.927-1.985l-.67,2.491a.276.276,0,0,1-.294.229h-1.086c-.155,0-.212-.074-.171-.229l6.215-23.2a.276.276,0,0,1,.294-.229h1.086c.155,0,.212.074.171.229l-3.161,11.809a10.151,10.151,0,0,1,3.348-2.132,7.983,7.983,0,0,1,3.757-.539m-4.2,12.749a7.014,7.014,0,0,0,4.418-1.65,7.438,7.438,0,0,0,2.711-3.961,4.448,4.448,0,0,0-.588-3.977,4.106,4.106,0,0,0-3.536-1.65,6.972,6.972,0,0,0-4.4,1.65,7.478,7.478,0,0,0-2.719,3.977,4.418,4.418,0,0,0,.588,3.961,4.121,4.121,0,0,0,3.528,1.65" transform="translate(-2302.463 -113.414)" fill="#fff"/>
    <path id="Path_90604" data-name="Path 90604" d="M2737.245,237.363c.147.033.18.131.106.278l-.5,1.07a.275.275,0,0,1-.311.18,3.521,3.521,0,0,0-.6-.049,5.088,5.088,0,0,0-3.226,1.209,5.422,5.422,0,0,0-1.985,2.907l-2.246,8.387a.265.265,0,0,1-.278.229h-1.1c-.155,0-.212-.074-.172-.229l3.732-13.916a.276.276,0,0,1,.294-.229h1.1c.139,0,.2.073.155.229l-.441,1.65a7.077,7.077,0,0,1,4.59-1.78,6.292,6.292,0,0,1,.874.065" transform="translate(-2504.219 -217.828)" fill="#fff"/>
    <path id="Path_90605" data-name="Path 90605" d="M2847.889,170.011a1.391,1.391,0,0,1-.882.327.783.783,0,0,1-.7-.327.858.858,0,0,1-.115-.792,1.479,1.479,0,0,1,.539-.792,1.358,1.358,0,0,1,.882-.327.832.832,0,0,1,.7.327.858.858,0,0,1,.114.792,1.435,1.435,0,0,1-.539.792m-6.207,18.114c-.147,0-.2-.074-.155-.229l3.716-13.851a.265.265,0,0,1,.278-.229h1.1c.155,0,.212.074.171.229l-3.716,13.851a.276.276,0,0,1-.294.229Z" transform="translate(-2609.448 -154.371)" fill="#fff"/>
    <path id="Path_90606" data-name="Path 90606" d="M2916.327,249.07a5.941,5.941,0,0,1-.384-5.529,9.769,9.769,0,0,1,3.161-4.328,9.464,9.464,0,0,1,4.811-2.132,5.96,5.96,0,0,1,4.475,1.037c.106.09.1.2-.024.327l-.874.907a.229.229,0,0,1-.335.065,4.48,4.48,0,0,0-2.859-.841,7.1,7.1,0,0,0-4.255,1.633,7.583,7.583,0,0,0-2.7,3.8,4.539,4.539,0,0,0,.482,4.108,4.1,4.1,0,0,0,3.585,1.715,6.723,6.723,0,0,0,3.2-.841c.139-.074.237-.057.294.065l.368.907c.065.131.008.245-.155.327a8.631,8.631,0,0,1-4.124,1.1,5.078,5.078,0,0,1-4.663-2.319" transform="translate(-2677.347 -217.66)" fill="#fff"/>
  </g>
  <path id="Path_90611" data-name="Path 90611" d="M22.3,0a.683.683,0,0,0-.719.564L19.379,8.8h-5.97a.683.683,0,0,0-.719.564L11.032,15.55q-.147.564.416.564h5.97L11.849,36.89a4.954,4.954,0,0,1-2.614,3.569A2.94,2.94,0,0,1,6.1,39.977q-.368-.257-.784.172L.284,45.114A.7.7,0,0,0,0,45.579v0a.394.394,0,0,0,.2.315A8.881,8.881,0,0,0,6.124,48.03a11.608,11.608,0,0,0,4.68-1.045,14.023,14.023,0,0,0,5.251-4.01,16.138,16.138,0,0,0,2.254-3.708,15.74,15.74,0,0,0,.866-2.393l1.331-4.965,4.239-15.819h9.392l1.331-4.965a15.724,15.724,0,0,1,.866-2.393H26.711L28.942.564Q29.089,0,28.526,0Z" fill="url(#linear-gradient-2)"/>
</svg>
