<svg id="vendor_integration_icon" xmlns="http://www.w3.org/2000/svg" xmlns:xlink="http://www.w3.org/1999/xlink" width="48" height="48" viewBox="0 0 48 48">
  <defs>
    <linearGradient id="linear-gradient" x1="0.768" y1="0.291" x2="0.028" y2="0.991" gradientUnits="objectBoundingBox">
      <stop offset="0" stop-color="#2aa5dc"/>
      <stop offset="1" stop-color="#d1ebf8" stop-opacity="0.4"/>
    </linearGradient>
  </defs>
  <g id="Group_96001" data-name="Group 96001">
    <g id="Group_96000" data-name="Group 96000">
      <rect id="Rectangle_31847" data-name="Rectangle 31847" width="48" height="48" opacity="0"/>
      <path id="Path_90317" data-name="Path 90317" d="M22,22H18.115c.006.1.009.2.009.307a5.61,5.61,0,0,1-5.6,5.617h-.01a5.93,5.93,0,0,1-.959-.081,5.661,5.661,0,0,1-4.648-5.486c0-.119,0-.238.008-.356H3" fill="none" stroke="#082330" stroke-linecap="round" stroke-linejoin="round" stroke-width="2"/>
      <path id="Path_90318" data-name="Path 90318" d="M22.015,22V18.108a5.611,5.611,0,0,1-.789-11.195c.143-.01.287-.014.432-.013.122,0,.238,0,.356.008V3.018" fill="none" stroke="#082330" stroke-linecap="round" stroke-linejoin="round" stroke-width="2"/>
      <path id="Path_90319" data-name="Path 90319" d="M43,20.316,42.962,5.31a2.3,2.3,0,0,0-2.3-2.294H5.3A2.3,2.3,0,0,0,3,5.318L3.024,38.7a2.3,2.3,0,0,0,2.3,2.3L22,41.016V36.474a.925.925,0,0,1,.094-.4.671.671,0,0,1,.067-.1.931.931,0,0,1,.181-.219c.015-.012.021-.032.037-.044s.059-.022.086-.039a.913.913,0,0,1,.234-.1.851.851,0,0,1,.158-.032.68.68,0,0,1,.1-.02.819.819,0,0,1,.155.031.835.835,0,0,1,.1,0,3.81,3.81,0,0,0,1.035.14,3.756,3.756,0,0,0,3.4-2.3" fill="none" stroke="#082330" stroke-linecap="round" stroke-linejoin="round" stroke-width="2"/>
      <path id="Path_90320" data-name="Path 90320" d="M22,27.518V22h5.457a5.382,5.382,0,0,1-.059-.812,5.607,5.607,0,0,1,5.6-5.618,5.7,5.7,0,0,1,.815.058" fill="none" stroke="#082330" stroke-linecap="round" stroke-linejoin="round" stroke-width="2"/>
      <path id="Path_90321" data-name="Path 90321" d="M40.985,26.1a1.092,1.092,0,0,1-1.007-1.514,4.129,4.129,0,0,0,.318-1.7A4.31,4.31,0,0,0,36.683,18.8a4.188,4.188,0,0,0-3.376.988,4.233,4.233,0,0,0-1.458,3.2,4.091,4.091,0,0,0,.319,1.6A1.092,1.092,0,0,1,31.161,26.1H26.607a.5.5,0,0,0-.5.5v3.07a6.408,6.408,0,0,1,.7,12.794c-.1.006-.2.009-.3.01-.142,0-.272,0-.406-.009V45.5a.5.5,0,0,0,.5.5H43.715a2.3,2.3,0,0,0,2.3-2.3V26.6a.5.5,0,0,0-.5-.5Z" fill="url(#linear-gradient)"/>
    </g>
  </g>
</svg>
