<svg id="VM_ware_logo" xmlns="http://www.w3.org/2000/svg" xmlns:xlink="http://www.w3.org/1999/xlink" width="157.488" height="24" viewBox="0 0 157.488 24">
  <defs>
    <clipPath id="clip-path">
      <rect id="Rectangle_24812" data-name="Rectangle 24812" width="157.488" height="24" fill="none"/>
    </clipPath>
  </defs>
  <g id="Group_81766" data-name="Group 81766" transform="translate(0 0)" clip-path="url(#clip-path)">
    <path id="Path_81330" data-name="Path 81330" d="M60.879,22.13l-6.9-19.207A3.179,3.179,0,0,1,53.763,2,1.67,1.67,0,0,1,55.474.376a1.777,1.777,0,0,1,1.715,1.4L62.9,18.331,68.659,1.738A1.732,1.732,0,0,1,70.324.379H70.5a1.794,1.794,0,0,1,1.758,1.359l5.708,16.592L83.775,1.7A1.652,1.652,0,0,1,85.4.378a1.622,1.622,0,0,1,1.669,1.579,3.241,3.241,0,0,1-.219.925L79.908,22.131a2.007,2.007,0,0,1-1.847,1.533h-.13a1.9,1.9,0,0,1-1.849-1.533L70.416,5.81,64.7,22.131a1.894,1.894,0,0,1-1.845,1.533h-.092a2.013,2.013,0,0,1-1.886-1.533" transform="translate(6.716 0.047)" fill="#696566"/>
    <path id="Path_81331" data-name="Path 81331" d="M104.78,2.085A1.708,1.708,0,0,1,106.449.367a1.69,1.69,0,0,1,1.719,1.718v3.9A9.256,9.256,0,0,1,116,.411a1.629,1.629,0,0,1,1.677,1.714,1.678,1.678,0,0,1-1.5,1.715c-4.4.528-8.008,3.83-8.008,10.391v7.717a1.694,1.694,0,1,1-3.388,0V2.085Z" transform="translate(13.088 0.046)" fill="#696566"/>
    <path id="Path_81332" data-name="Path 81332" d="M133.8,10.886c-.346-4.1-2.676-7.667-7.12-7.667-3.881,0-6.814,3.266-7.24,7.667Zm-6.6,13.028c-6.126,0-11.125-4.752-11.125-11.724V12.1c0-6.49,4.53-11.713,10.695-11.713,6.6,0,10.35,5.44,10.35,11.408a1.561,1.561,0,0,1-1.555,1.574H119.438c.47,4.875,3.875,7.619,7.847,7.619a9.064,9.064,0,0,0,6.423-2.614,1.435,1.435,0,0,1,2.417,1.052,1.429,1.429,0,0,1-.522,1.084,11.276,11.276,0,0,1-8.406,3.4" transform="translate(14.498 0.048)" fill="#696566"/>
    <path id="Path_81333" data-name="Path 81333" d="M100.227,15.117V12.923a23.784,23.784,0,0,0-6.674-.965c-4.251,0-6.623,1.845-6.623,4.694v.087c0,2.852,2.63,4.52,5.7,4.52,4.167,0,7.593-2.547,7.593-6.141m-16.72,1.754v-.088c0-4.782,3.951-7.33,9.7-7.33a23.967,23.967,0,0,1,6.981.969V9.628c0-4.077-2.509-6.187-6.76-6.187a11.513,11.513,0,0,0-5.283,1.035,1.683,1.683,0,0,1-.609.134,1.5,1.5,0,0,1-1.5-1.449,1.4,1.4,0,0,1,.924-1.407A15.072,15.072,0,0,1,93.776.461c3.2,0,5.658.831,7.323,2.5a8.942,8.942,0,0,1,2.329,6.627V22.11a1.606,1.606,0,0,1-1.629,1.666,1.551,1.551,0,0,1-1.613-1.579V20.032a9.941,9.941,0,0,1-8.2,3.907c-4.215,0-8.476-2.414-8.476-7.066" transform="translate(10.431 0.057)" fill="#696566"/>
    <path id="Path_81334" data-name="Path 81334" d="M6.2,1.92A3.2,3.2,0,0,0,1.9.315a3.14,3.14,0,0,0-1.573,4.3l7.2,15.649C8.662,22.714,9.854,24,12.094,24c2.394,0,3.437-1.4,4.568-3.739,0,0,6.28-13.676,6.343-13.822a.908.908,0,0,1,.9-.583,1,1,0,0,1,1,1.014V20.242c0,2.061,1.143,3.752,3.342,3.752s3.386-1.691,3.386-3.752V9.294a3.364,3.364,0,0,1,3.574-3.479,3.279,3.279,0,0,1,3.433,3.479V20.242c0,2.061,1.147,3.752,3.343,3.752s3.392-1.691,3.392-3.752V9.294a3.359,3.359,0,0,1,3.568-3.479,3.282,3.282,0,0,1,3.435,3.479V20.242c0,2.061,1.146,3.752,3.344,3.752s3.388-1.691,3.388-3.752V7.783A7.807,7.807,0,0,0,51,0a10.411,10.411,0,0,0-7.195,3.06C42.335,1.151,40.306,0,36.87,0c-3.624,0-6.8,3.056-6.8,3.056A8.13,8.13,0,0,0,24.013,0C20.8,0,18.249,1.416,16.693,4.975l-4.6,10.842Z" transform="translate(0 0)" fill="#696566"/>
    <path id="Path_81335" data-name="Path 81335" d="M140.083,3.216V3.21a2.272,2.272,0,1,0-4.544.007v.015a2.272,2.272,0,1,0,4.544-.015m-5.074.019V3.216a2.807,2.807,0,1,1,5.614-.011v.011a2.822,2.822,0,0,1-2.81,2.827,2.793,2.793,0,0,1-2.8-2.808" transform="translate(16.864 0.049)" fill="#696566"/>
    <path id="Path_81336" data-name="Path 81336" d="M137.8,2.948c.291,0,.452-.152.452-.385V2.554c0-.253-.172-.389-.462-.389h-.6v.782h.607Zm-1.2-1.02a.3.3,0,0,1,.3-.3h.936a1.064,1.064,0,0,1,.793.278.848.848,0,0,1,.238.62v.008a.835.835,0,0,1-.542.828l.413.5a.358.358,0,0,1,.1.231.279.279,0,0,1-.283.274.367.367,0,0,1-.294-.154l-.583-.737H137.2v.592a.293.293,0,0,1-.3.3.3.3,0,0,1-.3-.3V1.927Z" transform="translate(17.062 0.203)" fill="#696566"/>
  </g>
</svg>
