<svg id="we_systems" xmlns="http://www.w3.org/2000/svg" xmlns:xlink="http://www.w3.org/1999/xlink" width="172" height="61" viewBox="0 0 172 61">
  <defs>
    <clipPath id="clip-path">
      <rect id="Rectangle_31420" data-name="Rectangle 31420" width="172" height="61" fill="none"/>
    </clipPath>
  </defs>
  <g id="Group_95332" data-name="Group 95332" clip-path="url(#clip-path)">
    <path id="Path_89795" data-name="Path 89795" d="M420.267,173.638a4.16,4.16,0,0,0-.787-.642,7.958,7.958,0,0,0-1.212-.646,8.95,8.95,0,0,0-1.524-.492,7.692,7.692,0,0,0-1.693-.186,4.648,4.648,0,0,0-2.85.708,2.364,2.364,0,0,0-.914,1.969,2.11,2.11,0,0,0,.288,1.157,2.445,2.445,0,0,0,.885.787,6.957,6.957,0,0,0,1.5.6q.9.26,2.1.56a23.979,23.979,0,0,1,2.654.787,7.6,7.6,0,0,1,2,1.062,4.33,4.33,0,0,1,1.272,1.527,5,5,0,0,1,.445,2.22,5.386,5.386,0,0,1-.56,2.531,4.76,4.76,0,0,1-1.524,1.731,6.7,6.7,0,0,1-2.244.976,11.55,11.55,0,0,1-2.756.315,13.732,13.732,0,0,1-4.267-.669,12.2,12.2,0,0,1-3.72-1.949l1.39-2.613a6.414,6.414,0,0,0,1.023.787,9.336,9.336,0,0,0,1.547.787,13.336,13.336,0,0,0,1.921.63,8.823,8.823,0,0,0,2.153.256,5.158,5.158,0,0,0,2.775-.622,2.058,2.058,0,0,0,.984-1.849,1.97,1.97,0,0,0-.37-1.228,3.146,3.146,0,0,0-1.048-.858,9.079,9.079,0,0,0-1.661-.669q-.985-.3-2.232-.63a23.077,23.077,0,0,1-2.52-.787,6.271,6.271,0,0,1-1.779-1.016,3.991,3.991,0,0,1-1.075-1.4,4.668,4.668,0,0,1-.366-1.944,5.613,5.613,0,0,1,.544-2.52,5.387,5.387,0,0,1,1.484-1.851,6.5,6.5,0,0,1,2.209-1.121,9.664,9.664,0,0,1,2.779-.394,10.189,10.189,0,0,1,3.621.622,12.054,12.054,0,0,1,2.913,1.551Zm6.208-4.519,5.338,9.691,5.386-9.691h3.346l-7.2,12.415v6.916h-3.055v-6.968l-7.164-12.36Zm27.4,4.519a4.16,4.16,0,0,0-.787-.642,7.957,7.957,0,0,0-1.212-.646,8.776,8.776,0,0,0-1.527-.492,7.684,7.684,0,0,0-1.7-.186,4.653,4.653,0,0,0-2.847.708,2.362,2.362,0,0,0-.905,1.969,2.118,2.118,0,0,0,.283,1.157,2.445,2.445,0,0,0,.885.787,6.972,6.972,0,0,0,1.5.6q.9.26,2.1.56a24.058,24.058,0,0,1,2.654.787,7.635,7.635,0,0,1,2.008,1.062,4.353,4.353,0,0,1,1.259,1.527,4.97,4.97,0,0,1,.456,2.228,5.354,5.354,0,0,1-.56,2.531,4.77,4.77,0,0,1-1.527,1.724,6.712,6.712,0,0,1-2.248,1,11.55,11.55,0,0,1-2.756.315,13.715,13.715,0,0,1-4.263-.669,12.2,12.2,0,0,1-3.716-1.949l1.39-2.613a6.413,6.413,0,0,0,1.023.787,9.289,9.289,0,0,0,1.547.787,13.289,13.289,0,0,0,1.917.63,8.826,8.826,0,0,0,2.153.259,5.159,5.159,0,0,0,2.775-.63,2.058,2.058,0,0,0,.976-1.849,1.958,1.958,0,0,0-.366-1.22,3.143,3.143,0,0,0-1.048-.866,9.028,9.028,0,0,0-1.665-.669q-.985-.3-2.232-.622a23.078,23.078,0,0,1-2.52-.787,6.278,6.278,0,0,1-1.783-1.023,4,4,0,0,1-1.075-1.4,4.669,4.669,0,0,1-.366-1.944,5.617,5.617,0,0,1,.551-2.52,5.361,5.361,0,0,1,1.481-1.849,6.5,6.5,0,0,1,2.221-1.134,9.681,9.681,0,0,1,2.775-.394,10.187,10.187,0,0,1,3.621.63,12,12,0,0,1,2.913,1.547Zm19.251-1.819H466.7V188.45h-3.078V171.819h-6.456v-2.7H473.12Zm15.85,13.934v2.7h-13.26V169.123h13.015v2.692h-9.968v5.51h8.634v2.527h-8.634v5.9Zm19.416,2.7V174.535l-5.748,10.537h-1.693l-5.762-10.537v13.914h-3.047V169.123H495.4l6.4,11.809,6.4-11.809h3.267V188.45Zm18.874-14.812a4.156,4.156,0,0,0-.787-.642,7.911,7.911,0,0,0-1.214-.646,8.871,8.871,0,0,0-1.519-.484,7.614,7.614,0,0,0-1.7-.189,4.65,4.65,0,0,0-2.847.708,2.363,2.363,0,0,0-.905,1.969,2.137,2.137,0,0,0,.275,1.157,2.466,2.466,0,0,0,.889.787,6.905,6.905,0,0,0,1.5.59c.606.177,1.3.362,2.1.563a24.247,24.247,0,0,1,2.654.787,7.616,7.616,0,0,1,2.008,1.062,4.383,4.383,0,0,1,1.252,1.524,4.971,4.971,0,0,1,.449,2.22,5.373,5.373,0,0,1-.551,2.539,4.769,4.769,0,0,1-1.527,1.724,6.688,6.688,0,0,1-2.244.984,11.557,11.557,0,0,1-2.756.315,13.709,13.709,0,0,1-4.263-.669,12.191,12.191,0,0,1-3.725-1.953l1.39-2.613a6.424,6.424,0,0,0,1.024.787,9.23,9.23,0,0,0,1.551.787,13.337,13.337,0,0,0,1.921.63,8.824,8.824,0,0,0,2.153.256,5.159,5.159,0,0,0,2.775-.63,2.059,2.059,0,0,0,.985-1.849,1.969,1.969,0,0,0-.37-1.22,3.144,3.144,0,0,0-1.048-.866,8.957,8.957,0,0,0-1.661-.669q-.983-.3-2.232-.622a23.018,23.018,0,0,1-2.511-.787,6.322,6.322,0,0,1-1.788-1.023,4.035,4.035,0,0,1-1.055-1.393,4.651,4.651,0,0,1-.367-1.94,5.664,5.664,0,0,1,.544-2.52,5.4,5.4,0,0,1,1.484-1.851,6.493,6.493,0,0,1,2.221-1.13,9.681,9.681,0,0,1,2.775-.393,10.2,10.2,0,0,1,3.622.63,12,12,0,0,1,2.913,1.547Z" transform="translate(-357.258 -148.162)" fill="#575756"/>
    <rect id="Rectangle_31416" data-name="Rectangle 31416" width="1.883" height="13.54" transform="translate(41.372)" fill="#75c7d1"/>
    <rect id="Rectangle_31417" data-name="Rectangle 31417" width="1.883" height="13.54" transform="translate(41.372 16.112)" fill="#523375"/>
    <rect id="Rectangle_31418" data-name="Rectangle 31418" width="1.883" height="13.54" transform="translate(41.372 31.903)" fill="#df8400"/>
    <rect id="Rectangle_31419" data-name="Rectangle 31419" width="1.883" height="13.54" transform="translate(41.372 47.699)" fill="#ffe50a"/>
    <path id="Path_89796" data-name="Path 89796" d="M19.214,190.885h-.061l-.027.058-5.571,12.732-3.2-7.33,2.287-5.306.058-.129H11.94l-.027.057-1.948,4.455L8.026,190.97,8,190.917H7.232l.058.134,2.284,5.306-3.2,7.33-5.56-12.74-.023-.058H0l.058.134,5.995,13.705.027.058h.6l.023-.061,3.265-7.483,3.272,7.483.023.061h.6l.027-.061,5.995-13.705.061-.13h-.729v0ZM33.8,195.008a7.449,7.449,0,0,0-1.431-2.291,6.738,6.738,0,0,0-2.115-1.527,6.2,6.2,0,0,0-2.612-.535,6.078,6.078,0,0,0-2.566.55,6.612,6.612,0,0,0-2.088,1.527,7.131,7.131,0,0,0-1.4,2.253,7.714,7.714,0,0,0,.027,5.574,7.794,7.794,0,0,0,1.435,2.313,6.757,6.757,0,0,0,2.15,1.565,6.018,6.018,0,0,0,2.589.573,6.336,6.336,0,0,0,1.783-.252,6.822,6.822,0,0,0,1.6-.695,5.659,5.659,0,0,0,1.279-1.046,4.528,4.528,0,0,0,.851-1.337l.038-.1-.127-.027-.5-.129-.076-.015-.038.076a4.188,4.188,0,0,1-.764,1.145,5.063,5.063,0,0,1-1.146.889,6.036,6.036,0,0,1-1.386.58,5.668,5.668,0,0,1-1.527.207,5.3,5.3,0,0,1-2.2-.488,6.142,6.142,0,0,1-1.863-1.328,6.832,6.832,0,0,1-1.313-1.966,7.363,7.363,0,0,1-.6-2.336H34.338v-.381a7.419,7.419,0,0,0-.535-2.8m-12,2.482a7.672,7.672,0,0,1,.535-2.378,6.274,6.274,0,0,1,1.26-1.977,5.807,5.807,0,0,1,1.832-1.3,5.569,5.569,0,0,1,4.468,0,5.92,5.92,0,0,1,1.832,1.283,6.508,6.508,0,0,1,1.286,1.966,7.321,7.321,0,0,1,.584,2.405H21.8Z" transform="translate(0 -167.209)" fill="#575756"/>
  </g>
</svg>
